<?xml version="1.0" encoding="iso-8859-1"?>
<!-- Generator: Adobe Illustrator 19.0.0, SVG Export Plug-In . SVG Version: 6.00 Build 0)  -->
<svg xmlns="http://www.w3.org/2000/svg" xmlns:xlink="http://www.w3.org/1999/xlink" version="1.1" id="Layer_1" x="0px" y="0px" viewBox="0 0 512 512" style="enable-background:new 0 0 512 512;" xml:space="preserve">
<circle style="fill:#7FC8F1;" cx="256" cy="256" r="256"/>
<path style="fill:#00ACEA;" d="M509.928,288.713L402.694,181.479c-29.192-30.775-70.474-49.971-116.24-49.971l0,0  c-58.751,0-110.09,31.643-137.971,78.8c-1.292-1.339-2.629-2.619-4.004-3.84c-1.898-2.148-3.914-4.149-6.017-6.017  c-23.32-26.395-64.56-30.963-64.56-30.963s-3.138,33.055,11.297,60.216c-29.984,3.337-55.078,23.429-55.078,23.429l96.137,96.541  v7.503l153.698,153.698C399.285,499.799,494.861,406.84,509.928,288.713z"/>
<path style="fill:#EE2600;" d="M30.121,253.133c0,0,62.52,75.666,122.059,12.546C106.726,191.768,30.121,253.133,30.121,253.133z"/>
<path style="fill:#FF3200;" d="M73.902,169.488c0,0-9.296,97.712,77.437,95.181C171.462,180.264,73.902,169.488,73.902,169.488z"/>
<path style="fill:#FF4F19;" d="M286.454,131.508L286.454,131.508c-88.474,0-160.196,71.722-160.196,160.196v37.09h320.391v-37.09  C446.649,203.23,374.927,131.508,286.454,131.508z"/>
<path style="fill:#FF3200;" d="M446.65,291.7v37.09h-160.2V131.51C374.93,131.51,446.65,203.23,446.65,291.7z"/>
<g>
	<circle style="fill:#FFFFFF;" cx="184.13" cy="289.81" r="15.96"/>
	<circle style="fill:#FFFFFF;" cx="252.34" cy="289.81" r="15.96"/>
</g>
<g>
	<circle style="fill:#E1E1E3;" cx="320.56" cy="289.81" r="15.96"/>
	<circle style="fill:#E1E1E3;" cx="388.78" cy="289.81" r="15.96"/>
</g>
<g>
	<circle style="fill:#FFFFFF;" cx="218.24" cy="229.64" r="15.96"/>
	<path style="fill:#FFFFFF;" d="M163.139,229.638c0,8.81-7.14,15.96-15.96,15.96c-4.96,0-9.39-2.26-12.31-5.81   c3.1-9.09,7.01-17.82,11.63-26.09c0.22-0.02,0.45-0.02,0.68-0.02C155.999,213.678,163.139,220.818,163.139,229.638z"/>
	<circle style="fill:#FFFFFF;" cx="286.45" cy="229.64" r="15.96"/>
</g>
<g>
	<circle style="fill:#E1E1E3;" cx="354.67" cy="229.64" r="15.96"/>
	<path style="fill:#E1E1E3;" d="M439.159,243.158c-2.45,1.55-5.36,2.44-8.47,2.44c-8.81,0-15.96-7.15-15.96-15.96   c0-7.43,5.08-13.68,11.95-15.45C431.749,223.328,435.939,233.028,439.159,243.158z"/>
</g>
<g>
	<path style="fill:#FFFFFF;" d="M200.089,169.468c0,8.81-7.15,15.96-15.96,15.96c-4.91,0-9.3-2.21-12.23-5.7   c7.44-7.61,15.63-14.49,24.46-20.5C198.689,161.998,200.089,165.578,200.089,169.468z"/>
	<circle style="fill:#FFFFFF;" cx="252.34" cy="169.47" r="15.96"/>
</g>
<g>
	<circle style="fill:#E1E1E3;" cx="320.56" cy="169.47" r="15.96"/>
	<path style="fill:#E1E1E3;" d="M401.009,179.728c-2.93,3.49-7.32,5.7-12.23,5.7c-8.81,0-15.96-7.15-15.96-15.96   c0-3.89,1.4-7.47,3.73-10.24C385.379,165.238,393.569,172.118,401.009,179.728z"/>
</g>
<rect x="126.26" y="324.18" style="fill:#FF3200;" width="320.39" height="33"/>
<rect x="126.26" y="324.18" style="fill:#EE2600;" width="320.39" height="33"/>
<path style="fill:#E1E1E3;" d="M302.41,229.64c0,8.81-7.14,15.96-15.96,15.96v-31.92C295.27,213.68,302.41,220.82,302.41,229.64z"/>
<g>
</g>
<g>
</g>
<g>
</g>
<g>
</g>
<g>
</g>
<g>
</g>
<g>
</g>
<g>
</g>
<g>
</g>
<g>
</g>
<g>
</g>
<g>
</g>
<g>
</g>
<g>
</g>
<g>
</g>
</svg>
