<?xml version="1.0" encoding="iso-8859-1"?>
<!-- Generator: Adobe Illustrator 19.0.0, SVG Export Plug-In . SVG Version: 6.00 Build 0)  -->
<svg xmlns="http://www.w3.org/2000/svg" xmlns:xlink="http://www.w3.org/1999/xlink" version="1.1" id="Layer_1" x="0px" y="0px" viewBox="0 0 512 512" style="enable-background:new 0 0 512 512;" xml:space="preserve">
<circle style="fill:#00A753;" cx="256" cy="256" r="256"/>
<path style="fill:#007F40;" d="M512,256c0-29.915-5.149-58.624-14.579-85.31l-75.506-75.506C406.585,78.488,384.594,68,360.194,68  H151.805C105.595,68,68,105.595,68,151.805v208.389c0,24.399,10.487,46.391,27.184,61.72l75.506,75.506  C197.376,506.851,226.085,512,256,512C397.385,512,512,397.385,512,256z"/>
<rect x="76.06" y="244.34" style="fill:#E1E1E3;" width="38.33" height="29.07"/>
<rect x="397.61" y="244.34" style="fill:#C8C6CC;" width="38.33" height="29.07"/>
<rect x="241.46" y="400.49" style="fill:#E1E1E3;" width="29.07" height="38.33"/>
<rect x="256" y="400.49" style="fill:#C8C6CC;" width="14.54" height="38.33"/>
<rect x="241.46" y="78.937" style="fill:#E1E1E3;" width="29.07" height="38.33"/>
<rect x="256" y="78.94" style="fill:#C8C6CC;" width="14.54" height="38.33"/>
<path style="fill:#FFFFFF;" d="M360.194,444H151.805C105.595,444,68,406.405,68,360.195v-208.39C68,105.595,105.595,68,151.805,68  h208.389C406.405,68,444,105.595,444,151.805v208.389C444,406.405,406.405,444,360.194,444z M151.805,84.118  c-37.322,0-67.687,30.364-67.687,67.687v208.389c0,37.322,30.364,67.687,67.687,67.687h208.389  c37.324,0,67.687-30.364,67.687-67.687V151.805c0-37.322-30.364-67.687-67.687-67.687H151.805z"/>
<path style="fill:#E1E1E3;" d="M360.19,68H256v16.12h104.19c37.33,0,67.69,30.36,67.69,67.69v208.38  c0,37.33-30.36,67.69-67.69,67.69H256V444h104.19c46.21,0,83.81-37.6,83.81-83.81V151.81C444,105.6,406.4,68,360.19,68z"/>
<path style="fill:#FFFFFF;" d="M256,104.815c-83.497,0-151.185,67.688-151.185,151.185S172.502,407.185,256,407.185  S407.185,339.497,407.185,256S339.497,104.815,256,104.815z M256,341.773c-47.371,0-85.773-38.402-85.773-85.773  s38.402-85.773,85.773-85.773s85.773,38.402,85.773,85.773S303.371,341.773,256,341.773z"/>
<path style="fill:#E1E1E3;" d="M256,104.81v65.42c47.37,0,85.77,38.4,85.77,85.77s-38.4,85.77-85.77,85.77v65.42  c83.5,0,151.18-67.69,151.18-151.19S339.5,104.81,256,104.81z"/>
<path style="fill:#FF4F19;" d="M285.358,107.675v67.709c-9.153-3.339-19.043-5.158-29.359-5.158s-20.206,1.819-29.359,5.158v-67.709  c9.498-1.877,19.308-2.855,29.359-2.855C266.05,104.82,275.86,105.799,285.358,107.675z"/>
<path style="fill:#FF3200;" d="M285.36,107.68v67.7c-9.15-3.33-19.04-5.15-29.36-5.15v-65.41  C266.05,104.82,275.86,105.8,285.36,107.68z"/>
<path style="fill:#FF4F19;" d="M285.358,336.616v67.709c-9.498,1.877-19.308,2.855-29.359,2.855s-19.86-0.979-29.359-2.855v-67.709  c9.153,3.339,19.043,5.158,29.359,5.158C266.316,341.773,276.205,339.954,285.358,336.616z"/>
<path style="fill:#FF3200;" d="M285.36,336.62v67.7c-9.5,1.88-19.31,2.86-29.36,2.86v-65.41  C266.32,341.77,276.21,339.95,285.36,336.62z"/>
<path style="fill:#FF4F19;" d="M176.501,288.237h-68.227c-2.268-10.385-3.454-21.173-3.454-32.237c0-9.038,0.794-17.892,2.314-26.48  h67.26c-2.706,8.336-4.168,17.235-4.168,26.48C170.226,267.41,172.448,278.29,176.501,288.237z"/>
<path style="fill:#FF3200;" d="M407.18,256c0,11.064-1.186,21.852-3.454,32.237h-68.227c4.053-9.947,6.275-20.827,6.275-32.237  c0-9.245-1.462-18.145-4.168-26.48h67.26C406.385,238.108,407.18,246.962,407.18,256z"/>
<g>
</g>
<g>
</g>
<g>
</g>
<g>
</g>
<g>
</g>
<g>
</g>
<g>
</g>
<g>
</g>
<g>
</g>
<g>
</g>
<g>
</g>
<g>
</g>
<g>
</g>
<g>
</g>
<g>
</g>
</svg>
