<?xml version="1.0" encoding="iso-8859-1"?>
<!-- Generator: Adobe Illustrator 19.0.0, SVG Export Plug-In . SVG Version: 6.00 Build 0)  -->
<svg xmlns="http://www.w3.org/2000/svg" xmlns:xlink="http://www.w3.org/1999/xlink" version="1.1" id="Layer_1" x="0px" y="0px" viewBox="0 0 512 512" style="enable-background:new 0 0 512 512;" xml:space="preserve">
<circle style="fill:#C8C6CC;" cx="256" cy="256" r="256"/>
<path style="fill:#AEADB3;" d="M510.28,285.662L310.443,85.825C297.134,70.759,277.683,61.247,256,61.247  c-40.116,0-72.636,32.52-72.636,72.636c0,8.931,1.62,17.481,4.569,25.384c-39.969,0.172-72.319,32.618-72.319,72.628  c0,8.931,1.62,17.481,4.569,25.384c-39.969,0.172-72.319,32.618-72.319,72.628c0,21.683,9.512,41.134,24.578,54.443l119.596,119.595  C212.482,509.203,233.915,512,256,512C387.35,512,495.576,413.071,510.28,285.662z"/>
<circle style="fill:#57555C;" cx="256" cy="133.88" r="72.64"/>
<path style="fill:#3C3B41;" d="M256,61.247v145.271c40.116,0,72.636-32.52,72.636-72.636S296.116,61.247,256,61.247z"/>
<circle style="fill:#78777F;" cx="221.31" cy="109.78" r="15.874"/>
<circle style="fill:#57555C;" cx="188.25" cy="231.89" r="72.64"/>
<path style="fill:#3C3B41;" d="M188.25,159.259V304.53c40.115,0,72.636-32.52,72.636-72.636  C260.886,191.779,228.365,159.259,188.25,159.259z"/>
<circle style="fill:#78777F;" cx="153.56" cy="207.79" r="15.874"/>
<circle style="fill:#57555C;" cx="323.75" cy="231.89" r="72.64"/>
<path style="fill:#3C3B41;" d="M323.75,159.259V304.53c40.116,0,72.636-32.52,72.636-72.636  C396.386,191.779,363.866,159.259,323.75,159.259z"/>
<circle style="fill:#78777F;" cx="289.06" cy="207.79" r="15.874"/>
<circle style="fill:#57555C;" cx="120.5" cy="329.91" r="72.64"/>
<path style="fill:#3C3B41;" d="M120.5,257.271v145.271c40.115,0,72.636-32.52,72.636-72.636  C193.136,289.791,160.615,257.271,120.5,257.271z"/>
<circle style="fill:#78777F;" cx="85.81" cy="305.8" r="15.874"/>
<circle style="fill:#57555C;" cx="256" cy="329.91" r="72.64"/>
<path style="fill:#3C3B41;" d="M256,257.271v145.271c40.116,0,72.636-32.52,72.636-72.636  C328.636,289.791,296.116,257.271,256,257.271z"/>
<circle style="fill:#78777F;" cx="221.31" cy="305.8" r="15.874"/>
<circle style="fill:#57555C;" cx="391.5" cy="329.91" r="72.64"/>
<path style="fill:#3C3B41;" d="M391.5,257.271v145.271c40.116,0,72.636-32.52,72.636-72.636  C464.136,289.791,431.616,257.271,391.5,257.271z"/>
<circle style="fill:#78777F;" cx="356.81" cy="305.8" r="15.874"/>
<g>
</g>
<g>
</g>
<g>
</g>
<g>
</g>
<g>
</g>
<g>
</g>
<g>
</g>
<g>
</g>
<g>
</g>
<g>
</g>
<g>
</g>
<g>
</g>
<g>
</g>
<g>
</g>
<g>
</g>
</svg>
