<?xml version="1.0" encoding="iso-8859-1"?>
<!-- Generator: Adobe Illustrator 19.0.0, SVG Export Plug-In . SVG Version: 6.00 Build 0)  -->
<svg xmlns="http://www.w3.org/2000/svg" xmlns:xlink="http://www.w3.org/1999/xlink" version="1.1" id="Layer_1" x="0px" y="0px" viewBox="0 0 512 512" style="enable-background:new 0 0 512 512;" xml:space="preserve">
<circle style="fill:#FFDF47;" cx="256" cy="256" r="256"/>
<path style="fill:#FFD400;" d="M512,256c0-9.308-0.51-18.495-1.479-27.546l-44.335-44.335c-4.311-6.58-11.327-11.513-20.376-12.727  l-49.722-6.665L280.213,49.02c-12.039-18.4-40.458-17.24-50.411,3.502l-42.928,89.458c-4.236,8.828-12.633,14.929-22.338,16.229  L66.19,171.393c-24.166,3.24-33.838,33.007-16.191,49.832l78.621,78.438c2.092,5.08,2.744,10.725,1.726,16.293l-17.853,97.606  c-2.281,12.469,3.476,23.415,12.537,29.436l58.613,58.613C206.589,508.362,230.868,512,256,512C397.385,512,512,397.385,512,256z"/>
<path style="fill:#FF3200;" d="M282.198,52.522l42.928,89.458c4.236,8.828,12.633,14.928,22.338,16.229l98.346,13.183  c24.166,3.24,33.838,33.007,16.191,49.832l-71.814,68.472c-7.087,6.757-10.294,16.628-8.532,26.259l17.853,97.606  c4.387,23.985-20.935,42.382-42.39,30.798l-87.312-47.141c-8.616-4.652-18.995-4.652-27.611,0l-87.312,47.141  c-21.455,11.584-46.777-6.813-42.39-30.798l17.853-97.606c1.762-9.632-1.446-19.503-8.532-26.259l-71.815-68.472  c-17.647-16.825-7.975-46.593,16.192-49.832l98.346-13.183c9.705-1.301,18.102-7.402,22.338-16.229l42.928-89.458  C240.35,30.539,271.65,30.539,282.198,52.522z"/>
<path style="fill:#EE2600;" d="M390.19,289.7c-7.09,6.75-10.3,16.62-8.54,26.26l17.86,97.6c4.38,23.99-20.94,42.38-42.39,30.8  l-87.31-47.14c-4.31-2.32-9.06-3.49-13.81-3.49V36.04c10.46,0,20.92,5.49,26.2,16.48l42.93,89.46c4.23,8.83,12.63,14.93,22.33,16.23  l98.35,13.18c24.17,3.24,33.84,33.01,16.19,49.83L390.19,289.7z"/>
<g>
	<circle style="fill:#FF633E;" cx="87.14" cy="201.91" r="15.995"/>
	<circle style="fill:#FF633E;" cx="160.95" cy="197.19" r="15.995"/>
	<circle style="fill:#FF633E;" cx="128.91" cy="236.14" r="22.2"/>
</g>
<g>
	<circle style="fill:#FF4F19;" cx="358.06" cy="395.25" r="15.995"/>
	<circle style="fill:#FF4F19;" cx="298.44" cy="362.39" r="15.995"/>
</g>
<g>
	<circle style="fill:#FF633E;" cx="155.83" cy="395.25" r="18.645"/>
	<circle style="fill:#FF633E;" cx="186.18" cy="346.4" r="15.995"/>
	<circle style="fill:#FF633E;" cx="256" cy="88.69" r="15.995"/>
</g>
<g>
	<circle style="fill:#FF4F19;" cx="288.92" cy="135.39" r="18.815"/>
	<circle style="fill:#FF4F19;" cx="418.24" cy="204.97" r="15.995"/>
	<circle style="fill:#FF4F19;" cx="385.9" cy="236.14" r="21.14"/>
	<circle style="fill:#FF4F19;" cx="348.42" cy="341.49" r="22.2"/>
	<path style="fill:#FF4F19;" d="M267.31,100c-3.13,3.12-7.22,4.68-11.31,4.68V72.69c4.09,0,8.18,1.57,11.31,4.69   C273.56,83.62,273.56,93.75,267.31,100z"/>
</g>
<g>
</g>
<g>
</g>
<g>
</g>
<g>
</g>
<g>
</g>
<g>
</g>
<g>
</g>
<g>
</g>
<g>
</g>
<g>
</g>
<g>
</g>
<g>
</g>
<g>
</g>
<g>
</g>
<g>
</g>
</svg>
