<?xml version="1.0" encoding="iso-8859-1"?>
<!-- Generator: Adobe Illustrator 19.0.0, SVG Export Plug-In . SVG Version: 6.00 Build 0)  -->
<svg xmlns="http://www.w3.org/2000/svg" xmlns:xlink="http://www.w3.org/1999/xlink" version="1.1" id="Layer_1" x="0px" y="0px" viewBox="0 0 512 512" style="enable-background:new 0 0 512 512;" xml:space="preserve">
<circle style="fill:#C8C6CC;" cx="256" cy="256" r="256"/>
<path style="fill:#AEADB3;" d="M512,256c0-30.422-5.319-59.599-15.057-86.667l-57.385-57.999c-3.276-4.371-9.279-6.088-14.473-3.786  l-6.095,2.702c-6.034,2.674-8.782,9.799-6.108,15.833l1.891,4.266c-32.903,6.36-235.746,45.739-252.196,53.031  c-17.908,7.938-33.862,15.01-33.862,15.01c-42.228,18.718-62.054,67.104-45.831,109.768c-5.983,1.279-12.878,1.774-18.892-0.304  l-13.785-15.805l-10.51,3.248c2.183,7.062,5.584,12.679,10.157,16.796L88.96,351.02l-7.6,12.876  c-10.413,17.642-4.819,38.454,9.383,49.627l85.93,85.93C201.651,507.585,228.308,512,256,512C397.385,512,512,397.385,512,256z"/>
<path style="fill:#FFFFFF;" d="M73.126,320.239c-4.955,0-10.029-0.761-14.788-2.774c-9.001-3.81-15.273-11.269-18.642-22.169  l10.51-3.248c2.396,7.754,6.45,12.75,12.393,15.275c14.37,6.104,34.891-4.101,35.097-4.205l4.979,9.809  C101.907,313.318,88.064,320.239,73.126,320.239z"/>
<path style="fill:#57555C;" d="M445.022,187.562l-25.745-58.082c0,0-238.793,45.963-256.701,53.9  c-17.908,7.938-33.862,15.01-33.862,15.01c-43.68,19.361-63.394,70.466-44.033,114.146s70.466,63.395,114.146,44.033  c0,0,15.954-7.072,33.863-15.009C250.597,333.622,445.022,187.562,445.022,187.562z"/>
<g>
	<path style="fill:#3C3B41;" d="M232.695,341.56c-17.91,7.938-33.863,15.01-33.863,15.01   c-43.681,19.362-94.792-0.348-114.154-44.029l347.476-154.018l12.87,29.036c0,0-10.683,8.028-27.268,20.411   c-7.658,5.724-16.585,12.383-26.3,19.61c-30.425,22.641-68.605,50.886-100.043,73.636c-3.007,2.175-5.957,4.303-8.829,6.363   c-1.07,0.77-2.14,1.539-3.191,2.301c-0.078,0.046-0.143,0.096-0.217,0.151c-1.121,0.803-2.232,1.602-3.33,2.384   c-0.811,0.589-1.626,1.169-2.422,1.741c-1.297,0.925-2.579,1.832-3.824,2.723c-1.621,1.156-3.204,2.273-4.745,3.361   C248.463,331.825,236.525,339.862,232.695,341.56z"/>
	<path style="fill:#3C3B41;" d="M391.456,227.579l-37.803-85.287c11.879-2.345,22.808-4.487,32.192-6.317l31.911,71.995   C410.098,213.693,401.171,220.352,391.456,227.579z"/>
</g>
<path style="fill:#2A2A2C;" d="M391.456,227.579l-18.9-42.639l29.246-12.963l15.954,35.993  C410.098,213.693,401.171,220.352,391.456,227.579z"/>
<path style="fill:#3C3B41;" d="M264.854,320.239l-64.877-146.366c9.496-2.12,20.308-4.451,31.932-6.902l59.503,134.244  C281.787,308.173,272.802,314.627,264.854,320.239z"/>
<path style="fill:#2A2A2C;" d="M264.854,320.239l-32.438-73.183l29.246-12.963l29.752,67.122c-3.007,2.175-5.957,4.303-8.829,6.363  c-1.07,0.77-2.14,1.539-3.191,2.301c-0.078,0.046-0.143,0.096-0.217,0.151c-1.121,0.803-2.232,1.602-3.33,2.384  c-0.811,0.589-1.626,1.169-2.422,1.741c-1.297,0.925-2.579,1.832-3.824,2.723C267.978,318.034,266.395,319.151,264.854,320.239z"/>
<path style="fill:#3C3B41;" d="M465.172,197.988l-6.095,2.702c-6.034,2.674-13.159-0.074-15.833-6.108l-30.362-68.498  c-2.674-6.034,0.074-13.159,6.108-15.833l6.095-2.701c6.034-2.674,13.159,0.074,15.833,6.108l30.362,68.498  C473.954,188.188,471.206,195.313,465.172,197.988z"/>
<path style="fill:#2A2A2C;" d="M459.077,200.689l6.095-2.701c6.034-2.674,8.782-9.799,6.108-15.833l-15.181-34.25l-28.036,12.427  l15.181,34.25C445.918,200.615,453.043,203.363,459.077,200.689z"/>
<path style="fill:#FF9A00;" d="M132.08,276.043c14.636-25.923,51.972-25.923,66.608,0l24.938,44.17l25.783,43.682  c15.132,25.637-3.536,57.971-33.304,57.684l-50.721-0.488l-50.721,0.488c-29.768,0.286-48.436-32.048-33.304-57.684l25.783-43.682  L132.08,276.043z"/>
<path style="fill:#E67500;" d="M249.409,363.895l-25.783-43.682l-24.938-44.17c-7.318-12.962-20.311-19.442-33.304-19.442v164.49  l50.721,0.488C245.873,421.865,264.541,389.531,249.409,363.895z"/>
<circle style="fill:#FFDF47;" cx="165.38" cy="317" r="27"/>
<path style="fill:#FFD400;" d="M192.384,317c0-14.912-12.088-27-27-27v54C180.296,344,192.384,331.912,192.384,317z"/>
<g>
</g>
<g>
</g>
<g>
</g>
<g>
</g>
<g>
</g>
<g>
</g>
<g>
</g>
<g>
</g>
<g>
</g>
<g>
</g>
<g>
</g>
<g>
</g>
<g>
</g>
<g>
</g>
<g>
</g>
</svg>
