<?xml version="1.0" encoding="iso-8859-1"?>
<!-- Generator: Adobe Illustrator 19.0.0, SVG Export Plug-In . SVG Version: 6.00 Build 0)  -->
<svg xmlns="http://www.w3.org/2000/svg" xmlns:xlink="http://www.w3.org/1999/xlink" version="1.1" id="Layer_1" x="0px" y="0px" viewBox="0 0 512 512" style="enable-background:new 0 0 512 512;" xml:space="preserve">
<circle style="fill:#802897;" cx="256" cy="256" r="256"/>
<path style="fill:#5C1B6F;" d="M512,256c0-9.298-0.509-18.476-1.475-27.517L380.798,98.756  c-5.814-7.835-15.126-12.939-25.574-12.939h-11.037l-32.254-32.122c-14.912-16.733-36.611-27.282-60.79-27.282  c-44.982,0-81.448,36.465-81.448,81.448c0,18.133,5.933,34.878,15.954,48.412c-11.424,9.292-24.189,24.008-31.674,46.464  c-15.917,47.752-10.233,77.313-10.233,128.477c0,51.163,0,129.613,0,129.613l41.159,41.159C207.475,508.5,231.328,512,256,512  C397.385,512,512,397.385,512,256z"/>
<path style="fill:#FF8900;" d="M285.672,418.439h-16.241v-53.355h-24.868v53.592c-11.387,1.543-20.202,11.305-20.202,23.109v11.376  h18.434v-11.376c0-2.708,2.204-4.912,4.911-4.912h37.966c2.709,0,4.913,2.204,4.913,4.912v11.376h18.433v-11.376  C309.017,428.911,298.544,418.439,285.672,418.439z"/>
<path style="fill:#E67500;" d="M285.672,418.439h-16.241v-53.355h-13.913v71.789h30.154c2.709,0,4.913,2.204,4.913,4.911v11.376  h18.433v-11.376C309.017,428.911,298.544,418.439,285.672,418.439z"/>
<path style="fill:#FFFFFF;" d="M317.125,155.61c0,0,24.673,14.904,24.673,81.606c0,72.007-42.159,162.215-158.651,174.199  l29.214-255.804h104.764V155.61z"/>
<path style="fill:#E1E1E3;" d="M341.803,237.21c0,54.47-24.12,119.345-86.286,152.911V155.605h61.607  C317.124,155.605,341.803,170.511,341.803,237.21z"/>
<path style="fill:#00A753;" d="M209.684,142.223c0,0-39.794,12.761-55.711,60.514c-15.917,47.752-10.233,77.313-10.233,128.477  s0,129.613,0,129.613s144.394-88.683,144.394-186.461c0-97.779,0-132.142,0-132.142L209.684,142.223L209.684,142.223z"/>
<path style="fill:#007F40;" d="M288.134,142.228c0,0,0,31.267,0,119.029v13.103c0,0.675-0.01,1.349-0.021,2.035  c-0.011,0.548-0.031,1.107-0.053,1.666c0,0.158-0.011,0.327-0.021,0.495c-0.021,0.622-0.053,1.255-0.095,1.887  c-1.676,27.947-14.759,55.008-32.427,79.296V142.228H288.134z"/>
<path style="fill:#FF4F19;" d="M227.967,320.704h-25.046c-24.845,0-46.876-12.637-60-31.796c0.281,12.828,0.82,26.539,0.82,42.305  c0,51.163,0,129.613,0,129.613S272.57,381.686,286.833,290.5C273.595,308.76,252.114,320.704,227.967,320.704z"/>
<path style="fill:#FF3200;" d="M286.837,290.5c-3.816,24.362-15.802,47.86-31.32,69.218v-44.476  C268.104,310.044,278.941,301.4,286.837,290.5z"/>
<path style="fill:#7FC8F1;" d="M288.134,261.261c-13.105,19.292-35.22,32.031-60.167,32.031h-25.046  c-24.774,0-46.748-12.568-59.886-31.635c-0.387,8.912-0.321,17.845-0.115,27.252c13.125,19.159,35.156,31.796,60,31.796h25.046  c24.147,0,45.628-11.944,58.866-30.204c0.836-5.343,1.301-10.724,1.301-16.135C288.134,269.863,288.134,265.497,288.134,261.261z"/>
<path style="fill:#00ACEA;" d="M288.134,261.256v13.103c0,0.675-0.01,1.349-0.021,2.035c-0.011,0.548-0.031,1.107-0.053,1.666  c0,0.158-0.011,0.327-0.021,0.495c-0.021,0.622-0.053,1.255-0.095,1.887c-0.211,3.363-0.59,6.715-1.107,10.057  c-7.896,10.9-18.733,19.545-31.32,24.742v-27.409C268.8,282.351,280.143,273.021,288.134,261.256z"/>
<path style="fill:#FFCF00;" d="M308.571,124.518c0,12.968,10.61,23.577,23.577,23.577h13.64c12.967,0,23.577-10.61,23.577-23.577  v-3.834H308.57v3.834H308.571z"/>
<path style="fill:#FFE047;" d="M387.058,117.652c0-17.509-14.326-31.835-31.835-31.835h-18.417  c-17.509,0-31.835,14.326-31.835,31.835v5.177h82.087L387.058,117.652L387.058,117.652z"/>
<circle style="fill:#FF4F19;" cx="251.14" cy="107.86" r="81.45"/>
<path style="fill:#FF3200;" d="M332.589,107.861c0,43.517-34.124,79.064-77.072,81.331V26.53  C298.465,28.796,332.589,64.344,332.589,107.861z"/>
<circle style="fill:#3C3B41;" cx="283.9" cy="85.82" r="15.736"/>
<g>
</g>
<g>
</g>
<g>
</g>
<g>
</g>
<g>
</g>
<g>
</g>
<g>
</g>
<g>
</g>
<g>
</g>
<g>
</g>
<g>
</g>
<g>
</g>
<g>
</g>
<g>
</g>
<g>
</g>
</svg>
