<?xml version="1.0" encoding="iso-8859-1"?>
<!-- Generator: Adobe Illustrator 19.0.0, SVG Export Plug-In . SVG Version: 6.00 Build 0)  -->
<svg xmlns="http://www.w3.org/2000/svg" xmlns:xlink="http://www.w3.org/1999/xlink" version="1.1" id="Layer_1" x="0px" y="0px" viewBox="0 0 512 512" style="enable-background:new 0 0 512 512;" xml:space="preserve">
<circle style="fill:#7FC8F1;" cx="256" cy="256" r="256"/>
<path style="fill:#00ACEA;" d="M512,256c0-16.734-1.624-33.085-4.69-48.923l-23.479-23.479  c-29.822,12.621-73.464,14.686-107.754-6.479l-39.864-39.786C309.171,108.85,281.718,99.822,256,99.821  c-29.956,0.001-62.266,12.223-93.541,53.206c-34.785,45.584-95.957,46.794-134.291,30.571L78.814,351l160.441,160.441  C244.792,511.798,250.372,512,256,512C397.385,512,512,397.385,512,256z"/>
<path style="fill:#3C3B41;" d="M349.541,153.027C318.266,112.044,285.955,99.823,256,99.821  c-29.956,0.001-62.266,12.223-93.541,53.206c-34.785,45.584-95.957,46.794-134.291,30.571L78.814,351h354.372l50.646-167.402  C445.497,199.821,384.326,198.611,349.541,153.027z"/>
<path style="fill:#171719;" d="M483.83,183.6L433.19,351H256V99.82c29.96,0,62.27,12.22,93.54,53.21  C384.33,198.61,445.5,199.82,483.83,183.6z"/>
<polygon style="fill:#FFFFFF;" points="59.99,288.78 69.168,319.119 442.832,319.119 452.01,288.78 "/>
<polygon style="fill:#C8C6CC;" points="452.01,288.78 442.83,319.12 256,319.12 256,288.78 "/>
<g>
	<path style="fill:#FFFFFF;" d="M158.938,201.449c1.704-4.696,6.109-7.746,10.95-8.113c-3.553-3.195-5.025-8.21-3.321-12.906   c2.304-6.332,9.517-9.682,16.121-7.474c6.603,2.217,10.089,9.149,7.784,15.481c-0.203,0.552-0.436,1.075-0.707,1.578l7.804,2.614   c-0.039,0.803-0.058,1.617-0.058,2.44c0,6.342,1.007,12.548,3.001,18.493l-17.205-5.761c-0.116,0.552-0.271,1.104-0.465,1.656   c-2.304,6.332-9.527,9.682-16.12,7.475C160.12,214.714,156.634,207.781,158.938,201.449z"/>
	<path style="fill:#FFFFFF;" d="M212.596,246.674l-22.83,7.649c0.271,0.503,0.503,1.026,0.707,1.578   c2.304,6.342-1.181,13.274-7.784,15.481c-6.603,2.208-13.816-1.133-16.121-7.474c-1.704-4.696-0.232-9.711,3.321-12.896   c-4.841-0.368-9.246-3.418-10.95-8.114c-2.304-6.342,1.181-13.274,7.784-15.481c6.593-2.217,13.816,1.133,16.12,7.475   c0.194,0.552,0.348,1.104,0.465,1.656l14.746-4.938C200.077,238.735,205.577,244.408,212.596,246.674z"/>
	<path style="fill:#FFFFFF;" d="M352.462,233.507c1.452,2.827,1.762,6.187,0.6,9.391c-1.704,4.696-6.109,7.746-10.96,8.114   c3.563,3.185,5.035,8.201,3.331,12.896c-0.794,2.198-2.179,4.028-3.931,5.402c-0.494,0.387-1.026,0.746-1.578,1.055   c-2.362,1.346-5.17,1.946-8.007,1.607c-0.513-0.068-1.046-0.164-1.559-0.29c-0.349-0.087-0.697-0.184-1.046-0.3   c-6.603-2.207-10.089-9.14-7.784-15.481c0.194-0.552,0.436-1.075,0.707-1.578l-22.83-7.649c7.02-2.266,12.519-7.939,14.542-15.065   l14.746,4.938c0.116-0.552,0.271-1.114,0.465-1.656c2.304-6.342,9.527-9.692,16.13-7.475c1.956,0.649,3.631,1.723,4.967,3.069   c0.223,0.223,0.436,0.455,0.649,0.697c0.203,0.242,0.397,0.484,0.581,0.736C351.852,232.432,352.172,232.955,352.462,233.507z"/>
	<path style="fill:#FFFFFF;" d="M328.693,207.801l-17.205,5.761v-0.01c1.994-5.945,3.001-12.141,3.001-18.483   c0-0.823-0.019-1.636-0.058-2.44l7.804-2.614c-0.271-0.504-0.513-1.026-0.707-1.578c-2.304-6.342,1.181-13.264,7.784-15.481   c3.331-1.113,6.826-0.813,9.769,0.581c0.571,0.271,1.123,0.581,1.656,0.939c0.794,0.533,1.53,1.152,2.169,1.849   c0.213,0.232,0.426,0.474,0.629,0.726c0.397,0.494,0.755,1.026,1.075,1.588c0.32,0.571,0.591,1.171,0.823,1.801   c1.704,4.686,0.232,9.701-3.331,12.896c4.851,0.368,9.256,3.418,10.96,8.113c1.162,3.205,0.852,6.564-0.6,9.382   c-0.29,0.552-0.61,1.084-0.978,1.588c-0.184,0.252-0.378,0.504-0.581,0.736c-0.213,0.242-0.426,0.474-0.649,0.697   c-1.336,1.355-3.011,2.421-4.967,3.079c-5.296,1.772-10.989-0.039-14.232-4.086c-0.397-0.503-0.755-1.036-1.075-1.597   c-0.319-0.571-0.59-1.162-0.823-1.791C328.964,208.904,328.809,208.362,328.693,207.801z"/>
</g>
<g>
	<path style="fill:#C8C6CC;" d="M352.462,233.507c1.452,2.827,1.762,6.187,0.6,9.391c-1.704,4.696-6.109,7.746-10.96,8.114   c3.563,3.185,5.035,8.201,3.331,12.896c-0.794,2.198-2.179,4.028-3.931,5.402c-0.494,0.387-1.026,0.746-1.578,1.055   c-2.067,1.177-4.475,1.784-6.945,1.691c-0.353-0.013-0.707-0.041-1.062-0.083c-0.513-0.058-1.046-0.155-1.559-0.29   c-0.349-0.087-0.697-0.184-1.046-0.3c-6.603-2.207-10.089-9.14-7.784-15.481c0.194-0.552,0.436-1.075,0.707-1.578l-22.83-7.649   c7.02-2.266,12.519-7.939,14.542-15.065l14.746,4.938c0.116-0.552,0.271-1.114,0.465-1.656c2.304-6.342,9.527-9.692,16.13-7.475   c1.956,0.649,3.631,1.723,4.967,3.069c0.223,0.223,0.436,0.455,0.649,0.697c0.203,0.242,0.397,0.484,0.581,0.736   C351.852,232.432,352.181,232.955,352.462,233.507z"/>
	<path style="fill:#C8C6CC;" d="M311.488,213.552c1.994-5.945,3.001-12.141,3.001-18.483c0-0.823-0.019-1.636-0.058-2.44   l7.804-2.614c-0.271-0.504-0.513-1.026-0.707-1.578c-2.304-6.342,1.181-13.264,7.784-15.481c3.331-1.113,6.826-0.813,9.769,0.581   c0.571,0.271,1.123,0.59,1.656,0.939c0.784,0.533,1.52,1.152,2.169,1.849c0.213,0.232,0.426,0.474,0.629,0.726   c0.397,0.494,0.755,1.026,1.075,1.588c0.32,0.571,0.591,1.171,0.823,1.801c1.704,4.686,0.232,9.701-3.331,12.896   c4.851,0.368,9.256,3.418,10.96,8.113c1.162,3.205,0.852,6.564-0.6,9.382c-0.281,0.552-0.61,1.084-0.978,1.588   c-0.184,0.252-0.378,0.504-0.581,0.736c-0.213,0.242-0.426,0.474-0.649,0.697c-1.336,1.355-3.011,2.421-4.967,3.079   c-5.296,1.772-10.989-0.039-14.232-4.086c-0.397-0.503-0.755-1.036-1.075-1.597c-0.319-0.571-0.59-1.162-0.823-1.791   c-0.194-0.552-0.349-1.094-0.465-1.656v-0.01L311.488,213.552z"/>
</g>
<path style="fill:#FFFFFF;" d="M300.253,214.565c2.521-5.846,3.923-12.286,3.923-19.056c0-26.607-21.57-48.177-48.177-48.177  s-48.177,21.57-48.177,48.177c0,6.77,1.403,13.211,3.923,19.056c-2.595,2.497-4.213,6.003-4.213,9.888  c0,7.579,6.144,13.723,13.723,13.723c2.992,0,5.758-0.961,8.014-2.586c1.73,1.156,3.542,2.197,5.42,3.125v15.133  c0,3.596,2.942,6.538,6.538,6.538h0.783v-17.487h6.296v17.487h4.547v-17.487h6.295v17.487h4.547v-17.487h6.296v17.487h0.783  c3.596,0,6.538-2.942,6.538-6.538v-15.133c1.878-0.928,3.69-1.969,5.42-3.125c2.255,1.626,5.021,2.586,8.014,2.586  c7.579,0,13.723-6.144,13.723-13.723C304.466,220.568,302.848,217.062,300.253,214.565z M239.145,203.603h-4.774  c-5.065,0-9.208-4.144-9.208-9.209v-4.774c0-5.065,4.144-9.209,9.208-9.209h4.774c5.065,0,9.209,4.144,9.209,9.209v4.774  C248.354,199.459,244.21,203.603,239.145,203.603z M261.801,222.645h-5.802h-5.802c-2.763,0-4.49-2.991-3.109-5.384l2.901-5.025  l2.901-5.025c1.382-2.393,4.836-2.393,6.217,0l2.901,5.025l2.901,5.025C266.291,219.654,264.564,222.645,261.801,222.645z   M286.835,194.394c0,5.065-4.144,9.209-9.208,9.209h-4.774c-5.065,0-9.209-4.144-9.209-9.209v-4.774  c0-5.065,4.144-9.209,9.209-9.209h4.774c5.065,0,9.208,4.144,9.208,9.209L286.835,194.394L286.835,194.394z"/>
<path style="fill:#C8C6CC;" d="M300.254,214.563c2.521-5.841,3.92-12.281,3.92-19.055c0-26.605-21.57-48.175-48.175-48.175v58.085  c1.21,0,2.421,0.594,3.109,1.793l2.898,5.025l2.904,5.025c1.383,2.393-0.344,5.385-3.109,5.385h-5.802V242.9h3.148v17.483h4.547  V242.9h6.296v17.483h0.783c3.592,0,6.535-2.943,6.535-6.535v-15.135c1.882-0.927,3.692-1.971,5.419-3.126  c2.26,1.627,5.025,2.587,8.017,2.587c7.578,0,13.725-6.146,13.725-13.725C304.468,220.57,302.847,217.061,300.254,214.563z   M286.835,194.392c0,5.069-4.142,9.211-9.211,9.211h-4.769c-5.069,0-9.211-4.142-9.211-9.211v-4.775  c0-5.064,4.142-9.205,9.211-9.205h4.769c5.069,0,9.211,4.142,9.211,9.205V194.392z"/>
<g>
</g>
<g>
</g>
<g>
</g>
<g>
</g>
<g>
</g>
<g>
</g>
<g>
</g>
<g>
</g>
<g>
</g>
<g>
</g>
<g>
</g>
<g>
</g>
<g>
</g>
<g>
</g>
<g>
</g>
</svg>
