<?xml version="1.0" encoding="iso-8859-1"?>
<!-- Generator: Adobe Illustrator 19.0.0, SVG Export Plug-In . SVG Version: 6.00 Build 0)  -->
<svg xmlns="http://www.w3.org/2000/svg" xmlns:xlink="http://www.w3.org/1999/xlink" version="1.1" id="Layer_1" x="0px" y="0px" viewBox="0 0 512 512" style="enable-background:new 0 0 512 512;" xml:space="preserve">
<circle style="fill:#FF4F19;" cx="256" cy="256" r="256"/>
<path style="fill:#EE2600;" d="M512,256c0-25.477-3.74-50.076-10.669-73.301L394.756,76.124L196.744,274.136  c-16.015-6.088-34.688-3.207-48.177,8.659c-18.59-16.354-47.033-15.657-64.782,2.092c-17.75,17.749-18.446,46.193-2.093,64.783  c-16.354,18.59-15.657,47.033,2.092,64.782l80.899,80.762C193.049,506.048,223.827,512,256,512C397.385,512,512,397.385,512,256z"/>
<g>
	
		<rect x="372.158" y="134.538" transform="matrix(-0.7071 -0.7071 0.7071 -0.7071 594.477 548.0946)" style="fill:#ECB300;" width="77.189" height="32.779"/>
	
		<rect x="333.201" y="173.498" transform="matrix(-0.7071 -0.7071 0.7071 -0.7071 500.424 587.0566)" style="fill:#ECB300;" width="77.189" height="32.779"/>
</g>
<rect x="284.683" y="46.555" transform="matrix(-0.7071 -0.7071 0.7071 -0.7071 381.6758 546.5235)" style="fill:#FFE047;" width="38.688" height="295.317"/>
<path style="fill:#FFD400;" d="M213.35,414.451c17.748-17.748,18.445-46.192,2.092-64.782c16.354-18.589,15.657-47.033-2.092-64.782  c-17.75-17.749-46.193-18.446-64.782-2.092c-18.59-16.354-47.033-15.657-64.782,2.092c-17.75,17.749-18.446,46.193-2.093,64.783  c-16.354,18.59-15.657,47.033,2.092,64.782c17.749,17.749,46.192,18.446,64.782,2.092C167.157,432.897,195.6,432.2,213.35,414.451z   M100.418,333.594c-8.843-8.843-8.844-23.232,0-32.076s23.232-8.843,32.076,0c8.843,8.843,8.844,23.232,0,32.076  S109.261,342.437,100.418,333.594z M164.642,301.519c8.844-8.844,23.232-8.843,32.076,0s8.844,23.232,0,32.076  s-23.232,8.843-32.076,0C155.799,324.752,155.798,310.363,164.642,301.519z M132.493,397.819c-8.844,8.844-23.232,8.843-32.076,0  c-8.843-8.843-8.844-23.232,0-32.076s23.232-8.843,32.076,0C141.336,374.587,141.337,388.976,132.493,397.819z M196.718,397.819  c-8.844,8.844-23.232,8.843-32.076,0s-8.844-23.232,0-32.076s23.233-8.843,32.076,0S205.562,388.975,196.718,397.819z"/>
<rect x="163.203" y="191.383" transform="matrix(-0.7071 0.7071 -0.7071 -0.7071 672.8401 123.4072)" style="fill:#FFCF00;" width="295.317" height="19.34"/>
<path style="fill:#ECB300;" d="M215.445,349.669c16.355-18.59,15.655-47.037-2.093-64.785l-16.638,16.638  c8.846,8.846,8.846,23.228,0,32.074c-8.839,8.839-23.228,8.846-32.074,0l-32.145,32.145c8.846,8.846,8.839,23.236,0,32.074  c-8.846,8.846-23.228,8.846-32.074,0l-16.638,16.638c17.748,17.748,46.195,18.448,64.785,2.093  c18.59,16.355,47.037,15.655,64.785-2.093C231.1,396.706,231.8,368.259,215.445,349.669z M164.639,397.816  c-8.839-8.839-8.846-23.229,0-32.074c8.846-8.846,23.236-8.839,32.074,0c8.846,8.846,8.853,23.236,0.007,32.081  C187.875,406.669,173.485,406.662,164.639,397.816z"/>
<g>
</g>
<g>
</g>
<g>
</g>
<g>
</g>
<g>
</g>
<g>
</g>
<g>
</g>
<g>
</g>
<g>
</g>
<g>
</g>
<g>
</g>
<g>
</g>
<g>
</g>
<g>
</g>
<g>
</g>
</svg>
