<?xml version="1.0" encoding="iso-8859-1"?>
<!-- Generator: Adobe Illustrator 19.0.0, SVG Export Plug-In . SVG Version: 6.00 Build 0)  -->
<svg xmlns="http://www.w3.org/2000/svg" xmlns:xlink="http://www.w3.org/1999/xlink" version="1.1" id="Layer_1" x="0px" y="0px" viewBox="0 0 512 512" style="enable-background:new 0 0 512 512;" xml:space="preserve">
<circle style="fill:#7FC8F1;" cx="256" cy="256" r="256"/>
<path style="fill:#00ACEA;" d="M512,256c0-6.256-0.236-12.456-0.677-18.6L309.316,35.393l-54.211,17.524L52.917,255.105  l-17.524,54.21L237.4,511.323c6.144,0.441,12.344,0.677,18.6,0.677C397.385,512,512,397.385,512,256z"/>
<polygon style="fill:#FF9A00;" points="476.607,202.684 309.316,35.393 255.105,52.917 52.917,255.105 35.393,309.316   202.684,476.607 256.895,459.083 459.083,256.895 "/>
<polygon style="fill:#E67500;" points="459.081,256.891 256.891,459.081 202.684,476.603 119.04,392.96 392.96,119.04   476.603,202.684 "/>
<g>
	
		<rect x="177.575" y="78.447" transform="matrix(-0.7071 -0.7071 0.7071 -0.7071 199.7185 477.268)" style="fill:#C06200;" width="42.26" height="237.648"/>
	
		<rect x="235.585" y="136.455" transform="matrix(-0.7071 -0.7071 0.7071 -0.7071 257.7301 617.3127)" style="fill:#C06200;" width="42.26" height="237.648"/>
</g>
<g>
	
		<rect x="145.355" y="252.194" transform="matrix(-0.7071 0.7071 -0.7071 -0.7071 636.7808 261.7544)" style="fill:#9A4C00;" width="237.648" height="21.13"/>
	
		<rect x="293.595" y="194.463" transform="matrix(-0.7071 -0.7071 0.7071 -0.7071 315.7417 757.3574)" style="fill:#9A4C00;" width="42.26" height="237.648"/>
</g>
<rect x="201.33" y="150.131" transform="matrix(-0.7071 -0.7071 0.7071 -0.7071 472.2269 528.4717)" style="fill:#AB3CCC;" width="288.467" height="32.608"/>
<rect x="380.245" y="145.313" transform="matrix(-0.7071 0.7071 -0.7071 -0.7071 830.6978 90.7681)" style="fill:#681F7B;" width="32.61" height="144.229"/>
<rect x="22.204" y="329.257" transform="matrix(-0.7071 -0.7071 0.7071 -0.7071 39.7791 707.598)" style="fill:#AB3CCC;" width="288.467" height="32.608"/>
<rect x="201.11" y="324.439" transform="matrix(-0.7071 0.7071 -0.7071 -0.7071 651.5562 523.2222)" style="fill:#681F7B;" width="32.61" height="144.229"/>
<g>
</g>
<g>
</g>
<g>
</g>
<g>
</g>
<g>
</g>
<g>
</g>
<g>
</g>
<g>
</g>
<g>
</g>
<g>
</g>
<g>
</g>
<g>
</g>
<g>
</g>
<g>
</g>
<g>
</g>
</svg>
