<?xml version="1.0" encoding="iso-8859-1"?>
<!-- Generator: Adobe Illustrator 19.0.0, SVG Export Plug-In . SVG Version: 6.00 Build 0)  -->
<svg xmlns="http://www.w3.org/2000/svg" xmlns:xlink="http://www.w3.org/1999/xlink" version="1.1" id="Layer_1" x="0px" y="0px" viewBox="0 0 512 512" style="enable-background:new 0 0 512 512;" xml:space="preserve">
<circle style="fill:#C8C6CC;" cx="256" cy="256" r="256"/>
<path style="fill:#AEADB3;" d="M512,256c0-26.908-4.162-52.841-11.859-77.204l-95.66-95.66c-2.39-2.39-5.034-3.331-9.249-0.311  c-4.215,3.02-89.281,67.772-94.773,72.069s-8.526,8.924-3.746,13.704c0.684,0.684,17.546,17.546,18.844,18.844l-35.821,35.821  l-68.196-68.369c-5.492-4.297-90.558-69.049-94.773-72.069s-6.859-2.079-9.249,0.311s-29.076,29.076-31.466,31.466  s-3.331,5.033-0.311,9.249c3.02,4.215,67.772,89.281,72.069,94.773l68.369,68.196L91,411.999c-3.99,3.99-3.99,10.52,0,14.511  c0,0,33.891,33.891,65.386,65.385C187.005,504.841,220.666,512,256,512C397.385,512,512,397.385,512,256z"/>
<path style="fill:#C06200;" d="M419.428,428.082L421,426.51c3.99-3.991,3.99-10.52,0-14.511L193.279,184.278l-16.083,16.083  l227.721,227.721C408.908,432.073,415.438,432.073,419.428,428.082z"/>
<path style="fill:#9A4C00;" d="M177.194,200.358l227.724,227.724c3.988,3.988,10.522,3.988,14.51,0l0.785-0.785L185.234,192.318  L177.194,200.358z"/>
<path style="fill:#E67500;" d="M147.813,218.623c-4.297-5.492-69.049-90.557-72.069-94.773c-3.02-4.215-2.079-6.859,0.311-9.249  s29.076-29.076,31.466-31.466s5.033-3.331,9.249-0.311c4.215,3.02,89.281,67.772,94.773,72.069s8.526,8.924,3.746,13.704  s-48.992,48.992-53.771,53.771C156.737,227.149,152.11,224.115,147.813,218.623z"/>
<path style="fill:#C06100;" d="M161.517,222.37l26.884-26.884L91.782,98.867L76.049,114.6c-2.39,2.39-3.323,5.035-0.304,9.256  c3.02,4.207,67.769,89.279,72.068,94.767C152.106,224.117,156.737,227.15,161.517,222.37z"/>
<path style="fill:#E67500;" d="M92.573,428.082L91,426.51c-3.99-3.991-3.99-10.52,0-14.511l227.721-227.721l16.083,16.083  L107.083,428.082C103.093,432.073,96.563,432.073,92.573,428.082z"/>
<path style="fill:#C06200;" d="M334.807,200.358L107.083,428.082c-3.988,3.988-10.522,3.988-14.51,0l-0.785-0.785l234.979-234.979  L334.807,200.358z"/>
<path style="fill:#FF8900;" d="M364.188,218.623c4.297-5.492,69.049-90.557,72.069-94.773c3.02-4.215,2.079-6.859-0.311-9.249  S406.87,85.525,404.48,83.135s-5.033-3.331-9.249-0.311c-4.215,3.02-89.281,67.772-94.773,72.069s-8.526,8.924-3.746,13.704  s48.992,48.992,53.771,53.771C355.264,227.149,359.891,224.115,364.188,218.623z"/>
<path style="fill:#E67500;" d="M350.484,222.37L323.6,195.486l96.619-96.619l15.733,15.733c2.39,2.39,3.323,5.035,0.304,9.256  c-3.019,4.207-67.769,89.279-72.068,94.767C359.895,224.117,355.264,227.15,350.484,222.37z"/>
<g>
</g>
<g>
</g>
<g>
</g>
<g>
</g>
<g>
</g>
<g>
</g>
<g>
</g>
<g>
</g>
<g>
</g>
<g>
</g>
<g>
</g>
<g>
</g>
<g>
</g>
<g>
</g>
<g>
</g>
</svg>
