<?xml version="1.0" encoding="iso-8859-1"?>
<!-- Generator: Adobe Illustrator 19.0.0, SVG Export Plug-In . SVG Version: 6.00 Build 0)  -->
<svg xmlns="http://www.w3.org/2000/svg" xmlns:xlink="http://www.w3.org/1999/xlink" version="1.1" id="Layer_1" x="0px" y="0px" viewBox="0 0 512 512" style="enable-background:new 0 0 512 512;" xml:space="preserve">
<circle style="fill:#7FC8F1;" cx="256" cy="256" r="256"/>
<path style="fill:#00ACEA;" d="M512,256c0-35.368-7.173-69.06-20.142-99.702l-90.852-90.852H297.674L283.76,47.632h-17.72v17.816  H154.384v11.528l15.709,13.914c-3.28,17.163-7.27,43.109-7.27,67.764c0,41.854,11.501,96.217,11.501,96.217l34.781,34.766h-26.422  l-41.743-42.239H32.366v53.931l49.204,49.093v18.022c0,0.828,0.012,1.653,0.034,2.476c0.007,0.263,0.021,0.523,0.03,0.786  c0.02,0.562,0.04,1.123,0.07,1.682c0.016,0.301,0.038,0.6,0.058,0.9c0.033,0.521,0.067,1.042,0.108,1.56  c0.025,0.305,0.054,0.609,0.082,0.914c0.047,0.514,0.095,1.027,0.15,1.539c0.032,0.298,0.068,0.595,0.103,0.891  c0.061,0.519,0.125,1.037,0.194,1.553c0.038,0.284,0.079,0.568,0.12,0.851c0.077,0.533,0.158,1.064,0.244,1.594  c0.042,0.26,0.086,0.519,0.13,0.779c0.096,0.561,0.198,1.121,0.305,1.679c0.043,0.224,0.085,0.448,0.13,0.672  c0.12,0.605,0.247,1.206,0.379,1.807c0.038,0.175,0.076,0.35,0.115,0.524c0.153,0.676,0.314,1.349,0.481,2.019  c0.024,0.097,0.047,0.194,0.071,0.291c4.554,17.971,14.434,33.869,27.827,45.934l61.637,61.637C199.627,507.263,227.26,512,256,512  C397.385,512,512,397.385,512,256z"/>
<rect x="266.04" y="47.632" style="fill:#FFFFFF;" width="17.719" height="244.96"/>
<rect x="274.87" y="47.636" style="fill:#C8C6CC;" width="8.89" height="244.95"/>
<path style="fill:#3C3B41;" d="M392.565,254.871H174.324c0,0-11.501-54.362-11.501-96.216s11.501-87.442,11.501-87.442h218.241  c0,0-11.501,47.381-11.501,91.829C381.065,207.49,392.565,254.871,392.565,254.871z"/>
<path style="fill:#171719;" d="M381.066,163.046c0,44.44,11.5,91.82,11.5,91.82h-117.7V71.216h117.7  C392.566,71.216,381.066,118.596,381.066,163.046z"/>
<path style="fill:#E67500;" d="M140.941,289.637v-42.239H32.366v53.931H81.57v67.115c0,50.704,41.485,92.189,92.189,92.189H340.91  c50.704,0,92.189-41.485,92.189-92.189v-78.806L140.941,289.637L140.941,289.637z"/>
<g>
	<path style="fill:#C06100;" d="M433.096,289.636v78.81c0,50.7-41.48,92.19-92.19,92.19h-66.04v-171H433.096z"/>
	<path style="fill:#C06100;" d="M433.099,350.421H81.57v18.022c0,13.75,3.056,26.819,8.515,38.57h334.499   c5.458-11.751,8.515-24.82,8.515-38.57V350.421z"/>
</g>
<path style="fill:#9A4C00;" d="M433.096,350.426v18.02c0,13.75-3.05,26.82-8.51,38.57h-149.72v-56.59H433.096z"/>
<g>
	<circle style="fill:#FFFFFF;" cx="172.2" cy="320.99" r="15.545"/>
	<circle style="fill:#FFFFFF;" cx="240.66" cy="320.99" r="15.545"/>
</g>
<g>
	<circle style="fill:#AEADB3;" cx="309.13" cy="320.99" r="15.545"/>
	<circle style="fill:#AEADB3;" cx="377.6" cy="320.99" r="15.545"/>
</g>
<rect x="154.38" y="65.45" style="fill:#E67500;" width="246.62" height="11.528"/>
<rect x="274.87" y="65.45" style="fill:#C06100;" width="126.14" height="11.53"/>
<g>
	<path style="fill:#FFFFFF;" d="M202.245,156.866c1.276-3.515,4.573-5.798,8.197-6.073c-2.66-2.392-3.762-6.146-2.486-9.661   c1.725-4.74,7.124-7.248,12.067-5.595c4.943,1.66,7.552,6.849,5.827,11.589c-0.152,0.413-0.326,0.804-0.529,1.181l5.841,1.957   c-0.029,0.602-0.043,1.21-0.043,1.826c0,4.747,0.754,9.393,2.247,13.843l-12.879-4.312c-0.087,0.413-0.203,0.826-0.348,1.239   c-1.725,4.74-7.132,7.247-12.067,5.595C203.129,166.795,200.52,161.606,202.245,156.866z"/>
	<path style="fill:#FFFFFF;" d="M242.41,190.719l-17.09,5.726c0.203,0.377,0.377,0.768,0.529,1.181   c1.725,4.747-0.884,9.936-5.827,11.589c-4.943,1.652-10.342-0.848-12.067-5.595c-1.276-3.515-0.174-7.269,2.486-9.654   c-3.624-0.275-6.921-2.558-8.197-6.073c-1.725-4.747,0.884-9.936,5.827-11.589c4.936-1.66,10.342,0.848,12.067,5.595   c0.145,0.413,0.261,0.826,0.348,1.239l11.038-3.696C233.039,184.776,237.156,189.023,242.41,190.719z"/>
	<path style="fill:#FFFFFF;" d="M347.107,180.863c1.087,2.116,1.319,4.631,0.449,7.03c-1.275,3.515-4.573,5.798-8.204,6.073   c2.667,2.384,3.769,6.139,2.493,9.654c-0.594,1.645-1.631,3.015-2.942,4.044c-0.37,0.29-0.768,0.558-1.181,0.79   c-1.768,1.007-3.87,1.457-5.994,1.203c-0.384-0.051-0.783-0.123-1.167-0.217c-0.261-0.065-0.522-0.138-0.783-0.225   c-4.943-1.652-7.552-6.842-5.827-11.589c0.145-0.413,0.326-0.805,0.529-1.181l-17.089-5.726c5.254-1.696,9.371-5.943,10.886-11.277   l11.038,3.696c0.087-0.413,0.203-0.833,0.348-1.239c1.725-4.747,7.132-7.255,12.074-5.595c1.464,0.486,2.718,1.29,3.718,2.298   c0.167,0.167,0.326,0.341,0.486,0.522c0.152,0.181,0.297,0.362,0.435,0.551C346.651,180.058,346.89,180.449,347.107,180.863z"/>
	<path style="fill:#FFFFFF;" d="M329.315,161.62l-12.879,4.312v-0.007c1.493-4.45,2.247-9.088,2.247-13.835   c0-0.616-0.014-1.225-0.043-1.826l5.841-1.957c-0.203-0.377-0.384-0.768-0.529-1.181c-1.725-4.747,0.884-9.929,5.827-11.589   c2.493-0.833,5.109-0.609,7.313,0.435c0.428,0.203,0.841,0.435,1.239,0.703c0.594,0.399,1.145,0.862,1.623,1.384   c0.16,0.174,0.319,0.355,0.471,0.544c0.297,0.37,0.565,0.768,0.805,1.189c0.239,0.427,0.442,0.877,0.616,1.348   c1.276,3.508,0.174,7.262-2.493,9.654c3.631,0.275,6.929,2.558,8.204,6.073c0.87,2.399,0.638,4.914-0.449,7.023   c-0.217,0.413-0.457,0.812-0.732,1.189c-0.138,0.188-0.283,0.377-0.435,0.551c-0.16,0.181-0.319,0.355-0.486,0.522   c-1,1.015-2.254,1.812-3.718,2.305c-3.964,1.326-8.226-0.029-10.654-3.059c-0.297-0.377-0.565-0.775-0.805-1.196   c-0.239-0.428-0.442-0.87-0.616-1.341C329.517,162.447,329.401,162.041,329.315,161.62z"/>
</g>
<g>
	<path style="fill:#C8C6CC;" d="M347.107,180.863c1.087,2.116,1.319,4.631,0.449,7.03c-1.275,3.515-4.573,5.798-8.204,6.073   c2.667,2.384,3.769,6.139,2.493,9.654c-0.594,1.645-1.631,3.015-2.942,4.044c-0.37,0.29-0.768,0.558-1.181,0.79   c-1.547,0.882-3.35,1.336-5.199,1.266c-0.264-0.01-0.529-0.031-0.795-0.063c-0.384-0.044-0.783-0.116-1.167-0.217   c-0.261-0.065-0.522-0.138-0.783-0.225c-4.943-1.652-7.552-6.842-5.827-11.589c0.145-0.413,0.326-0.805,0.529-1.181l-17.089-5.726   c5.254-1.696,9.371-5.943,10.886-11.277l11.038,3.696c0.087-0.413,0.203-0.833,0.348-1.239c1.725-4.747,7.132-7.255,12.074-5.595   c1.464,0.486,2.718,1.29,3.718,2.298c0.167,0.167,0.326,0.341,0.486,0.522c0.152,0.181,0.297,0.362,0.435,0.551   C346.651,180.058,346.897,180.449,347.107,180.863z"/>
	<path style="fill:#C8C6CC;" d="M316.436,165.925c1.493-4.45,2.247-9.088,2.247-13.835c0-0.616-0.014-1.225-0.043-1.826l5.841-1.957   c-0.203-0.377-0.384-0.768-0.529-1.181c-1.725-4.747,0.884-9.929,5.827-11.589c2.493-0.833,5.109-0.609,7.313,0.435   c0.428,0.203,0.841,0.442,1.239,0.703c0.587,0.399,1.138,0.862,1.623,1.384c0.16,0.174,0.319,0.355,0.471,0.544   c0.297,0.37,0.565,0.768,0.805,1.189c0.239,0.427,0.442,0.877,0.616,1.348c1.276,3.508,0.174,7.262-2.493,9.654   c3.631,0.275,6.929,2.558,8.204,6.073c0.87,2.399,0.638,4.914-0.449,7.023c-0.21,0.413-0.457,0.812-0.732,1.189   c-0.138,0.188-0.283,0.377-0.435,0.551c-0.16,0.181-0.319,0.355-0.486,0.522c-1,1.015-2.254,1.812-3.718,2.305   c-3.964,1.326-8.226-0.029-10.654-3.059c-0.297-0.377-0.565-0.775-0.805-1.196c-0.239-0.428-0.442-0.87-0.616-1.341   c-0.145-0.413-0.261-0.819-0.348-1.239v-0.007L316.436,165.925z"/>
</g>
<path style="fill:#FFFFFF;" d="M308.026,166.684c1.887-4.376,2.937-9.197,2.937-14.265c0-19.917-16.146-36.063-36.063-36.063  s-36.063,16.146-36.063,36.063c0,5.068,1.05,9.889,2.937,14.265c-1.943,1.869-3.154,4.493-3.154,7.402  c0,5.673,4.599,10.272,10.272,10.272c2.24,0,4.311-0.719,5.999-1.936c1.295,0.865,2.651,1.644,4.057,2.339v11.327  c0,2.692,2.202,4.894,4.894,4.894h0.586v-13.09h4.713v13.09h3.403v-13.09h4.712v13.09h3.404v-13.09h4.713v13.09h0.586  c2.692,0,4.894-2.202,4.894-4.894v-11.327c1.406-0.695,2.762-1.474,4.057-2.339c1.688,1.217,3.759,1.936,5.999,1.936  c5.673,0,10.272-4.599,10.272-10.272C311.179,171.177,309.968,168.553,308.026,166.684z M262.284,158.478h-3.573  c-3.791,0-6.893-3.102-6.893-6.893v-3.573c0-3.791,3.102-6.893,6.893-6.893h3.573c3.791,0,6.893,3.102,6.893,6.893v3.573  C269.177,155.376,266.075,158.478,262.284,158.478z M279.243,172.732H274.9h-4.343c-2.069,0-3.361-2.239-2.327-4.031l2.171-3.761  l2.172-3.761c1.034-1.791,3.62-1.791,4.654,0l2.172,3.761l2.172,3.761C282.604,170.493,281.311,172.732,279.243,172.732z   M297.982,151.585c0,3.791-3.102,6.893-6.893,6.893h-3.573c-3.791,0-6.893-3.102-6.893-6.893v-3.573  c0-3.791,3.102-6.893,6.893-6.893h3.573c3.791,0,6.893,3.102,6.893,6.893V151.585z"/>
<path style="fill:#C8C6CC;" d="M308.027,166.682c1.887-4.372,2.934-9.193,2.934-14.263c0-19.915-16.146-36.062-36.061-36.062v43.48  c0.906,0,1.812,0.445,2.327,1.342l2.169,3.761l2.174,3.761c1.035,1.791-0.258,4.031-2.327,4.031H274.9v15.161h2.356v13.087h3.404  v-13.087h4.713v13.087h0.586c2.689,0,4.892-2.203,4.892-4.892v-11.329c1.409-0.694,2.764-1.475,4.056-2.34  c1.691,1.218,3.761,1.937,6.001,1.937c5.673,0,10.273-4.601,10.273-10.274C311.181,171.179,309.968,168.552,308.027,166.682z   M297.982,151.583c0,3.794-3.1,6.895-6.895,6.895h-3.57c-3.794,0-6.895-3.1-6.895-6.895v-3.574c0-3.79,3.1-6.891,6.895-6.891h3.57  c3.794,0,6.895,3.1,6.895,6.891V151.583z"/>
<g>
</g>
<g>
</g>
<g>
</g>
<g>
</g>
<g>
</g>
<g>
</g>
<g>
</g>
<g>
</g>
<g>
</g>
<g>
</g>
<g>
</g>
<g>
</g>
<g>
</g>
<g>
</g>
<g>
</g>
</svg>
