<?xml version="1.0" encoding="iso-8859-1"?>
<!-- Generator: Adobe Illustrator 19.0.0, SVG Export Plug-In . SVG Version: 6.00 Build 0)  -->
<svg xmlns="http://www.w3.org/2000/svg" xmlns:xlink="http://www.w3.org/1999/xlink" version="1.1" id="Layer_1" x="0px" y="0px" viewBox="0 0 512 512" style="enable-background:new 0 0 512 512;" xml:space="preserve">
<circle style="fill:#802897;" cx="256" cy="256" r="256"/>
<path style="fill:#5C1B6F;" d="M507.761,302.572L291.522,86.333h-71.045l-35.522,93.206h-35.523l-35.522,93.206H78.387  l-35.523,93.206l133.351,133.351C201.325,507.532,228.139,512,256,512C381.479,512,485.861,421.718,507.761,302.572z"/>
<g>
	<polygon style="fill:#FFE047;" points="149.432,272.746 78.387,272.746 42.865,365.953 184.955,365.953  "/>
	<polygon style="fill:#FFE047;" points="291.522,272.746 220.477,272.746 184.955,365.953 327.045,365.953  "/>
</g>
<g>
	<polygon style="fill:#FFD400;" points="291.522,272.746 256,272.746 256,365.953 327.045,365.953  "/>
	<polygon style="fill:#FFD400;" points="149.432,272.746 113.91,272.746 113.91,365.953 184.955,365.953  "/>
</g>
<polygon style="fill:#FFE047;" points="433.613,272.746 362.568,272.746 327.045,365.953 469.135,365.953 "/>
<polygon style="fill:#FFD400;" points="433.613,272.746 398.09,272.746 398.09,365.953 469.135,365.953 "/>
<polygon style="fill:#FFCF00;" points="220.477,179.54 149.432,179.54 113.91,272.746 256,272.746 "/>
<polygon style="fill:#ECB300;" points="256,272.748 184.958,272.748 184.958,179.536 220.479,179.536 "/>
<polygon style="fill:#FFCF00;" points="362.568,179.54 291.522,179.54 256,272.746 398.09,272.746 "/>
<polygon style="fill:#ECB300;" points="398.087,272.748 327.045,272.748 327.045,179.536 362.566,179.536 "/>
<polygon style="fill:#FFE047;" points="291.522,86.333 220.477,86.333 184.955,179.54 327.045,179.54 "/>
<polygon style="fill:#FFD400;" points="327.045,179.54 291.522,86.333 256,86.333 256,179.54 "/>
<g>
</g>
<g>
</g>
<g>
</g>
<g>
</g>
<g>
</g>
<g>
</g>
<g>
</g>
<g>
</g>
<g>
</g>
<g>
</g>
<g>
</g>
<g>
</g>
<g>
</g>
<g>
</g>
<g>
</g>
</svg>
