<?xml version="1.0" encoding="iso-8859-1"?>
<!-- Generator: Adobe Illustrator 19.0.0, SVG Export Plug-In . SVG Version: 6.00 Build 0)  -->
<svg xmlns="http://www.w3.org/2000/svg" xmlns:xlink="http://www.w3.org/1999/xlink" version="1.1" id="Layer_1" x="0px" y="0px" viewBox="0 0 512 512" style="enable-background:new 0 0 512 512;" xml:space="preserve">
<circle style="fill:#FFDF47;" cx="256" cy="256" r="256"/>
<path style="fill:#FFD400;" d="M512,256c0-10.829-0.679-21.5-1.985-31.976L363.066,77.075C336.294,48.516,298.234,30.667,256,30.667  c-81.04,0-146.736,65.696-146.736,146.736c0,42.207,17.829,80.242,46.357,107.009l38.208,38.292L256,488.208l22.772,22.772  C409.487,499.455,512,389.709,512,256z"/>
<path style="fill:#802897;" d="M402.736,177.402c0-81.04-65.696-146.736-146.736-146.736S109.264,96.363,109.264,177.402  c0,56.549,31.993,105.619,78.862,130.118L256,488.208l67.873-180.689C370.742,283.021,402.736,233.952,402.736,177.402z"/>
<path style="fill:#5C1B6F;" d="M402.74,177.4c0,56.55-32,105.62-78.87,130.12L256,488.21V30.67  C337.04,30.67,402.74,96.36,402.74,177.4z"/>
<circle style="fill:#FFFFFF;" cx="256" cy="177.4" r="109.9"/>
<path style="fill:#E1E1E3;" d="M365.9,177.4c0,60.7-49.2,109.9-109.9,109.9V67.5C316.7,67.5,365.9,116.7,365.9,177.4z"/>
<polygon style="fill:#FF4F19;" points="317.523,134.366 299.037,115.879 256,158.915 212.964,115.879 194.477,134.366   237.513,177.402 194.477,220.439 212.964,238.926 256,195.89 299.037,238.926 317.523,220.439 274.487,177.402 "/>
<polygon style="fill:#FF3200;" points="274.49,177.4 317.52,220.44 299.04,238.93 256,195.89 256,158.92 299.04,115.88   317.52,134.37 "/>
<g>
</g>
<g>
</g>
<g>
</g>
<g>
</g>
<g>
</g>
<g>
</g>
<g>
</g>
<g>
</g>
<g>
</g>
<g>
</g>
<g>
</g>
<g>
</g>
<g>
</g>
<g>
</g>
<g>
</g>
</svg>
