<?xml version="1.0" encoding="iso-8859-1"?>
<!-- Generator: Adobe Illustrator 19.0.0, SVG Export Plug-In . SVG Version: 6.00 Build 0)  -->
<svg xmlns="http://www.w3.org/2000/svg" xmlns:xlink="http://www.w3.org/1999/xlink" version="1.1" id="Layer_1" x="0px" y="0px" viewBox="0 0 512 512" style="enable-background:new 0 0 512 512;" xml:space="preserve">
<circle style="fill:#802897;" cx="256" cy="256" r="256"/>
<path style="fill:#5C1B6F;" d="M512,256c0-36.637-7.712-71.467-21.576-102.98L424.07,86.666  c-57.51,23.806-144.411,27.04-144.411,27.04c-11.278,95.064-89.311,186.883-115.347,215.186l-22.355-22.355l-10.116,10.116  l22.579,22.579l-43.467,43.467c-6.217-0.051-12.45,2.287-17.193,7.03c-9.386,9.386-9.386,24.604,0,33.991l72.329,72.028  C194.065,506.244,224.359,512,256,512C397.385,512,512,397.385,512,256z"/>
<path style="fill:#FFFFFF;" d="M155.871,337.782c0,0,110.219-109.696,123.788-224.075c0,0,86.902-3.234,144.411-27.04  c0,0-60.717,142.72-245.535,273.779L155.871,337.782z"/>
<path style="fill:#E1E1E3;" d="M178.538,360.446l-10.755-10.755L417.766,99.709C398.108,137.814,329.993,253.045,178.538,360.446z"/>
<rect x="126.271" y="337.978" transform="matrix(-0.7071 -0.7071 0.7071 -0.7071 -20.3915 740.2697)" style="fill:#FF8900;" width="33.697" height="72.759"/>
<rect x="112.687" y="371.885" transform="matrix(-0.7071 0.7071 -0.7071 -0.7071 523.4 543.8195)" style="fill:#E67500;" width="72.769" height="16.849"/>
<path style="fill:#FFCF00;" d="M200.75,365.331l-58.793-58.793l-10.116,10.116l58.793,58.793c8.007,8.007,8.006,21.034,0,29.04  l-21.969,21.969c-8.007,8.007-21.034,8.007-29.041,0.001l-7.931-7.931c5.17-9.163,3.86-20.993-3.943-28.795  c-9.386-9.386-24.604-9.386-33.991,0c-9.386,9.386-9.386,24.604,0,33.991c7.443,7.443,18.552,8.978,27.514,4.616l8.236,8.236  c13.584,13.584,35.688,13.584,49.272,0l21.969-21.969C214.334,401.018,214.335,378.915,200.75,365.331z"/>
<path style="fill:#EBB400;" d="M200.748,414.605l-21.969,21.969c-13.584,13.584-35.684,13.576-49.267-0.007l-8.232-8.232  c-8.968,4.36-20.08,2.829-27.525-4.615l33.992-33.992c7.809,7.809,9.121,19.635,3.945,28.793l7.933,7.933  c8.006,8.006,21.035,8.013,29.041,0.007l21.969-21.969c8.006-8.006,8.006-21.043,0-29.048l-24.302-24.302l10.113-10.113  l24.302,24.302C214.331,378.914,214.331,401.022,200.748,414.605z"/>
<g>
</g>
<g>
</g>
<g>
</g>
<g>
</g>
<g>
</g>
<g>
</g>
<g>
</g>
<g>
</g>
<g>
</g>
<g>
</g>
<g>
</g>
<g>
</g>
<g>
</g>
<g>
</g>
<g>
</g>
</svg>
