<?xml version="1.0" encoding="iso-8859-1"?>
<!-- Generator: Adobe Illustrator 19.0.0, SVG Export Plug-In . SVG Version: 6.00 Build 0)  -->
<svg xmlns="http://www.w3.org/2000/svg" xmlns:xlink="http://www.w3.org/1999/xlink" version="1.1" id="Layer_1" x="0px" y="0px" viewBox="0 0 512.001 512.001" style="enable-background:new 0 0 512.001 512.001;" xml:space="preserve">
<circle style="fill:#00A753;" cx="256" cy="256" r="256"/>
<path style="fill:#007F40;" d="M512,256c0-24.723-3.516-48.623-10.056-71.24l-91.609-91.61c-21.422,8.675-53.364,9.642-77.122-6.868  c-0.054-0.048-0.108-0.096-0.161-0.143c-3.074-3.44-6.158-6.519-9.247-9.247c-3.073-3.44-6.158-6.519-9.246-9.246  C294.885,45.629,274.761,38.844,256,38.843c-20.292,0.001-42.179,7.923-63.365,34.49c-23.564,29.549-65.002,30.333-90.97,19.817  l34.308,85.016h0.109c-10.003,4.277-16.546,14.734-15.317,26.077l2.218,20.476c0.745,6.883,4.216,12.841,9.216,16.921  c-1.018,5.157-1.566,10.57-1.566,16.156c0,5.414,0.511,10.667,1.469,15.681c-13.586,3.98-24.902,19.04-27.225,38.165  c-1.928,15.872,2.832,30.505,11.501,39.094c-4.961,15.714-7.297,31.27-7.26,45.706C98.136,409.615,91.5,426.518,91.5,444.9v7.238  c0.149,0.125,0.296,0.251,0.445,0.376c1.167,0.975,2.345,1.938,3.53,2.892c0.318,0.257,0.635,0.514,0.955,0.769  c1.319,1.051,2.649,2.09,3.988,3.116C143.54,492.343,197.47,512,256,512C397.385,512,512,397.385,512,256z"/>
<path style="fill:#3C3B41;" d="M407.123,311.642c-2.323-19.124-13.638-34.185-27.225-38.165c0.958-5.014,1.469-10.268,1.469-15.681  c0-34.763-20.996-62.956-46.941-63.121v-0.008H177.574v0.008c-25.945,0.165-46.941,28.359-46.941,63.121  c0,5.414,0.511,10.667,1.469,15.681c-13.586,3.98-24.902,19.04-27.225,38.165c-1.928,15.872,2.832,30.505,11.501,39.094  c-16.608,52.608-4.009,103.553,29.734,116.023c9.964,3.682,20.709,3.617,31.461,0.389v0.066h156.852v-0.066  c10.752,3.228,21.497,3.293,31.461-0.389c33.744-12.47,46.343-63.416,29.734-116.023  C404.291,342.147,409.051,327.514,407.123,311.642z"/>
<path style="fill:#171719;" d="M395.62,350.74c16.61,52.6,4.01,103.55-29.73,116.02c-9.97,3.68-20.71,3.62-31.46,0.39v0.06H256  V194.67h78.43c25.94,0.17,46.94,28.36,46.94,63.13c0,5.41-0.51,10.66-1.47,15.68c13.58,3.98,24.9,19.04,27.22,38.16  C409.05,327.51,404.29,342.15,395.62,350.74z"/>
<rect x="211.47" y="324.8" style="fill:#FFC473;" width="89.07" height="112.37"/>
<rect x="256" y="324.8" style="fill:#FFAA20;" width="44.538" height="112.37"/>
<g>
	<path style="fill:#FFDBA9;" d="M370.651,176.562C365.865,106.095,305.768,66.101,256,66.101s-109.864,39.994-114.651,110.461   c-12.878,2.412-22.017,14.448-20.584,27.682l2.218,20.476c1.505,13.891,14.101,24.026,27.992,22.521l2.392-0.259   c28.436,74.02,74.325,93.077,102.634,97.406c28.309-4.329,74.198-23.386,102.634-97.406l2.392,0.259   c13.891,1.505,26.487-8.63,27.992-22.521l2.218-20.476C392.668,191.01,383.529,178.974,370.651,176.562z"/>
	<path style="fill:#FFDBA9;" d="M391.24,204.243l-2.22,20.48c-1.51,13.89-14.1,24.02-27.99,22.52l-2.4-0.26   c-28.43,74.02-74.32,93.07-102.63,97.4V88.843h66.54c25.63,18.7,45.44,48.48,48.11,87.72   C383.53,178.973,392.671,191.013,391.24,204.243z"/>
</g>
<g>
	<path style="fill:#FFC473;" d="M391.24,204.243l-2.22,20.48c-1.51,13.89-14.1,24.02-27.99,22.52l-2.4-0.26   c-28.43,74.02-74.32,93.07-102.63,97.4V66.103c49.09,0,108.23,38.91,114.43,107.6c0.09,0.99,0.16,1.94,0.22,2.86   C383.53,178.973,392.671,191.013,391.24,204.243z"/>
	<rect x="179.48" y="198.46" style="fill:#FFC473;" width="59.12" height="25.615"/>
</g>
<polygon style="fill:#FFA91F;" points="255.996,198.456 255.996,271 281.611,271 281.611,224.071 337.412,224.071 337.412,198.456   "/>
<path style="fill:#FFDBA9;" d="M420.5,444.9v7.25c-17.91,15.04-37.91,27.67-59.5,37.39c-1.35,0.61-2.71,1.21-4.08,1.79  C325.96,504.63,291.84,512,256,512s-69.96-7.37-100.92-20.67c-1.37-0.58-2.73-1.18-4.08-1.79c-21.59-9.72-41.59-22.35-59.5-37.39  v-7.25c0-36.11,25.57-66.55,59.5-74.11c0.34-0.07,0.69-0.15,1.04-0.22c0.35-0.07,0.7-0.15,1.05-0.21c0.13-0.03,0.26-0.06,0.39-0.08  c0.27-0.06,0.55-0.11,0.83-0.16c0.06-0.01,0.12-0.02,0.18-0.03c0.24-0.04,0.47-0.08,0.71-0.11c0.47-0.08,0.94-0.15,1.42-0.22  c0.09-0.01,0.19-0.03,0.28-0.04c0.12-0.02,0.23-0.03,0.35-0.05c0.27-0.04,0.54-0.08,0.82-0.11c0.04-0.01,0.09-0.01,0.13-0.02  c0.11-0.01,0.21-0.03,0.32-0.03c0.14-0.02,0.29-0.04,0.43-0.05c0.71-0.08,1.42-0.15,2.13-0.21c0.04,0,0.07-0.01,0.11-0.01  c0.23-0.02,0.46-0.04,0.69-0.06c0.05,0,0.11-0.01,0.16-0.01c0.4-0.02,0.79-0.05,1.19-0.07c0.69-0.04,1.39-0.07,2.09-0.09  s1.4-0.03,2.11-0.03h177.14c0.6,0,1.19,0.01,1.78,0.03h0.33c0.13,0,0.26,0.01,0.39,0.02c0.08,0,0.16,0,0.24,0.01  c0.49,0.01,0.97,0.03,1.45,0.06h0.01c0.4,0.02,0.79,0.05,1.19,0.07c0.05,0,0.11,0.01,0.16,0.01c0.23,0.02,0.46,0.04,0.69,0.06  c0.04,0,0.07,0.01,0.11,0.01c0.72,0.05,1.43,0.12,2.13,0.21c0.14,0.01,0.29,0.03,0.43,0.05c0.11,0,0.21,0.02,0.32,0.03  c0.04,0.01,0.09,0.01,0.13,0.02c0.28,0.03,0.55,0.07,0.82,0.11c0.12,0.02,0.23,0.03,0.35,0.05c0.08,0.01,0.17,0.02,0.25,0.04h0.03  c0.72,0.1,1.42,0.21,2.13,0.33c0.06,0.01,0.12,0.02,0.18,0.03c0.28,0.05,0.56,0.1,0.83,0.16c0.44,0.08,0.87,0.17,1.3,0.25  c0.27,0.06,0.53,0.12,0.79,0.18c0.13,0.02,0.26,0.05,0.39,0.08C394.93,378.35,420.5,408.79,420.5,444.9z"/>
<path style="fill:#FFC473;" d="M420.5,444.9v7.25c-17.91,15.04-37.91,27.67-59.5,37.39c-1.35,0.61-2.71,1.21-4.08,1.79  C325.96,504.63,291.84,512,256,512V368.98h88.57c0.6,0,1.19,0.01,1.78,0.03h0.33c0.13,0,0.26,0.01,0.39,0.02  c0.08,0,0.16,0,0.24,0.01c0.49,0.01,0.97,0.03,1.45,0.06h0.01c0.4,0.02,0.79,0.05,1.19,0.07c0.05,0,0.11,0.01,0.16,0.01  c0.23,0.02,0.46,0.04,0.69,0.06c0.04,0,0.07,0.01,0.11,0.01c0.72,0.05,1.43,0.12,2.13,0.21c0.14,0.01,0.29,0.03,0.43,0.05  c0.11,0,0.21,0.02,0.32,0.03c0.04,0.01,0.09,0.01,0.13,0.02c0.28,0.03,0.55,0.07,0.82,0.11c0.12,0.02,0.23,0.03,0.35,0.05  c0.08,0.01,0.17,0.02,0.25,0.04h0.03c0.72,0.1,1.42,0.21,2.13,0.33c0.06,0.01,0.12,0.02,0.18,0.03c0.28,0.05,0.56,0.1,0.83,0.16  c0.44,0.08,0.87,0.17,1.3,0.25c0.27,0.06,0.53,0.12,0.79,0.18c0.13,0.02,0.26,0.05,0.39,0.08  C394.93,378.35,420.5,408.79,420.5,444.9z"/>
<path style="fill:#FF4F19;" d="M420.5,444.9v7.25c-17.91,15.04-37.91,27.67-59.5,37.39c-1.35,0.61-2.71,1.21-4.08,1.79  c-18.96,8.146-39.111,14.052-60.109,17.417c-0.039,0.006-0.077,0.012-0.116,0.018c-2.012,0.321-4.032,0.618-6.059,0.892  c-0.687,0.093-1.375,0.186-2.064,0.274c-0.801,0.102-1.603,0.201-2.407,0.296c-1.265,0.149-2.533,0.289-3.804,0.42  c-0.517,0.053-1.035,0.104-1.552,0.154c-1.394,0.135-2.792,0.257-4.193,0.369c-0.47,0.037-0.94,0.074-1.41,0.109  c-1.681,0.125-3.366,0.24-5.056,0.332c-0.94,0.05-1.88,0.1-2.82,0.14c-0.77,0.03-1.55,0.06-2.33,0.09c-0.76,0.03-1.53,0.05-2.3,0.07  c-0.76,0.02-1.53,0.04-2.3,0.05c-0.52,0.01-1.04,0.02-1.55,0.02c-0.95,0.01-1.9,0.02-2.85,0.02c-0.95,0-1.9-0.01-2.85-0.02  c-0.51,0-1.03-0.01-1.55-0.02c-0.77-0.01-1.54-0.03-2.3-0.05c-0.77-0.02-1.54-0.04-2.3-0.07c-0.78-0.03-1.56-0.06-2.33-0.09  c-0.94-0.04-1.88-0.09-2.82-0.14c-1.69-0.092-3.374-0.207-5.056-0.332c-0.471-0.035-0.941-0.072-1.411-0.109  c-1.401-0.112-2.799-0.234-4.193-0.369c-0.518-0.05-1.035-0.101-1.553-0.154c-1.271-0.131-2.539-0.271-3.804-0.42  c-0.804-0.094-1.606-0.194-2.407-0.296c-0.689-0.088-1.376-0.181-2.064-0.274c-2.027-0.274-4.047-0.57-6.059-0.892  c-0.039-0.006-0.077-0.012-0.116-0.018c-20.998-3.364-41.149-9.27-60.109-17.417c-1.37-0.58-2.73-1.18-4.08-1.79  c-21.59-9.72-41.59-22.35-59.5-37.39v-7.25c0-36.11,25.57-66.55,59.5-74.11c0.34-0.07,0.69-0.15,1.04-0.22  c0.35-0.07,0.7-0.15,1.05-0.21c0.13-0.03,0.26-0.06,0.39-0.08c0.27-0.06,0.55-0.11,0.83-0.16l0.18-0.03  c0.24-0.04,0.47-0.08,0.71-0.11c0.47-0.08,0.94-0.15,1.42-0.22c0.09-0.01,0.19-0.03,0.28-0.04c0.12-0.02,0.23-0.03,0.35-0.05  c0.27-0.04,0.54-0.08,0.82-0.11c0.04-0.01,0.09-0.01,0.13-0.02c0.11-0.01,0.21-0.03,0.32-0.03c0.14-0.02,0.29-0.04,0.43-0.05  c0.71-0.08,1.42-0.15,2.13-0.21c0.04,0,0.07-0.01,0.11-0.01c0.23-0.02,0.46-0.04,0.69-0.06c0.05,0,0.11-0.01,0.16-0.01  c0.4-0.02,0.79-0.05,1.19-0.07c0.69-0.04,1.39-0.07,2.09-0.09s1.4-0.03,2.11-0.03h44.04c0,21.07,19.93,38.15,44.53,38.15  s44.53-17.08,44.53-38.15h44.04c0.6,0,1.19,0.01,1.78,0.03h0.33c0.13,0,0.26,0.01,0.39,0.02c0.08,0,0.16,0,0.24,0.01  c0.49,0.01,0.97,0.03,1.45,0.06h0.01c0.4,0.02,0.79,0.05,1.19,0.07c0.05,0,0.11,0.01,0.16,0.01c0.23,0.02,0.46,0.04,0.69,0.06  c0.04,0,0.07,0.01,0.11,0.01c0.72,0.05,1.43,0.12,2.13,0.21c0.14,0.01,0.29,0.03,0.43,0.05c0.11,0,0.21,0.02,0.32,0.03  c0.04,0.01,0.09,0.01,0.13,0.02c0.28,0.03,0.55,0.07,0.82,0.11c0.12,0.02,0.23,0.03,0.35,0.05c0.08,0.01,0.17,0.02,0.25,0.04h0.03  c0.72,0.1,1.42,0.21,2.13,0.33l0.18,0.03c0.28,0.05,0.56,0.1,0.83,0.16c0.44,0.08,0.87,0.17,1.3,0.25c0.27,0.06,0.53,0.12,0.79,0.18  c0.13,0.02,0.26,0.05,0.39,0.08C394.93,378.35,420.5,408.79,420.5,444.9z"/>
<path style="fill:#FF3200;" d="M420.5,444.9v7.25c-17.91,15.04-37.91,27.67-59.5,37.39c-1.35,0.61-2.71,1.21-4.08,1.79  c-18.96,8.15-39.11,14.05-60.11,17.42c-0.04,0-0.08,0.01-0.12,0.01c-2.01,0.33-4.03,0.62-6.05,0.9c-0.69,0.09-1.38,0.18-2.07,0.27  c-0.8,0.1-1.6,0.2-2.4,0.3c-1.27,0.15-2.54,0.29-3.81,0.42c-0.52,0.05-1.03,0.1-1.55,0.15c-1.4,0.14-2.79,0.26-4.19,0.37  c-0.47,0.04-0.94,0.07-1.41,0.11c-1.69,0.12-3.37,0.24-5.06,0.33c-0.94,0.05-1.88,0.1-2.82,0.14c-0.77,0.03-1.55,0.06-2.33,0.09  c-0.76,0.03-1.53,0.05-2.3,0.07c-0.76,0.02-1.53,0.04-2.3,0.05c-0.52,0.01-1.04,0.02-1.55,0.02c-0.95,0.01-1.9,0.02-2.85,0.02  V407.13c24.6,0,44.53-17.08,44.53-38.15h44.04c0.6,0,1.19,0.01,1.78,0.03h0.33c0.13,0,0.26,0.01,0.39,0.02c0.08,0,0.16,0,0.24,0.01  c0.49,0.01,0.97,0.03,1.45,0.06h0.01c0.4,0.02,0.79,0.05,1.19,0.07c0.05,0,0.11,0.01,0.16,0.01c0.23,0.02,0.46,0.04,0.69,0.06  c0.04,0,0.07,0.01,0.11,0.01c0.72,0.05,1.43,0.12,2.13,0.21c0.14,0.01,0.29,0.03,0.43,0.05c0.11,0,0.21,0.02,0.32,0.03  c0.04,0.01,0.09,0.01,0.13,0.02c0.28,0.03,0.55,0.07,0.82,0.11c0.12,0.02,0.23,0.03,0.35,0.05c0.08,0.01,0.17,0.02,0.25,0.04h0.03  c0.72,0.1,1.42,0.21,2.13,0.33l0.18,0.03c0.28,0.05,0.56,0.1,0.83,0.16c0.44,0.08,0.87,0.17,1.3,0.25c0.27,0.06,0.53,0.12,0.79,0.18  c0.13,0.02,0.26,0.05,0.39,0.08C394.93,378.35,420.5,408.79,420.5,444.9z"/>
<g>
	<path style="fill:#57555C;" d="M211.47,284v42.74c4.39,2.97,8.75,5.49,13.02,7.61V298.5h63.02v35.85   c4.27-2.12,8.63-4.64,13.02-7.61V284H211.47z"/>
	<path style="fill:#57555C;" d="M274.921,315.33v24.33c-6.82,2.39-13.23,3.86-18.92,4.73c-5.69-0.87-12.1-2.34-18.92-4.73v-24.33   H274.921z"/>
</g>
<g>
	<path style="fill:#2A2A2C;" d="M256,284v14.5h31.51v35.85c4.27-2.12,8.63-4.64,13.02-7.61V284H256z"/>
	<path style="fill:#2A2A2C;" d="M274.921,315.33v24.33c-6.82,2.39-13.23,3.86-18.92,4.73v-29.06H274.921z"/>
</g>
<path style="fill:#3C3B41;" d="M319.365,73.333C298.18,46.766,276.292,38.844,256,38.843c-20.292,0.001-42.179,7.923-63.365,34.49  c-23.564,29.549-65.002,30.333-90.97,19.817l34.308,85.016h240.054l34.308-85.016C384.367,103.667,342.929,102.882,319.365,73.333z"/>
<path style="fill:#171719;" d="M410.33,93.15l-34.3,85.02H256V38.84c20.29,0,42.18,7.93,63.37,34.49  C342.93,102.88,384.37,103.67,410.33,93.15z"/>
<path style="fill:#FFFFFF;" d="M320.369,93.061C301.676,69.618,280.62,58.222,256,58.221c-24.62,0.001-45.676,11.398-64.369,34.84  c-22.629,28.377-61.551,26.466-82.664,18.183l3.955,9.801c27.939,8.227,64.024,3.263,84.963-22.996  C214.963,76.633,233.973,66.222,256,66.221c22.027,0.001,41.037,10.412,58.115,31.829c14.941,18.737,37.593,26.636,59.496,26.636  c8.791,0,17.461-1.276,25.463-3.631l3.959-9.81C381.919,119.527,343,121.438,320.369,93.061z"/>
<path style="fill:#C8C6CC;" d="M403.03,111.24l-3.96,9.81c-8,2.36-16.67,3.64-25.46,3.64c-21.9,0-44.55-7.9-59.49-26.64  C297.04,76.63,278.03,66.22,256,66.22v-8c24.62,0,45.68,11.4,64.37,34.84C343,121.44,381.921,119.53,403.03,111.24z"/>
<path style="fill:#FFFFFF;" d="M300.53,368.98v139.14c-9.94,1.75-20.08,2.93-30.38,3.49c-0.94,0.05-1.88,0.1-2.82,0.14  c-0.77,0.03-1.55,0.06-2.33,0.09c-0.76,0.03-1.53,0.05-2.3,0.07c-0.76,0.02-1.53,0.04-2.3,0.05c-0.52,0.01-1.04,0.02-1.55,0.02  c-0.95,0.01-1.9,0.02-2.85,0.02c-0.95,0-1.9-0.01-2.85-0.02c-0.51,0-1.03-0.01-1.55-0.02c-0.77-0.01-1.54-0.03-2.3-0.05  c-0.77-0.02-1.54-0.04-2.3-0.07c-0.78-0.03-1.56-0.06-2.33-0.09c-0.94-0.04-1.88-0.09-2.82-0.14c-10.3-0.56-20.44-1.74-30.38-3.49  V368.98c0,21.07,19.93,38.15,44.53,38.15S300.53,390.05,300.53,368.98z"/>
<path style="fill:#D9D9DB;" d="M300.53,368.98v139.14c-9.94,1.75-20.08,2.93-30.38,3.49c-0.94,0.05-1.88,0.1-2.82,0.14  c-0.77,0.03-1.55,0.06-2.33,0.09c-0.76,0.03-1.53,0.05-2.3,0.07c-0.76,0.02-1.53,0.04-2.3,0.05c-0.52,0.01-1.04,0.02-1.55,0.02  c-0.95,0.01-1.9,0.02-2.85,0.02V407.13C280.6,407.13,300.53,390.05,300.53,368.98z"/>
<path style="fill:#FFFFFF;" d="M279.202,142.457c-0.194,0.194-0.37,0.4-0.53,0.613l-16.384-16.384l16.384-16.384  c0.16,0.213,0.336,0.419,0.53,0.613c2.241,2.241,5.876,2.241,8.117,0s2.241-5.876,0-8.117c-1.66-1.66-4.084-2.089-6.14-1.29  c0.799-2.056,0.37-4.48-1.29-6.14c-2.241-2.241-5.875-2.241-8.117,0c-2.241,2.242-2.241,5.876,0,8.117  c0.194,0.194,0.4,0.37,0.613,0.53L256,120.398l-16.384-16.384c0.213-0.16,0.419-0.336,0.613-0.53c2.241-2.241,2.241-5.875,0-8.117  c-2.242-2.241-5.876-2.241-8.117,0c-1.66,1.66-2.089,4.084-1.29,6.14c-2.056-0.799-4.48-0.37-6.14,1.29  c-2.242,2.241-2.242,5.876,0,8.117s5.876,2.241,8.117,0c0.194-0.194,0.37-0.4,0.53-0.613l16.384,16.384l-16.384,16.384  c-0.161-0.213-0.336-0.419-0.53-0.613c-2.242-2.242-5.876-2.242-8.117,0c-2.242,2.241-2.242,5.876,0,8.117  c1.66,1.66,4.084,2.089,6.14,1.29c-0.799,2.056-0.37,4.48,1.29,6.14c2.241,2.242,5.875,2.242,8.117,0  c2.241-2.241,2.241-5.875,0-8.117c-0.194-0.194-0.4-0.37-0.613-0.53L256,132.973l16.384,16.384c-0.213,0.16-0.419,0.336-0.613,0.53  c-2.241,2.241-2.241,5.876,0,8.117c2.241,2.242,5.875,2.242,8.117,0c1.66-1.66,2.089-4.084,1.29-6.14  c2.056,0.799,4.48,0.37,6.14-1.29c2.241-2.241,2.241-5.876,0-8.117C285.078,140.215,281.443,140.215,279.202,142.457z"/>
<path style="fill:#C8C6CC;" d="M287.32,142.46c2.24,2.24,2.24,5.87,0,8.11c-1.66,1.66-4.08,2.09-6.14,1.29  c0.8,2.06,0.37,4.48-1.29,6.14c-2.24,2.25-5.88,2.25-8.12,0c-2.24-2.24-2.24-5.87,0-8.11c0.2-0.2,0.4-0.37,0.61-0.53L256,132.97  V120.4l16.38-16.39c-0.21-0.16-0.41-0.33-0.61-0.53c-2.24-2.24-2.24-5.87,0-8.11s5.88-2.24,8.12,0c1.66,1.66,2.09,4.08,1.29,6.14  c2.06-0.8,4.48-0.37,6.14,1.29c2.24,2.24,2.24,5.87,0,8.11c-2.24,2.25-5.88,2.25-8.12,0c-0.19-0.19-0.37-0.4-0.53-0.61l-16.38,16.39  l16.38,16.38c0.16-0.21,0.34-0.42,0.53-0.61C281.44,140.22,285.08,140.22,287.32,142.46z"/>
<rect x="188.15" y="440.49" style="fill:#FFCF00;" width="135.69" height="16.51"/>
<rect x="256" y="440.49" style="fill:#ECB300;" width="67.847" height="16.51"/>
<circle style="fill:#FFE047;" cx="178.5" cy="448.75" r="15.745"/>
<circle style="fill:#FFCF00;" cx="333.5" cy="448.75" r="15.745"/>
<g>
</g>
<g>
</g>
<g>
</g>
<g>
</g>
<g>
</g>
<g>
</g>
<g>
</g>
<g>
</g>
<g>
</g>
<g>
</g>
<g>
</g>
<g>
</g>
<g>
</g>
<g>
</g>
<g>
</g>
</svg>
