<?xml version="1.0" encoding="iso-8859-1"?>
<!-- Generator: Adobe Illustrator 19.0.0, SVG Export Plug-In . SVG Version: 6.00 Build 0)  -->
<svg xmlns="http://www.w3.org/2000/svg" xmlns:xlink="http://www.w3.org/1999/xlink" version="1.1" id="Layer_1" x="0px" y="0px" viewBox="0 0 512 512" style="enable-background:new 0 0 512 512;" xml:space="preserve">
<circle style="fill:#7FC8F1;" cx="256" cy="256" r="256"/>
<path style="fill:#00ACEA;" d="M512,256c0-16.12-1.506-31.887-4.356-47.182l-62.226-62.226  c-96.381,58.731-202.459,89.211-274.476,104.438c-78.259,16.547-134.365,19.168-134.923,19.193l0.84,19.21l222.523,222.523  C399.206,510.144,512,396.254,512,256z"/>
<path style="fill:#2A2A2C;" d="M220.982,246.794l25.546,70.32c16.892,46.498,68.756,70.72,115.254,53.829l0,0  c46.498-16.892,70.72-68.756,53.829-115.253l-25.546-70.32L220.982,246.794z"/>
<path style="fill:#171719;" d="M305.524,216.081l56.258,154.861l0,0c46.498-16.892,70.72-68.756,53.829-115.253l-25.546-70.32  L305.524,216.081z"/>
<path style="fill:#2A2A2C;" d="M36.859,289.434l-0.84-19.21c0.558-0.025,56.664-2.646,134.923-19.193  c72.017-15.227,178.096-45.707,274.476-104.438l10.005,16.421C356.588,223.24,248.109,254.398,174.51,269.93  C94.792,286.754,39.187,289.332,36.859,289.434z"/>
<polygon style="fill:#FFFFFF;" points="359.089,251.559 343.522,244.289 327.913,277.712 294.49,262.103 287.22,277.67   320.643,293.279 305.034,326.702 320.601,333.971 336.21,300.549 369.633,316.158 376.903,300.591 343.48,284.982 "/>
<polygon style="fill:#C8C6CC;" points="343.481,284.98 376.902,300.596 369.628,316.155 336.21,300.548 327.912,277.709   343.519,244.291 359.087,251.562 "/>
<g>
</g>
<g>
</g>
<g>
</g>
<g>
</g>
<g>
</g>
<g>
</g>
<g>
</g>
<g>
</g>
<g>
</g>
<g>
</g>
<g>
</g>
<g>
</g>
<g>
</g>
<g>
</g>
<g>
</g>
</svg>
