<?xml version="1.0" encoding="iso-8859-1"?>
<!-- Generator: Adobe Illustrator 19.0.0, SVG Export Plug-In . SVG Version: 6.00 Build 0)  -->
<svg xmlns="http://www.w3.org/2000/svg" xmlns:xlink="http://www.w3.org/1999/xlink" version="1.1" id="Layer_1" x="0px" y="0px" viewBox="0 0 512 512" style="enable-background:new 0 0 512 512;" xml:space="preserve">
<circle style="fill:#FF4F19;" cx="256" cy="256" r="256"/>
<path style="fill:#EE2600;" d="M512,256c0-9.305-0.51-18.49-1.478-27.538L400.168,118.107C363.848,80.145,312.686,56.5,256,56.5  C145.819,56.5,56.5,145.819,56.5,256c0,56.686,23.645,107.847,61.606,144.166l110.356,110.356C237.51,511.49,246.695,512,256,512  C397.385,512,512,397.385,512,256z"/>
<circle style="fill:#FFE670;" cx="256" cy="256" r="199.5"/>
<path style="fill:#FFD400;" d="M455.503,256c0,110.177-89.326,199.503-199.503,199.503V56.497  C366.177,56.497,455.503,145.823,455.503,256z"/>
<path style="fill:#FFCF00;" d="M256,85.219C161.68,85.219,85.218,161.68,85.218,256S161.68,426.781,256,426.781  S426.781,350.32,426.781,256S350.32,85.219,256,85.219z M256,401.802c-80.524,0-145.801-65.278-145.801-145.802  S175.476,110.199,256,110.199S401.802,175.476,401.802,256S336.524,401.802,256,401.802z"/>
<path style="fill:#ECB300;" d="M256,85.219v24.98c80.527,0,145.802,65.274,145.802,145.801S336.527,401.802,256,401.802v24.98  c94.322,0,170.781-76.459,170.781-170.781S350.322,85.219,256,85.219z"/>
<path style="fill:#FFCF00;" d="M337.269,275.662c4.629-10.735,7.205-22.563,7.205-34.996c0-48.863-39.611-88.474-88.474-88.474  s-88.474,39.611-88.474,88.474c0,12.433,2.576,24.261,7.205,34.996c-4.766,4.585-7.737,11.023-7.737,18.159  c0,13.918,11.283,25.201,25.201,25.201c5.495,0,10.575-1.764,14.716-4.749c3.177,2.123,6.505,4.034,9.953,5.739v27.79  c0,6.603,5.403,12.006,12.006,12.006h1.437v-32.115h11.561v32.115h8.35v-32.115h11.561v32.115h8.35v-32.115h11.561v32.115h1.437  c6.603,0,12.006-5.403,12.006-12.006v-27.79c3.448-1.705,6.776-3.616,9.953-5.739c4.141,2.985,9.221,4.749,14.716,4.749  c13.918,0,25.201-11.283,25.201-25.201C345.005,286.685,342.035,280.247,337.269,275.662z M225.049,255.53h-8.767  c-9.301,0-16.911-7.61-16.911-16.911v-8.767c0-9.301,7.61-16.911,16.911-16.911h8.767c9.301,0,16.911,7.61,16.911,16.911v8.767  C241.96,247.92,234.35,255.53,225.049,255.53z M266.655,290.5H256h-10.655c-5.074,0-8.246-5.493-5.709-9.888l5.327-9.227  l5.327-9.227c2.537-4.395,8.88-4.395,11.418,0l5.327,9.227l5.327,9.227C274.901,285.007,271.729,290.5,266.655,290.5z   M312.628,238.619c0,9.301-7.61,16.911-16.911,16.911h-8.767c-9.301,0-16.911-7.61-16.911-16.911v-8.767  c0-9.301,7.61-16.911,16.911-16.911h8.767c9.301,0,16.911,7.61,16.911,16.911V238.619z"/>
<path style="fill:#ECB300;" d="M337.272,275.658c4.629-10.726,7.198-22.553,7.198-34.992c0-48.859-39.611-88.47-88.47-88.47v106.669  c2.223,0,4.445,1.091,5.71,3.293l5.322,9.227l5.332,9.227c2.539,4.395-0.632,9.89-5.71,9.89H256v37.195h5.781v32.107h8.35v-32.107  h11.562v32.107h1.438c6.597,0,12.001-5.404,12.001-12.001V320.01c3.457-1.703,6.78-3.62,9.951-5.74  c4.15,2.987,9.227,4.751,14.723,4.751c13.917,0,25.204-11.287,25.204-25.204C345.01,286.69,342.033,280.246,337.272,275.658z   M312.628,238.616c0,9.309-7.606,16.915-16.915,16.915h-8.758c-9.309,0-16.915-7.606-16.915-16.915v-8.768  c0-9.299,7.606-16.905,16.915-16.905h8.758c9.309,0,16.915,7.606,16.915,16.905V238.616z"/>
<g>
</g>
<g>
</g>
<g>
</g>
<g>
</g>
<g>
</g>
<g>
</g>
<g>
</g>
<g>
</g>
<g>
</g>
<g>
</g>
<g>
</g>
<g>
</g>
<g>
</g>
<g>
</g>
<g>
</g>
</svg>
