<?xml version="1.0" encoding="iso-8859-1"?>
<!-- Generator: Adobe Illustrator 19.0.0, SVG Export Plug-In . SVG Version: 6.00 Build 0)  -->
<svg xmlns="http://www.w3.org/2000/svg" xmlns:xlink="http://www.w3.org/1999/xlink" version="1.1" id="Layer_1" x="0px" y="0px" viewBox="0 0 512 512" style="enable-background:new 0 0 512 512;" xml:space="preserve">
<circle style="fill:#3C3B41;" cx="256" cy="256" r="256"/>
<path style="fill:#2A2A2C;" d="M512,256c0-25.829-3.841-50.759-10.956-74.266l-101.05-101.05c-4.614-4.614-12.29-3.873-15.937,1.537  l-23.348,34.634l-4.466-4.466c-3.047-3.046-8.032-3.046-11.078,0l-10.986,10.986c-3.046,3.046-3.046,8.032,0,11.078l1.545,1.545  c-16.71,16.71-43.804,43.804-47.581,47.581c-5.516,5.516-38.008,26.344-66.967,12.095c-28.958-14.249-51.482-0.919-72.167,19.765  c-20.685,20.685-65.77,65.77-82.778,82.778c-17.007,17.007-38.685,37.462-11.255,64.892l142.057,142.057  C215.966,509.627,235.705,512,256,512C397.385,512,512,397.385,512,256z"/>
<path style="fill:#FF9A00;" d="M384.056,82.22l-24.245,35.964l34.003,34.003l35.964-24.245c5.41-3.647,6.15-11.324,1.537-15.937  l-31.321-31.321C395.38,76.07,387.704,76.81,384.056,82.22z"/>
<path style="fill:#E67500;" d="M429.777,127.942l-35.964,24.24l-16.999-16.999l38.841-38.841l15.663,15.662  C435.929,116.614,435.194,124.294,429.777,127.942z"/>
<path style="fill:#FFFFFF;" d="M213.783,445.766c17.007-17.007,62.093-62.093,82.778-82.778  c20.685-20.685,34.015-43.208,19.765-72.166c-14.249-28.958,6.579-61.451,12.095-66.967s60.77-60.77,60.77-60.77l-40.277-40.278  c0,0-55.254,55.254-60.77,60.77s-38.008,26.344-66.967,12.095c-28.958-14.249-51.482-0.919-72.166,19.765  c-20.685,20.685-65.77,65.77-82.778,82.778c-17.007,17.007-38.685,37.462-11.255,64.892s66.484,66.484,93.914,93.914  C176.321,484.45,196.776,462.773,213.783,445.766z"/>
<path style="fill:#E1E1E3;" d="M148.893,457.023l-46.959-46.959l267.117-267.117l20.138,20.138c0,0-55.253,55.253-60.769,60.769  c-5.515,5.515-26.34,38.007-12.099,66.97c14.248,28.956,0.919,51.477-19.764,72.16l-82.781,82.781  C196.772,462.772,176.322,484.451,148.893,457.023z"/>
<path style="fill:#FF4F19;" d="M194.905,447.357c-0.516,0.389-1.025,0.771-1.542,1.131c-0.014,0-0.021,0.007-0.028,0.014  c-0.262,0.177-0.53,0.361-0.792,0.537c-1.329,0.905-2.68,1.732-4.052,2.468c-0.544,0.29-1.089,0.566-1.648,0.827  c-1.131,0.523-2.27,0.997-3.422,1.386c-0.573,0.191-1.139,0.361-1.711,0.509c-0.007,0.007-0.014,0-0.014,0  c-0.573,0.163-1.16,0.297-1.747,0.403c-0.304,0.064-0.608,0.113-0.905,0.156c-0.891,0.141-1.789,0.233-2.701,0.269  c-3.96,0.156-8.118-0.693-12.487-2.899c-0.608-0.297-1.209-0.629-1.824-0.99c-3.147-1.831-6.392-4.37-9.758-7.736l-83.707-83.707  c-24.445-24.445-5.127-42.674,10.034-57.834l73.772-73.772c18.434-18.434,38.516-30.314,64.326-17.614  c0.361,0.177,0.721,0.354,1.089,0.509l83.177,83.177c-1.068-2.326-1.874-4.674-2.475-7.029c0.608,2.362,1.421,4.716,2.496,7.05  c0.156,0.368,0.332,0.728,0.509,1.089c1.386,2.828,2.482,5.579,3.309,8.273c0.233,0.771,0.445,1.534,0.636,2.291  c0.099,0.382,0.184,0.764,0.276,1.138c0.17,0.75,0.318,1.492,0.446,2.242c0.254,1.485,0.431,2.963,0.53,4.405  c0.049,0.728,0.078,1.45,0.085,2.164s0,1.428-0.028,2.135s-0.071,1.4-0.134,2.1c-0.042,0.339-0.078,0.7-0.12,1.054  c-0.078,0.7-0.177,1.379-0.297,2.065c0,0,0,0-0.007,0.007c-0.17,1.032-0.382,2.051-0.636,3.055c-0.247,1.011-0.53,2.015-0.856,3.005  c-0.014,0-0.014,0-0.007,0.007c-3.55,10.946-11.307,20.881-20.81,30.384l-73.772,73.772  C205.37,438.136,200.342,443.277,194.905,447.357z"/>
<path style="fill:#FF3200;" d="M194.905,447.357c-0.509,0.382-1.025,0.757-1.542,1.131c-0.014,0-0.021,0.007-0.028,0.014  c-0.262,0.177-0.53,0.361-0.792,0.537c-1.329,0.905-2.68,1.732-4.052,2.468c-0.544,0.29-1.103,0.566-1.648,0.827  c-1.131,0.523-2.27,0.997-3.422,1.386c-0.566,0.184-1.139,0.361-1.711,0.509c-0.007,0.007-0.014,0-0.014,0  c-0.58,0.156-1.167,0.29-1.747,0.403c-0.304,0.064-0.608,0.113-0.905,0.156c-0.891,0.141-1.789,0.233-2.701,0.269  c-3.96,0.156-8.118-0.693-12.487-2.899c-0.608-0.297-1.209-0.629-1.824-0.99c-3.147-1.831-6.392-4.37-9.758-7.736l-41.854-41.854  l148.966-148.966l41.578,41.578c0.163,0.375,0.339,0.75,0.523,1.117c1.393,2.821,2.482,5.579,3.316,8.266  c0.233,0.771,0.445,1.534,0.636,2.291c0.099,0.382,0.184,0.764,0.276,1.138c0.17,0.75,0.311,1.499,0.446,2.242  c0.254,1.485,0.431,2.963,0.53,4.405c0.049,0.728,0.071,1.442,0.085,2.164c0.007,0.714,0,1.428-0.028,2.135  c-0.035,0.7-0.085,1.4-0.134,2.1c-0.042,0.339-0.078,0.7-0.12,1.054c-0.085,0.693-0.184,1.372-0.297,2.065c0,0,0,0-0.007,0.007  c-0.177,1.025-0.389,2.043-0.636,3.055c-0.254,1.004-0.537,2.008-0.856,3.005c-0.014,0-0.014,0-0.007,0.007  c-3.55,10.932-11.314,20.874-20.817,30.377l-73.779,73.779C205.363,438.129,200.335,443.27,194.905,447.357z"/>
<path style="fill:#E1E1E3;" d="M377.547,177.819l-43.368-43.368c-3.046-3.046-3.046-8.032,0-11.078l10.986-10.986  c3.046-3.046,8.031-3.046,11.078,0l43.367,43.368c3.046,3.046,3.046,8.032,0,11.078l-10.986,10.986  C385.578,180.866,380.593,180.866,377.547,177.819z"/>
<path style="fill:#C8C6CC;" d="M399.612,166.833l-10.989,10.988c-3.048,3.048-8.033,3.041-11.073,0l-21.687-21.687l22.062-22.062  l21.687,21.687C402.653,158.8,402.66,163.786,399.612,166.833z"/>
<rect x="102.354" y="271.795" transform="matrix(-0.7071 -0.7071 0.7071 -0.7071 77.6218 691.9011)" style="fill:#FFE670;" width="159.508" height="116.159"/>
<rect x="152.226" y="318.2" transform="matrix(-0.7071 0.7071 -0.7071 -0.7071 612.2101 462.5635)" style="fill:#FFD400;" width="116.159" height="79.749"/>
<polygon style="fill:#FF9A00;" points="227.59,338.477 227.59,321.296 190.702,321.296 190.702,284.408 173.521,284.408   173.522,321.296 136.633,321.296 136.634,338.477 173.521,338.477 173.521,375.365 190.702,375.365 190.702,338.477 "/>
<polygon style="fill:#E67500;" points="190.705,338.476 190.697,375.366 173.522,375.359 173.522,338.476 190.704,321.294   227.587,321.294 227.587,338.476 "/>
<path style="fill:#FFE670;" d="M300.985,294.212l-0.021-0.021c-1.068-2.326-1.874-4.674-2.475-7.029  C299.097,289.523,299.91,291.878,300.985,294.212z"/>
<g>
</g>
<g>
</g>
<g>
</g>
<g>
</g>
<g>
</g>
<g>
</g>
<g>
</g>
<g>
</g>
<g>
</g>
<g>
</g>
<g>
</g>
<g>
</g>
<g>
</g>
<g>
</g>
<g>
</g>
</svg>
