<?xml version="1.0" encoding="iso-8859-1"?>
<!-- Generator: Adobe Illustrator 19.0.0, SVG Export Plug-In . SVG Version: 6.00 Build 0)  -->
<svg xmlns="http://www.w3.org/2000/svg" xmlns:xlink="http://www.w3.org/1999/xlink" version="1.1" id="Layer_1" x="0px" y="0px" viewBox="0 0 512 512" style="enable-background:new 0 0 512 512;" xml:space="preserve">
<circle style="fill:#C8C6CC;" cx="256" cy="256" r="256"/>
<path style="fill:#AEADB3;" d="M512,256c0-10.138-0.608-20.132-1.755-29.961L317.207,33l-21.249,42.68L256,33l-21.249,42.68  L194.793,33l-35.33,70.963l58.092,96.678v15.348c-19.066,10.592-72.311,44.316-100.671,104.012  c-19.04,40.078-26.576,90.137,10.391,122.649l60.008,60.007C209.152,508.738,232.194,512,256,512C397.385,512,512,397.385,512,256z"/>
<path style="fill:#FF8900;" d="M395.116,320.001C360.168,246.44,287.43,212.316,287.43,212.316L256,200.642l-31.43,11.674  c0,0-72.738,34.124-107.686,107.686C85.992,385.026,85.379,476.329,256,476.329S426.008,385.026,395.116,320.001z"/>
<path style="fill:#C06200;" d="M256,476.333V200.642l31.431,11.668c0,0,72.738,34.129,107.682,107.692  C426.004,385.023,426.626,476.333,256,476.333z"/>
<polygon style="fill:#FF8900;" points="317.207,33 286.603,94.47 256,33 225.396,94.47 194.793,33 159.463,103.963 224.57,212.316   256,212.316 287.43,212.316 352.537,103.963 "/>
<polygon style="fill:#C06200;" points="352.533,103.967 287.431,212.311 256,212.311 256,33 286.606,94.467 317.202,33 "/>
<rect x="217.56" y="200.64" style="fill:#FFDF47;" width="76.922" height="15.366"/>
<rect x="256" y="200.64" style="fill:#FFCF00;" width="38.477" height="15.364"/>
<circle style="fill:#FFDF47;" cx="256" cy="346.04" r="82.84"/>
<path style="fill:#FFCF00;" d="M338.839,346.038c0,45.757-37.092,82.839-82.839,82.839V263.199  C301.747,263.199,338.839,300.291,338.839,346.038z"/>
<g>
</g>
<g>
</g>
<g>
</g>
<g>
</g>
<g>
</g>
<g>
</g>
<g>
</g>
<g>
</g>
<g>
</g>
<g>
</g>
<g>
</g>
<g>
</g>
<g>
</g>
<g>
</g>
<g>
</g>
</svg>
