<?xml version="1.0" encoding="iso-8859-1"?>
<!-- Generator: Adobe Illustrator 19.0.0, SVG Export Plug-In . SVG Version: 6.00 Build 0)  -->
<svg xmlns="http://www.w3.org/2000/svg" xmlns:xlink="http://www.w3.org/1999/xlink" version="1.1" id="Layer_1" x="0px" y="0px" viewBox="0 0 512 512" style="enable-background:new 0 0 512 512;" xml:space="preserve">
<circle style="fill:#802897;" cx="256" cy="256" r="256"/>
<path style="fill:#5C1B6F;" d="M512,256c0-4.016-0.105-8.008-0.288-11.979L342.199,74.508  c-19.743-21.614-48.154-35.174-79.734-35.174h-13.151c-49.415,0-91.074,33.198-103.896,78.507  c-16.952-16.604-43.725-19.568-43.725-19.568s-2.244,23.634,8.078,43.054c-21.438,2.386-39.381,16.752-39.381,16.752l50.917,51.164  l1.676,15.477c0.787,7.263,4.609,13.494,10.059,17.577v18.037c0,1.838,0.754,3.509,1.968,4.718l76.456,76.448v27.481H167.43  c-0.71,0-1.41,0.01-2.11,0.03s-1.4,0.05-2.09,0.09c-0.4,0.02-0.79,0.05-1.19,0.07c-0.05,0-0.11,0.01-0.16,0.01  c-0.23,0.02-0.46,0.04-0.69,0.06c-0.04,0-0.07,0.01-0.11,0.01c-0.71,0.06-1.42,0.13-2.13,0.21c-0.14,0.01-0.29,0.03-0.43,0.05  c-0.11,0-0.21,0.02-0.32,0.03c-0.04,0.01-0.09,0.01-0.13,0.02c-0.28,0.03-0.55,0.07-0.82,0.11c-0.12,0.02-0.23,0.03-0.35,0.05  c-0.09,0.01-0.19,0.03-0.28,0.04c-0.48,0.07-0.95,0.14-1.42,0.22c-0.24,0.03-0.47,0.07-0.71,0.11c-0.06,0.01-0.12,0.02-0.18,0.03  c-0.28,0.05-0.56,0.1-0.83,0.16c-0.13,0.02-0.26,0.05-0.39,0.08c-0.35,0.06-0.7,0.14-1.05,0.21c-0.35,0.07-0.7,0.15-1.04,0.22  c-33.93,7.56-59.5,38-59.5,74.11v7.238c0.19,0.159,0.377,0.321,0.567,0.48c0.749,0.626,1.503,1.247,2.259,1.864  c0.632,0.515,1.268,1.025,1.905,1.534c0.736,0.588,1.469,1.18,2.211,1.76v0.002C141.887,491.749,196.577,512,256,512  C397.385,512,512,397.385,512,256z"/>
<path style="fill:#EE2600;" d="M70.39,158.079c0,0,44.702,54.102,87.273,8.971C125.163,114.202,70.39,158.079,70.39,158.079z"/>
<path style="fill:#FF3200;" d="M101.693,98.273c0,0-6.647,69.864,55.368,68.054C171.449,105.978,101.693,98.273,101.693,98.273z"/>
<rect x="211.47" y="324.8" style="fill:#FFC473;" width="89.07" height="112.37"/>
<rect x="256" y="324.8" style="fill:#FFAA20;" width="44.538" height="112.37"/>
<g>
	<path style="fill:#FFDBA9;" d="M370.651,176.562C365.864,106.095,305.768,66.101,256,66.101s-109.864,39.994-114.651,110.461   c-12.878,2.412-22.018,14.448-20.584,27.682l2.218,20.476c1.505,13.891,14.101,24.026,27.992,22.521l2.392-0.259   c28.436,74.02,74.325,93.077,102.634,97.406c28.309-4.329,74.198-23.386,102.634-97.406l2.392,0.259   c13.891,1.505,26.487-8.63,27.992-22.521l2.218-20.476C392.668,191.01,383.529,178.974,370.651,176.562z"/>
	<path style="fill:#FFDBA9;" d="M391.24,204.243l-2.22,20.48c-1.51,13.89-14.1,24.02-27.99,22.52l-2.4-0.26   c-28.43,74.02-74.32,93.07-102.63,97.4V88.843h66.54c25.63,18.7,45.44,48.48,48.11,87.72   C383.53,178.973,392.67,191.013,391.24,204.243z"/>
</g>
<g>
	<path style="fill:#FFC473;" d="M391.24,204.243l-2.22,20.48c-1.51,13.89-14.1,24.02-27.99,22.52l-2.4-0.26   c-28.43,74.02-74.32,93.07-102.63,97.4V66.103c49.09,0,108.23,38.91,114.43,107.6c0.09,0.99,0.16,1.94,0.22,2.86   C383.53,178.973,392.67,191.013,391.24,204.243z"/>
	<rect x="179.48" y="198.46" style="fill:#FFC473;" width="59.12" height="25.615"/>
</g>
<polygon style="fill:#FFA91F;" points="255.996,198.456 255.996,279.872 281.611,279.872 281.611,224.071 337.412,224.071   337.412,198.456 "/>
<path style="fill:#FFDBA9;" d="M420.5,444.9v7.25c-17.91,15.04-37.91,27.67-59.5,37.39c-1.35,0.61-2.71,1.21-4.08,1.79  C325.96,504.63,291.84,512,256,512s-69.96-7.37-100.92-20.67c-1.37-0.58-2.73-1.18-4.08-1.79c-21.59-9.72-41.59-22.35-59.5-37.39  v-7.25c0-36.11,25.57-66.55,59.5-74.11c0.34-0.07,0.69-0.15,1.04-0.22c0.35-0.07,0.7-0.15,1.05-0.21c0.13-0.03,0.26-0.06,0.39-0.08  c0.27-0.06,0.55-0.11,0.83-0.16c0.06-0.01,0.12-0.02,0.18-0.03c0.24-0.04,0.47-0.08,0.71-0.11c0.47-0.08,0.94-0.15,1.42-0.22  c0.09-0.01,0.19-0.03,0.28-0.04c0.12-0.02,0.23-0.03,0.35-0.05c0.27-0.04,0.54-0.08,0.82-0.11c0.04-0.01,0.09-0.01,0.13-0.02  c0.11-0.01,0.21-0.03,0.32-0.03c0.14-0.02,0.29-0.04,0.43-0.05c0.71-0.08,1.42-0.15,2.13-0.21c0.04,0,0.07-0.01,0.11-0.01  c0.23-0.02,0.46-0.04,0.69-0.06c0.05,0,0.11-0.01,0.16-0.01c0.4-0.02,0.79-0.05,1.19-0.07c0.69-0.04,1.39-0.07,2.09-0.09  s1.4-0.03,2.11-0.03h177.14c0.6,0,1.19,0.01,1.78,0.03h0.33c0.13,0,0.26,0.01,0.39,0.02c0.08,0,0.16,0,0.24,0.01  c0.49,0.01,0.97,0.03,1.45,0.06h0.01c0.4,0.02,0.79,0.05,1.19,0.07c0.05,0,0.11,0.01,0.16,0.01c0.23,0.02,0.46,0.04,0.69,0.06  c0.04,0,0.07,0.01,0.11,0.01c0.72,0.05,1.43,0.12,2.13,0.21c0.14,0.01,0.29,0.03,0.43,0.05c0.11,0,0.21,0.02,0.32,0.03  c0.04,0.01,0.09,0.01,0.13,0.02c0.28,0.03,0.55,0.07,0.82,0.11c0.12,0.02,0.23,0.03,0.35,0.05c0.08,0.01,0.17,0.02,0.25,0.04h0.03  c0.72,0.1,1.42,0.21,2.13,0.33c0.06,0.01,0.12,0.02,0.18,0.03c0.28,0.05,0.56,0.1,0.83,0.16c0.44,0.08,0.87,0.17,1.3,0.25  c0.27,0.06,0.53,0.12,0.79,0.18c0.13,0.02,0.26,0.05,0.39,0.08C394.93,378.35,420.5,408.79,420.5,444.9z"/>
<path style="fill:#FFC473;" d="M420.5,444.9v7.25c-17.91,15.04-37.91,27.67-59.5,37.39c-1.35,0.61-2.71,1.21-4.08,1.79  C325.96,504.63,291.84,512,256,512V368.98h88.57c0.6,0,1.19,0.01,1.78,0.03h0.33c0.13,0,0.26,0.01,0.39,0.02  c0.08,0,0.16,0,0.24,0.01c0.49,0.01,0.97,0.03,1.45,0.06h0.01c0.4,0.02,0.79,0.05,1.19,0.07c0.05,0,0.11,0.01,0.16,0.01  c0.23,0.02,0.46,0.04,0.69,0.06c0.04,0,0.07,0.01,0.11,0.01c0.72,0.05,1.43,0.12,2.13,0.21c0.14,0.01,0.29,0.03,0.43,0.05  c0.11,0,0.21,0.02,0.32,0.03c0.04,0.01,0.09,0.01,0.13,0.02c0.28,0.03,0.55,0.07,0.82,0.11c0.12,0.02,0.23,0.03,0.35,0.05  c0.08,0.01,0.17,0.02,0.25,0.04h0.03c0.72,0.1,1.42,0.21,2.13,0.33c0.06,0.01,0.12,0.02,0.18,0.03c0.28,0.05,0.56,0.1,0.83,0.16  c0.44,0.08,0.87,0.17,1.3,0.25c0.27,0.06,0.53,0.12,0.79,0.18c0.13,0.02,0.26,0.05,0.39,0.08  C394.93,378.35,420.5,408.79,420.5,444.9z"/>
<g>
	<path style="fill:#00ACEA;" d="M361,370.8v118.74c-1.35,0.61-2.71,1.21-4.08,1.79C325.96,504.63,291.84,512,256,512   s-69.96-7.37-100.92-20.67c-1.37-0.58-2.73-1.18-4.08-1.79V370.8c0.35-0.08,0.7-0.16,1.04-0.23c0.35-0.07,0.7-0.15,1.05-0.21   c0.7-0.13,1.41-0.26,2.11-0.38c0.47-0.08,0.94-0.15,1.42-0.22c0.09-0.01,0.19-0.03,0.28-0.04c0.12-0.02,0.23-0.03,0.35-0.05   c0.42-0.05,0.85-0.11,1.27-0.16c0.14-0.02,0.29-0.04,0.43-0.05c0.71-0.08,1.42-0.15,2.13-0.21c0.04,0,0.07-0.01,0.11-0.01   c0.23-0.02,0.46-0.04,0.69-0.06c0.05,0,0.11-0.01,0.16-0.01c0.4-0.02,0.79-0.05,1.19-0.07c0.69-0.04,1.39-0.07,2.09-0.09   s1.4-0.03,2.11-0.03h44.04c0,24.6,19.94,44.53,44.53,44.53s44.53-19.93,44.53-44.53h44.04c0.6,0,1.19,0.01,1.78,0.03h0.33   c0.13,0,0.26,0.01,0.39,0.02c0.08,0,0.16,0,0.24,0.01c0.49,0.01,0.97,0.03,1.45,0.06h0.01c0.4,0.02,0.79,0.05,1.19,0.07   c0.05,0,0.11,0.01,0.16,0.01c0.23,0.02,0.46,0.04,0.69,0.06c0.04,0,0.07,0.01,0.11,0.01c0.23,0.02,0.46,0.04,0.69,0.07   c0.41,0.04,0.81,0.08,1.21,0.12c0.08,0,0.15,0.01,0.23,0.02c0.14,0.01,0.29,0.03,0.43,0.05c0.2,0.02,0.4,0.05,0.59,0.08   c0.03,0,0.07,0,0.1,0.01c0.19,0.02,0.39,0.05,0.58,0.07c0.12,0.02,0.23,0.03,0.35,0.05c0.08,0.01,0.17,0.02,0.25,0.04h0.03   c0.46,0.07,0.91,0.14,1.37,0.22c0.31,0.05,0.61,0.1,0.91,0.15c0.46,0.08,0.91,0.17,1.36,0.26c0.2,0.04,0.41,0.08,0.61,0.12   C360.09,370.6,360.55,370.7,361,370.8z"/>
	<path style="fill:#00ACEA;" d="M361,370.79v118.75c-1.35,0.61-2.71,1.21-4.08,1.79C325.96,504.63,291.84,512,256,512   s-69.96-7.37-100.92-20.67c-1.37-0.58-2.73-1.18-4.08-1.79V370.79c0.34-0.07,0.69-0.15,1.04-0.22c0.35-0.07,0.7-0.15,1.05-0.21   c0.13-0.03,0.26-0.06,0.39-0.08c0.27-0.06,0.55-0.11,0.83-0.16c0.06-0.01,0.12-0.02,0.18-0.03c0.24-0.04,0.47-0.08,0.71-0.11   c0.47-0.08,0.94-0.15,1.42-0.22c0.09-0.01,0.19-0.03,0.28-0.04c0.12-0.02,0.23-0.03,0.35-0.05c0.27-0.04,0.54-0.08,0.82-0.11   c0.04-0.01,0.09-0.01,0.13-0.02c0.11-0.01,0.21-0.03,0.32-0.03c0.14-0.02,0.29-0.04,0.43-0.05c0.71-0.08,1.42-0.15,2.13-0.21   c0.04,0,0.07-0.01,0.11-0.01c0.23-0.02,0.46-0.04,0.69-0.06c0.05,0,0.11-0.01,0.16-0.01c0.4-0.02,0.79-0.05,1.19-0.07   c0.69-0.04,1.39-0.07,2.09-0.09s1.4-0.03,2.11-0.03h44.04c0,24.6,19.94,44.53,44.53,44.53s44.53-19.93,44.53-44.53h44.04   c0.6,0,1.19,0.01,1.78,0.03h0.33c0.13,0,0.26,0.01,0.39,0.02c0.08,0,0.16,0,0.24,0.01c0.49,0.01,0.97,0.03,1.45,0.06h0.01   c0.4,0.02,0.79,0.05,1.19,0.07c0.05,0,0.11,0.01,0.16,0.01c0.23,0.02,0.46,0.04,0.69,0.06c0.04,0,0.07,0.01,0.11,0.01   c0.23,0.02,0.46,0.04,0.69,0.07c0.41,0.04,0.81,0.08,1.21,0.12c0.08,0,0.15,0.01,0.23,0.02c0.14,0.01,0.29,0.03,0.43,0.05   c0.11,0,0.21,0.02,0.32,0.03c0.04,0.01,0.09,0.01,0.13,0.02c0.28,0.03,0.55,0.07,0.82,0.11c0.12,0.02,0.23,0.03,0.35,0.05   c0.08,0.01,0.17,0.02,0.25,0.04h0.03c0.72,0.1,1.42,0.21,2.13,0.33c0.06,0.01,0.12,0.02,0.18,0.03c0.28,0.05,0.56,0.1,0.83,0.16   c0.44,0.08,0.87,0.17,1.3,0.25c0.27,0.06,0.53,0.12,0.79,0.18C360.74,370.73,360.87,370.76,361,370.79z"/>
</g>
<path style="fill:#0082D1;" d="M361,370.8v118.74c-1.35,0.61-2.71,1.21-4.08,1.79C325.96,504.63,291.84,512,256,512v-98.49  c24.59,0,44.53-19.93,44.53-44.53h44.04c0.08,0,0.15,0.01,0.22,0.01c0.52,0,1.04,0.01,1.56,0.02h0.11c0.2,0,0.4,0.01,0.61,0.02  c0.08,0,0.16,0,0.24,0.01c0.19,0.01,0.39,0.02,0.58,0.03c0.29,0.01,0.58,0.02,0.87,0.03h0.01c0.96,0.06,1.9,0.13,2.84,0.22  c0.41,0.04,0.81,0.08,1.21,0.12c0.42,0.04,0.83,0.09,1.25,0.15c0.03,0,0.07,0,0.1,0.01c0.39,0.05,0.79,0.1,1.18,0.16h0.03  c0.46,0.07,0.91,0.14,1.37,0.22c0.31,0.05,0.61,0.1,0.91,0.15c0.46,0.08,0.91,0.17,1.36,0.26c0.2,0.04,0.41,0.08,0.61,0.12  c0.33,0.06,0.65,0.13,0.98,0.2C360.74,370.74,360.87,370.77,361,370.8z"/>
<path style="fill:#FF4F19;" d="M262.465,39.333h-13.151c-59.627,0-107.965,48.338-107.965,107.965v29.264H370.43v-29.264  C370.43,87.671,322.092,39.333,262.465,39.333z"/>
<path style="fill:#FF3200;" d="M370.43,147.298c0-59.627-48.338-107.965-107.965-107.965h-6.469v137.229H370.43V147.298z"/>
<path style="fill:#FFCF00;" d="M139.708,267L139.708,267c-3.667,0-6.667-3-6.667-6.667v-24.596c0-3.667,3-6.667,6.667-6.667l0,0  c3.667,0,6.667,3,6.667,6.667v24.596C146.375,264,143.375,267,139.708,267z"/>
<g>
	<path style="fill:#FFFFFF;" d="M214.975,386.333H151v23h86.161C227.216,404.682,219.269,396.472,214.975,386.333z"/>
	<path style="fill:#FFFFFF;" d="M274.839,409.333H361v-23h-63.975C292.731,396.472,284.784,404.682,274.839,409.333z"/>
	<rect x="151" y="438.83" style="fill:#FFFFFF;" width="210" height="23"/>
	<path style="fill:#FFFFFF;" d="M356.92,491.33C325.96,504.63,291.84,512,256,512s-69.96-7.37-100.92-20.67H356.92z"/>
</g>
<g>
	<path style="fill:#D9D9DB;" d="M296.162,388.241c-0.125,0.26-0.262,0.513-0.391,0.77c-0.186,0.368-0.368,0.739-0.564,1.102   c-0.16,0.297-0.333,0.587-0.5,0.88c-0.178,0.312-0.352,0.627-0.537,0.935c-0.189,0.314-0.389,0.62-0.586,0.929   c-0.176,0.276-0.348,0.554-0.53,0.826c-0.218,0.326-0.445,0.643-0.671,0.963c-0.172,0.244-0.342,0.49-0.519,0.73   c-0.245,0.333-0.5,0.658-0.754,0.984c-0.169,0.216-0.336,0.434-0.509,0.647c-0.273,0.336-0.554,0.665-0.836,0.993   c-0.165,0.191-0.328,0.384-0.496,0.572c-0.301,0.338-0.609,0.668-0.919,0.997c-0.158,0.167-0.316,0.335-0.477,0.5   c-0.33,0.339-0.667,0.67-1.008,0.998c-0.149,0.143-0.298,0.287-0.449,0.428c-0.361,0.338-0.728,0.668-1.1,0.994   c-0.138,0.121-0.276,0.241-0.416,0.36c-0.392,0.335-0.79,0.663-1.194,0.985c-0.125,0.099-0.25,0.198-0.376,0.295   c-0.425,0.331-0.856,0.655-1.293,0.971c-0.109,0.078-0.218,0.156-0.328,0.233c-0.459,0.325-0.924,0.643-1.396,0.951   c-0.09,0.059-0.181,0.116-0.272,0.174c-0.495,0.319-0.996,0.629-1.505,0.928c-0.067,0.04-0.135,0.078-0.203,0.117   c-0.535,0.311-1.074,0.612-1.622,0.901c-0.039,0.02-0.078,0.039-0.117,0.06c-0.578,0.302-1.163,0.594-1.756,0.871l0,0H361v-23   h-63.975C296.752,386.977,296.464,387.613,296.162,388.241z"/>
	<rect x="256" y="438.83" style="fill:#D9D9DB;" width="105" height="23"/>
	<path style="fill:#D9D9DB;" d="M356.92,491.33C325.96,504.63,291.84,512,256,512v-20.67H356.92z"/>
</g>
<g>
</g>
<g>
</g>
<g>
</g>
<g>
</g>
<g>
</g>
<g>
</g>
<g>
</g>
<g>
</g>
<g>
</g>
<g>
</g>
<g>
</g>
<g>
</g>
<g>
</g>
<g>
</g>
<g>
</g>
</svg>
