<?xml version="1.0" encoding="iso-8859-1"?>
<!-- Generator: Adobe Illustrator 19.0.0, SVG Export Plug-In . SVG Version: 6.00 Build 0)  -->
<svg xmlns="http://www.w3.org/2000/svg" xmlns:xlink="http://www.w3.org/1999/xlink" version="1.1" id="Layer_1" x="0px" y="0px" viewBox="0 0 512 512" style="enable-background:new 0 0 512 512;" xml:space="preserve">
<circle style="fill:#7FC8F1;" cx="256" cy="256" r="256"/>
<path style="fill:#00ACEA;" d="M512,256c0-19.611-2.213-38.705-6.389-57.051L350.906,42.636c-2.058-2.472-5.154-4.053-8.604-4.053  H169.695c-6.162,0-11.204,5.042-11.204,11.204V81.76c0,3.786,1.904,7.146,4.801,9.175l13.818,14.039v123.054  c0,22.229,9.959,42.232,25.629,55.797l28.195,28.385v145.392h-4.756c-4.537,0-8.25,3.713-8.25,8.25v12.461  c0,2.927,1.545,5.508,3.86,6.971l27.402,26.625c2.263,0.059,4.532,0.091,6.809,0.091C397.385,512,512,397.385,512,256z"/>
<path style="fill:#E67500;" d="M272.307,468.982H239.69c-4.815,0-8.755-3.94-8.755-8.755V297.232h50.126v162.995  C281.062,465.043,277.122,468.982,272.307,468.982z"/>
<path style="fill:#C06200;" d="M281.059,297.233v162.99c0,4.82-3.94,8.76-8.75,8.76h-16.31v-171.75L281.059,297.233L281.059,297.233  z"/>
<path style="fill:#FF9A00;" d="M261.022,301.893h-10.047c-40.625,0-73.864-33.239-73.864-73.864V80.59h157.776v147.438  C334.887,268.654,301.648,301.893,261.022,301.893z"/>
<g>
	<path style="fill:#E67500;" d="M334.889,80.593v147.43c0,40.63-33.24,73.87-73.87,73.87h-5.02v-221.3H334.889z"/>
	<rect x="192.75" y="80.59" style="fill:#E67500;" width="23.75" height="96.99"/>
</g>
<path style="fill:#C06200;" d="M292.082,204.899v90.085c9.053-4.232,17.126-10.238,23.75-17.581v-72.504L292.082,204.899  L292.082,204.899z"/>
<g>
	<path style="fill:#FFFFFF;" d="M342.302,92.964H169.695c-6.162,0-11.204-5.042-11.204-11.204V49.787   c0-6.162,5.042-11.204,11.204-11.204h172.607c6.162,0,11.204,5.042,11.204,11.204V81.76   C353.506,87.922,348.464,92.964,342.302,92.964z"/>
	<path style="fill:#FFFFFF;" d="M285.818,486.563H226.18c-4.537,0-8.25-3.712-8.25-8.25v-12.461c0-4.538,3.713-8.25,8.25-8.25   h59.638c4.537,0,8.25,3.712,8.25,8.25v12.461C294.068,482.851,290.355,486.563,285.818,486.563z"/>
</g>
<g>
	<path style="fill:#E1E1E3;" d="M353.509,49.783v31.98c0,6.16-5.04,11.2-11.21,11.2h-86.3v-54.38h86.3   C348.469,38.583,353.509,43.623,353.509,49.783z"/>
	<path style="fill:#E1E1E3;" d="M294.069,465.853v12.46c0,4.54-3.71,8.25-8.25,8.25h-29.82v-28.96h29.82   C290.359,457.603,294.069,461.313,294.069,465.853z"/>
</g>
<g>
</g>
<g>
</g>
<g>
</g>
<g>
</g>
<g>
</g>
<g>
</g>
<g>
</g>
<g>
</g>
<g>
</g>
<g>
</g>
<g>
</g>
<g>
</g>
<g>
</g>
<g>
</g>
<g>
</g>
</svg>
