<?xml version="1.0" encoding="iso-8859-1"?>
<!-- Generator: Adobe Illustrator 19.0.0, SVG Export Plug-In . SVG Version: 6.00 Build 0)  -->
<svg xmlns="http://www.w3.org/2000/svg" xmlns:xlink="http://www.w3.org/1999/xlink" version="1.1" id="Layer_1" x="0px" y="0px" viewBox="0 0 512.001 512.001" style="enable-background:new 0 0 512.001 512.001;" xml:space="preserve">
<circle style="fill:#802897;" cx="255.999" cy="255.998" r="255.998"/>
<path style="fill:#5C1B6F;" d="M511.898,263.202c0.611-21.699-1.508-42.839-6.025-63.1l-88.476-93.344  c-0.454-0.662-0.959-1.29-1.518-1.882c-9.357-9.899-29.69-5.872-45.416,8.993c-5.397,5.101-9.548,10.816-12.297,16.522  l-80.824-85.296c-2.581-3.48-5.643-6.104-9.025-7.599c-0.103-0.046-0.209-0.081-0.313-0.125c-0.679-0.285-1.369-0.533-2.072-0.724  c-0.098-0.027-0.198-0.044-0.296-0.068c-1.123-0.284-2.272-0.456-3.446-0.488c-13.615-0.383-25.146,16.842-25.755,38.473  c-0.419,14.887,4.445,27.98,11.956,34.823l-0.535,19.021c-21.972,1.377-42.492,8.341-60.13,19.504l-38.012-40.253  c-14.865-15.726-34.94-20.89-44.839-11.533s-5.872,29.69,8.993,45.416l38.052,40.215c-12.137,16.983-20.244,37.078-22.855,58.938  l-19.021-0.535c-6.41-7.885-19.209-13.477-34.096-13.896c-21.631-0.609-39.478,9.935-39.861,23.551  c-0.158,5.631,2.698,10.903,7.63,15.195l81.131,85.929c-5.854,2.423-11.796,6.248-17.194,11.351  c-15.726,14.865-20.89,34.94-11.533,44.839l91.229,95.541c19.612,5.442,40.186,8.633,61.446,9.231  C390.127,515.874,507.92,404.53,511.898,263.202z"/>
<polygon style="fill:#E67500;" points="426.519,249.063 284.641,245.07 387.788,147.571 371.67,130.52 268.524,228.019   272.517,86.141 249.064,85.481 245.071,227.359 147.571,124.213 130.521,140.331 228.02,243.476 86.142,239.484 85.482,262.937   227.36,266.93 124.214,364.429 140.331,381.48 243.477,283.981 239.485,425.859 262.938,426.519 266.931,284.641 364.43,387.787   381.481,371.669 283.981,268.524 425.859,272.517 "/>
<polygon style="fill:#C06200;" points="425.862,272.515 283.979,268.522 381.486,371.665 364.425,387.791 266.93,284.639   262.937,426.522 251.211,426.192 260.791,85.808 272.515,86.138 268.522,228.021 371.666,130.515 387.792,147.576 284.639,245.071   426.522,249.064 "/>
<g>
	
		<ellipse transform="matrix(0.0281 -0.9996 0.9996 0.0281 178.5334 334.1226)" style="fill:#FF9A00;" cx="261.09" cy="75.25" rx="39.179" ry="24.663"/>
	
		<ellipse transform="matrix(0.0281 -0.9996 0.9996 0.0281 -192.6924 675.2876)" style="fill:#FF9A00;" cx="250.923" cy="436.736" rx="39.179" ry="24.663"/>
</g>
<g>
	<path style="fill:#FF8900;" d="M275.563,437.441c-0.609,21.631-12.138,38.854-25.752,38.471l2.204-78.328   C265.63,397.966,276.172,415.81,275.563,437.441z"/>
	
		<ellipse transform="matrix(0.9996 0.0281 -0.0281 0.9996 7.5093 -12.1699)" style="fill:#FF8900;" cx="436.759" cy="261.097" rx="39.179" ry="24.663"/>
</g>
<ellipse transform="matrix(0.9996 0.0281 -0.0281 0.9996 7.0808 -2.0159)" style="fill:#FF9A00;" cx="75.266" cy="250.927" rx="39.179" ry="24.663"/>
<ellipse transform="matrix(0.7267 -0.6869 0.6869 0.7267 15.3446 302.1244)" style="fill:#FF8900;" cx="387.398" cy="131.776" rx="39.178" ry="24.662"/>
<ellipse transform="matrix(0.7267 -0.6869 0.6869 0.7267 -227.1151 189.4865)" style="fill:#FF9A00;" cx="124.599" cy="380.193" rx="39.178" ry="24.662"/>
<ellipse transform="matrix(0.6869 0.7267 -0.7267 0.6869 400.5679 -155.0389)" style="fill:#FF8900;" cx="380.227" cy="387.392" rx="39.178" ry="24.662"/>
<g>
	
		<ellipse transform="matrix(0.6869 0.7267 -0.7267 0.6869 131.8052 -56.7772)" style="fill:#FF9A00;" cx="131.8" cy="124.589" rx="39.178" ry="24.662"/>
	<circle style="fill:#FF9A00;" cx="255.999" cy="255.998" r="61.34"/>
</g>
<path style="fill:#E67500;" d="M317.316,257.726c-0.953,33.867-29.175,60.543-63.041,59.59l3.451-122.63  C291.592,195.637,318.269,223.859,317.316,257.726z"/>
<circle style="fill:#FFC473;" cx="255.999" cy="255.998" r="30.991"/>
<path style="fill:#FFAA20;" d="M286.978,256.872c-0.482,17.113-14.736,30.587-31.85,30.106l1.744-61.955  C273.985,225.504,287.459,239.759,286.978,256.872z"/>
<path style="fill:#FFC473;" d="M259.598,128.194c-70.585-1.986-129.416,53.624-131.403,124.209  c-1.986,70.585,53.624,129.416,124.209,131.403c70.585,1.986,129.416-53.624,131.403-124.209  C385.793,189.012,330.183,130.181,259.598,128.194z M253.375,349.295c-51.526-1.45-92.12-44.396-90.67-95.921  c1.45-51.526,44.396-92.12,95.921-90.67c51.526,1.45,92.12,44.396,90.67,95.921C347.846,310.152,304.901,350.746,253.375,349.295z"/>
<path style="fill:#FFAA20;" d="M259.598,128.192l-0.971,34.516c51.53,1.45,92.117,44.389,90.667,95.918  c-1.45,51.529-44.389,92.117-95.918,90.666l-0.971,34.516c70.581,1.986,129.419-53.63,131.405-124.211  C385.796,189.016,330.179,130.178,259.598,128.192z"/>
<path style="fill:#FF8900;" d="M285.737,75.946c-0.609,21.631-12.138,38.854-25.752,38.471l2.204-78.328  C275.804,36.472,286.346,54.316,285.737,75.946z"/>
<g>
</g>
<g>
</g>
<g>
</g>
<g>
</g>
<g>
</g>
<g>
</g>
<g>
</g>
<g>
</g>
<g>
</g>
<g>
</g>
<g>
</g>
<g>
</g>
<g>
</g>
<g>
</g>
<g>
</g>
</svg>
