<?xml version="1.0" encoding="iso-8859-1"?>
<!-- Generator: Adobe Illustrator 19.0.0, SVG Export Plug-In . SVG Version: 6.00 Build 0)  -->
<svg xmlns="http://www.w3.org/2000/svg" xmlns:xlink="http://www.w3.org/1999/xlink" version="1.1" id="Layer_1" x="0px" y="0px" viewBox="0 0 512 512" style="enable-background:new 0 0 512 512;" xml:space="preserve">
<circle style="fill:#FFDF47;" cx="256" cy="256" r="256"/>
<path style="fill:#FFCF00;" d="M512,256c0-31.883-5.846-62.397-16.495-90.55l-77.486-77.486  c-8.479-8.479-27.058-21.571-48.753-18.579l-29.216,54.922l-12.252-12.253c-3.76-3.759-9.911-3.759-13.671,0l-17.998,17.998  c-3.76,3.76-3.76,9.911,0,13.671l8.012,8.012l-66.848,66.848c-21.306-12.937-49.622-10.236-67.985,8.127L56.29,339.729  c-6.975,6.975-6.975,18.285,0,25.26L196.281,504.98C215.443,509.559,235.435,512,256,512C397.385,512,512,397.385,512,256z"/>
<path style="fill:#FFFFFF;" d="M418.019,87.964c-8.479-8.479-27.057-21.571-48.753-18.579l-34.86,65.534l36.659,36.658l65.534-34.86  C439.59,115.022,426.498,96.443,418.019,87.964z"/>
<path style="fill:#E1E1E3;" d="M436.598,136.716l-65.535,34.86l-18.328-18.328l65.287-65.287  C426.5,96.439,439.596,115.022,436.598,136.716z"/>
<rect x="257.583" y="152.458" transform="matrix(-0.7071 -0.7071 0.7071 -0.7071 349.6101 570.7572)" style="fill:#008C49;" width="70.859" height="121.029"/>
<rect x="245.013" y="207.779" transform="matrix(-0.7071 0.7071 -0.7071 -0.7071 681.0159 168.9014)" style="fill:#007539;" width="121.029" height="35.43"/>
<path style="fill:#00A753;" d="M362.259,209.854l-66.13-66.13c-3.76-3.759-3.76-9.911,0-13.671l17.998-17.998  c3.759-3.759,9.911-3.759,13.671,0l66.13,66.13c3.759,3.759,3.759,9.911,0,13.671l-17.998,17.998  C372.171,213.614,366.019,213.614,362.259,209.854z"/>
<path style="fill:#008C49;" d="M393.931,191.856l-17.996,17.996c-3.762,3.762-9.914,3.762-13.675,0l-33.064-33.064l31.664-31.664  l33.064,33.064C397.685,181.95,397.685,188.102,393.931,191.856z"/>
<path style="fill:#00A753;" d="M140.994,449.693L56.29,364.989c-6.975-6.975-6.975-18.284,0-25.26l113.018-113.018  c21.546-21.546,56.804-21.546,78.351,0l31.613,31.613c21.547,21.547,21.547,56.804,0,78.351L166.254,449.693  C159.279,456.668,147.97,456.668,140.994,449.693z"/>
<path style="fill:#008C49;" d="M279.273,336.679L166.256,449.696c-6.972,6.972-18.286,6.972-25.265-0.007L98.643,407.34  l164.819-164.819l15.804,15.804C300.819,279.877,300.819,315.133,279.273,336.679z"/>
<rect x="85.862" y="292.822" transform="matrix(-0.7071 -0.7071 0.7071 -0.7071 37.2272 700.1329)" style="fill:#FFFFFF;" width="155.508" height="99.069"/>
<rect x="141.574" y="330.974" transform="matrix(-0.7071 0.7071 -0.7071 -0.7071 587.7682 496.2455)" style="fill:#E1E1E3;" width="99.069" height="77.759"/>
<g>
</g>
<g>
</g>
<g>
</g>
<g>
</g>
<g>
</g>
<g>
</g>
<g>
</g>
<g>
</g>
<g>
</g>
<g>
</g>
<g>
</g>
<g>
</g>
<g>
</g>
<g>
</g>
<g>
</g>
</svg>
