<?xml version="1.0" encoding="iso-8859-1"?>
<!-- Generator: Adobe Illustrator 19.0.0, SVG Export Plug-In . SVG Version: 6.00 Build 0)  -->
<svg xmlns="http://www.w3.org/2000/svg" xmlns:xlink="http://www.w3.org/1999/xlink" version="1.1" id="Layer_1" x="0px" y="0px" viewBox="0 0 512 512" style="enable-background:new 0 0 512 512;" xml:space="preserve">
<circle style="fill:#3C3B41;" cx="256" cy="256" r="256"/>
<path style="fill:#2A2A2C;" d="M512,256c0-27.199-4.257-53.401-12.115-77.993l-82.946-82.946c0,0-44.767-3.941-79.02,7.318  l-14.294-23.935c0,0-120.313,45.932-85.163,140.702c-1.648,1.753-3.336,3.584-5.079,5.514  C202.622,258.71,78.445,400.395,78.445,400.395L177.9,499.85C202.523,507.73,228.761,512,256,512C397.385,512,512,397.385,512,256z"/>
<path style="fill:#FF8900;" d="M303.458,208.541c-24.45-24.45-39.604-17.612-70.076,16.118  c-30.761,34.05-154.938,175.735-154.938,175.735l33.162,33.162c0,0,141.685-124.177,175.735-154.938  C321.07,248.146,327.908,232.991,303.458,208.541z"/>
<path style="fill:#E67500;" d="M287.335,278.617c-34.045,30.764-175.729,154.94-175.729,154.94l-16.582-16.582l208.431-208.431  C327.907,232.996,321.07,248.149,287.335,278.617z"/>
<path style="fill:#C06200;" d="M200.687,261.401c-22.996,26.005-52.093,59.083-76.131,86.447l39.595,39.595  c27.364-24.038,60.442-53.135,86.447-76.131L200.687,261.401z"/>
<path style="fill:#9A4C00;" d="M250.598,311.309c-26.012,22.999-59.08,52.094-86.447,76.137l-19.799-19.799l81.292-81.292  L250.598,311.309z"/>
<path style="fill:#FFDF47;" d="M433.556,188.376c-17.333,12.914-38.104,11.587-38.104,11.587  c28.062-30.271,21.486-104.902,21.486-104.902s-74.631-6.575-104.902,21.486c0,0-1.326-20.771,11.587-38.104  c0,0-150.107,57.3-66.021,175.953C376.257,338.483,433.556,188.376,433.556,188.376z"/>
<path style="fill:#FFD400;" d="M257.602,254.398L416.939,95.061c0,0,6.577,74.627-21.492,104.902c0,0,20.778,1.326,38.108-11.592  C433.555,188.371,376.261,338.481,257.602,254.398z"/>
<path style="fill:#FF4F19;" d="M356.072,208.844c-8.343,6.216-18.341,5.578-18.341,5.578c13.508-14.571,10.343-50.495,10.343-50.495  s-35.924-3.165-50.495,10.342c0,0-0.638-9.998,5.578-18.341c0,0-72.255,27.582-31.78,84.696  C328.491,281.099,356.072,208.844,356.072,208.844z"/>
<path style="fill:#FF3200;" d="M271.374,240.625l76.701-76.701c0,0,3.166,35.923-10.345,50.495c0,0,9.998,0.637,18.345-5.575  C356.075,208.844,328.492,281.103,271.374,240.625z"/>
<g>
</g>
<g>
</g>
<g>
</g>
<g>
</g>
<g>
</g>
<g>
</g>
<g>
</g>
<g>
</g>
<g>
</g>
<g>
</g>
<g>
</g>
<g>
</g>
<g>
</g>
<g>
</g>
<g>
</g>
</svg>
