<?xml version="1.0" encoding="iso-8859-1"?>
<!-- Generator: Adobe Illustrator 19.0.0, SVG Export Plug-In . SVG Version: 6.00 Build 0)  -->
<svg xmlns="http://www.w3.org/2000/svg" xmlns:xlink="http://www.w3.org/1999/xlink" version="1.1" id="Layer_1" x="0px" y="0px" viewBox="0 0 512 512" style="enable-background:new 0 0 512 512;" xml:space="preserve">
<circle style="fill:#00A753;" cx="256" cy="256" r="256"/>
<path style="fill:#007F40;" d="M512,256c0-13.403-1.035-26.564-3.02-39.41L397.885,105.495H108.389H82.9v241.449v97.647l0.001,0.001  C128.473,486.443,189.249,512,256,512C397.385,512,512,397.385,512,256z"/>
<path style="fill:#FFFFFF;" d="M82.9,105.495v339.096c8.041,7.385,16.552,14.265,25.489,20.583v-359.68L82.9,105.495L82.9,105.495z"/>
<rect x="334.6" y="152.94" style="fill:#2A2A2C;" width="105.77" height="241.45"/>
<polygon style="fill:#171719;" points="397.885,105.495 334.603,152.935 334.603,394.385 397.885,346.944 "/>
<rect x="82.9" y="105.5" style="fill:#57555C;" width="314.99" height="241.45"/>
<rect x="240.39" y="105.5" style="fill:#3C3B41;" width="157.49" height="241.45"/>
<path style="fill:#FFFFFF;" d="M187.415,158.423l14.048,14.039c-6.024,5.196-11.009,11.573-14.585,18.768l-16.135-16.135  c-5.954,5.76-15.43,5.707-21.305-0.167c-5.936-5.927-5.936-15.553,0-21.481c3.268-3.276,7.654-4.73,11.934-4.395  c-0.335-4.28,1.118-8.666,4.395-11.934c5.927-5.936,15.554-5.936,21.481,0C193.122,142.993,193.175,152.47,187.415,158.423z"/>
<path style="fill:#C8C6CC;" d="M331.351,302.703c-3.276,3.267-7.662,4.729-11.934,4.395c0.335,4.272-1.127,8.658-4.395,11.934  c-5.936,5.936-15.553,5.936-21.489,0c-5.874-5.874-5.918-15.36-0.167-21.305l-21.41-21.41v-5.179  c1.577,0.326,3.197,0.493,4.826,0.493c6.57,0,12.524-2.695,16.813-7.037l16.452,16.452c5.945-5.751,15.43-5.707,21.305,0.167  C337.278,287.149,337.278,296.767,331.351,302.703z"/>
<path style="fill:#FFFFFF;" d="M203.999,271.631c1.638,0,3.25-0.167,4.826-0.493v5.179l-21.41,21.41  c5.76,5.945,5.707,15.43-0.167,21.305c-5.927,5.927-15.553,5.936-21.481,0c-3.276-3.276-4.729-7.662-4.395-11.934  c-4.28,0.335-8.666-1.127-11.934-4.395c-5.936-5.936-5.936-15.554,0-21.49c5.874-5.874,15.351-5.918,21.305-0.167l16.452-16.452  C191.484,268.936,197.437,271.631,203.999,271.631z"/>
<path style="fill:#C8C6CC;" d="M331.351,174.928c-5.874,5.874-15.36,5.927-21.305,0.167l-16.144,16.144  c-3.567-7.204-8.552-13.581-14.585-18.768l14.048-14.047c-5.751-5.954-5.707-15.43,0.167-21.305c5.936-5.936,15.554-5.936,21.489,0  c3.268,3.267,4.73,7.653,4.395,11.934c4.271-0.335,8.657,1.118,11.934,4.395C337.278,159.374,337.278,169.001,331.351,174.928z"/>
<path style="fill:#FFFFFF;" d="M286.74,237.654c2.64-6.122,4.109-12.868,4.109-19.959c0-27.867-22.591-50.458-50.458-50.458  s-50.458,22.591-50.458,50.458c0,7.091,1.469,13.836,4.109,19.959c-2.718,2.615-4.412,6.287-4.412,10.356  c0,7.938,6.435,14.373,14.373,14.373c3.134,0,6.031-1.006,8.393-2.708c1.812,1.211,3.71,2.301,5.676,3.273v15.849  c0,3.766,3.081,6.847,6.847,6.847h0.82v-18.316h6.594v18.316h4.762v-18.316h6.594v18.316h4.762v-18.316h6.594v18.316h0.82  c3.766,0,6.847-3.081,6.847-6.847v-15.849c1.966-0.972,3.865-2.062,5.676-3.273c2.362,1.703,5.259,2.708,8.393,2.708  c7.938,0,14.373-6.435,14.373-14.373C291.152,243.941,289.458,240.269,286.74,237.654z M222.739,226.173h-5  c-5.305,0-9.645-4.34-9.645-9.645v-5c0-5.304,4.34-9.645,9.645-9.645h5c5.305,0,9.645,4.34,9.645,9.645v5  C232.384,221.833,228.044,226.173,222.739,226.173z M246.467,246.117h-6.077h-6.077c-2.894,0-4.703-3.133-3.256-5.639l3.038-5.262  l3.038-5.263c1.447-2.506,5.065-2.506,6.512,0l3.038,5.263l3.038,5.262C251.171,242.984,249.362,246.117,246.467,246.117z   M272.687,216.528c0,5.305-4.34,9.645-9.645,9.645h-5c-5.305,0-9.645-4.34-9.645-9.645v-5c0-5.304,4.34-9.645,9.645-9.645h5  c5.305,0,9.645,4.34,9.645,9.645V216.528z"/>
<path style="fill:#C8C6CC;" d="M286.742,237.652c2.64-6.117,4.105-12.863,4.105-19.957c0-27.865-22.591-50.456-50.456-50.456v60.836  c1.268,0,2.535,0.622,3.256,1.878l3.035,5.263l3.041,5.262c1.448,2.506-0.361,5.641-3.256,5.641h-6.077v21.213h3.297v18.311h4.762  v-18.311h6.594v18.311h0.82c3.762,0,6.844-3.082,6.844-6.844v-15.852c1.971-0.971,3.867-2.064,5.676-3.274  c2.367,1.704,5.262,2.71,8.397,2.71c7.937,0,14.375-6.437,14.375-14.374C291.155,243.944,289.457,240.269,286.742,237.652z   M272.687,216.526c0,5.309-4.338,9.647-9.647,9.647h-4.995c-5.309,0-9.647-4.338-9.647-9.647v-5.001  c0-5.303,4.338-9.641,9.647-9.641h4.995c5.309,0,9.647,4.338,9.647,9.641V216.526z"/>
<g>
</g>
<g>
</g>
<g>
</g>
<g>
</g>
<g>
</g>
<g>
</g>
<g>
</g>
<g>
</g>
<g>
</g>
<g>
</g>
<g>
</g>
<g>
</g>
<g>
</g>
<g>
</g>
<g>
</g>
</svg>
