<?xml version="1.0" encoding="iso-8859-1"?>
<!-- Generator: Adobe Illustrator 19.0.0, SVG Export Plug-In . SVG Version: 6.00 Build 0)  -->
<svg xmlns="http://www.w3.org/2000/svg" xmlns:xlink="http://www.w3.org/1999/xlink" version="1.1" id="Layer_1" x="0px" y="0px" viewBox="0 0 512 512" style="enable-background:new 0 0 512 512;" xml:space="preserve">
<circle style="fill:#7FC8F1;" cx="256" cy="256" r="256"/>
<path style="fill:#00ACEA;" d="M512,256c0-26.169-3.936-51.416-11.232-75.194l-84.753-84.822c-28.998-28.998-76.182-28.998-105.18,0  l85.527,85.527c-18.162,18.162-47.712,18.162-65.874,0l-9.827-9.826l-51.738,51.738c-37.346-29.506-92.113-27.064-126.547,7.37  l-61.539,61.539c-6.922-5.782-17.318-5.435-23.812,1.059l-9.875,9.875c-6.871,6.871-6.871,18.114,0,24.984l182.396,182.396  C238.243,511.539,247.068,512,256,512C397.385,512,512,397.385,512,256z"/>
<path style="fill:#FFFFFF;" d="M286.341,245.312l-19.653-19.653l53.974-53.974l9.826,9.827c18.162,18.162,47.712,18.162,65.874,0  c18.161-18.161,18.162-47.712,0-65.874s-47.713-18.161-65.874,0l-19.653-19.653c28.998-28.998,76.182-28.998,105.18,0  s28.998,76.182,0,105.18c-25.641,25.641-65.5,28.609-94.433,8.906L286.341,245.312z"/>
<path style="fill:#E1E1E3;" d="M416.015,201.16c-25.64,25.64-65.499,28.617-94.427,8.91l-35.242,35.242l-9.829-9.829l53.974-53.973  c18.158,18.158,47.708,18.166,65.874,0c18.159-18.159,18.158-47.716,0-65.874l19.651-19.651  C445.013,124.983,445.013,172.161,416.015,201.16z"/>
<path style="fill:#FF4F19;" d="M210.516,440.313l-138.83-138.83l70.69-70.69c37.088-37.088,97.778-37.088,134.866,0l3.964,3.964  c37.088,37.088,37.088,97.778,0,134.866L210.516,440.313z"/>
<path style="fill:#FF3200;" d="M281.205,369.628l-70.689,70.689L141.099,370.9l138.126-138.126l1.98,1.98  C318.293,271.842,318.293,332.54,281.205,369.628z"/>
<path style="fill:#57555C;" d="M183.749,464.849L47.151,328.251c-6.871-6.871-6.871-18.114,0-24.984l9.875-9.875  c6.871-6.871,18.114-6.871,24.984,0L218.608,429.99c6.871,6.871,6.871,18.114,0,24.984l-9.875,9.875  C201.863,471.719,190.62,471.719,183.749,464.849z"/>
<path style="fill:#3C3B41;" d="M218.612,454.975l-9.878,9.878c-6.866,6.866-18.109,6.866-24.982-0.007l-68.299-68.299l34.86-34.86  l68.299,68.299C225.485,436.859,225.485,448.102,218.612,454.975z"/>
<g>
</g>
<g>
</g>
<g>
</g>
<g>
</g>
<g>
</g>
<g>
</g>
<g>
</g>
<g>
</g>
<g>
</g>
<g>
</g>
<g>
</g>
<g>
</g>
<g>
</g>
<g>
</g>
<g>
</g>
</svg>
