<?xml version="1.0" encoding="iso-8859-1"?>
<!-- Generator: Adobe Illustrator 19.0.0, SVG Export Plug-In . SVG Version: 6.00 Build 0)  -->
<svg xmlns="http://www.w3.org/2000/svg" xmlns:xlink="http://www.w3.org/1999/xlink" version="1.1" id="Layer_1" x="0px" y="0px" viewBox="0 0 512 512" style="enable-background:new 0 0 512 512;" xml:space="preserve">
<circle style="fill:#FF4F19;" cx="256" cy="256" r="256"/>
<g>
	<path style="fill:#EE2600;" d="M153.881,229.519l-86.208,86.208c-11.658,11.658-11.658,30.734,0,42.392l151.19,151.19   C230.989,511.072,243.385,512,256,512c62.227,0,119.262-22.21,163.629-59.125L196.273,229.519   C184.615,217.861,165.539,217.861,153.881,229.519z"/>
	<path style="fill:#EE2600;" d="M512,256c0-29.797-5.108-58.397-14.467-84.993l-75.355-75.355   c-5.486-7.229-14.162-11.922-23.884-11.922H276.377c-16.487,0-29.976,13.489-29.976,29.976v121.917   c0,9.721,4.693,18.397,11.922,23.883l178.098,178.098C483.096,391.231,512,326.993,512,256z"/>
</g>
<path style="fill:#FFFFFF;" d="M282.481,358.119l-86.208,86.208c-11.658,11.658-30.734,11.658-42.392,0l-86.208-86.208  c-11.658-11.658-11.658-30.734,0-42.392l86.208-86.208c11.658-11.658,30.734-11.658,42.392,0l86.208,86.208  C294.139,327.385,294.139,346.461,282.481,358.119z"/>
<path style="fill:#E1E1E3;" d="M282.481,315.727l-86.209-86.209c-11.657-11.656-30.731-11.656-42.388-0.001l-43.107,43.106  l128.6,128.6l43.104-43.104C294.139,346.461,294.139,327.385,282.481,315.727z"/>
<circle style="fill:#FF4F19;" cx="109.34" cy="336.94" r="19.628"/>
<circle style="fill:#FF3200;" cx="175.1" cy="271.19" r="19.628"/>
<circle style="fill:#FF4F19;" cx="175.06" cy="402.66" r="19.628"/>
<circle style="fill:#FF3200;" cx="240.81" cy="336.9" r="19.628"/>
<path style="fill:#FFFFFF;" d="M398.294,265.598H276.377c-16.487,0-29.976-13.489-29.976-29.976V113.706  c0-16.487,13.489-29.976,29.976-29.976h121.917c16.487,0,29.976,13.489,29.976,29.976v121.917  C428.27,252.109,414.781,265.598,398.294,265.598z"/>
<path style="fill:#E1E1E3;" d="M428.27,235.623V113.706c0-16.487-13.489-29.976-29.976-29.976H337.33v181.868h60.964  C414.781,265.598,428.27,252.109,428.27,235.623z"/>
<circle style="fill:#FF4F19;" cx="337.34" cy="174.66" r="33.824"/>
<path style="fill:#FF3200;" d="M371.162,174.665c0,18.674-15.146,33.82-33.832,33.82v-67.641  C356.016,140.845,371.162,155.98,371.162,174.665z"/>
<g>
</g>
<g>
</g>
<g>
</g>
<g>
</g>
<g>
</g>
<g>
</g>
<g>
</g>
<g>
</g>
<g>
</g>
<g>
</g>
<g>
</g>
<g>
</g>
<g>
</g>
<g>
</g>
<g>
</g>
</svg>
