<?xml version="1.0" encoding="iso-8859-1"?>
<!-- Generator: Adobe Illustrator 19.0.0, SVG Export Plug-In . SVG Version: 6.00 Build 0)  -->
<svg xmlns="http://www.w3.org/2000/svg" xmlns:xlink="http://www.w3.org/1999/xlink" version="1.1" id="Layer_1" x="0px" y="0px" viewBox="0 0 512 512" style="enable-background:new 0 0 512 512;" xml:space="preserve">
<circle style="fill:#802897;" cx="256" cy="256" r="256"/>
<path style="fill:#5C1B6F;" d="M512,256c0-25.987-3.885-51.064-11.084-74.697l-85.11-85.11  c-15.697-15.698-34.299-23.476-45.477-19.975l-3.893-3.893c-2.622-2.622-6.911-2.622-9.533,0l-7.788,7.788  c-2.622,2.622-2.622,6.911,0,9.533l3.818,3.818L232.98,213.417l7.262,7.262l-86.375,86.375l7.503,7.502l-65.891,65.891l-0.113-0.114  c-2.622-2.622-6.912-2.622-9.533,0l-7.788,7.788c-2.622,2.622-2.622,6.912,0,9.533l103.261,103.261  C204.937,508.115,230.014,512,256,512C397.385,512,512,397.385,512,256z"/>
<path style="fill:#7FC8F1;" d="M415.806,96.193c-17.058-17.058-37.552-24.776-48.215-18.819l67.034,67.034  C440.582,133.745,432.864,113.251,415.806,96.193z"/>
<path style="fill:#00ACEA;" d="M434.622,144.411l-33.517-33.517l14.701-14.701C432.862,113.249,440.583,133.741,434.622,144.411z"/>
<rect x="93.497" y="340.518" transform="matrix(-0.7071 0.7071 -0.7071 -0.7071 507.9929 521.6383)" style="fill:#FF9A00;" width="104.929" height="51.019"/>
<g>
	
		<rect x="102.527" y="362.282" transform="matrix(-0.7071 0.7071 -0.7071 -0.7071 529.7781 530.6334)" style="fill:#FF8900;" width="104.929" height="25.51"/>
	
		<rect x="160.439" y="250.672" transform="matrix(-0.7071 0.7071 -0.7071 -0.7071 587.2442 330.329)" style="fill:#FF8900;" width="129.539" height="72.229"/>
</g>
<rect x="173.205" y="281.493" transform="matrix(-0.7071 0.7071 -0.7071 -0.7071 618.064 343.0959)" style="fill:#E67500;" width="129.539" height="36.12"/>
<path style="fill:#FFD400;" d="M131.665,426.168l-7.788,7.788c-2.622,2.622-6.911,2.622-9.533,0l-36.3-36.3  c-2.622-2.622-2.622-6.911,0-9.533l7.788-7.788c2.622-2.622,6.911-2.622,9.533,0l36.3,36.3  C134.287,419.256,134.287,423.546,131.665,426.168z"/>
<path style="fill:#FEC000;" d="M131.662,426.172l-7.785,7.785c-2.623,2.623-6.908,2.623-9.532,0l-18.151-18.151l17.324-17.324  l18.151,18.151C134.293,419.256,134.286,423.548,131.662,426.172z"/>
<rect x="239.145" y="135.519" transform="matrix(-0.7071 0.7071 -0.7071 -0.7071 692.1254 77.1291)" style="fill:#E67500;" width="181.888" height="92.779"/>
<rect x="255.539" y="175.124" transform="matrix(-0.7071 0.7071 -0.7071 -0.7071 731.7163 93.5512)" style="fill:#C06200;" width="181.888" height="46.39"/>
<path style="fill:#FFD400;" d="M439.675,155.097l-7.788,7.788c-2.622,2.622-6.911,2.622-9.533,0l-73.239-73.239  c-2.622-2.622-2.622-6.912,0-9.533l7.788-7.788c2.622-2.622,6.911-2.622,9.533,0l73.239,73.239  C442.296,148.186,442.296,152.475,439.675,155.097z"/>
<path style="fill:#FEC000;" d="M439.678,155.095l-7.792,7.792c-2.616,2.616-6.908,2.623-9.532,0l-36.621-36.621l17.324-17.324  l36.621,36.621C442.302,148.187,442.294,152.479,439.678,155.095z"/>
<g>
</g>
<g>
</g>
<g>
</g>
<g>
</g>
<g>
</g>
<g>
</g>
<g>
</g>
<g>
</g>
<g>
</g>
<g>
</g>
<g>
</g>
<g>
</g>
<g>
</g>
<g>
</g>
<g>
</g>
</svg>
