<?xml version="1.0" encoding="iso-8859-1"?>
<!-- Generator: Adobe Illustrator 19.0.0, SVG Export Plug-In . SVG Version: 6.00 Build 0)  -->
<svg xmlns="http://www.w3.org/2000/svg" xmlns:xlink="http://www.w3.org/1999/xlink" version="1.1" id="Layer_1" x="0px" y="0px" viewBox="0 0 512 512" style="enable-background:new 0 0 512 512;" xml:space="preserve">
<circle style="fill:#FFDF47;" cx="256" cy="256" r="256"/>
<path style="fill:#FFD400;" d="M512,256c0-13.37-1.029-26.499-3.005-39.317l-92.345-92.345c-10.088-12.306-28.41-14.12-40.716-4.033  l-3.273,2.683l-85.823-85.843C280.279,30.289,271.056,26,260.876,26h-9.751c-19.786,0-35.975,16.189-35.975,35.975v27.977  c0,6.593,1.805,12.782,4.935,18.11c-22.355,5.839-42.701,17.003-59.754,32.136l-24.265-19.892  c-12.306-10.088-30.628-8.273-40.716,4.033l-2.175,2.653c-10.088,12.306-8.273,30.628,4.032,40.716l24.823,24.641  c-9.179,20.251-14.331,42.901-14.331,66.821c0,25.15,5.686,48.904,15.771,69.932l-26.263,21.53  c-12.306,10.088-14.12,28.41-4.032,40.716L95.35,394c0.88,1.074,2.577,2.887,2.822,2.977l110.823,110.701  C224.234,510.506,239.942,512,256,512C397.385,512,512,397.385,512,256z"/>
<polygon style="fill:#00A753;" points="292.719,403.905 219.281,403.856 256,485.951 256,486 "/>
<polygon style="fill:#008C4A;" points="292.72,403.9 256,486 256,403.88 "/>
<path style="fill:#00A753;" d="M186.28,161.471l-38.858,47.401l-50.215-41.165c-12.306-10.088-14.12-28.41-4.032-40.716l2.175-2.653  c10.088-12.306,28.41-14.12,40.716-4.032L186.28,161.471z"/>
<path style="fill:#008C4A;" d="M325.72,161.471l38.858,47.401l50.215-41.165c12.306-10.088,14.12-28.41,4.032-40.716l-2.175-2.653  c-10.088-12.306-28.41-14.12-40.716-4.032L325.72,161.471z"/>
<path style="fill:#00A753;" d="M186.28,356.868l-38.858-47.401l-50.215,41.165c-12.306,10.088-14.12,28.41-4.032,40.716L95.35,394  c10.088,12.306,28.41,14.12,40.716,4.032L186.28,356.868z"/>
<path style="fill:#008C4A;" d="M325.72,356.868l38.858-47.401l50.215,41.165c12.306,10.088,14.12,28.41,4.032,40.716L416.651,394  c-10.088,12.306-28.41,14.12-40.716,4.032L325.72,356.868z"/>
<path style="fill:#00A753;" d="M260.876,125.927h-9.751c-19.786,0-35.975-16.189-35.975-35.975V61.975  C215.15,42.189,231.339,26,251.125,26h9.751c19.786,0,35.975,16.189,35.975,35.975v27.977  C296.851,109.738,280.662,125.927,260.876,125.927z"/>
<path style="fill:#008C4A;" d="M296.85,61.97v27.98c0,19.79-16.19,35.98-35.97,35.98H256V26h4.88  C280.66,26,296.85,42.19,296.85,61.97z"/>
<ellipse style="fill:#FFAA20;" cx="256" cy="259.17" rx="148.3" ry="155.72"/>
<path style="fill:#FF8900;" d="M404.3,259.17c0,86-66.4,155.72-148.3,155.72V103.45C337.9,103.45,404.3,173.17,404.3,259.17z"/>
<ellipse style="fill:#FF9A00;" cx="256" cy="259.17" rx="121.85" ry="127.95"/>
<path style="fill:#E67500;" d="M377.85,259.17c0,70.66-54.55,127.95-121.85,127.95v-255.9C323.3,131.22,377.85,188.51,377.85,259.17  z"/>
<polygon style="fill:#C06200;" points="223.474,312.274 192.814,259.169 223.474,206.064 284.795,206.064 315.455,259.169   284.795,312.274 "/>
<polygon style="fill:#9A4C00;" points="315.46,259.17 284.79,312.27 256,312.27 256,206.06 284.79,206.06 "/>
<path style="fill:#C06200;" d="M309.395,144.132l-22.817,39.522h-64.882l-21.949-38.007c16.832-9.216,35.963-14.428,56.248-14.428  C275.148,131.22,293.273,135.859,309.395,144.132z"/>
<path style="fill:#9A4C00;" d="M309.4,144.13l-22.82,39.52H256v-52.43C275.15,131.22,293.27,135.86,309.4,144.13z"/>
<path style="fill:#C06200;" d="M309.395,374.2c-16.122,8.273-34.247,12.913-53.399,12.913c-20.285,0-39.416-5.212-56.248-14.428  l21.949-38.007h64.882L309.395,374.2z"/>
<g>
	<path style="fill:#9A4C00;" d="M309.4,374.2c-16.13,8.27-34.25,12.91-53.4,12.91v-52.43h30.58L309.4,374.2z"/>
	<path style="fill:#9A4C00;" d="M377.508,268.832c-2.924,41.249-24.48,77.042-55.867,98.144l-24.226-41.959l32.446-56.185   L377.508,268.832L377.508,268.832z"/>
	<path style="fill:#9A4C00;" d="M377.508,249.511h-47.647l-32.446-56.195l24.226-41.958   C353.027,172.469,374.584,208.262,377.508,249.511z"/>
</g>
<g>
	<path style="fill:#C06200;" d="M210.86,325.017l-23.167,40.115c-29.936-21.313-50.359-56.227-53.198-96.3h43.918L210.86,325.017z"/>
	<path style="fill:#C06200;" d="M210.86,193.315l-32.446,56.195h-43.918c2.839-40.073,23.262-74.998,53.198-96.311L210.86,193.315z"/>
</g>
<g>
</g>
<g>
</g>
<g>
</g>
<g>
</g>
<g>
</g>
<g>
</g>
<g>
</g>
<g>
</g>
<g>
</g>
<g>
</g>
<g>
</g>
<g>
</g>
<g>
</g>
<g>
</g>
<g>
</g>
</svg>
