<?xml version="1.0" encoding="iso-8859-1"?>
<!-- Generator: Adobe Illustrator 19.0.0, SVG Export Plug-In . SVG Version: 6.00 Build 0)  -->
<svg xmlns="http://www.w3.org/2000/svg" xmlns:xlink="http://www.w3.org/1999/xlink" version="1.1" id="Layer_1" x="0px" y="0px" viewBox="0 0 512 512" style="enable-background:new 0 0 512 512;" xml:space="preserve">
<circle style="fill:#FF4F19;" cx="256" cy="256" r="256"/>
<path style="fill:#EE2600;" d="M512,256c0-31.84-5.83-62.314-16.452-90.435L396.483,66.5H115.517v55.454L132.13,137.6l-16.614,2.365  V445.5l50.048,50.048C193.686,506.171,224.16,512,256,512C397.385,512,512,397.385,512,256z"/>
<polygon style="fill:#FFE671;" points="396.483,374.592 396.483,66.5 115.517,66.5 115.517,121.954 173.501,131.71 115.517,139.966   115.517,445.5 396.483,445.5 396.483,393.892 324.5,383.438 "/>
<polygon style="fill:#FFDB2D;" points="396.48,374.59 324.5,383.44 396.48,393.89 396.48,445.5 256,445.5 256,66.5 396.48,66.5 "/>
<g>
	<path style="fill:#ECB300;" d="M333.162,216.745c-7.937,0-12.251-2.148-15.717-3.873c-2.952-1.469-5.083-2.531-10.009-2.531   c-4.924,0-7.056,1.062-10.006,2.531c-3.466,1.726-7.779,3.873-15.716,3.873s-12.251-2.148-15.716-3.874   c-2.95-1.469-5.081-2.53-10.005-2.53c-4.924,0-7.057,1.062-10.006,2.531c-3.466,1.726-7.779,3.873-15.716,3.873   c-7.936,0-12.249-2.148-15.715-3.873c-2.95-1.469-5.081-2.531-10.006-2.531c-4.923,0-7.054,1.062-10.004,2.53   c-3.466,1.726-7.778,3.874-15.714,3.874c-7.935,0-12.248-2.148-15.713-3.873c-2.95-1.469-5.081-2.531-10.004-2.531v-12.808   c7.936,0,12.248,2.148,15.714,3.874c2.95,1.469,5.08,2.53,10.003,2.53s7.054-1.062,10.004-2.53   c3.466-1.726,7.778-3.874,15.714-3.874c7.937,0,12.25,2.148,15.716,3.874c2.95,1.469,5.081,2.53,10.005,2.53   c4.924,0,7.057-1.062,10.006-2.531c3.466-1.726,7.779-3.873,15.716-3.873c7.936,0,12.249,2.148,15.715,3.873   c2.95,1.469,5.081,2.531,10.006,2.531c4.924,0,7.056-1.062,10.006-2.531c3.466-1.726,7.779-3.873,15.716-3.873   s12.252,2.148,15.717,3.873c2.952,1.469,5.083,2.531,10.009,2.531c4.925,0,7.058-1.062,10.008-2.531   c3.466-1.726,7.779-3.873,15.717-3.873v12.808c-4.926,0-7.058,1.062-10.009,2.531C345.413,214.597,341.099,216.745,333.162,216.745   z"/>
	<path style="fill:#ECB300;" d="M281.713,160.656c-7.937,0-12.251-2.148-15.716-3.873c-2.95-1.469-5.081-2.531-10.005-2.531   c-4.924,0-7.057,1.062-10.006,2.531c-3.466,1.726-7.779,3.873-15.716,3.873c-7.936,0-12.249-2.148-15.715-3.873   c-2.95-1.469-5.081-2.531-10.006-2.531v-12.808c7.937,0,12.25,2.148,15.716,3.873c2.95,1.469,5.081,2.531,10.005,2.531   c4.924,0,7.057-1.062,10.006-2.531c3.466-1.726,7.779-3.873,15.716-3.873c7.936,0,12.249,2.148,15.715,3.873   c2.95,1.469,5.081,2.531,10.006,2.531c4.924,0,7.056-1.062,10.006-2.531c3.466-1.726,7.779-3.873,15.716-3.873v12.808   c-4.924,0-7.056,1.062-10.006,2.531C293.964,158.508,289.65,160.656,281.713,160.656z"/>
	<path style="fill:#ECB300;" d="M333.162,265.368c-7.937,0-12.251-2.148-15.717-3.873c-2.952-1.469-5.083-2.531-10.009-2.531   c-4.924,0-7.056,1.062-10.006,2.531c-3.466,1.726-7.779,3.873-15.716,3.873s-12.251-2.148-15.716-3.874   c-2.95-1.469-5.081-2.53-10.005-2.53c-4.924,0-7.057,1.062-10.006,2.531c-3.466,1.726-7.779,3.873-15.716,3.873   c-7.936,0-12.249-2.148-15.715-3.873c-2.95-1.469-5.081-2.531-10.006-2.531c-4.923,0-7.054,1.062-10.004,2.53   c-3.466,1.726-7.778,3.874-15.714,3.874c-7.935,0-12.248-2.148-15.713-3.873c-2.95-1.469-5.081-2.531-10.004-2.531v-12.808   c7.936,0,12.248,2.148,15.714,3.874c2.95,1.469,5.08,2.53,10.003,2.53s7.054-1.062,10.004-2.53   c3.466-1.726,7.778-3.874,15.714-3.874c7.937,0,12.25,2.148,15.716,3.874c2.95,1.469,5.081,2.53,10.005,2.53   c4.924,0,7.057-1.062,10.006-2.531c3.466-1.725,7.779-3.873,15.716-3.873c7.936,0,12.249,2.148,15.715,3.873   c2.95,1.469,5.081,2.531,10.006,2.531c4.924,0,7.056-1.062,10.006-2.531c3.466-1.725,7.779-3.873,15.716-3.873   s12.252,2.148,15.717,3.873c2.952,1.469,5.083,2.531,10.009,2.531c4.925,0,7.058-1.062,10.008-2.531   c3.466-1.725,7.779-3.873,15.717-3.873v12.808c-4.926,0-7.058,1.062-10.009,2.531C345.413,263.221,341.099,265.368,333.162,265.368   z"/>
	<path style="fill:#ECB300;" d="M333.162,313.992c-7.937,0-12.251-2.148-15.717-3.873c-2.952-1.469-5.083-2.531-10.009-2.531   c-4.924,0-7.056,1.062-10.006,2.531c-3.466,1.726-7.779,3.873-15.716,3.873s-12.251-2.148-15.716-3.874   c-2.95-1.469-5.081-2.53-10.005-2.53c-4.924,0-7.057,1.062-10.006,2.531c-3.466,1.726-7.779,3.873-15.716,3.873   c-7.936,0-12.249-2.148-15.715-3.873c-2.95-1.469-5.081-2.531-10.006-2.531c-4.923,0-7.054,1.062-10.004,2.53   c-3.466,1.726-7.778,3.874-15.714,3.874c-7.935,0-12.248-2.148-15.713-3.873c-2.95-1.469-5.081-2.531-10.004-2.531V294.78   c7.936,0,12.248,2.148,15.714,3.874c2.95,1.469,5.08,2.53,10.003,2.53s7.054-1.062,10.004-2.53   c3.466-1.726,7.778-3.874,15.714-3.874c7.937,0,12.25,2.148,15.716,3.874c2.95,1.469,5.081,2.53,10.005,2.53   c4.924,0,7.057-1.062,10.006-2.531c3.466-1.725,7.779-3.873,15.716-3.873c7.936,0,12.249,2.148,15.715,3.873   c2.95,1.469,5.081,2.531,10.006,2.531c4.924,0,7.056-1.062,10.006-2.531c3.466-1.725,7.779-3.873,15.716-3.873   s12.252,2.148,15.717,3.873c2.952,1.469,5.083,2.531,10.009,2.531c4.925,0,7.058-1.062,10.008-2.531   c3.466-1.725,7.779-3.873,15.717-3.873v12.808c-4.926,0-7.058,1.062-10.009,2.531C345.413,311.844,341.099,313.992,333.162,313.992   z"/>
	<path style="fill:#ECB300;" d="M333.162,362.615c-7.937,0-12.251-2.148-15.717-3.873c-2.952-1.469-5.083-2.531-10.009-2.531   c-4.924,0-7.056,1.062-10.006,2.531c-3.466,1.726-7.779,3.873-15.716,3.873s-12.251-2.148-15.716-3.874   c-2.95-1.469-5.081-2.53-10.005-2.53c-4.924,0-7.057,1.062-10.006,2.531c-3.466,1.726-7.779,3.873-15.716,3.873   c-7.936,0-12.249-2.148-15.715-3.873c-2.95-1.469-5.081-2.531-10.006-2.531c-4.923,0-7.054,1.062-10.004,2.53   c-3.466,1.726-7.778,3.874-15.714,3.874c-7.935,0-12.248-2.148-15.713-3.873c-2.95-1.469-5.081-2.531-10.004-2.531v-12.808   c7.936,0,12.248,2.148,15.714,3.874c2.95,1.469,5.08,2.53,10.003,2.53s7.054-1.062,10.004-2.53   c3.466-1.726,7.778-3.874,15.714-3.874c7.937,0,12.25,2.148,15.716,3.874c2.95,1.469,5.081,2.53,10.005,2.53   c4.924,0,7.057-1.062,10.006-2.531c3.466-1.726,7.779-3.873,15.716-3.873c7.936,0,12.249,2.148,15.715,3.873   c2.95,1.469,5.081,2.531,10.006,2.531c4.924,0,7.056-1.062,10.006-2.531c3.466-1.726,7.779-3.873,15.716-3.873   s12.252,2.148,15.717,3.873c2.952,1.469,5.083,2.531,10.009,2.531c4.925,0,7.058-1.062,10.008-2.531   c3.466-1.726,7.779-3.873,15.717-3.873v12.808c-4.926,0-7.058,1.062-10.009,2.531C345.413,360.467,341.099,362.615,333.162,362.615   z"/>
</g>
<g>
	<path style="fill:#D9A600;" d="M358.89,197.53v12.81c-4.93,0-7.06,1.06-10.01,2.53c-3.47,1.73-7.78,3.88-15.72,3.88   s-12.25-2.15-15.72-3.88c-2.95-1.47-5.08-2.53-10-2.53c-4.93,0-7.06,1.06-10.01,2.53c-3.47,1.73-7.78,3.88-15.72,3.88   c-7.93,0-12.25-2.15-15.71-3.88c-2.95-1.47-5.08-2.53-10-2.53v-12.81c7.93,0,12.24,2.15,15.71,3.88c2.95,1.47,5.08,2.53,10,2.53   c4.93,0,7.06-1.06,10.01-2.53c3.47-1.73,7.78-3.88,15.72-3.88c7.93,0,12.25,2.15,15.71,3.88c2.95,1.47,5.09,2.53,10.01,2.53   c4.93,0,7.06-1.06,10.01-2.53C346.64,199.68,350.95,197.53,358.89,197.53z"/>
	<path style="fill:#D9A600;" d="M307.44,141.44v12.81c-4.93,0-7.06,1.06-10.01,2.53c-3.47,1.73-7.78,3.88-15.72,3.88   c-7.93,0-12.25-2.15-15.71-3.88c-2.95-1.47-5.08-2.53-10-2.53v-12.81c7.93,0,12.24,2.15,15.71,3.88c2.95,1.47,5.08,2.53,10,2.53   c4.93,0,7.06-1.06,10.01-2.53C295.19,143.59,299.5,141.44,307.44,141.44z"/>
	<path style="fill:#D9A600;" d="M358.89,246.16v12.8c-4.93,0-7.06,1.07-10.01,2.54c-3.47,1.72-7.78,3.87-15.72,3.87   s-12.25-2.15-15.72-3.87c-2.95-1.47-5.08-2.54-10-2.54c-4.93,0-7.06,1.07-10.01,2.54c-3.47,1.72-7.78,3.87-15.72,3.87   c-7.93,0-12.25-2.15-15.71-3.88c-2.95-1.46-5.08-2.53-10-2.53v-12.8c7.93,0,12.24,2.14,15.71,3.87c2.95,1.47,5.08,2.53,10,2.53   c4.93,0,7.06-1.06,10.01-2.53c3.47-1.73,7.78-3.87,15.72-3.87c7.93,0,12.25,2.14,15.71,3.87c2.95,1.47,5.09,2.53,10.01,2.53   c4.93,0,7.06-1.06,10.01-2.53C346.64,248.3,350.95,246.16,358.89,246.16z"/>
	<path style="fill:#D9A600;" d="M358.89,294.78v12.81c-4.93,0-7.06,1.06-10.01,2.53c-3.47,1.72-7.78,3.87-15.72,3.87   s-12.25-2.15-15.72-3.87c-2.95-1.47-5.08-2.53-10-2.53c-4.93,0-7.06,1.06-10.01,2.53c-3.47,1.72-7.78,3.87-15.72,3.87   c-7.93,0-12.25-2.15-15.71-3.87c-2.95-1.47-5.08-2.53-10-2.53v-12.81c7.93,0,12.24,2.15,15.71,3.87c2.95,1.47,5.08,2.53,10,2.53   c4.93,0,7.06-1.06,10.01-2.53c3.47-1.72,7.78-3.87,15.72-3.87c7.93,0,12.25,2.15,15.71,3.87c2.95,1.47,5.09,2.53,10.01,2.53   c4.93,0,7.06-1.06,10.01-2.53C346.64,296.93,350.95,294.78,358.89,294.78z"/>
</g>
<path style="fill:#ECB300;" d="M358.89,343.4v12.81c-4.93,0-7.06,1.06-10.01,2.53c-3.47,1.73-7.78,3.87-15.72,3.87  s-12.25-2.14-15.72-3.87c-2.95-1.47-5.08-2.53-10-2.53c-4.93,0-7.06,1.06-10.01,2.53c-3.47,1.73-7.78,3.87-15.72,3.87  c-7.93,0-12.25-2.14-15.71-3.87c-2.95-1.47-5.08-2.53-10-2.53V343.4c7.93,0,12.24,2.15,15.71,3.88c2.95,1.47,5.08,2.53,10,2.53  c4.93,0,7.06-1.06,10.01-2.53c3.47-1.73,7.78-3.88,15.72-3.88c7.93,0,12.25,2.15,15.71,3.88c2.95,1.47,5.09,2.53,10.01,2.53  c4.93,0,7.06-1.06,10.01-2.53C346.64,345.55,350.95,343.4,358.89,343.4z"/>
<g>
</g>
<g>
</g>
<g>
</g>
<g>
</g>
<g>
</g>
<g>
</g>
<g>
</g>
<g>
</g>
<g>
</g>
<g>
</g>
<g>
</g>
<g>
</g>
<g>
</g>
<g>
</g>
<g>
</g>
</svg>
