<?xml version="1.0" encoding="iso-8859-1"?>
<!-- Generator: Adobe Illustrator 19.0.0, SVG Export Plug-In . SVG Version: 6.00 Build 0)  -->
<svg xmlns="http://www.w3.org/2000/svg" xmlns:xlink="http://www.w3.org/1999/xlink" version="1.1" id="Layer_1" x="0px" y="0px" viewBox="0 0 512 512" style="enable-background:new 0 0 512 512;" xml:space="preserve">
<circle style="fill:#3C3B41;" cx="256" cy="256" r="256"/>
<path style="fill:#2A2A2C;" d="M511.39,273.546L294.785,56.941C285.444,45.968,271.539,39,256,39  c-28.126,0-50.927,22.801-50.927,50.926c0,15.519,6.949,29.406,17.899,38.743l16.511,16.621v44.168h-67.357v33.033l67.357,63.788  v92.166L116.017,253.742l-34.78,60.241l23.602,23.196c5.963,32.696,22.311,61.809,45.484,83.797l90.569,90.569  c5,0.29,10.034,0.455,15.108,0.455C391.486,512,502.371,406.745,511.39,273.546z"/>
<path style="fill:#FFFFFF;" d="M430.763,313.983l-34.78-60.241l-34.78,60.241h21.835c-2.159,62.494-49.638,113.672-110.521,121.606  V222.491h67.357v-33.034h-67.357v-51.358c20.016-6.862,34.41-25.83,34.41-48.173C306.927,61.801,284.126,39,256,39  s-50.927,22.801-50.927,50.927c0,22.342,14.394,41.311,34.41,48.173v51.358h-67.357v33.034h67.357V435.59  c-60.883-7.934-108.362-59.113-110.521-121.606h21.835l-34.78-60.241l-34.78,60.241h21.17C104.768,396.664,172.758,463.2,256,463.2  s151.232-66.535,153.593-149.217L430.763,313.983L430.763,313.983z M226.407,89.926c0-16.343,13.249-29.592,29.593-29.592  s29.593,13.249,29.593,29.592c0,16.344-13.249,29.593-29.593,29.593S226.407,106.27,226.407,89.926z"/>
<path style="fill:#C8C6CC;" d="M395.983,253.742l-34.78,60.241h21.835c-2.159,62.494-49.638,113.672-110.521,121.606V222.491h67.357  v-33.034h-67.357v-51.358c20.016-6.862,34.41-25.83,34.41-48.173C306.927,61.801,284.126,39,256,39v21.334  c16.343,0,29.593,13.249,29.593,29.592c0,16.344-13.249,29.593-29.593,29.593V463.2c83.242,0,151.232-66.535,153.593-149.217h21.17  L395.983,253.742z"/>
<g>
</g>
<g>
</g>
<g>
</g>
<g>
</g>
<g>
</g>
<g>
</g>
<g>
</g>
<g>
</g>
<g>
</g>
<g>
</g>
<g>
</g>
<g>
</g>
<g>
</g>
<g>
</g>
<g>
</g>
</svg>
