<?xml version="1.0" encoding="iso-8859-1"?>
<!-- Generator: Adobe Illustrator 19.0.0, SVG Export Plug-In . SVG Version: 6.00 Build 0)  -->
<svg xmlns="http://www.w3.org/2000/svg" xmlns:xlink="http://www.w3.org/1999/xlink" version="1.1" id="Layer_1" x="0px" y="0px" viewBox="0 0 512 512" style="enable-background:new 0 0 512 512;" xml:space="preserve">
<circle style="fill:#FFDF47;" cx="256" cy="256" r="256"/>
<path style="fill:#FFCF00;" d="M512,256c0-0.122-0.004-0.242-0.005-0.364L305.294,48.935C293.33,35.108,275.676,26.333,256,26.333  c-35.948,0-65.193,29.245-65.193,65.193c0,19.685,8.777,37.347,22.617,49.305l24.808,25.009v20.527  c-74.563,8.791-132.407,72.197-132.407,149.124c0,43.175,18.226,82.087,47.396,109.482l64.123,64.123  C229.951,511.006,242.859,512,256,512C397.385,512,512,397.385,512,256z"/>
<rect x="238.23" y="154.03" style="fill:#C06200;" width="35.537" height="34.764"/>
<rect x="256" y="154.03" style="fill:#9A4C00;" width="17.77" height="34.76"/>
<circle style="fill:#E67500;" cx="256" cy="335.49" r="150.18"/>
<path style="fill:#C06200;" d="M406.17,335.49c0,82.94-67.23,150.18-150.17,150.18V185.32  C338.94,185.32,406.17,252.55,406.17,335.49z"/>
<circle style="fill:#FFFFFF;" cx="256" cy="335.49" r="121.34"/>
<path style="fill:#E1E1E3;" d="M377.34,335.49c0,67.02-54.32,121.34-121.34,121.34V214.15  C323.02,214.15,377.34,268.48,377.34,335.49z"/>
<polygon style="fill:#3C3B41;" points="256,228.277 238.232,314.522 273.768,314.522 "/>
<polygon style="fill:#2A2A2C;" points="273.77,314.52 256,314.52 256,228.28 "/>
<path style="fill:#E67500;" d="M256,156.72c-35.948,0-65.193-29.245-65.193-65.193S220.052,26.333,256,26.333  s65.193,29.246,65.193,65.193S291.948,156.72,256,156.72z M256,44.074c-26.165,0-47.452,21.287-47.452,47.452  s21.287,47.452,47.452,47.452s47.452-21.287,47.452-47.452S282.165,44.074,256,44.074z"/>
<g>
	<path style="fill:#C06200;" d="M256,26.33v17.74c26.17,0,47.45,21.29,47.45,47.46c0,26.16-21.28,47.45-47.45,47.45v17.74   c35.95,0,65.19-29.25,65.19-65.19C321.19,55.58,291.95,26.33,256,26.33z"/>
	<circle style="fill:#C06200;" cx="256" cy="335.49" r="31.517"/>
</g>
<path style="fill:#9A4C00;" d="M287.52,335.49c0,17.41-14.11,31.52-31.52,31.52v-63.04C273.41,303.97,287.52,318.09,287.52,335.49z"/>
<g>
</g>
<g>
</g>
<g>
</g>
<g>
</g>
<g>
</g>
<g>
</g>
<g>
</g>
<g>
</g>
<g>
</g>
<g>
</g>
<g>
</g>
<g>
</g>
<g>
</g>
<g>
</g>
<g>
</g>
</svg>
