<?xml version="1.0" encoding="iso-8859-1"?>
<!-- Generator: Adobe Illustrator 19.0.0, SVG Export Plug-In . SVG Version: 6.00 Build 0)  -->
<svg xmlns="http://www.w3.org/2000/svg" xmlns:xlink="http://www.w3.org/1999/xlink" version="1.1" id="Layer_1" x="0px" y="0px" viewBox="0 0 512 512" style="enable-background:new 0 0 512 512;" xml:space="preserve">
<circle style="fill:#C8C6CC;" cx="256" cy="256" r="256"/>
<path style="fill:#AEADB3;" d="M512,256c0-16.101-1.502-31.849-4.345-47.126L347.712,48.932l-12.692,1.38L316.654,31l-8.966,20.334  l-22.093-2.402l7.862,10.739c-36.918,5.038-45.229,28.035-45.229,47.695v37.825h-64.189v45.331h0.022  c-48.346,25.763-81.259,76.674-81.259,135.28c0,43.798,18.383,83.3,47.85,111.221l72.943,72.943  C234.208,511.307,245.023,512,256,512C397.385,512,512,397.385,512,256z"/>
<path style="fill:#FFFFFF;" d="M263.772,148.3h-15.544v-40.934c0-22.22,10.607-48.706,61.142-48.706v15.545  c-40.871,0-45.597,18.926-45.597,33.162V148.3H263.772z"/>
<path style="fill:#E1E1E3;" d="M309.37,58.66V74.2c-40.87,0-45.6,18.93-45.6,33.17v40.93H256V79.42  C264.16,67.59,280.04,58.66,309.37,58.66z"/>
<polygon style="fill:#FF6240;" points="316.654,31 325.62,51.334 347.712,48.932 334.585,66.864 347.712,84.796 325.62,82.393   316.654,102.728 307.688,82.393 285.595,84.796 298.722,66.864 285.595,48.932 307.688,51.334 "/>
<polygon style="fill:#FF3200;" points="347.712,84.796 334.585,66.864 347.712,48.932 325.62,51.334 316.654,31 316.654,102.728   325.62,82.393 "/>
<path style="fill:#57555C;" d="M327.939,190.522h0.022v-45.331H184.039v45.331h0.022c-48.346,25.763-81.259,76.674-81.259,135.28  C102.802,410.411,171.391,479,256,479s153.198-68.589,153.198-153.198C409.198,267.196,376.285,216.285,327.939,190.522z"/>
<path style="fill:#3C3B41;" d="M409.2,325.8c0,84.61-68.59,153.2-153.2,153.2V145.19h71.96v45.33h-0.02  C376.28,216.29,409.2,267.2,409.2,325.8z"/>
<g>
</g>
<g>
</g>
<g>
</g>
<g>
</g>
<g>
</g>
<g>
</g>
<g>
</g>
<g>
</g>
<g>
</g>
<g>
</g>
<g>
</g>
<g>
</g>
<g>
</g>
<g>
</g>
<g>
</g>
</svg>
