<?xml version="1.0" encoding="iso-8859-1"?>
<!-- Generator: Adobe Illustrator 19.0.0, SVG Export Plug-In . SVG Version: 6.00 Build 0)  -->
<svg xmlns="http://www.w3.org/2000/svg" xmlns:xlink="http://www.w3.org/1999/xlink" version="1.1" id="Layer_1" x="0px" y="0px" viewBox="0 0 512 512" style="enable-background:new 0 0 512 512;" xml:space="preserve">
<circle style="fill:#802897;" cx="256" cy="256" r="256"/>
<path style="fill:#5C1B6F;" d="M512,256c0-30.444-5.326-59.64-15.077-86.724l-92.242-92.242H284.19l-7.405-13.127h-41.57v13.127  H107.32v135.649H86.44v212.224l64.692,64.692C183.137,503.988,218.632,512,256,512C397.385,512,512,397.385,512,256z"/>
<rect x="235.22" y="63.906" style="fill:#FFDF47;" width="41.57" height="16.04"/>
<rect x="256" y="63.91" style="fill:#FEC000;" width="20.78" height="16.04"/>
<rect x="107.32" y="77.03" style="fill:#FF9A00;" width="297.36" height="169.56"/>
<g>
	<rect x="256" y="77.03" style="fill:#E67500;" width="148.68" height="169.56"/>
	<rect x="131.84" y="100.29" style="fill:#E67500;" width="248.32" height="123.05"/>
</g>
<rect x="256" y="100.29" style="fill:#C06200;" width="124.16" height="123.05"/>
<rect x="100.53" y="232.19" style="fill:#FF9A00;" width="310.94" height="173.21"/>
<g>
	<rect x="256" y="232.19" style="fill:#E67500;" width="155.47" height="173.21"/>
	<rect x="100.53" y="302.84" style="fill:#E67500;" width="310.94" height="53.15"/>
</g>
<rect x="256" y="302.84" style="fill:#C06200;" width="155.47" height="53.15"/>
<path style="fill:#FFDF47;" d="M86.439,212.682v212.224H425.56V212.682H86.439z M404.681,287.883v61.822v50.548H107.32v-50.548  v-61.822v-50.548h118.476v22.659c0,15.443,12.635,28.078,28.078,28.078h4.254c15.443,0,28.078-12.635,28.078-28.078v-22.659h118.476  v50.548H404.681z"/>
<path style="fill:#FEC000;" d="M256,212.68v75.39h2.13c15.44,0,28.07-12.63,28.07-28.08v-22.65h118.48v162.91H256v24.66h169.56  V212.68H256z"/>
<g>
	<path style="fill:#E67500;" d="M264.336,250.554c0-4.585-3.751-8.336-8.336-8.336c-4.585,0-8.336,3.751-8.336,8.336   c0,3.138,1.758,5.884,4.337,7.306l-2.918,16.994h13.835L260,257.86C262.578,256.438,264.336,253.693,264.336,250.554z"/>
	<path style="fill:#E67500;" d="M260,257.86l2.92,16.99H256v-32.63c4.58,0,8.34,3.75,8.34,8.33   C264.34,253.69,262.58,256.44,260,257.86z"/>
</g>
<g>
</g>
<g>
</g>
<g>
</g>
<g>
</g>
<g>
</g>
<g>
</g>
<g>
</g>
<g>
</g>
<g>
</g>
<g>
</g>
<g>
</g>
<g>
</g>
<g>
</g>
<g>
</g>
<g>
</g>
</svg>
