<?xml version="1.0" encoding="iso-8859-1"?>
<!-- Generator: Adobe Illustrator 19.0.0, SVG Export Plug-In . SVG Version: 6.00 Build 0)  -->
<svg version="1.1" id="Layer_1" xmlns="http://www.w3.org/2000/svg" xmlns:xlink="http://www.w3.org/1999/xlink" x="0px" y="0px"
	 viewBox="0 0 512 512" style="enable-background:new 0 0 512 512;" xml:space="preserve">
<path style="fill:#EDEDED;" d="M256,0c141.384,0,256,114.616,256,256S397.384,512,256,512S0,397.384,0,256S114.616,0,256,0z"/>
<path style="fill:#CCD0D2;" d="M250.88,92.16h10.24V0.128L256,0l-5.12,0.128V92.16z"/>
<path style="fill:#D9B24C;" d="M256,353.28c16.963,0,30.72,13.757,30.72,30.72c0,16.968-13.757,30.72-30.72,30.72
	s-30.72-13.752-30.72-30.72C225.28,367.037,239.037,353.28,256,353.28z"/>
<path style="fill:#E8C362;" d="M256,87.04c-11.31,0-20.48,9.17-20.48,20.48S244.69,128,256,128c11.31,0,20.48-9.17,20.48-20.48
	S267.31,87.04,256,87.04z M256,117.76c-5.652,0-10.24-4.588-10.24-10.24s4.588-10.24,10.24-10.24c5.652,0,10.24,4.588,10.24,10.24
	S261.652,117.76,256,117.76z"/>
<path style="fill:#EFC75E;" d="M368.64,312.32v-88.018c0-61.67-50.432-111.662-112.64-111.662s-112.64,49.992-112.64,111.657v88.023
	c-19.794,0-35.84,16.046-35.84,35.84c0,19.794,16.046,35.84,35.84,35.84h225.28c19.794,0,35.84-16.046,35.84-35.84
	C404.48,328.366,388.434,312.32,368.64,312.32z"/>
<path style="fill:#E1BB58;" d="M256,112.64c-62.208,0-112.64,49.992-112.64,111.657v88.023H256V112.64z"/>
<path style="fill:#E8C15B;" d="M404.48,348.16c0-19.794-16.046-35.84-35.84-35.84H143.36c-19.794,0-35.84,16.046-35.84,35.84
	c0,19.794,16.046,35.84,35.84,35.84h225.28C388.434,384,404.48,367.954,404.48,348.16z"/>
<path style="fill:#CCA848;" d="M284.933,394.24c1.137-3.205,1.787-6.646,1.787-10.24h-61.44c0,3.594,0.65,7.035,1.787,10.24H284.933
	z"/>
<g>
	<path style="fill:#DBDEE0;" d="M261.12,20.48l-10.24,5.12v10.24l10.24-5.12V20.48z M250.88,56.32l10.24-5.12V40.96l-10.24,5.12
		V56.32z M260.874,0.123L250.88,5.12v10.24l10.24-5.12V0.128C261.12,0.128,260.874,0.123,260.874,0.123z M261.12,61.44l-10.24,5.12
		V76.8l10.24-5.12V61.44z"/>
</g>
<g>
</g>
<g>
</g>
<g>
</g>
<g>
</g>
<g>
</g>
<g>
</g>
<g>
</g>
<g>
</g>
<g>
</g>
<g>
</g>
<g>
</g>
<g>
</g>
<g>
</g>
<g>
</g>
<g>
</g>
</svg>
