<?xml version="1.0" encoding="iso-8859-1"?>
<!-- Generator: Adobe Illustrator 19.0.0, SVG Export Plug-In . SVG Version: 6.00 Build 0)  -->
<svg version="1.1" id="Layer_1" xmlns="http://www.w3.org/2000/svg" xmlns:xlink="http://www.w3.org/1999/xlink" x="0px" y="0px"
	 viewBox="0 0 512 512" style="enable-background:new 0 0 512 512;" xml:space="preserve">
<path style="fill:#3DB39E;" d="M256,0c141.384,0,256,114.616,256,256S397.384,512,256,512S0,397.379,0,256
	C0,114.611,114.611,0,256,0z"/>
<path style="fill:#F7F7F7;" d="M128,102.4c-14.136,0-25.6,11.464-25.6,25.6v332.8C145.183,492.938,198.364,512,256,512
	c141.384,0,256-114.621,256-256c0-57.636-19.057-110.812-51.195-153.6C460.805,102.4,128,102.4,128,102.4z"/>
<path style="fill:#324D5B;" d="M133.12,250.88v102.4c0,5.652,4.588,10.24,10.24,10.24h344.965C503.48,330.819,512,294.41,512,256
	c0-5.161-0.2-10.276-0.502-15.36H143.36C137.702,240.64,133.12,245.222,133.12,250.88z"/>
<path style="fill:#EFC75E;" d="M457.718,245.765c-1.5,13.481-9.011,20.972-22.518,22.472c13.512,1.5,21.018,9.001,22.518,22.482
	c1.5-13.481,9.011-20.982,22.518-22.482C466.729,266.742,459.218,259.251,457.718,245.765z M293.12,297.841
	c-1.167,10.481-6.999,16.312-17.51,17.48c10.511,1.172,16.343,6.999,17.51,17.48c1.172-10.481,7.009-16.312,17.521-17.48
	C300.129,314.148,294.287,308.321,293.12,297.841L293.12,297.841z"/>
<path style="fill:#556C77;" d="M197.407,256.128c-0.829,7.491-5.002,11.653-12.508,12.493c7.511,0.829,11.679,4.992,12.508,12.483
	c0.84-7.491,5.012-11.648,12.508-12.483C202.419,267.781,198.246,263.619,197.407,256.128z M431.882,322.811
	c-0.666,5.99-4.004,9.329-10.004,9.989c6.001,0.671,9.339,3.999,10.004,9.989c0.666-5.99,4.004-9.318,10.004-9.989
	C435.886,332.14,432.548,328.801,431.882,322.811L431.882,322.811z M368.819,280.1c-0.84,7.491-5.012,11.658-12.508,12.488
	c7.501,0.829,11.668,5.002,12.508,12.488c0.829-7.491,5.002-11.658,12.508-12.488C373.816,291.758,369.649,287.59,368.819,280.1z"/>
<path style="fill:#DCDDDD;" d="M209.92,302.08c25.452,0,46.08,20.628,46.08,46.08c0,25.452-20.628,46.08-46.08,46.08
	s-46.08-20.628-46.08-46.08C163.84,322.708,184.468,302.08,209.92,302.08z"/>
<path style="fill:#E2574C;" d="M151.04,133.12c-9.897,0-17.92,8.023-17.92,17.92c0,9.902,8.023,17.92,17.92,17.92
	c9.902,0,17.92-8.018,17.92-17.92C168.96,141.143,160.937,133.12,151.04,133.12z M151.04,158.72c-4.239,0-7.68-3.441-7.68-7.68
	c0-4.239,3.441-7.68,7.68-7.68c4.239,0,7.68,3.441,7.68,7.68C158.72,155.279,155.279,158.72,151.04,158.72z"/>
<path style="fill:#EFC75E;" d="M202.24,133.12c-9.902,0-17.92,8.023-17.92,17.92c0,9.902,8.018,17.92,17.92,17.92
	s17.92-8.018,17.92-17.92C220.16,141.143,212.137,133.12,202.24,133.12z M202.24,158.72c-4.239,0-7.68-3.441-7.68-7.68
	c0-4.239,3.441-7.68,7.68-7.68c4.239,0,7.68,3.441,7.68,7.68C209.92,155.279,206.479,158.72,202.24,158.72z"/>
<path style="fill:#3DB39E;" d="M253.44,133.12c-9.902,0-17.92,8.023-17.92,17.92c0,9.902,8.018,17.92,17.92,17.92
	c9.902,0,17.92-8.018,17.92-17.92C271.36,141.143,263.337,133.12,253.44,133.12z M253.44,158.72c-4.239,0-7.68-3.441-7.68-7.68
	c0-4.239,3.441-7.68,7.68-7.68c4.239,0,7.68,3.441,7.68,7.68C261.12,155.279,257.679,158.72,253.44,158.72z"/>
<g>
	<path style="fill:#E4E7E7;" d="M133.12,419.84c0,2.831,2.294,5.12,5.12,5.12h133.12c2.831,0,5.12-2.289,5.12-5.12
		s-2.289-5.12-5.12-5.12H138.24C135.409,414.72,133.12,417.009,133.12,419.84z M296.96,440.32c0,2.831,2.289,5.12,5.12,5.12h126.111
		c3.63-3.302,7.132-6.738,10.563-10.24H302.08C299.249,435.2,296.96,437.489,296.96,440.32z M276.48,460.8
		c0-2.831-2.289-5.12-5.12-5.12H138.24c-2.826,0-5.12,2.289-5.12,5.12s2.294,5.12,5.12,5.12h133.12
		C274.186,465.92,276.48,463.631,276.48,460.8z M296.96,419.84c0,2.831,2.289,5.12,5.12,5.12h146.161
		c2.934-3.338,5.78-6.748,8.54-10.24H302.08C299.249,414.72,296.96,417.009,296.96,419.84L296.96,419.84z M480.609,133.12H307.2
		c-5.652,0-10.24,4.588-10.24,10.24v15.36c0,5.652,4.588,10.24,10.24,10.24h189.599C492.303,156.539,486.881,144.563,480.609,133.12
		L480.609,133.12z M271.36,435.2H138.24c-2.826,0-5.12,2.289-5.12,5.12c0,2.831,2.294,5.12,5.12,5.12h133.12
		c2.831,0,5.12-2.289,5.12-5.12C276.48,437.489,274.186,435.2,271.36,435.2z M302.08,455.68c-2.831,0-5.12,2.289-5.12,5.12
		s2.289,5.12,5.12,5.12h100.372c4.669-3.272,9.231-6.682,13.67-10.24H302.08z"/>
</g>
<path style="fill:#E4E7E7;" d="M505.707,199.68H102.4v10.24h405.386C507.156,206.479,506.47,203.069,505.707,199.68z"/>
<path style="fill:#349886;" d="M225.28,345.6c0-12.728-6.881-23.04-15.36-23.04s-15.36,10.312-15.36,23.04
	c0,7.572,2.468,14.228,6.226,18.432c-11.817,1.321-21.996,5.151-28.662,10.45c8.325,11.93,22.134,19.758,37.796,19.758
	s29.471-7.828,37.796-19.758c-6.666-5.299-16.845-9.129-28.662-10.45C222.807,359.828,225.28,353.172,225.28,345.6z"/>
<g>
</g>
<g>
</g>
<g>
</g>
<g>
</g>
<g>
</g>
<g>
</g>
<g>
</g>
<g>
</g>
<g>
</g>
<g>
</g>
<g>
</g>
<g>
</g>
<g>
</g>
<g>
</g>
<g>
</g>
</svg>
