<?xml version="1.0" encoding="iso-8859-1"?>
<!-- Generator: Adobe Illustrator 19.0.0, SVG Export Plug-In . SVG Version: 6.00 Build 0)  -->
<svg version="1.1" id="Layer_1" xmlns="http://www.w3.org/2000/svg" xmlns:xlink="http://www.w3.org/1999/xlink" x="0px" y="0px"
	 viewBox="0 0 512.005 512.005" style="enable-background:new 0 0 512.005 512.005;" xml:space="preserve">
<path style="fill:#2EA9D3;" d="M256.003,0c141.384,0,256,114.616,256,256s-114.616,256-256,256s-256-114.616-256-256
	S114.619,0,256.003,0z"/>
<path style="fill:#EDEDED;" d="M97.283,128.005h317.44c8.484,0,15.36,6.876,15.36,15.36v353.28c0,8.479-6.876,15.36-15.36,15.36
	H97.283c-8.484,0-15.36-6.881-15.36-15.36v-353.28C81.923,134.881,88.799,128.005,97.283,128.005z"/>
<path style="fill:#324D5B;" d="M117.763,163.84h276.48V256h-276.48V163.84z"/>
<path style="fill:#B3B9BD;" d="M304.581,208c1.761-0.768,3.123-1.884,4.101-3.338c0.968-1.459,1.454-3.123,1.454-4.992
	c0-3.005-1.055-5.494-3.174-7.455c-2.12-1.961-5.089-2.944-8.924-2.944c-3.866,0-6.856,0.983-8.95,2.944
	c-2.099,1.961-3.149,4.444-3.149,7.455c0,1.756,0.456,3.379,1.367,4.854c0.906,1.475,2.36,2.637,4.357,3.482
	c-2.324,0.988-4.035,2.396-5.115,4.219s-1.618,3.83-1.618,6.011c0,3.958,1.439,7.076,4.316,9.349
	c2.437,1.925,5.489,2.888,9.155,2.888c3.948,0,7.101-1.162,9.482-3.492c2.371-2.33,3.558-5.356,3.558-9.073
	c0-2.253-0.584-4.244-1.751-5.965C308.523,210.207,306.824,208.901,304.581,208L304.581,208z M294.572,196.726
	c0.881-0.881,2.058-1.321,3.548-1.321c1.428,0,2.58,0.435,3.451,1.306s1.306,2.028,1.306,3.482c0,1.541-0.44,2.744-1.321,3.615
	s-2.053,1.306-3.523,1.306c-1.444,0-2.606-0.43-3.476-1.29c-0.876-0.86-1.311-2.063-1.311-3.604
	C293.251,198.769,293.691,197.606,294.572,196.726L294.572,196.726z M302.216,222.536c-1.044,1.147-2.365,1.715-3.958,1.715
	c-1.633,0-2.995-0.599-4.086-1.787c-1.091-1.188-1.633-2.852-1.633-4.982c0-1.521,0.466-2.934,1.388-4.234
	c0.927-1.3,2.335-1.951,4.219-1.951c1.633,0,2.98,0.573,4.045,1.715c1.06,1.152,1.592,2.668,1.592,4.557
	C303.782,219.735,303.26,221.389,302.216,222.536L302.216,222.536z M335.301,208c1.761-0.768,3.123-1.884,4.101-3.338
	c0.968-1.459,1.454-3.123,1.454-4.992c0-3.005-1.055-5.494-3.174-7.455c-2.12-1.961-5.089-2.944-8.924-2.944
	c-3.866,0-6.856,0.983-8.95,2.944c-2.099,1.961-3.149,4.444-3.149,7.455c0,1.756,0.456,3.379,1.367,4.854
	c0.906,1.475,2.36,2.637,4.357,3.482c-2.324,0.988-4.035,2.396-5.115,4.219c-1.08,1.823-1.618,3.83-1.618,6.011
	c0,3.958,1.439,7.076,4.316,9.349c2.437,1.925,5.489,2.888,9.155,2.888c3.948,0,7.101-1.162,9.482-3.492
	c2.371-2.33,3.558-5.356,3.558-9.073c0-2.253-0.584-4.244-1.751-5.965C339.243,210.207,337.544,208.901,335.301,208L335.301,208z
	 M325.292,196.726c0.881-0.881,2.058-1.321,3.548-1.321c1.428,0,2.58,0.435,3.451,1.306s1.306,2.028,1.306,3.482
	c0,1.541-0.44,2.744-1.321,3.615c-0.881,0.87-2.053,1.306-3.523,1.306c-1.444,0-2.606-0.43-3.477-1.29
	c-0.876-0.86-1.311-2.063-1.311-3.604C323.97,198.769,324.411,197.606,325.292,196.726L325.292,196.726z M332.936,222.536
	c-1.044,1.147-2.365,1.715-3.958,1.715c-1.633,0-2.995-0.599-4.086-1.787c-1.091-1.188-1.633-2.852-1.633-4.982
	c0-1.521,0.466-2.934,1.388-4.234c0.927-1.3,2.335-1.951,4.219-1.951c1.633,0,2.98,0.573,4.045,1.715
	c1.06,1.152,1.592,2.668,1.592,4.557C334.502,219.735,333.98,221.389,332.936,222.536L332.936,222.536z M368.852,194.017
	c-2.621-3.159-5.975-4.746-10.061-4.746c-3.758,0-6.856,1.254-9.277,3.753c-2.432,2.504-3.651,5.801-3.651,9.887
	c0,3.922,1.152,7.107,3.456,9.554c2.299,2.447,5.033,3.671,8.207,3.671c2.918,0,5.35-1.132,7.291-3.384
	c-0.312,4.618-1.029,7.665-2.145,9.134c-1.116,1.464-2.473,2.202-4.07,2.202c-1.265,0-2.284-0.369-3.057-1.106
	c-0.768-0.732-1.244-1.859-1.428-3.379l-7.48,0.824c0.548,3.333,1.802,5.842,3.738,7.521c1.946,1.679,4.495,2.514,7.649,2.514
	c4.378,0,7.936-1.628,10.67-4.89c2.729-3.267,4.096-8.581,4.096-15.949C372.79,202.378,371.479,197.181,368.852,194.017
	L368.852,194.017z M362.601,208.717c-1.019,1.172-2.268,1.761-3.758,1.761c-1.541,0-2.821-0.609-3.85-1.828
	c-1.024-1.219-1.541-3.128-1.541-5.734c0-2.565,0.476-4.419,1.418-5.545c0.942-1.126,2.13-1.69,3.558-1.69
	c1.5,0,2.831,0.686,3.973,2.058c1.147,1.377,1.715,3.308,1.715,5.806C364.122,205.819,363.62,207.539,362.601,208.717z"/>
<path style="fill:#E2574C;" d="M184.323,286.725h-51.2c-8.484,0-15.36,6.876-15.36,15.36v51.2c0,8.479,6.876,15.36,15.36,15.36h51.2
	c8.484,0,15.36-6.881,15.36-15.36v-51.2C199.683,293.601,192.806,286.725,184.323,286.725z M184.323,384.005h-51.2
	c-8.484,0-15.36,6.876-15.36,15.36v51.2c0,8.479,6.876,15.36,15.36,15.36h51.2c8.484,0,15.36-6.881,15.36-15.36v-51.2
	C199.683,390.881,192.806,384.005,184.323,384.005z M281.603,286.725h-51.2c-8.484,0-15.36,6.876-15.36,15.36v51.2
	c0,8.479,6.876,15.36,15.36,15.36h51.2c8.484,0,15.36-6.881,15.36-15.36v-51.2C296.963,293.601,290.086,286.725,281.603,286.725z
	 M281.603,384.005h-51.2c-8.484,0-15.36,6.876-15.36,15.36v51.2c0,8.479,6.876,15.36,15.36,15.36h51.2
	c8.484,0,15.36-6.881,15.36-15.36v-51.2C296.963,390.881,290.086,384.005,281.603,384.005z"/>
<path style="fill:#FFFFFF;" d="M240.643,430.085v-10.24h30.72v10.24H240.643z M261.123,409.605c0,2.831-2.289,5.12-5.12,5.12
	c-2.831,0-5.12-2.289-5.12-5.12s2.289-5.12,5.12-5.12C258.834,404.485,261.123,406.774,261.123,409.605z M143.363,419.845h30.72
	v10.24h-30.72V419.845z M163.843,343.04h-10.24V332.8h-10.24v-10.235h10.24v-10.24h10.24v10.24h10.24V332.8h-10.24V343.04z
	 M256.003,435.205c2.831,0,5.12,2.289,5.12,5.12s-2.289,5.12-5.12,5.12c-2.831,0-5.12-2.289-5.12-5.12
	S253.171,435.205,256.003,435.205z M241.523,320.445l7.24-7.245l7.24,7.245l7.24-7.245l7.24,7.24l-7.24,7.24l7.24,7.245l-7.24,7.24
	l-7.24-7.24l-7.245,7.24l-7.24-7.24l7.24-7.24L241.523,320.445L241.523,320.445z"/>
<path style="fill:#3DB39E;" d="M327.683,286.725h51.2c8.484,0,15.36,6.876,15.36,15.36v148.48c0,8.479-6.876,15.36-15.36,15.36
	h-51.2c-8.479,0-15.36-6.881-15.36-15.36v-148.48C312.323,293.601,319.204,286.725,327.683,286.725z"/>
<path style="fill:#FFFFFF;" d="M337.923,358.405v10.24h30.72v-10.24H337.923z M337.923,384.005h30.72v-10.24h-30.72V384.005z"/>
<path style="fill:#349886;" d="M378.883,455.685h-51.2c-8.479,0-15.36-6.881-15.36-15.36v10.24c0,8.479,6.881,15.36,15.36,15.36
	h51.2c8.484,0,15.36-6.881,15.36-15.36v-10.24C394.243,448.804,387.366,455.685,378.883,455.685z"/>
<g>
	<path style="fill:#C04A41;" d="M281.603,358.405h-51.2c-8.484,0-15.36-6.881-15.36-15.36v10.24c0,8.479,6.876,15.36,15.36,15.36
		h51.2c8.484,0,15.36-6.881,15.36-15.36v-10.24C296.963,351.524,290.086,358.405,281.603,358.405z M184.323,358.405h-51.2
		c-8.484,0-15.36-6.881-15.36-15.36v10.24c0,8.479,6.876,15.36,15.36,15.36h51.2c8.484,0,15.36-6.881,15.36-15.36v-10.24
		C199.683,351.524,192.806,358.405,184.323,358.405z M184.323,455.685h-51.2c-8.484,0-15.36-6.881-15.36-15.36v10.24
		c0,8.479,6.876,15.36,15.36,15.36h51.2c8.484,0,15.36-6.881,15.36-15.36v-10.24C199.683,448.804,192.806,455.685,184.323,455.685z
		 M281.603,455.685h-51.2c-8.484,0-15.36-6.881-15.36-15.36v10.24c0,8.479,6.876,15.36,15.36,15.36h51.2
		c8.484,0,15.36-6.881,15.36-15.36v-10.24C296.963,448.804,290.086,455.685,281.603,455.685z"/>
</g>
<path style="fill:#DCDCDC;" d="M414.723,501.765H97.283c-8.484,0-15.36-6.881-15.36-15.36v10.24c0,8.479,6.876,15.36,15.36,15.36
	h317.44c8.484,0,15.36-6.881,15.36-15.36v-10.24C430.083,494.884,423.206,501.765,414.723,501.765z"/>
<g>
</g>
<g>
</g>
<g>
</g>
<g>
</g>
<g>
</g>
<g>
</g>
<g>
</g>
<g>
</g>
<g>
</g>
<g>
</g>
<g>
</g>
<g>
</g>
<g>
</g>
<g>
</g>
<g>
</g>
</svg>
