<?xml version="1.0" encoding="iso-8859-1"?>
<!-- Generator: Adobe Illustrator 19.0.0, SVG Export Plug-In . SVG Version: 6.00 Build 0)  -->
<svg version="1.1" id="Layer_1" xmlns="http://www.w3.org/2000/svg" xmlns:xlink="http://www.w3.org/1999/xlink" x="0px" y="0px"
	 viewBox="0 0 512 512" style="enable-background:new 0 0 512 512;" xml:space="preserve">
<path style="fill:#3DB39E;" d="M256,0C114.616,0,0,114.616,0,256c0,141.389,114.616,256,256,256s256-114.611,256-256
	C512,114.616,397.384,0,256,0z"/>
<path style="fill:#EFC75E;" d="M117.76,112.64h276.48c8.484,0,15.36,6.876,15.36,15.36v256c0,8.484-6.876,15.36-15.36,15.36H117.76
	c-8.484,0-15.36-6.876-15.36-15.36V128C102.4,119.516,109.276,112.64,117.76,112.64z"/>
<path style="fill:#FFFFFF;" d="M138.24,138.24h235.52c5.652,0,10.24,4.588,10.24,10.235v220.17c0,5.647-4.588,10.235-10.24,10.235
	H138.24c-5.652,0-10.24-4.588-10.24-10.235v-220.17C128,142.828,132.588,138.24,138.24,138.24z"/>
<path style="fill:#F2F2F2;" d="M128,368.645c0,5.647,4.588,10.235,10.24,10.235h235.52c5.652,0,10.24-4.588,10.24-10.235V261.12H128
	V368.645z"/>
<path style="fill:#40545E;" d="M240.097,289.413h-25.114c11.663-14.367,32.937-32.886,32.937-51.543
	c0-17.05-13.583-27.924-30.464-27.924s-32.256,13.553-32.256,30.469c0,5.233,3.436,9.8,10.02,9.8
	c13.174,0,5.627-21.745,21.412-21.745c5.627,0,9.882,4.828,9.882,10.337c0,4.833-2.33,8.996-4.803,12.483
	c-10.429,14.771-22.779,26.849-34.171,40.141c-1.372,1.613-3.154,4.029-3.154,6.845c0,6.18,4.664,8.858,10.706,8.858h45.834
	c5.217,0,9.887-2.678,9.887-8.858C250.798,292.101,246.129,289.413,240.097,289.413L240.097,289.413z M311.731,254.31
	c7.219-4.618,10.767-11.884,10.767-20.204c0-10.301-9.062-24.161-27.965-24.161c-14.577,0-28.626,11.09-28.626,21.391
	c0,4.884,3.149,9.769,8.535,9.769c8.924,0,7.219-12.938,19.697-12.938c5.903,0,9.457,3.83,9.457,8.847
	c0,14.659-18.647,5.284-18.647,19.144c0,15.585,22.318,1.981,22.318,20.465c0,6.999-5.514,12.283-12.344,12.283
	c-14.833,0-12.733-15.452-21.658-15.452c-4.731,0-10.117,3.697-10.117,8.847c0,10.429,12.078,24.827,31.514,24.827
	c18.647,0,33.091-13.338,33.091-29.179C327.752,267.515,321.178,258.668,311.731,254.31L311.731,254.31z"/>
<path style="fill:#2B414D;" d="M128,245.76c-2.831,0-5.12,2.289-5.12,5.12v15.36c0,2.826,2.289,5.12,5.12,5.12s5.12-2.294,5.12-5.12
	v-15.36C133.12,248.049,130.831,245.76,128,245.76z M384,245.76c-2.831,0-5.12,2.289-5.12,5.12v15.36c0,2.826,2.289,5.12,5.12,5.12
	c2.831,0,5.12-2.294,5.12-5.12v-15.36C389.12,248.049,386.831,245.76,384,245.76z"/>
<path style="fill:#E5E5E5;" d="M133.12,256h245.76v5.12H133.12V256z"/>
<path style="fill:#B5B5B6;" d="M373.76,373.76H138.24c-5.652,0-10.24-4.588-10.24-10.235v5.12c0,5.647,4.588,10.235,10.24,10.235
	h235.52c5.652,0,10.24-4.588,10.24-10.235v-5.12C384,369.172,379.412,373.76,373.76,373.76z"/>
<g>
	<path style="fill:#394B54;" d="M284.943,256.154c0,2.186,0.476,3.758,1.229,4.966h34.908c-1.792-1.971-3.891-3.692-6.226-5.12
		h-29.901L284.943,256.154L284.943,256.154z M218.097,256c-1.3,1.71-2.57,3.466-3.917,5.12h24.668c1.183-1.69,2.289-3.4,3.292-5.12
		H218.097L218.097,256z"/>
</g>
<g>
</g>
<g>
</g>
<g>
</g>
<g>
</g>
<g>
</g>
<g>
</g>
<g>
</g>
<g>
</g>
<g>
</g>
<g>
</g>
<g>
</g>
<g>
</g>
<g>
</g>
<g>
</g>
<g>
</g>
</svg>
