<?xml version="1.0" encoding="iso-8859-1"?>
<!-- Generator: Adobe Illustrator 19.0.0, SVG Export Plug-In . SVG Version: 6.00 Build 0)  -->
<svg version="1.1" id="Layer_1" xmlns="http://www.w3.org/2000/svg" xmlns:xlink="http://www.w3.org/1999/xlink" x="0px" y="0px"
	 viewBox="0 0 512 512" style="enable-background:new 0 0 512 512;" xml:space="preserve">
<path style="fill:#EFC75E;" d="M256,0c141.384,0,256,114.616,256,256S397.384,512,256,512S0,397.384,0,256S114.616,0,256,0z"/>
<path style="fill:#1E2E37;" d="M358.4,435.2v15.36c0,8.484,6.881,15.36,15.36,15.36h25.6V435.2H358.4z M117.76,465.92h25.6
	c8.479,0,15.36-6.876,15.36-15.36V435.2h-40.96V465.92z"/>
<path style="fill:#324D5B;" d="M394.24,435.2v56.32c0,11.31,9.17,20.48,20.48,20.48h5.12c11.31,0,20.48-9.17,20.48-20.48V435.2
	H394.24z M76.8,491.52c0,11.31,9.17,20.48,20.48,20.48h5.12c11.31,0,20.48-9.17,20.48-20.48V435.2H76.8V491.52z"/>
<path style="fill:#BF392B;" d="M254.72,153.6h0.963c107.489,0,133.437,45.983,133.437,133.437H122.563
	C122.563,199.583,148.9,153.6,254.72,153.6z"/>
<path style="fill:#85C6DC;" d="M255.012,168.96h0.85c94.966,0,117.898,40.678,117.898,118.047H138.24
	C138.24,209.638,161.51,168.96,255.012,168.96z"/>
<path style="fill:#BF392B;" d="M122.88,296.96h266.24c39.588,0,71.68,32.097,71.68,71.68V384c0,11.31-5.202,20.48-20.48,20.48H71.68
	c-15.15,0-20.48-9.17-20.48-20.48v-15.36C51.2,329.057,83.292,296.96,122.88,296.96z"/>
<path style="fill:#85281E;" d="M256,404.48c65.039,0,117.76,11.459,117.76,25.6s-52.721,25.6-117.76,25.6
	s-117.76-11.459-117.76-25.6S190.961,404.48,256,404.48z"/>
<path style="fill:#E4E7E7;" d="M66.56,404.48h384c5.652,0,10.24,4.588,10.24,10.24c0,11.31-9.17,20.48-20.48,20.48H76.8
	c-11.31,0-20.48-9.17-20.48-20.48C56.32,409.068,60.908,404.48,66.56,404.48z"/>
<path style="fill:#AC3327;" d="M312.32,312.32v92.16h40.96c0-87.076,20.48-92.16,20.48-92.16H312.32z M168.96,404.48h40.96v-92.16
	h-61.44C148.48,312.32,168.96,317.404,168.96,404.48z"/>
<path style="fill:#E2574C;" d="M399.043,276.879c-53.197-31.416-136.305-25.651-138.004-25.523
	c-1.7-0.123-84.71-5.888-137.851,25.523c0,0-12.124,7.716,0,10.209c0,0,36.803,16.748,56.192,81.659
	c0,0,10.849,35.732,35.758,35.732h91.848c24.94,0,35.799-35.732,35.799-35.732c19.415-64.917,56.253-81.659,56.253-81.659
	C411.182,284.595,399.043,276.879,399.043,276.879L399.043,276.879z"/>
<path style="fill:#BF392B;" d="M152.161,283.843c0,0-8.218,5.125,0,6.784c0,0,24.975,11.126,38.134,54.272
	c0,0,7.363,44.227,24.264,44.227h26.081V266.557C240.64,266.557,188.595,262.743,152.161,283.843z M370.079,283.843
	c-36.434-21.1-88.479-17.285-88.479-17.285V389.12h26.081c16.906,0,24.264-44.227,24.264-44.227
	c13.158-43.146,38.134-54.272,38.134-54.272C378.301,288.963,370.079,283.843,370.079,283.843z"/>
<path style="fill:#E87970;" d="M256,250.88h10.24v153.6H256V250.88z"/>
<path style="fill:#E07168;" d="M256,389.12h10.24v15.36H256V389.12z"/>
<path style="fill:#E3E6E6;" d="M107.52,327.68c-16.963,0-30.72,13.757-30.72,30.72s13.757,30.72,30.72,30.72
	s30.72-13.757,30.72-30.72S124.483,327.68,107.52,327.68z M404.48,327.68c-16.963,0-30.72,13.757-30.72,30.72
	s13.757,30.72,30.72,30.72c16.963,0,30.72-13.757,30.72-30.72S421.443,327.68,404.48,327.68z"/>
<path style="fill:#CCD0D2;" d="M404.48,335.36c12.703,0,23.04,10.337,23.04,23.04s-10.337,23.04-23.04,23.04
	c-12.703,0-23.04-10.337-23.04-23.04S391.777,335.36,404.48,335.36 M107.52,335.36c12.703,0,23.04,10.337,23.04,23.04
	s-10.337,23.04-23.04,23.04s-23.04-10.337-23.04-23.04S94.817,335.36,107.52,335.36 M404.48,327.68
	c-16.963,0-30.72,13.757-30.72,30.72s13.757,30.72,30.72,30.72c16.963,0,30.72-13.757,30.72-30.72S421.443,327.68,404.48,327.68z
	 M107.52,327.68c-16.963,0-30.72,13.757-30.72,30.72s13.757,30.72,30.72,30.72s30.72-13.757,30.72-30.72
	S124.483,327.68,107.52,327.68z"/>
<path style="fill:#C4CBCE;" d="M107.52,348.16c-5.652,0-10.24,4.588-10.24,10.24s4.588,10.24,10.24,10.24s10.24-4.588,10.24-10.24
	S113.172,348.16,107.52,348.16z M404.48,348.16c-5.652,0-10.24,4.588-10.24,10.24s4.588,10.24,10.24,10.24
	c5.652,0,10.24-4.588,10.24-10.24S410.132,348.16,404.48,348.16z"/>
<path style="fill:#F4B459;" d="M399.36,281.6h-5.12c-5.652,0-10.24,4.587-10.24,10.24v5.12c0,2.831,5.729,5.12,12.8,5.12
	s12.8-2.289,12.8-5.12v-5.12C409.6,286.188,405.012,281.6,399.36,281.6z M122.88,281.6h-5.12c-5.652,0-10.24,4.587-10.24,10.24v5.12
	c0,2.831,5.729,5.12,12.8,5.12c7.071,0,12.8-2.289,12.8-5.12v-5.12C133.12,286.188,128.532,281.6,122.88,281.6z"/>
<path style="fill:#92D2E8;" d="M147.758,222.034c16.502-7.885,62.06-27.474,107.75-27.474c46.07,0,92.216,19.692,108.785,27.54
	c-13.819-35.016-45.087-53.14-108.431-53.14h-0.85C192.681,168.96,161.587,187.059,147.758,222.034z"/>
<g>
	<path style="fill:#C67740;" d="M112.64,296.96v-5.12c0-5.652,4.588-10.24,10.24-10.24h-5.12c-5.652,0-10.24,4.587-10.24,10.24v5.12
		c0,2.831,5.729,5.12,12.8,5.12l2.56-0.108C117.038,301.507,112.64,299.438,112.64,296.96z M389.12,296.96v-5.12
		c0-5.652,4.588-10.24,10.24-10.24h-5.12c-5.652,0-10.24,4.587-10.24,10.24v5.12c0,2.831,5.729,5.12,12.8,5.12l2.56-0.108
		C393.513,301.507,389.12,299.438,389.12,296.96z"/>
</g>
<g>
</g>
<g>
</g>
<g>
</g>
<g>
</g>
<g>
</g>
<g>
</g>
<g>
</g>
<g>
</g>
<g>
</g>
<g>
</g>
<g>
</g>
<g>
</g>
<g>
</g>
<g>
</g>
<g>
</g>
</svg>
