<?xml version="1.0" encoding="iso-8859-1"?>
<!-- Generator: Adobe Illustrator 19.0.0, SVG Export Plug-In . SVG Version: 6.00 Build 0)  -->
<svg version="1.1" id="Layer_1" xmlns="http://www.w3.org/2000/svg" xmlns:xlink="http://www.w3.org/1999/xlink" x="0px" y="0px"
	 viewBox="0 0 512 512" style="enable-background:new 0 0 512 512;" xml:space="preserve">
<path style="fill:#91D8F0;" d="M256,0C114.616,0,0,114.621,0,256c0,141.384,114.616,256,256,256c141.389,0,256-114.616,256-256
	C512,114.621,397.389,0,256,0z"/>
<path style="fill:#7EBCD2;" d="M498.529,337.92H13.471C47.642,439.112,143.278,512,256,512
	C368.732,512,464.358,439.112,498.529,337.92z"/>
<path style="fill:#FFFFFF;" d="M343.04,201.129V153.6c5.658,0,10.24-4.588,10.24-10.24s-4.582-10.24-10.24-10.24h-71.68
	c-5.652,0-10.24,4.588-10.24,10.24s4.588,10.24,10.24,10.24v47.529c-38.851,14.546-66.56,51.907-66.56,95.831
	c0,56.556,45.85,102.4,102.4,102.4c56.561,0,102.4-45.844,102.4-102.4C409.6,253.036,381.891,215.675,343.04,201.129z"/>
<path style="fill:#E2574C;" d="M291.84,276.48c41.068,0,88.402-37.565,100.009,0.138c1.981,6.41,2.391,13.338,2.391,20.342
	c0,48.072-38.968,87.04-87.04,87.04s-87.04-38.968-87.04-87.04c0-10.225,1.761-20.035,5.002-29.148
	C233.032,246.948,253.988,276.48,291.84,276.48L291.84,276.48z"/>
<path style="fill:#E87970;" d="M279.04,291.84c-9.902,0-17.92,8.018-17.92,17.92c0,9.897,8.018,17.92,17.92,17.92
	c9.902,0,17.92-8.023,17.92-17.92C296.96,299.858,288.942,291.84,279.04,291.84z M322.56,327.68c-8.479,0-15.36,6.876-15.36,15.36
	c0,8.484,6.881,15.355,15.36,15.355c8.479,0,15.36-6.871,15.36-15.355C337.92,334.556,331.039,327.68,322.56,327.68z M330.24,291.84
	c-4.239,0-7.68,3.436-7.68,7.68c0,4.239,3.441,7.675,7.68,7.675c4.239,0,7.68-3.436,7.68-7.675
	C337.92,295.276,334.479,291.84,330.24,291.84z M358.4,307.195c-5.652,0-10.24,4.588-10.24,10.24c0,5.658,4.588,10.245,10.24,10.245
	c5.658,0,10.24-4.588,10.24-10.245C368.64,311.788,364.058,307.195,358.4,307.195z M366.08,276.48c-4.239,0-7.68,3.436-7.68,7.68
	c0,4.239,3.441,7.68,7.68,7.68s7.68-3.441,7.68-7.68C373.76,279.916,370.319,276.48,366.08,276.48z"/>
<path style="fill:#E5E5E5;" d="M271.36,153.6h71.68v10.235h-71.68V153.6z"/>
<path style="fill:#FFFFFF;" d="M235.52,133.12h-102.4c-5.652,0-10.24,4.588-10.24,10.24s4.588,10.24,10.24,10.24v194.56
	c0,28.273,22.922,51.2,51.2,51.2s51.2-22.927,51.2-51.2V153.6c5.658,0,10.24-4.588,10.24-10.24S241.178,133.12,235.52,133.12z"/>
<path style="fill:#E5E5E5;" d="M133.12,153.6h102.4v10.235h-102.4V153.6z"/>
<path style="fill:#F4B459;" d="M199.675,199.675c10.89,0,20.49,5.12,20.49,5.12V343.04c0,19.794-16.046,40.96-35.84,40.96
	s-35.84-16.051-35.84-35.84V204.795c0,0,9.283,5.12,20.321,5.12C179.85,209.915,189.015,199.675,199.675,199.675z"/>
<path style="fill:#F7CB8B;" d="M176.64,291.84c7.071,0,12.8-5.734,12.8-12.805c0-7.066-5.729-12.795-12.8-12.795
	s-12.8,5.729-12.8,12.795C163.84,286.106,169.574,291.84,176.64,291.84z M197.12,255.995c4.239,0,7.68-3.436,7.68-7.675
	c0-4.244-3.441-7.68-7.68-7.68s-7.68,3.436-7.68,7.68C189.44,252.559,192.881,255.995,197.12,255.995z M194.56,307.195
	c-5.652,0-10.24,4.588-10.24,10.24c0,5.658,4.588,10.245,10.24,10.245s10.24-4.588,10.24-10.245
	C204.8,311.788,200.218,307.195,194.56,307.195z M171.52,332.795c-4.239,0-7.68,3.441-7.68,7.68s3.441,7.685,7.68,7.685
	c4.239,0,7.68-3.446,7.68-7.685S175.764,332.795,171.52,332.795z"/>
<path style="fill:#D6D6D6;" d="M227.2,233.211v127.57c6.712,8.402,14.689,15.718,23.68,21.658v-170.88
	C241.889,217.492,233.917,224.819,227.2,233.211z"/>
<path style="fill:#F2F2F2;" d="M184.32,399.36c28.278,0,51.2-22.927,51.2-51.2V163.835h-51.2V399.36z"/>
<path style="fill:#E8AB54;" d="M184.32,204.826V384c19.794,0,35.84-21.166,35.84-40.96V204.795c0,0-9.6-5.12-20.49-5.12
	C194.319,199.675,189.348,202.255,184.32,204.826z"/>
<g>
	<path style="fill:#EFC488;" d="M184.32,268.856v20.367c3.092-2.335,5.12-6.011,5.12-10.184S187.412,271.196,184.32,268.856
		L184.32,268.856z"/>
	<circle style="fill:#EFC488;" cx="194.56" cy="317.44" r="10.24"/>
	<circle style="fill:#EFC488;" cx="197.12" cy="248.32" r="7.68"/>
</g>
<path style="fill:#EEEEEE;" d="M343.04,201.129v-37.294H307.2V399.36c56.561,0,102.4-45.844,102.4-102.4
	C409.6,253.036,381.891,215.675,343.04,201.129z"/>
<path style="fill:#D35349;" d="M307.2,274.98V384c48.072,0,87.04-38.968,87.04-87.04c0-7.004-0.41-13.932-2.391-20.342
	C381.67,243.548,344.008,268.375,307.2,274.98L307.2,274.98z"/>
<g>
	<circle style="fill:#D8726A;" cx="366.08" cy="284.16" r="7.68"/>
	<circle style="fill:#D8726A;" cx="358.4" cy="317.435" r="10.24"/>
	<circle style="fill:#D8726A;" cx="322.56" cy="343.04" r="15.36"/>
	<circle style="fill:#D8726A;" cx="330.24" cy="299.52" r="7.68"/>
</g>
<path style="fill:#BE4940;" d="M235.52,346.286c4.362,6.313,9.528,12.017,15.36,16.968v-97.331
	c-6.129-2.719-11.223-5.007-15.36-5.463V346.286z"/>
<g>
</g>
<g>
</g>
<g>
</g>
<g>
</g>
<g>
</g>
<g>
</g>
<g>
</g>
<g>
</g>
<g>
</g>
<g>
</g>
<g>
</g>
<g>
</g>
<g>
</g>
<g>
</g>
<g>
</g>
</svg>
