<?xml version="1.0" encoding="iso-8859-1"?>
<!-- Generator: Adobe Illustrator 19.0.0, SVG Export Plug-In . SVG Version: 6.00 Build 0)  -->
<svg version="1.1" id="Layer_1" xmlns="http://www.w3.org/2000/svg" xmlns:xlink="http://www.w3.org/1999/xlink" x="0px" y="0px"
	 viewBox="0 0 512 512" style="enable-background:new 0 0 512 512;" xml:space="preserve">
<path style="fill:#2EA9D3;" d="M256,0c141.384,0,256,114.616,256,256S397.384,512,256,512S0,397.384,0,256S114.616,0,256,0z"/>
<path style="fill:#EFEFEF;" d="M256,40.96c118.764,0,215.04,96.282,215.04,215.04c0,118.764-96.276,215.04-215.04,215.04
	S40.96,374.764,40.96,256C40.96,137.242,137.236,40.96,256,40.96z"/>
<path style="fill:#CCD0D2;" d="M256,158.72c-53.724,0-97.28,43.556-97.28,97.28c0,53.729,43.556,97.28,97.28,97.28
	s97.28-43.551,97.28-97.28C353.28,202.276,309.724,158.72,256,158.72z M256,343.04c-48.072,0-87.04-38.968-87.04-87.04
	s38.968-87.04,87.04-87.04s87.04,38.968,87.04,87.04S304.072,343.04,256,343.04z"/>
<path style="fill:#BF392B;" d="M373.33,138.834c7.48,7.465-82.145,137.472-89.615,144.947c-7.475,7.47-137.38,97.213-145.044,89.554
	c-7.501-7.496,82.376-137.702,89.615-144.947C235.525,221.148,365.45,130.959,373.33,138.834L373.33,138.834z"/>
<path style="fill:#CCD0D2;" d="M256,87.04c-5.652,0-10.24,4.588-10.24,10.24s4.588,10.24,10.24,10.24
	c5.652,0,10.24-4.588,10.24-10.24S261.652,87.04,256,87.04z M256,404.48c-5.652,0-10.24,4.588-10.24,10.24
	c0,5.658,4.588,10.24,10.24,10.24c5.652,0,10.24-4.582,10.24-10.24C266.24,409.068,261.652,404.48,256,404.48z M414.72,245.76
	c-5.652,0-10.24,4.588-10.24,10.24c0,5.658,4.588,10.24,10.24,10.24c5.652,0,10.24-4.582,10.24-10.24
	C424.96,250.348,420.372,245.76,414.72,245.76z M97.28,245.76c-5.652,0-10.24,4.588-10.24,10.24c0,5.658,4.588,10.24,10.24,10.24
	s10.24-4.582,10.24-10.24C107.52,250.348,102.932,245.76,97.28,245.76z M360.991,360.991c-3.999,3.999-3.999,10.486,0,14.484
	c3.999,3.994,10.486,3.994,14.484,0c3.994-3.999,3.994-10.486,0-14.484C371.476,356.992,364.989,356.992,360.991,360.991z
	 M136.525,136.53c-3.994,3.999-3.994,10.481,0,14.484c3.999,3.999,10.486,3.999,14.484,0c3.999-3.999,3.999-10.481,0-14.484
	C147.011,132.526,140.523,132.526,136.525,136.53z"/>
<path style="fill:#E2574C;" d="M285.481,281.697c14.474-18.161,94.956-135.767,87.849-142.858
	c-7.685-7.68-131.384,77.865-144.225,88.827L285.481,281.697L285.481,281.697z"/>
<path style="fill:#C64D41;" d="M228.285,228.388c-7.168,7.168-95.278,134.799-89.748,144.609L372.89,138.65
	C362.092,133.299,235.433,221.24,228.285,228.388z"/>
<path style="fill:#E5685E;" d="M229.105,227.661l27.965,26.803L372.89,138.65C362.358,133.432,241.782,216.842,229.105,227.661z"/>
<path style="fill:#EFEFEF;" d="M256,240.64c8.484,0,15.36,6.876,15.36,15.36s-6.876,15.36-15.36,15.36s-15.36-6.876-15.36-15.36
	S247.516,240.64,256,240.64z"/>
<path style="fill:#AD3427;" d="M256,271.36c-8.484,0-15.36-6.876-15.36-15.36c0-2.924,0.86-5.632,2.278-7.962
	c-4.419,2.698-7.398,7.526-7.398,13.082c0,8.484,6.876,15.36,15.36,15.36c5.56,0,10.383-2.98,13.082-7.398
	C261.632,270.5,258.924,271.36,256,271.36z"/>
<path style="fill:#D7D7D7;" d="M256,40.96c-63.288,0-120.187,27.351-159.534,70.866C134.605,77.332,185.165,56.32,240.64,56.32
	c118.764,0,215.04,96.282,215.04,215.04c0,55.475-21.013,106.035-55.506,144.174C443.689,376.187,471.04,319.288,471.04,256
	C471.04,137.242,374.764,40.96,256,40.96L256,40.96z"/>
<g>
</g>
<g>
</g>
<g>
</g>
<g>
</g>
<g>
</g>
<g>
</g>
<g>
</g>
<g>
</g>
<g>
</g>
<g>
</g>
<g>
</g>
<g>
</g>
<g>
</g>
<g>
</g>
<g>
</g>
</svg>
