<?xml version="1.0" encoding="iso-8859-1"?>
<!-- Generator: Adobe Illustrator 19.0.0, SVG Export Plug-In . SVG Version: 6.00 Build 0)  -->
<svg version="1.1" id="Layer_1" xmlns="http://www.w3.org/2000/svg" xmlns:xlink="http://www.w3.org/1999/xlink" x="0px" y="0px"
	 viewBox="0 0 512 512" style="enable-background:new 0 0 512 512;" xml:space="preserve">
<path style="fill:#EDEDED;" d="M256,0C114.616,0,0,114.611,0,256c0,141.379,114.616,256,256,256s256-114.621,256-256
	C512,114.611,397.384,0,256,0z"/>
<path style="fill:#3DB39E;" d="M256,112.635c79.176,0,143.36,64.184,143.36,143.36S335.176,399.355,256,399.355
	s-143.36-64.179-143.36-143.36C112.64,176.819,176.824,112.635,256,112.635z"/>
<path style="fill:#324D5B;" d="M256,184.315c39.588,0,71.68,32.092,71.68,71.68s-32.092,71.68-71.68,71.68
	s-71.68-32.092-71.68-71.68C184.32,216.402,216.412,184.315,256,184.315z"/>
<path style="fill:#9ED9CF;" d="M307.2,168.955c16.968,0,30.72,13.757,30.72,30.72s-13.752,30.72-30.72,30.72
	c-16.963,0-30.72-13.757-30.72-30.72S290.237,168.955,307.2,168.955z"/>
<path style="fill:#99A6AD;" d="M321.459,226.872c-8.12-18.227-23.603-32.41-42.696-38.804c-1.464,3.584-2.284,7.496-2.284,11.607
	c0,16.963,13.757,30.72,30.72,30.72C312.351,230.395,317.194,229.11,321.459,226.872z"/>
<path style="fill:#2B424D;" d="M266.24,317.43c-39.588,0-71.68-32.092-71.68-71.68c0-17.188,6.062-32.947,16.143-45.297
	c-16.097,13.148-26.383,33.137-26.383,55.542c0,39.588,32.092,71.68,71.68,71.68c22.405,0,42.394-10.291,55.537-26.383
	C299.192,311.368,283.423,317.43,266.24,317.43z"/>
<path style="fill:#37A18E;" d="M266.24,389.11c-79.176,0-143.36-64.179-143.36-143.36c0-36.982,14.008-70.687,37.007-96.118
	c-29.015,26.24-47.247,64.169-47.247,106.363c0,79.176,64.184,143.36,143.36,143.36c42.194,0,80.123-18.232,106.358-47.247
	C336.932,375.101,303.227,389.11,266.24,389.11z"/>
<g>
</g>
<g>
</g>
<g>
</g>
<g>
</g>
<g>
</g>
<g>
</g>
<g>
</g>
<g>
</g>
<g>
</g>
<g>
</g>
<g>
</g>
<g>
</g>
<g>
</g>
<g>
</g>
<g>
</g>
</svg>
