<?xml version="1.0" encoding="iso-8859-1"?>
<!-- Generator: Adobe Illustrator 19.0.0, SVG Export Plug-In . SVG Version: 6.00 Build 0)  -->
<svg version="1.1" id="Layer_1" xmlns="http://www.w3.org/2000/svg" xmlns:xlink="http://www.w3.org/1999/xlink" x="0px" y="0px"
	 viewBox="0 0 512 512" style="enable-background:new 0 0 512 512;" xml:space="preserve">
<path style="fill:#EFC75E;" d="M256,0C114.616,0,0,114.611,0,256c0,141.379,114.616,256,256,256c141.389,0,256-114.621,256-256
	C512,114.611,397.389,0,256,0z"/>
<path style="fill:#DB5449;" d="M102.4,179.195l153.482,76.8l153.713-76.8v163.84L255.442,419.84L102.4,343.035L102.4,179.195
	L102.4,179.195z"/>
<path style="fill:#D05045;" d="M102.4,343.035l153.042,76.805l0.44-0.22V255.995l-153.482-76.8L102.4,343.035z"/>
<path style="fill:#C54B42;" d="M102.4,194.452v47.8l153.006,75.187L409.6,242.217v-47.77L255.877,269.65L102.4,194.452z"/>
<path style="fill:#BB483E;" d="M102.4,194.452v47.8l153.006,75.187l0.471-47.79L102.4,194.452z"/>
<path style="fill:#EB6258;" d="M92.16,173.757L256,92.237l163.84,81.521l-0.092,10.788L256,266.158L92.221,184.663L92.16,173.757
	L92.16,173.757z"/>
<path style="fill:#E2574C;" d="M92.16,174.075l163.717,80.215l163.963-80.215v52.905L255.406,307.2L92.16,226.985
	C92.16,226.985,92.16,174.075,92.16,174.075z"/>
<path style="fill:#D65348;" d="M255.882,254.29h-0.005L92.16,174.075v52.91L255.406,307.2l0.476-0.236V254.29z"/>
<path style="fill:#EFEFEF;" d="M317.44,224.169v164.782l40.96-20.413V204.134L317.44,224.169z"/>
<path style="fill:#E8E8E8;" d="M153.6,204.175v164.557l40.96,20.547V224.246L153.6,204.175z"/>
<path style="fill:#FFFFFF;" d="M302.838,173.624c33.101-8.52,50.432-25.641,50.432-42.332c0-4.664-0.998-9.221-3.328-13.384
	c-5.468-9.738-16.85-15.555-30.408-15.555c-30.899,0-52.797,28.995-63.555,47.293c-10.772-18.284-32.666-47.109-63.498-47.109
	c-19.553,0-33.741,12.099-33.741,28.513c0,20.91,16.594,36.557,49.715,43.735L153.6,204.175l40.96,20.065l62.193-34.693
	l60.687,34.621l40.96-20.04L302.838,173.624L302.838,173.624z M312.55,128.02c5.78,0,9.969,3.231,9.969,7.67
	c0,3.476-2.56,8.914-9.743,13.757c-5.473,3.697-15.094,7.982-31.114,9.324C287.642,146.15,298.639,128.02,312.55,128.02z
	 M189.486,135.69c0-4.439,4.188-7.67,9.964-7.67c13.911,0,24.919,18.13,30.899,30.751c-16.026-1.347-25.641-5.627-31.124-9.324
	C192.046,144.604,189.486,139.172,189.486,135.69z"/>
<g>
</g>
<g>
</g>
<g>
</g>
<g>
</g>
<g>
</g>
<g>
</g>
<g>
</g>
<g>
</g>
<g>
</g>
<g>
</g>
<g>
</g>
<g>
</g>
<g>
</g>
<g>
</g>
<g>
</g>
</svg>
