<?xml version="1.0" encoding="iso-8859-1"?>
<!-- Generator: Adobe Illustrator 19.0.0, SVG Export Plug-In . SVG Version: 6.00 Build 0)  -->
<svg version="1.1" id="Layer_1" xmlns="http://www.w3.org/2000/svg" xmlns:xlink="http://www.w3.org/1999/xlink" x="0px" y="0px"
	 viewBox="0 0 512 512" style="enable-background:new 0 0 512 512;" xml:space="preserve">
<path style="fill:#EFEFEF;" d="M256,0C114.616,0,0,114.616,0,256s114.616,256,256,256s256-114.616,256-256S397.384,0,256,0z"/>
<path style="fill:#324D5B;" d="M256,92.165c-79.176,0-143.36,64.179-143.36,143.355v51.2H128v-49.49
	c0-71.634,57.308-129.71,128-129.71c70.697,0,128,58.076,128,129.71v49.49h15.36v-51.2C399.36,156.344,335.176,92.165,256,92.165z"
	/>
<path style="fill:#E2574C;" d="M148.48,266.24c-31.104,0-56.32,25.216-56.32,56.32s25.216,56.32,56.32,56.32
	c18.724,0,15.36-56.32,15.36-56.32S167.414,266.24,148.48,266.24z M366.612,266.24c-17.28,0-14.52,56.32-14.52,56.32
	s-3.441,56.32,14.52,56.32c29.399,0,53.228-25.216,53.228-56.32S396.012,266.24,366.612,266.24z"/>
<path style="fill:#BFC3C5;" d="M174.08,245.76c-16.963,0-30.72,13.757-30.72,30.72v92.16c0,16.963,13.757,30.72,30.72,30.72
	c16.968,0,30.72-13.757,30.72-30.72v-92.16C204.8,259.517,191.048,245.76,174.08,245.76z M337.92,245.76
	c-16.963,0-30.72,13.757-30.72,30.72v92.16c0,16.963,13.757,30.72,30.72,30.72c16.963,0,30.72-13.757,30.72-30.72v-92.16
	C368.64,259.517,354.883,245.76,337.92,245.76z"/>
<g>
	<path style="fill:#CFD2D4;" d="M204.8,368.64v-92.16c0-16.963-13.752-30.72-30.72-30.72v153.6
		C191.048,399.36,204.8,385.603,204.8,368.64z M307.2,276.48v92.16c0,16.963,13.757,30.72,30.72,30.72v-153.6
		C320.957,245.76,307.2,259.517,307.2,276.48z"/>
</g>
<g>
	<path style="fill:#C04A41;" d="M368.64,378.772c7.306-0.292,14.218-2.125,20.48-5.228V271.58
		c-6.262-3.103-13.174-4.941-20.48-5.228V378.772L368.64,378.772z M122.88,372.68c6.246,3.2,13.153,5.279,20.48,5.939V266.501
		c-7.327,0.66-14.234,2.739-20.48,5.939V372.68z"/>
</g>
<g>
</g>
<g>
</g>
<g>
</g>
<g>
</g>
<g>
</g>
<g>
</g>
<g>
</g>
<g>
</g>
<g>
</g>
<g>
</g>
<g>
</g>
<g>
</g>
<g>
</g>
<g>
</g>
<g>
</g>
</svg>
