<?xml version="1.0" encoding="iso-8859-1"?>
<!-- Generator: Adobe Illustrator 19.0.0, SVG Export Plug-In . SVG Version: 6.00 Build 0)  -->
<svg version="1.1" id="Layer_1" xmlns="http://www.w3.org/2000/svg" xmlns:xlink="http://www.w3.org/1999/xlink" x="0px" y="0px"
	 viewBox="0 0 512 512" style="enable-background:new 0 0 512 512;" xml:space="preserve">
<path style="fill:#EFC75E;" d="M256,0c141.379,0,256,114.616,256,256S397.379,512,256,512C114.616,512,0,397.384,0,256
	S114.616,0,256,0z"/>
<path style="fill:#E2574C;" d="M120.801,167.24c48.527-49.321,96.62-27.771,135.147,7.414
	c38.508-35.185,86.226-57.129,135.137-7.414c38.118,38.733,38.323,100.987,0,139.52c-64.292,58.783-97.894,89.467-115.466,105.477
	c-10.988,10.025-27.622,10.056-38.661,0.087c-17.7-15.99-51.523-46.669-116.163-105.559
	C82.473,268.227,82.673,205.972,120.801,167.24L120.801,167.24z"/>
<path style="fill:#FFFFFF;" d="M80.215,377.18c15.36-1.7,23.895-10.24,25.6-25.6c1.705,15.36,10.24,23.9,25.6,25.6
	c-15.36,1.71-23.895,10.24-25.6,25.6C104.11,387.43,95.575,378.89,80.215,377.18z M378.88,363.53c-1.7,15.35-10.24,23.89-25.6,25.6
	c15.36,1.7,23.9,10.24,25.6,25.59c1.71-15.35,10.245-23.89,25.605-25.59C389.125,387.42,380.59,378.88,378.88,363.53z M204.8,51.205
	c-1.7,15.355-10.24,23.895-25.6,25.6c15.36,1.705,23.9,10.24,25.6,25.595c1.71-15.355,10.245-23.895,25.605-25.595
	C215.045,75.1,206.51,66.56,204.8,51.205z"/>
<path style="fill:#FCF4DF;" d="M343.04,168.975c27.648-3.077,43.008-18.447,46.085-46.08c3.077,27.638,18.437,43.008,46.085,46.08
	c-27.648,3.067-43.008,18.432-46.085,46.075C386.048,187.412,370.688,172.047,343.04,168.975z"/>
<path style="fill:#E66E65;" d="M128.005,233.923c0-32.993,26.834-59.832,59.827-59.832c3.722,0,6.723,3.011,6.723,6.723
	s-3.011,6.723-6.723,6.723c-25.569,0-46.377,20.808-46.377,46.387c0,3.717-3.011,6.723-6.723,6.723
	C131.021,240.64,128.005,237.635,128.005,233.923L128.005,233.923z"/>
<path style="fill:#CB4E44;" d="M248.079,402.478c-17.7-15.99-51.517-46.669-116.163-105.559l-0.276-0.302l-5.729-5.222
	c-25.242-25.39-33.659-61.036-25.651-93.496c-15.473,36.081-8.776,79.38,20.531,108.856c64.64,58.895,98.458,89.569,116.168,105.559
	c11.039,9.969,27.668,9.933,38.661-0.087l9.226-8.417C273.905,412.273,258.519,411.909,248.079,402.478L248.079,402.478z"/>
<path style="fill:#F9DDDB;" d="M403.369,182.461c-3.528-5.366-7.613-10.476-12.283-15.222c-5.012-5.1-10.015-9.4-14.996-13.056
	c-7.731,8.212-18.698,13.199-33.05,14.797c27.648,3.067,43.008,18.432,46.085,46.075
	C390.692,201.006,395.458,190.162,403.369,182.461L403.369,182.461z"/>
<g>
</g>
<g>
</g>
<g>
</g>
<g>
</g>
<g>
</g>
<g>
</g>
<g>
</g>
<g>
</g>
<g>
</g>
<g>
</g>
<g>
</g>
<g>
</g>
<g>
</g>
<g>
</g>
<g>
</g>
</svg>
