<?xml version="1.0" encoding="iso-8859-1"?>
<!-- Generator: Adobe Illustrator 19.0.0, SVG Export Plug-In . SVG Version: 6.00 Build 0)  -->
<svg version="1.1" id="Layer_1" xmlns="http://www.w3.org/2000/svg" xmlns:xlink="http://www.w3.org/1999/xlink" x="0px" y="0px"
	 viewBox="0 0 512 512" style="enable-background:new 0 0 512 512;" xml:space="preserve">
<path style="fill:#E2574C;" d="M256,0c141.384,0,256,114.616,256,256S397.384,512,256,512S0,397.384,0,256S114.616,0,256,0z"/>
<path style="fill:#D7B354;" d="M208.108,4.541c-24.996,4.731-48.696,13.092-70.554,24.525l65.244,156.6
	c1.254,2.324,3.676,3.773,6.308,3.773h65.3c5.432,0,8.888-5.827,6.308-10.619L208.108,4.541L208.108,4.541z"/>
<path style="fill:#F2F1EF;" d="M414.72,153.6c0-8.479-6.881-15.36-15.36-15.36H112.64c-8.484,0-15.36,6.881-15.36,15.36v303.181
	C140.913,491.32,196.024,512,256,512s115.087-20.68,158.72-55.219V153.6L414.72,153.6z"/>
<path style="fill:#EFC75E;" d="M324.823,9.436L215.921,178.821c-2.58,4.792,0.881,10.619,6.308,10.619h65.306
	c2.637,0,5.053-1.449,6.303-3.773l95.36-148.316C369.362,25.242,347.73,15.816,324.823,9.436z"/>
<path style="fill:#9E3D35;" d="M204.8,174.08h102.4c5.652,0,10.24,4.588,10.24,10.24v5.12c0,5.652-4.588,10.24-10.24,10.24H204.8
	c-5.652,0-10.24-4.588-10.24-10.24v-5.12C194.56,178.668,199.148,174.08,204.8,174.08z"/>
<path style="fill:#2EA9D3;" d="M179.2,419.84h153.6c5.652,0,10.24,4.588,10.24,10.24v5.12c0,5.652-4.588,10.24-10.24,10.24H179.2
	c-5.652,0-10.24-4.588-10.24-10.24v-5.12C168.96,424.428,173.548,419.84,179.2,419.84z"/>
<path style="fill:#D9D8D7;" d="M189.44,465.92h133.12c2.831,0,5.12,2.294,5.12,5.12v5.12c0,2.831-2.289,5.12-5.12,5.12H189.44
	c-2.826,0-5.12-2.289-5.12-5.12v-5.12C184.32,468.214,186.614,465.92,189.44,465.92z"/>
<path style="fill:#2EA9D3;" d="M194.56,245.76h122.88c5.652,0,10.24,4.588,10.24,10.24v122.88c0,5.652-4.588,10.24-10.24,10.24
	H194.56c-5.652,0-10.24-4.588-10.24-10.24V256C184.32,250.348,188.908,245.76,194.56,245.76z"/>
<path style="fill:#F2F1EF;" d="M330.609,381.798c-3.251-16.097-47.98-14.387-58.762-26.988c-2.268-2.662-2.268-2.662-0.748-12.534
	c2.606-11.059,4.961-4.193,8.678-26.25c3.128-18.519-3.538-34.437-23.782-34.437s-26.906,15.913-23.782,34.437
	c3.722,22.057,6.077,15.191,8.678,26.25c1.526,9.876,1.526,9.876-0.748,12.534c-10.778,12.605-55.511,10.895-58.762,26.987
	c-0.374,1.905-2.181,12.447-2.181,12.447h153.6C332.8,394.245,330.993,383.703,330.609,381.798L330.609,381.798z"/>
<path style="fill:#D7B354;" d="M297.774,174.08h-65.306c-5.432,0-8.888-5.827-6.308-10.619l-10.24,15.36
	c-2.58,4.792,0.881,10.619,6.308,10.619h65.306c2.637,0,5.053-1.449,6.303-3.773l8.622-13.409
	C301.174,173.384,299.54,174.08,297.774,174.08L297.774,174.08z"/>
<g>
</g>
<g>
</g>
<g>
</g>
<g>
</g>
<g>
</g>
<g>
</g>
<g>
</g>
<g>
</g>
<g>
</g>
<g>
</g>
<g>
</g>
<g>
</g>
<g>
</g>
<g>
</g>
<g>
</g>
</svg>
