<?xml version="1.0" encoding="iso-8859-1"?>
<!-- Generator: Adobe Illustrator 19.0.0, SVG Export Plug-In . SVG Version: 6.00 Build 0)  -->
<svg version="1.1" id="Layer_1" xmlns="http://www.w3.org/2000/svg" xmlns:xlink="http://www.w3.org/1999/xlink" x="0px" y="0px"
	 viewBox="0 0 512 512" style="enable-background:new 0 0 512 512;" xml:space="preserve">
<path style="fill:#4681A0;" d="M256,0C114.616,0,0,114.616,0,256c0,141.389,114.616,256,256,256s256-114.611,256-256
	C512,114.616,397.384,0,256,0z"/>
<path style="fill:#3C6E89;" d="M143.36,163.835c-22.62,0-40.96,18.34-40.96,40.96s18.34,40.96,40.96,40.96s40.96-18.34,40.96-40.96
	S165.98,163.835,143.36,163.835z M250.88,276.475c-22.62,0-40.96,18.335-40.96,40.96s18.34,40.96,40.96,40.96
	s40.96-18.335,40.96-40.96S273.5,276.475,250.88,276.475z M358.4,163.835c-22.62,0-40.96,18.34-40.96,40.96s18.34,40.96,40.96,40.96
	s40.96-18.34,40.96-40.96S381.02,163.835,358.4,163.835z"/>
<path style="fill:#70A0BA;" d="M363.52,107.515c5.652,0,10.24,4.588,10.24,10.24v276.48c0,5.652-4.588,10.24-10.24,10.24
	s-10.24-4.588-10.24-10.24v-276.48C353.28,112.102,357.868,107.515,363.52,107.515 M256,107.515c5.652,0,10.24,4.588,10.24,10.24
	v276.48c0,5.652-4.588,10.24-10.24,10.24c-5.652,0-10.24-4.588-10.24-10.24v-276.48C245.76,112.102,250.348,107.515,256,107.515
	 M148.48,107.515c5.652,0,10.24,4.588,10.24,10.24v276.48c0,5.652-4.588,10.24-10.24,10.24s-10.24-4.588-10.24-10.24v-276.48
	C138.24,112.102,142.828,107.515,148.48,107.515 M363.52,97.275c-11.295,0-20.48,9.185-20.48,20.48v276.48
	c0,11.295,9.185,20.48,20.48,20.48c11.295,0,20.48-9.185,20.48-20.48v-276.48C384,106.46,374.815,97.275,363.52,97.275z M256,97.275
	c-11.295,0-20.48,9.185-20.48,20.48v276.48c0,11.295,9.185,20.48,20.48,20.48c11.295,0,20.48-9.185,20.48-20.48v-276.48
	C276.48,106.46,267.295,97.275,256,97.275z M148.48,97.275c-11.295,0-20.48,9.185-20.48,20.48v276.48
	c0,11.295,9.185,20.48,20.48,20.48c11.295,0,20.48-9.185,20.48-20.48v-276.48C168.96,106.46,159.775,97.275,148.48,97.275z"/>
<g>
	<path style="fill:#628CA3;" d="M384,172.851c-3.082-2.473-6.523-4.506-10.24-6.011v75.909c3.717-1.505,7.158-3.538,10.24-6.011
		V172.851z M343.04,242.749c3.231,1.306,6.666,2.207,10.24,2.652v-81.213c-3.574,0.445-7.009,1.341-10.24,2.652V242.749
		L343.04,242.749z M235.52,355.389c3.231,1.311,6.661,2.207,10.24,2.652v-81.213c-3.579,0.445-7.009,1.341-10.24,2.652V355.389z
		 M168.96,172.846c-3.082-2.473-6.523-4.5-10.24-6.006v75.909c3.717-1.505,7.158-3.533,10.24-6.006V172.846z M276.48,285.491
		c-3.082-2.473-6.523-4.506-10.24-6.011v75.909c3.717-1.505,7.158-3.533,10.24-6.011V285.491z M128,242.749
		c3.231,1.306,6.661,2.207,10.24,2.652v-81.213c-3.579,0.445-7.009,1.341-10.24,2.652V242.749L128,242.749z"/>
</g>
<path style="fill:#376B86;" d="M256,107.515c-5.652,0-10.24,4.588-10.24,10.24v276.48c0,5.652,4.588,10.24,10.24,10.24
	c5.652,0,10.24-4.588,10.24-10.24v-276.48C266.24,112.102,261.652,107.515,256,107.515z M363.52,107.515
	c-5.652,0-10.24,4.588-10.24,10.24v276.48c0,5.652,4.588,10.24,10.24,10.24s10.24-4.588,10.24-10.24v-276.48
	C373.76,112.102,369.172,107.515,363.52,107.515z M148.48,107.515c-5.652,0-10.24,4.588-10.24,10.24v276.48
	c0,5.652,4.588,10.24,10.24,10.24s10.24-4.588,10.24-10.24v-276.48C158.72,112.102,154.132,107.515,148.48,107.515z"/>
<g>
	<path style="fill:#305E75;" d="M245.76,276.828v81.213c1.679,0.21,3.379,0.353,5.12,0.353c5.437,0,10.614-1.08,15.36-3.005V279.48
		c-4.746-1.925-9.923-3.005-15.36-3.005C249.139,276.475,247.439,276.618,245.76,276.828z M353.28,164.188v81.213
		c1.679,0.21,3.379,0.353,5.12,0.353c5.437,0,10.614-1.08,15.36-3.005V166.84c-4.746-1.92-9.923-3.005-15.36-3.005
		C356.659,163.835,354.959,163.978,353.28,164.188L353.28,164.188z M138.24,164.188v81.213c1.679,0.21,3.384,0.353,5.12,0.353
		c5.437,0,10.614-1.08,15.36-3.005V166.84c-4.746-1.92-9.923-3.005-15.36-3.005C141.624,163.835,139.919,163.978,138.24,164.188
		L138.24,164.188z"/>
</g>
<g>
	<path style="fill:#316078;" d="M148.48,107.515c-0.891,0-1.736,0.148-2.56,0.364c4.408,1.142,7.68,5.115,7.68,9.876v276.48
		c0,4.767-3.272,8.735-7.68,9.882c0.824,0.21,1.669,0.358,2.56,0.358c5.652,0,10.24-4.588,10.24-10.24v-276.48
		C158.72,112.102,154.132,107.515,148.48,107.515z M363.52,107.515c-0.891,0-1.736,0.148-2.56,0.364
		c4.408,1.142,7.68,5.115,7.68,9.876v276.48c0,4.767-3.272,8.735-7.68,9.882c0.824,0.21,1.669,0.358,2.56,0.358
		c5.652,0,10.24-4.588,10.24-10.24v-276.48C373.76,112.102,369.172,107.515,363.52,107.515z M256,107.515
		c-0.891,0-1.736,0.148-2.56,0.364c4.408,1.142,7.68,5.115,7.68,9.876v276.48c0,4.767-3.272,8.735-7.68,9.882
		c0.824,0.21,1.669,0.358,2.56,0.358c5.652,0,10.24-4.588,10.24-10.24v-276.48C266.24,112.102,261.652,107.515,256,107.515z"/>
</g>
<path style="fill:#2D586E;" d="M373.76,242.749V166.84c-1.654-0.671-3.369-1.208-5.12-1.664v79.237
	C370.391,243.958,372.106,243.42,373.76,242.749z M266.24,355.389V279.48c-1.654-0.671-3.369-1.208-5.12-1.659v79.232
	C262.871,356.598,264.586,356.06,266.24,355.389z M158.72,242.749V166.84c-1.654-0.671-3.369-1.208-5.12-1.664v79.237
	C155.351,243.958,157.066,243.42,158.72,242.749z"/>
<path style="fill:#EDEDED;" d="M148.48,158.715c-22.62,0-40.96,18.34-40.96,40.96s18.34,40.96,40.96,40.96s40.96-18.34,40.96-40.96
	S171.1,158.715,148.48,158.715z M256,271.355c-22.62,0-40.96,18.335-40.96,40.96s18.34,40.96,40.96,40.96s40.96-18.335,40.96-40.96
	S278.62,271.355,256,271.355z M363.52,158.715c-22.62,0-40.96,18.34-40.96,40.96s18.34,40.96,40.96,40.96s40.96-18.34,40.96-40.96
	S386.14,158.715,363.52,158.715z"/>
<path style="fill:#C3C3C3;" d="M148.48,184.315c-8.484,0-15.36,6.876-15.36,15.36c0,8.484,6.876,15.36,15.36,15.36
	s15.36-6.876,15.36-15.36C163.84,191.191,156.964,184.315,148.48,184.315z M256,296.955c-8.484,0-15.36,6.876-15.36,15.36
	s6.876,15.36,15.36,15.36c8.479,0,15.36-6.876,15.36-15.36S264.479,296.955,256,296.955z M363.52,184.315
	c-8.479,0-15.36,6.876-15.36,15.36c0,8.484,6.881,15.36,15.36,15.36s15.36-6.876,15.36-15.36
	C378.88,191.191,371.999,184.315,363.52,184.315z"/>
<g>
	<path style="fill:#FAFBFC;" d="M148.48,158.715c-12.616,0-23.89,5.714-31.401,14.679c7.117-5.96,16.276-9.559,26.281-9.559
		c22.62,0,40.96,18.34,40.96,40.96c0,10.01-3.599,19.169-9.559,26.281c8.97-7.511,14.679-18.785,14.679-31.401
		C189.44,177.055,171.1,158.715,148.48,158.715z M363.52,158.715c-12.616,0-23.89,5.714-31.401,14.679
		c7.112-5.96,16.276-9.559,26.281-9.559c22.62,0,40.96,18.34,40.96,40.96c0,10.01-3.599,19.164-9.559,26.281
		c8.97-7.516,14.679-18.785,14.679-31.401C404.48,177.055,386.14,158.715,363.52,158.715z M256,271.355
		c-12.616,0-23.89,5.709-31.401,14.679c7.112-5.96,16.276-9.559,26.281-9.559c22.62,0,40.96,18.335,40.96,40.96
		c0,10.004-3.599,19.164-9.554,26.281c8.965-7.516,14.674-18.785,14.674-31.401C296.96,289.69,278.62,271.355,256,271.355
		L256,271.355z"/>
</g>
<g>
	<path style="fill:#D6D6D6;" d="M153.6,235.515c-22.62,0-40.96-18.34-40.96-40.96c0-10.01,3.599-19.164,9.559-26.281
		c-8.97,7.516-14.679,18.785-14.679,31.401c0,22.62,18.34,40.96,40.96,40.96c12.616,0,23.89-5.709,31.401-14.679
		C172.769,231.916,163.61,235.515,153.6,235.515z M368.64,235.515c-22.62,0-40.96-18.34-40.96-40.96
		c0-10.01,3.599-19.164,9.559-26.281c-8.97,7.516-14.679,18.785-14.679,31.401c0,22.62,18.34,40.96,40.96,40.96
		c12.616,0,23.89-5.714,31.401-14.679C387.809,231.916,378.644,235.515,368.64,235.515z M261.12,348.155
		c-22.62,0-40.96-18.335-40.96-40.96c0-10.004,3.599-19.164,9.559-26.281c-8.97,7.516-14.679,18.785-14.679,31.401
		c0,22.625,18.34,40.96,40.96,40.96c12.616,0,23.89-5.709,31.406-14.679C280.289,344.556,271.13,348.155,261.12,348.155z"/>
</g>
<g>
</g>
<g>
</g>
<g>
</g>
<g>
</g>
<g>
</g>
<g>
</g>
<g>
</g>
<g>
</g>
<g>
</g>
<g>
</g>
<g>
</g>
<g>
</g>
<g>
</g>
<g>
</g>
<g>
</g>
</svg>
