<?xml version="1.0" encoding="iso-8859-1"?>
<!-- Generator: Adobe Illustrator 19.0.0, SVG Export Plug-In . SVG Version: 6.00 Build 0)  -->
<svg version="1.1" id="Layer_1" xmlns="http://www.w3.org/2000/svg" xmlns:xlink="http://www.w3.org/1999/xlink" x="0px" y="0px"
	 viewBox="0 0 512 512" style="enable-background:new 0 0 512 512;" xml:space="preserve">
<path style="fill:#85D4EE;" d="M256,0c141.384,0,256,114.616,256,256c0,141.379-114.621,256-256,256S0,397.379,0,256
	C0,114.616,114.616,0,256,0z"/>
<path style="fill:#1F95BC;" d="M474.839,388.89c-1.193,0.148-2.437,0.23-3.717,0.23c-20.603,0-30.74-20.48-30.74-20.48
	s-10.701,20.46-30.802,20.48c-20.26-0.02-30.454-20.48-30.454-20.48s-10.194,20.48-30.843,20.48
	c-20.598,0-30.735-20.48-30.735-20.48s-10.706,20.46-30.797,20.48c-20.265-0.02-30.464-20.48-30.464-20.48
	s-10.194,20.48-30.843,20.48c-20.593,0-30.735-20.48-30.735-20.48s-10.706,20.46-30.797,20.48
	c-20.265-0.02-30.464-20.48-30.464-20.48s-10.194,20.48-30.838,20.48c-20.598,0-30.74-20.48-30.74-20.48s-10.701,20.46-30.797,20.48
	c-1.367,0-2.678-0.108-3.948-0.292C82.033,462.679,163.256,512,256,512C348.723,512,429.926,462.705,474.839,388.89L474.839,388.89z
	"/>
<path style="fill:#EFEFEF;" d="M332.093,491.52l-17.889-256H197.376l-17.889,256c0,0-0.374,7.711-0.287,7.741v1.004
	C203.443,507.878,229.238,512,256,512s52.557-4.122,76.8-11.735L332.093,491.52z"/>
<path style="fill:#DEDEDE;" d="M195.948,256h119.685l-0.717-10.24H196.659L195.948,256z"/>
<path style="fill:#FECC6C;" d="M199.68,148.48h112.64v76.8H199.68V148.48z"/>
<path style="fill:#EFEFEF;" d="M256,97.28l46.08,40.96h-92.16L256,97.28z"/>
<path style="fill:#D7D7D7;" d="M199.741,505.748l19.031-270.228h-21.396l-17.889,256c0,0-0.374,7.711-0.287,7.741v1.004
	C185.928,502.38,192.788,504.202,199.741,505.748z"/>
<path style="fill:#C8C8C8;" d="M195.948,256h21.386l0.717-10.24h-21.391L195.948,256z"/>
<path style="fill:#F4F4F4;" d="M290.647,235.52l19.113,270.771c7.808-1.669,15.508-3.661,23.04-6.026l-0.707-8.745l-17.889-256
	L290.647,235.52L290.647,235.52z"/>
<path style="fill:#E0E0E0;" d="M292.091,256h23.542l-0.717-10.24h-23.547L292.091,256z"/>
<path style="fill:#F1C266;" d="M199.68,148.48H256v76.8h-56.32V148.48z"/>
<path style="fill:#EFEFEF;" d="M317.44,225.28h-5.12v-25.6h10.24c2.831,0,5.12-2.289,5.12-5.12c0-2.826-2.289-5.12-5.12-5.12H189.44
	c-2.831,0-5.12,2.294-5.12,5.12c0,2.831,2.289,5.12,5.12,5.12h10.24v25.6h-5.12c-5.652,0-10.24,4.588-10.24,10.24
	c0,5.658,4.588,10.24,10.24,10.24h122.88c5.652,0,10.24-4.582,10.24-10.24C327.68,229.868,323.098,225.28,317.44,225.28z
	 M209.92,225.28v-25.6h10.24v25.6H209.92z M230.4,225.28v-25.6h10.24v25.6H230.4z M250.88,225.28v-25.6h10.24v25.6H250.88z
	 M271.36,225.28v-25.6h10.24v25.6H271.36z M291.84,225.28v-25.6h10.24v25.6H291.84z M197.12,138.24h117.76
	c4.239,0,7.68,3.441,7.68,7.68s-3.441,7.68-7.68,7.68H197.12c-4.239,0-7.68-3.441-7.68-7.68S192.881,138.24,197.12,138.24z"/>
<path style="fill:#D7D7D7;" d="M209.92,145.92c0-4.239,3.441-7.68,7.68-7.68h-20.48c-4.239,0-7.68,3.441-7.68,7.68
	s3.441,7.68,7.68,7.68h20.48C213.361,153.6,209.92,150.159,209.92,145.92z"/>
<path style="fill:#E3E3E3;" d="M209.92,138.24H256V97.28L209.92,138.24z"/>
<g>
	<path style="fill:#E2574C;" d="M188.79,358.4l-2.504,35.84h139.003l-2.499-35.84H188.79z M193.797,286.72l-2.504,35.84h128.993
		l-2.504-35.84H193.797z M330.307,465.92l-2.504-35.84h-144.02l-2.504,35.84H330.307z"/>
</g>
<g>
	<path style="fill:#CB4E44;" d="M193.797,286.72l-2.504,35.84h21.35l2.524-35.84H193.797z M188.79,358.4l-2.504,35.84h21.309
		l2.524-35.84H188.79z M202.547,465.92l2.524-35.84h-21.289l-2.504,35.84H202.547z"/>
</g>
<g>
	<path style="fill:#E5685E;" d="M294.262,286.72l2.529,35.84h23.496l-2.504-35.84H294.262z M299.32,358.4l2.529,35.84h23.439
		l-2.499-35.84H299.32z M330.307,465.92l-2.504-35.84h-23.419l2.54,35.84H330.307z"/>
</g>
<g>
</g>
<g>
</g>
<g>
</g>
<g>
</g>
<g>
</g>
<g>
</g>
<g>
</g>
<g>
</g>
<g>
</g>
<g>
</g>
<g>
</g>
<g>
</g>
<g>
</g>
<g>
</g>
<g>
</g>
</svg>
