<?xml version="1.0" encoding="iso-8859-1"?>
<!-- Generator: Adobe Illustrator 19.0.0, SVG Export Plug-In . SVG Version: 6.00 Build 0)  -->
<svg version="1.1" id="Layer_1" xmlns="http://www.w3.org/2000/svg" xmlns:xlink="http://www.w3.org/1999/xlink" x="0px" y="0px"
	 viewBox="0 0 512.005 512.005" style="enable-background:new 0 0 512.005 512.005;" xml:space="preserve">
<g>
	<path style="fill:#F4F0D3;" d="M194.573,107.484c4.625,0,9.173,0.329,13.626,0.951L310.747,5.887
		C293.107,2.044,274.795,0,256.003,0C203.871,0,155.39,15.597,114.94,42.359l66.069,66.067
		C185.443,107.81,189.969,107.484,194.573,107.484z"/>
	<path style="fill:#F4F0D3;" d="M276.217,261.745c-27.454,50.906-81.57,102.107-81.65,101.816
		c-0.102,0.21-64.184-60.349-88.248-115.272c-7.142-13.01-8.986-41.871-8.986-43.996c0.003-32.973,16.569-62.093,41.86-79.574
		L82.375,67.9C31.73,114.672,0.003,181.626,0.003,256c0,107.751,66.578,199.946,160.835,237.717l173.67-173.681L276.217,261.745z"/>
	<path style="fill:#F4F0D3;" d="M363.477,349.005L205.474,507.008c16.336,3.271,33.23,4.997,50.529,4.997
		c74.374,0,141.329-31.73,188.101-82.377L363.477,349.005z"/>
	<path style="fill:#F4F0D3;" d="M291.802,204.298c0,0.485-0.104,6.154-1.062,13.864l178.902,178.905
		c26.749-40.429,42.344-88.883,42.36-140.983l-51.199,51.275v-61.824l-0.028-0.028l-0.111,61.647L322.583,173.399l0,0l-0.041-65.323
		l-0.441-0.438l68.422-69.466c-11.354-7.026-23.292-13.195-35.735-18.405L249.883,124.673
		C275.21,142.15,291.802,171.293,291.802,204.298z"/>
</g>
<g>
	<path style="fill:#EFC75E;" d="M444.104,429.628c9.356-10.131,17.901-21.018,25.538-32.561L290.74,218.162
		c-1.097,8.827-3.312,20.33-7.775,29.799c-1.989,4.566-4.261,9.174-6.747,13.783l58.29,58.291l-173.67,173.681
		c14.289,5.726,29.211,10.202,44.637,13.29l158.003-158.003L444.104,429.628z"/>
	<path style="fill:#EFC75E;" d="M249.883,124.673L354.789,19.767c-14.085-5.897-28.812-10.561-44.043-13.88L208.198,108.435
		C223.531,110.576,237.715,116.277,249.883,124.673z"/>
	<path style="fill:#EFC75E;" d="M181.01,108.426l-66.07-66.067C103.396,49.997,92.507,58.543,82.375,67.9l56.818,56.819
		C151.394,116.286,165.625,110.565,181.01,108.426z"/>
</g>
<polygon style="fill:#CCC7A5;" points="322.583,173.399 322.583,173.399 460.664,307.154 460.775,245.507 322.542,108.076 "/>
<path style="fill:#DAD5B1;" d="M460.803,245.535v61.824l51.199-51.275c0-0.028,0.001-0.056,0.001-0.084
	c0-19.065-2.102-37.637-6.055-55.513l-45.125,45.069L460.803,245.535z"/>
<path style="fill:#E4DFBD;" d="M322.542,108.076l138.232,137.431l0.028,0.028l0.02,0.02l45.125-45.069
	c-15.129-68.418-57.624-126.544-115.424-162.315L322.1,107.637L322.542,108.076z"/>
<g>
	<path style="fill:#E2574C;" d="M249.883,124.673c-12.168-8.396-26.352-14.097-41.684-16.238c-4.453-0.622-9-0.951-13.626-0.951
		c-4.604,0-9.13,0.326-13.563,0.942c-15.385,2.139-29.615,7.86-41.816,16.293c-25.291,17.481-41.857,46.601-41.86,79.574
		c0,2.125,1.843,30.986,8.986,43.996c24.064,54.922,88.146,115.482,88.248,115.272c0.08,0.291,54.196-50.91,81.65-101.816
		c2.486-4.61,4.758-9.217,6.747-13.783c4.463-9.47,6.678-20.972,7.775-29.799c0.958-7.71,1.062-13.379,1.062-13.864
		C291.802,171.293,275.21,142.15,249.883,124.673z M194.563,256c-28.273,0-51.2-22.927-51.2-51.2c0-28.278,22.927-51.2,51.2-51.2
		s51.2,22.922,51.2,51.2C245.763,233.073,222.835,256,194.563,256z"/>
	<path style="fill:#E2574C;" d="M225.283,204.805c0-16.968-13.757-30.72-30.72-30.72s-30.72,13.757-30.72,30.72
		s13.757,30.72,30.72,30.72S225.283,221.773,225.283,204.805z"/>
</g>
<g>
</g>
<g>
</g>
<g>
</g>
<g>
</g>
<g>
</g>
<g>
</g>
<g>
</g>
<g>
</g>
<g>
</g>
<g>
</g>
<g>
</g>
<g>
</g>
<g>
</g>
<g>
</g>
<g>
</g>
</svg>
