<?xml version="1.0" encoding="iso-8859-1"?>
<!-- Generator: Adobe Illustrator 19.0.0, SVG Export Plug-In . SVG Version: 6.00 Build 0)  -->
<svg version="1.1" id="Layer_1" xmlns="http://www.w3.org/2000/svg" xmlns:xlink="http://www.w3.org/1999/xlink" x="0px" y="0px"
	 viewBox="0 0 512.084 512.084" style="enable-background:new 0 0 512.084 512.084;" xml:space="preserve">
<path style="fill:#4681A0;" d="M477.747,384.041c-70.697,122.445-227.261,164.393-349.706,93.706
	C5.601,407.05-36.352,250.486,34.34,128.041C105.031,5.601,261.601-36.352,384.041,34.34
	C506.486,105.031,548.434,261.601,477.747,384.041z"/>
<path style="fill:#EFC75E;" d="M271.309,511.565V317.481l-30.761,0.384l0.036,193.7C250.854,512.179,261.11,512.184,271.309,511.565
	z M255.949,76.841c21.11,0,87.04,109.732,87.04,194.56s-38.968,112.64-87.04,112.64s-87.04-27.812-87.04-112.64
	S238.192,76.841,255.949,76.841L255.949,76.841z"/>
<path style="fill:#EA9A57;" d="M255.949,179.241c12.416,0,51.2,76.856,51.2,124.928s-22.927,79.872-51.2,79.872
	s-51.2-31.8-51.2-79.872S245.499,179.241,255.949,179.241L255.949,179.241z"/>
<path style="fill:#41545F;" d="M240.589,368.681h30.72v61.44c0,0-7.741-10.24-15.452-10.24c-7.649,0-15.268,10.24-15.268,10.24
	V368.681z"/>
<path style="fill:#2B414D;" d="M256.522,286.802c16.973-0.297,30.602,7.342,30.147,34.176s-14.828,62.71-31.795,63.002
	c-16.973,0.297-30.131-35.103-29.67-61.937C225.654,295.198,239.549,287.088,256.522,286.802L256.522,286.802z"/>
<path style="fill:#273A45;" d="M259.988,373.734c-16.973,0.297-30.131-35.103-29.67-61.937c0.097-5.801,0.855-10.68,2.104-14.838
	c-4.342,5.484-7.03,13.542-7.224,25.078c-0.461,26.829,12.692,62.228,29.67,61.937c9.267-0.159,17.736-10.947,23.603-25.057
	C273.223,367.677,266.829,373.622,259.988,373.734L259.988,373.734z"/>
<g>
</g>
<g>
</g>
<g>
</g>
<g>
</g>
<g>
</g>
<g>
</g>
<g>
</g>
<g>
</g>
<g>
</g>
<g>
</g>
<g>
</g>
<g>
</g>
<g>
</g>
<g>
</g>
<g>
</g>
</svg>
