<?xml version="1.0" encoding="iso-8859-1"?>
<!-- Generator: Adobe Illustrator 19.0.0, SVG Export Plug-In . SVG Version: 6.00 Build 0)  -->
<svg version="1.1" id="Layer_1" xmlns="http://www.w3.org/2000/svg" xmlns:xlink="http://www.w3.org/1999/xlink" x="0px" y="0px"
	 viewBox="0 0 512 512" style="enable-background:new 0 0 512 512;" xml:space="preserve">
<path style="fill:#F4F0D3;" d="M256,0c141.384,0,256,114.616,256,256S397.384,512,256,512S0,397.384,0,256S114.616,0,256,0z"/>
<path style="fill:#DBD8BD;" d="M444.442,380.82c11.141,3.016,21.458-7.281,18.442-18.401
	c-11.551-42.542-19.011-109.824-19.011-185.569c0-32.118,1.362-62.664,3.784-90.486c-25.103-28.344-56.361-51.108-91.725-66.12
	H156.073C122.834,34.35,93.235,55.311,68.951,81.306c2.714,29.148,4.229,61.476,4.229,95.544c0,75.745-7.46,143.032-19.005,185.569
	c-3.021,11.121,7.296,21.417,18.437,18.401c42.619-11.525,110.029-18.97,185.912-18.97S401.818,369.295,444.442,380.82
	L444.442,380.82z"/>
<path style="fill:#E2574C;" d="M444.442,360.34c11.141,3.016,21.458-7.281,18.442-18.401
	c-11.551-42.542-19.011-109.824-19.011-185.569c0-25.027,0.829-49.096,2.34-71.675C399.355,32.701,331.5,0,256,0
	C182.973,0,117.14,30.628,70.502,79.677c1.731,24.013,2.678,49.807,2.678,76.692c0,75.745-7.46,143.032-19.005,185.569
	c-3.021,11.121,7.296,21.417,18.437,18.401c42.619-11.525,110.029-18.97,185.912-18.97S401.818,348.815,444.442,360.34z"/>
<path style="fill:#2C4450;" d="M230.4,145.321l69.801,18.519l47.57-146.826C325.56,8.479,301.87,2.964,277.176,0.942L230.4,145.321
	L230.4,145.321z"/>
<path style="fill:#324D5B;" d="M164.229,17.014L211.63,163.83l70.026-18.504L235.044,0.927
	C210.268,2.934,186.506,8.453,164.229,17.014z"/>
<path style="fill:#CB4E44;" d="M248.32,107.52c41.001,0,74.24,35.528,74.24,79.36s-33.239,79.36-74.24,79.36
	s-74.24-35.528-74.24-79.36S207.319,107.52,248.32,107.52z"/>
<path style="fill:#F6C37A;" d="M256,102.4c39.588,0,71.68,32.092,71.68,71.68s-32.092,71.68-71.68,71.68s-71.68-32.092-71.68-71.68
	S216.412,102.4,256,102.4z"/>
<path style="fill:#E0B270;" d="M276.48,153.6v-20.48h-40.96v20.48h10.24v35.84h-10.24v20.48h40.96v-20.48h-10.24V153.6H276.48z"/>
<path style="fill:#D0A15D;" d="M256,245.76c-37.862,0-68.787-29.373-71.424-66.56c-0.118,1.7-0.256,3.395-0.256,5.12
	c0,39.588,32.092,71.68,71.68,71.68s71.68-32.092,71.68-71.68c0-1.725-0.138-3.42-0.261-5.12
	C324.787,216.387,293.862,245.76,256,245.76z"/>
<path style="fill:#F6C37A;" d="M413.629,54.364c-3.671,29.911-5.709,64.435-5.709,100.972c0,62.561,5.965,120.31,16.369,158.433
	c0.543,1.997-0.292,3.492-0.835,4.198c-0.978,1.29-2.488,2.058-4.029,2.058l-1.352-0.184
	c-38.364-10.332-96.497-16.256-159.483-16.256s-121.114,5.924-159.478,16.256l-1.352,0.184c-1.541,0-3.052-0.768-4.035-2.058
	c-0.543-0.712-1.377-2.207-0.829-4.198c10.404-38.134,16.369-95.887,16.369-158.433c0-38.042-2.207-73.928-6.17-104.668
	c-2.412,1.802-4.751,3.676-7.096,5.555c3.538,29.107,5.581,62.935,5.581,99.113c0,63.846-6.318,120.556-16.102,156.416
	c-2.248,8.243,4.25,15.959,12.273,15.959c1.091,0,2.217-0.143,3.348-0.451c36.101-9.718,93.204-15.99,157.481-15.99
	c64.287,0,121.39,6.272,157.491,15.99c1.132,0.307,2.253,0.451,3.343,0.451c8.023,0,14.525-7.716,12.273-15.959
	c-9.784-35.861-16.102-92.57-16.102-156.416c0-34.57,1.848-67.052,5.105-95.263C418.386,58.122,416.015,56.233,413.629,54.364
	L413.629,54.364z"/>
<g>
</g>
<g>
</g>
<g>
</g>
<g>
</g>
<g>
</g>
<g>
</g>
<g>
</g>
<g>
</g>
<g>
</g>
<g>
</g>
<g>
</g>
<g>
</g>
<g>
</g>
<g>
</g>
<g>
</g>
</svg>
