<?xml version="1.0" encoding="iso-8859-1"?>
<!-- Generator: Adobe Illustrator 19.0.0, SVG Export Plug-In . SVG Version: 6.00 Build 0)  -->
<svg version="1.1" id="Layer_1" xmlns="http://www.w3.org/2000/svg" xmlns:xlink="http://www.w3.org/1999/xlink" x="0px" y="0px"
	 viewBox="0 0 512 512" style="enable-background:new 0 0 512 512;" xml:space="preserve">
<path style="fill:#324D5B;" d="M256,0C114.616,0,0,114.616,0,256c0,91.319,47.818,171.451,119.77,216.764L77.005,260.311
	c-1.116-5.535,2.488-10.921,8.054-12.032l0,0l47.341-9.435l-3.76-37.838c-0.558-5.622,3.564-10.624,9.216-11.172l56.704-5.525
	v-35.834c0-5.652,4.588-10.24,10.24-10.24h194.56c5.652,0,10.24,4.588,10.24,10.24v312.337C471.777,414.108,512,339.754,512,256
	C512,114.616,397.384,0,256,0z"/>
<path style="fill:#2B8272;" d="M108.513,271.821l16.21,80.532c0.558,2.78-1.249,5.489-4.045,6.042
	c-2.796,0.563-5.519-1.244-6.077-4.019l-17.224-85.56c-0.553-2.78,1.254-5.489,4.05-6.042l32.703-6.517l-1.73-17.412l-47.341,9.435
	l0,0c-5.565,1.111-9.17,6.497-8.054,12.032l42.765,212.453c11.976,7.543,24.618,14.122,37.823,19.625l-22.444-225.876
	L108.513,271.821z"/>
<path style="fill:#4B9587;" d="M97.377,268.815l17.224,85.56c0.558,2.775,3.282,4.582,6.077,4.019
	c2.795-0.553,4.603-3.261,4.045-6.042l-16.21-80.532l26.636-5.307l-1.019-10.257l-32.703,6.517
	C98.632,263.327,96.824,266.035,97.377,268.815z"/>
<path style="fill:#359685;" d="M194.56,212.115l-35.707,3.478l8.12,81.736c0.282,2.826-1.787,5.335-4.623,5.612
	c-2.836,0.276-5.361-1.782-5.642-4.608l-8.637-86.845c-0.282-2.821,1.792-5.335,4.628-5.612l41.861-4.077V184.31l-56.704,5.525
	c-5.652,0.548-9.774,5.55-9.216,11.172l3.76,37.838l1.73,17.412l1.019,10.257l22.444,225.876
	c11.894,4.957,24.244,9.036,36.967,12.17L194.56,212.115L194.56,212.115z"/>
<path style="fill:#52A597;" d="M148.07,211.487l8.637,86.845c0.282,2.826,2.806,4.884,5.642,4.608s4.905-2.785,4.623-5.612
	l-8.12-81.736l35.707-3.478v-10.317l-41.861,4.077C149.862,206.152,147.789,208.666,148.07,211.487z"/>
<g>
	<path style="fill:#3DB39E;" d="M399.36,138.235H204.8c-5.652,0-10.24,4.588-10.24,10.24v35.834v17.489v10.317V504.56
		c6.726,1.657,13.556,3.05,20.48,4.163v-88.889c0-2.826,2.289-5.12,5.12-5.12s5.12,2.294,5.12,5.12v90.324
		c9.942,1.189,20.056,1.82,30.315,1.836h0.81c44.381-0.069,86.11-11.435,122.475-31.37v-60.79c0-2.826,2.289-5.12,5.12-5.12
		s5.12,2.294,5.12,5.12v54.87c7.059-4.306,13.892-8.944,20.48-13.893V148.475C409.6,142.822,405.012,138.235,399.36,138.235z
		 M302.08,471.035c-5.653,0-10.24-4.588-10.24-10.24s4.588-10.24,10.24-10.24c5.652,0,10.24,4.588,10.24,10.24
		S307.732,471.035,302.08,471.035z M302.08,414.715c-42.414,0-76.8-34.386-76.8-76.8s34.386-76.8,76.8-76.8s76.8,34.386,76.8,76.8
		S344.494,414.715,302.08,414.715z M312.32,209.915c0,5.653-4.588,10.24-10.24,10.24c-5.653,0-10.24-4.588-10.24-10.24
		c0-5.652,4.588-10.24,10.24-10.24C307.732,199.675,312.32,204.262,312.32,209.915z M389.12,255.995c0,2.831-2.289,5.12-5.12,5.12
		s-5.12-2.289-5.12-5.12v-87.04h-153.6v87.04c0,2.831-2.289,5.12-5.12,5.12s-5.12-2.289-5.12-5.12v-92.16
		c0-2.826,2.289-5.12,5.12-5.12H384c2.831,0,5.12,2.294,5.12,5.12V255.995z"/>
	<path style="fill:#3DB39E;" d="M343.373,333.845h-5.827c-1.439-12.785-9.308-18.376-18.401-18.376
		c-24.637,0-17.787,36.449-32.712,36.449c-6.333,0-9.4-4.398-9.4-13.481c0-6.886,3.471-12.186,7.767-16.379
		c1.024-0.998,2.248-2.196,2.248-4.393c0-2.893-2.452-5.294-5.519-5.294c-1.029,0-2.048,0.297-2.867,0.799
		c-5.622,3.4-10.936,10.988-12.16,20.675h-5.724c-2.652,0-4.803,2.094-4.803,4.593c0,2.596,2.145,4.695,4.803,4.695h5.724
		c1.331,13.384,8.689,20.372,19.932,20.372c25.559,0,19.323-36.454,32.712-36.454c4.091,0,8.074,3.103,8.074,11.392
		c0,5.688-2.35,10.885-5.422,13.978c-1.428,1.5-2.243,2.903-2.243,4.296c0,2.995,2.452,5.391,5.417,5.391
		c1.229,0,2.35-0.394,3.272-0.993c4.91-3.4,8.182-9.989,9.201-17.976h5.929l0,0c2.657,0,4.808-2.104,4.803-4.7
		C348.175,335.939,346.03,333.845,343.373,333.845z"/>
</g>
<g>
	<path style="fill:#81CEC0;" d="M384,414.715c-2.831,0-5.12,2.294-5.12,5.12v60.79c3.462-1.898,6.878-3.869,10.24-5.92v-54.87
		C389.12,417.009,386.831,414.715,384,414.715z"/>
	<path style="fill:#81CEC0;" d="M302.08,261.115c-42.414,0-76.8,34.386-76.8,76.8s34.386,76.8,76.8,76.8s76.8-34.386,76.8-76.8
		S344.494,261.115,302.08,261.115z M343.373,343.137L343.373,343.137h-5.929c-1.019,7.987-4.291,14.577-9.201,17.976
		c-0.922,0.599-2.043,0.993-3.272,0.993c-2.964,0-5.417-2.396-5.417-5.391c0-1.393,0.814-2.796,2.243-4.296
		c3.072-3.092,5.422-8.289,5.422-13.978c0-8.289-3.983-11.392-8.074-11.392c-13.389,0-7.153,36.454-32.712,36.454
		c-11.244,0-18.601-6.989-19.932-20.372h-5.724c-2.657,0-4.803-2.099-4.803-4.695c0-2.499,2.15-4.593,4.803-4.593h5.724
		c1.224-9.687,6.538-17.275,12.16-20.675c0.819-0.502,1.838-0.799,2.867-0.799c3.067,0,5.519,2.401,5.519,5.294
		c0,2.196-1.224,3.395-2.248,4.393c-4.296,4.193-7.767,9.492-7.767,16.379c0,9.083,3.067,13.481,9.4,13.481
		c14.925,0,8.074-36.449,32.712-36.449c9.093,0,16.963,5.591,18.401,18.376h5.827c2.657,0,4.803,2.094,4.803,4.593
		C348.181,341.033,346.03,343.137,343.373,343.137z"/>
	<path style="fill:#81CEC0;" d="M384,158.715H220.16c-2.831,0-5.12,2.294-5.12,5.12v92.16c0,2.831,2.289,5.12,5.12,5.12
		s5.12-2.289,5.12-5.12v-87.04h153.6v87.04c0,2.831,2.289,5.12,5.12,5.12s5.12-2.289,5.12-5.12v-92.16
		C389.12,161.009,386.831,158.715,384,158.715z"/>
	<path style="fill:#81CEC0;" d="M291.84,209.915c0,5.653,4.588,10.24,10.24,10.24c5.652,0,10.24-4.588,10.24-10.24
		c0-5.652-4.588-10.24-10.24-10.24C296.427,199.675,291.84,204.262,291.84,209.915z"/>
	<path style="fill:#81CEC0;" d="M220.16,414.715c-2.831,0-5.12,2.294-5.12,5.12v88.889c3.392,0.545,6.805,1.024,10.24,1.435v-90.324
		C225.28,417.009,222.991,414.715,220.16,414.715z"/>
	<path style="fill:#81CEC0;" d="M256,512c0.135,0,0.27-0.005,0.405-0.005h-0.81C255.73,511.995,255.865,512,256,512z"/>
	<path style="fill:#81CEC0;" d="M302.08,450.555c-5.653,0-10.24,4.588-10.24,10.24s4.588,10.24,10.24,10.24
		c5.652,0,10.24-4.588,10.24-10.24S307.732,450.555,302.08,450.555z"/>
</g>
<g>
</g>
<g>
</g>
<g>
</g>
<g>
</g>
<g>
</g>
<g>
</g>
<g>
</g>
<g>
</g>
<g>
</g>
<g>
</g>
<g>
</g>
<g>
</g>
<g>
</g>
<g>
</g>
<g>
</g>
</svg>
