<?xml version="1.0" encoding="iso-8859-1"?>
<!-- Generator: Adobe Illustrator 19.0.0, SVG Export Plug-In . SVG Version: 6.00 Build 0)  -->
<svg version="1.1" id="Layer_1" xmlns="http://www.w3.org/2000/svg" xmlns:xlink="http://www.w3.org/1999/xlink" x="0px" y="0px"
	 viewBox="0 0 512 512" style="enable-background:new 0 0 512 512;" xml:space="preserve">
<path style="fill:#E2574C;" d="M256,0C114.616,0,0,114.616,0,256s114.616,256,256,256s256-114.616,256-256S397.384,0,256,0z"/>
<g>
	<g>
		<path style="fill:#ECC45C;" d="M122.88,276.48h266.24c11.31,0,20.48,9.165,20.48,20.48v194.56c0,11.31-9.17,20.475-20.48,20.475
			H122.88c-11.31,0-20.48-9.165-20.48-20.475V296.96C102.4,285.645,111.57,276.48,122.88,276.48z"/>
		<path style="fill:#F8D578;" d="M122.88,266.24h266.24c11.31,0,20.48,9.165,20.48,20.48v20.475c0,11.315-9.17,20.485-20.48,20.485
			H122.88c-11.31,0-20.48-9.17-20.48-20.485V286.72C102.4,275.405,111.57,266.24,122.88,266.24z"/>
		<path style="fill:#E1C16D;" d="M166.4,286.72c-12.723,0-23.04,4.588-23.04,10.24c0,5.652,10.317,10.235,23.04,10.235
			s23.04-4.582,23.04-10.235C189.44,291.308,179.123,286.72,166.4,286.72z M345.6,286.72c-12.723,0-23.04,4.588-23.04,10.24
			c0,5.652,10.317,10.235,23.04,10.235c12.723,0,23.04-4.582,23.04-10.235C368.64,291.308,358.323,286.72,345.6,286.72z"/>
		<path style="fill:#D4B053;" d="M256,368.64c25.452,0,46.08,20.628,46.08,46.08c0,25.446-20.628,46.075-46.08,46.075
			s-46.08-20.628-46.08-46.075C209.92,389.268,230.548,368.64,256,368.64z"/>
		<path style="fill:#E4E7E7;" d="M256,378.88c19.794,0,35.84,16.046,35.84,35.84c0,19.794-16.046,35.84-35.84,35.84
			s-35.84-16.046-35.84-35.84C220.16,394.926,236.206,378.88,256,378.88z"/>
		<path style="fill:#324D5B;" d="M256,399.36c2.831,0,5.12,2.289,5.12,5.12v20.48c0,2.826-2.289,5.12-5.12,5.12
			c-2.831,0-5.12-2.294-5.12-5.12v-20.48C250.88,401.649,253.169,399.36,256,399.36z"/>
		<path style="fill:#E4E7E7;" d="M256,122.875c-59.382,0-107.52,48.138-107.52,107.52v61.435c0,5.658,8.023,10.245,17.92,10.245
			c9.902,0,17.92-4.588,17.92-10.245v-61.435c0-39.583,32.092-71.675,71.68-71.675s71.68,32.092,71.68,71.675v61.435
			c0,5.658,8.023,10.245,17.92,10.245c9.897,0,17.92-4.588,17.92-10.245v-61.435C363.52,171.013,315.382,122.875,256,122.875z"/>
		<path style="fill:#CDCFCF;" d="M256,143.36c-48.072,0-87.04,38.968-87.04,87.04v71.532c8.673-0.722,15.36-4.941,15.36-10.102
			v-61.435c0-39.583,32.092-71.675,71.68-71.675s71.68,32.092,71.68,71.675v61.435c0,5.161,6.692,9.38,15.36,10.102V230.4
			C343.04,182.328,304.072,143.36,256,143.36z"/>
	</g>
</g>
<g>
</g>
<g>
</g>
<g>
</g>
<g>
</g>
<g>
</g>
<g>
</g>
<g>
</g>
<g>
</g>
<g>
</g>
<g>
</g>
<g>
</g>
<g>
</g>
<g>
</g>
<g>
</g>
<g>
</g>
</svg>
