<?xml version="1.0" encoding="iso-8859-1"?>
<!-- Generator: Adobe Illustrator 19.0.0, SVG Export Plug-In . SVG Version: 6.00 Build 0)  -->
<svg version="1.1" id="Layer_1" xmlns="http://www.w3.org/2000/svg" xmlns:xlink="http://www.w3.org/1999/xlink" x="0px" y="0px"
	 viewBox="0 0 512 512" style="enable-background:new 0 0 512 512;" xml:space="preserve">
<path style="fill:#91D8F0;" d="M256,0c141.384,0,256,114.616,256,256S397.384,512,256,512S0,397.384,0,256S114.616,0,256,0z"/>
<path style="fill:#324D5B;" d="M124.979,257.521c-1.142,1.152-2.13,3.2-2.166,5.11c-0.067,1.879,0.543,3.901,2.115,5.478
	c29.189,29.394,24.719,71.793,4.152,92.503c-13.568,13.66-35.589,21.233-49.08,30.961c-7.434,5.325-14.843,11.786-22.077,19.077
	c-1.111,1.121-2.171,2.253-3.231,3.384c14.602,18.575,31.698,35.082,50.816,49.004l2.304-2.166
	c7.24-7.291,13.66-14.746,18.949-22.231c9.631-13.614,17.178-35.758,30.746-49.423c20.572-20.71,62.648-25.242,91.868,4.178
	c3.139,3.164,7.956,2.463,10.296,0.169l37.294-37.56L162.053,220.191L124.979,257.521L124.979,257.521z"/>
<path style="fill:#F4F0D3;" d="M287.314,105.39l124.247,124.242c4.035,4.04,4.035,10.578,0,14.618l-80.394,80.389
	c-4.035,4.04-10.578,4.04-14.612,0L192.307,200.402c-4.035-4.04-4.035-10.578,0-14.618l80.394-80.394
	C276.736,101.356,283.279,101.356,287.314,105.39L287.314,105.39z"/>
<path style="fill:#E8E4C8;" d="M289.971,119.199c-1.987-1.987-5.207-1.987-7.188,0l-61.169,61.164c-1.987,1.987-1.987,5.207,0,7.199
	c1.987,1.987,5.212,1.987,7.194,0l61.164-61.164C291.958,124.406,291.958,121.185,289.971,119.199z M307.958,137.185
	c-1.987-1.987-5.207-1.987-7.188,0l-61.169,61.164c-1.987,1.992-1.987,5.212,0,7.199c1.987,1.987,5.207,1.987,7.194,0l61.163-61.164
	C309.949,142.397,309.949,139.177,307.958,137.185z M325.949,155.177c-1.987-1.987-5.212-1.987-7.194,0l-61.164,61.164
	c-1.987,1.992-1.987,5.212,0,7.199c1.987,1.987,5.207,1.987,7.199,0l61.158-61.164C327.941,160.384,327.941,157.164,325.949,155.177
	z M343.941,173.164c-1.987-1.987-5.212-1.987-7.194,0l-61.169,61.169c-1.987,1.987-1.987,5.212,0,7.199
	c1.992,1.987,5.212,1.987,7.199,0l61.158-61.164C345.928,178.376,345.928,175.155,343.941,173.164L343.941,173.164z
	 M361.928,191.155c-1.987-1.987-5.212-1.987-7.194,0l-61.164,61.164c-1.987,1.987-1.987,5.207,0,7.199
	c1.992,1.981,5.212,1.981,7.199,0l61.158-61.169C363.919,196.367,363.919,193.142,361.928,191.155z M379.919,209.147
	c-1.992-1.987-5.212-1.987-7.194,0l-61.164,61.164c-1.992,1.987-1.992,5.212,0,7.194c1.992,1.981,5.212,1.987,7.194,0l61.164-61.163
	C381.911,214.354,381.911,211.133,379.919,209.147z M397.911,227.133c-1.992-1.987-5.212-1.987-7.194,0l-61.169,61.169
	c-1.992,1.987-1.992,5.212,0,7.194c1.992,1.981,5.212,1.987,7.194,0l61.164-61.164C399.898,232.346,399.898,229.12,397.911,227.133z
	"/>
<path style="fill:#E2574C;" d="M411.561,229.632L287.314,105.39c-4.035-4.035-10.578-4.035-14.612,0l-9.196,9.196l55.066,54.492
	c4.193,8.084,3.128,18.319-4.531,25.124l-8.566,7.598c-4.726,4.198-4.726,11.003,0,15.201c4.731,4.198,12.692,3.707,16.794-0.451
	l-22.083,21.166c-4.352,4.163-4.352,10.911,0,15.073c4.352,4.163,11.407,4.163,15.749,0l10.051-9.866
	c-4.101,4.163-4.101,10.911,0,15.073c4.101,4.157,10.747,4.157,14.843,0l18.56-18.842c8.202-8.32,21.499-8.32,29.701,0
	l13.983,13.578l8.484-8.484C415.596,240.215,415.596,233.672,411.561,229.632L411.561,229.632z"/>
<path style="fill:#2D4552;" d="M158.572,220.191l-37.074,37.33c-1.142,1.152-2.13,3.2-2.166,5.11
	c-0.067,1.879,0.543,3.901,2.115,5.478c29.189,29.394,24.719,71.793,4.152,92.503c-13.568,13.66-35.589,21.233-49.08,30.961
	c-7.434,5.325-14.843,11.786-22.077,19.077l-1.321,1.388c7.322,9.503,15.288,18.488,23.849,26.87l145.638-145.638l-60.595-69.606
	L158.572,220.191L158.572,220.191z"/>
<path style="fill:#D3D5D6;" d="M193.92,184.161l138.952,138.511l-51.108,51.072L142.812,235.223L193.92,184.161z"/>
<path style="fill:#C8CACB;" d="M213.576,305.772l51.144-51.036l-70.799-70.574l-51.108,51.062L213.576,305.772z"/>
<path style="fill:#BDBFC0;" d="M293.868,320.271c-3.999-4.029-10.481-4.029-14.479,0c-3.999,4.029-3.999,10.563,0,14.597
	s10.481,4.029,14.479,0C297.866,330.839,297.871,324.301,293.868,320.271L293.868,320.271z M253.747,294.743
	c-4.029,3.999-4.029,10.486,0,14.484c4.029,3.994,10.563,3.994,14.592,0c4.035-3.999,4.035-10.486,0-14.484
	C264.31,290.749,257.777,290.749,253.747,294.743z"/>
<path style="fill:#B4B5B6;" d="M207.708,248.591c-3.999,4.029-3.999,10.563,0,14.602c3.999,4.024,10.481,4.024,14.484,0
	c3.999-4.035,3.999-10.568,0-14.602C218.194,244.557,211.707,244.562,207.708,248.591z M182.067,223.063
	c-4.029,3.999-4.029,10.481,0,14.484c4.029,3.999,10.563,3.999,14.597,0c4.035-3.999,4.035-10.481,0-14.484
	C192.635,219.064,186.097,219.064,182.067,223.063z"/>
<g>
	<path style="fill:#D85C50;" d="M316.851,191.13l2.309-2.048c7.66-6.804,8.724-17.039,4.531-25.124l-55.066-54.492l-5.12,5.12
		l55.066,54.492C322.176,176.02,321.864,184.545,316.851,191.13L316.851,191.13z M310.595,211.881
		c-3.953-3.517-4.557-8.847-1.879-12.954l-3.241,2.872c-4.726,4.198-4.726,11.003,0,15.201c4.224,3.748,11.003,3.738,15.334,0.737
		l6.579-6.308C323.292,215.588,315.325,216.079,310.595,211.881L310.595,211.881z M364.508,234.035l-4.7,4.772
		c8.223-7.931,21.212-7.844,29.281,0.348l13.983,13.578l5.12-5.12l-13.983-13.578C386.012,225.715,372.71,225.715,364.508,234.035z
		 M331.105,252.882c-4.101-4.163-4.101-10.911,0-15.073l-10.051,9.866c-4.347,4.163-11.402,4.163-15.749,0
		c-3.968-3.799-4.275-9.728-0.993-13.906l-4.127,3.953c-4.352,4.163-4.352,10.911,0,15.073s11.407,4.163,15.749,0l10.051-9.866
		c-4.101,4.163-4.101,10.911,0,15.073c4.101,4.157,10.747,4.157,14.843,0l4.7-4.772
		C341.412,256.998,335.073,256.906,331.105,252.882z"/>
</g>
<g>
</g>
<g>
</g>
<g>
</g>
<g>
</g>
<g>
</g>
<g>
</g>
<g>
</g>
<g>
</g>
<g>
</g>
<g>
</g>
<g>
</g>
<g>
</g>
<g>
</g>
<g>
</g>
<g>
</g>
</svg>
