<?xml version="1.0" encoding="iso-8859-1"?>
<!-- Generator: Adobe Illustrator 19.0.0, SVG Export Plug-In . SVG Version: 6.00 Build 0)  -->
<svg version="1.1" id="Layer_1" xmlns="http://www.w3.org/2000/svg" xmlns:xlink="http://www.w3.org/1999/xlink" x="0px" y="0px"
	 viewBox="0 0 512 512" style="enable-background:new 0 0 512 512;" xml:space="preserve">
<path style="fill:#EDEDED;" d="M256,0c141.384,0,256,114.616,256,256S397.384,512,256,512S0,397.384,0,256S114.616,0,256,0z"/>
<path style="fill:#F2D27E;" d="M306.468,127.939l82.616,82.668l-57.006,89.513c-7.47,10.568-18.309,18.248-30.822,21.832
	c0,0-117.898,35.594-135.557,40.924c-2.371,0.717-5.944-3.082-5.944-3.082l93.727-88.663c5.827-5.837,13.916-8.422,22.287-8.361
	c6.733,0.046,13.379-3.154,17.413-9.708c3.983-6.467,3.855-15.084-0.323-21.683c-7.619-12.037-23.521-13.588-32.671-4.434
	c-3.963,3.963-5.893,9.196-5.837,14.464c0.087,8.33-2.514,16.374-8.31,22.17l-88.653,93.845c0,0-3.615-4.188-2.749-7.045
	c6.313-20.946,40.571-134.548,40.571-134.548c3.574-12.518,11.249-23.368,21.811-30.833L306.468,127.939L306.468,127.939z"/>
<path style="fill:#E6C778;" d="M306.657,128.123l-89.416,57.257c-10.573,7.511-18.258,18.401-21.852,30.971l-3.159,9.359
	c-8.463,28.058-32.415,107.489-37.591,124.667c-0.86,2.857,2.749,7.045,2.749,7.045l88.658-93.844
	c5.796-5.796,8.397-13.839,8.31-22.17c-0.056-5.268,1.874-10.501,5.837-14.464c8.146-8.146,21.601-7.762,29.839,0.896l58.045-58.266
	L306.657,128.123L306.657,128.123z"/>
<path style="fill:#7C3A15;" d="M409.651,199.869l-92.401-92.396L305.019,119.7c-3.922,3.932-3.922,10.291,0,14.218l78.188,78.182
	c3.927,3.927,10.286,3.927,14.213,0L409.651,199.869L409.651,199.869z"/>
<path style="fill:#E6C778;" d="M332.078,294.999c-7.47,10.568-18.309,18.248-30.822,21.832c0,0-117.898,35.594-135.557,40.924
	c-0.922,0.276-2.022-0.128-3.021-0.727l-2.924,2.765c0,0,3.574,3.794,5.944,3.082c17.659-5.33,135.557-40.924,135.557-40.924
	c12.508-3.579,23.352-11.259,30.822-21.832l57.006-89.508l-1.992-1.992L332.078,294.999L332.078,294.999z"/>
<path style="fill:#DABD72;" d="M159.759,354.673l2.104-1.992l84.183-89.103c5.796-5.796,8.397-13.839,8.31-22.17
	c-0.056-5.268,1.874-10.501,5.837-14.464c9.149-9.155,25.052-7.598,32.671,4.434c1.695,2.673,2.688,5.688,3.052,8.75
	c0.604-4.731-0.41-9.702-3.052-13.87c-7.619-12.037-23.521-13.588-32.671-4.434c-3.963,3.963-5.893,9.196-5.837,14.464
	c0.087,8.33-2.514,16.374-8.31,22.17l-88.658,93.844c0,0-1.408-1.633-2.258-3.558l-0.492,1.633c-0.86,2.857,2.749,7.045,2.749,7.045
	l2.483-2.632C159.872,354.79,159.759,354.673,159.759,354.673z"/>
<path style="fill:#6A3112;" d="M399.411,189.629l-12.232,12.232c-3.932,3.927-10.291,3.927-14.213,0l-67.948-67.942h0.005
	l78.188,78.182c3.927,3.927,10.286,3.927,14.213,0l12.232-12.232L399.411,189.629z"/>
<path style="fill:#9B481A;" d="M447.068,201.462c-11.162,11.162-29.256,11.162-40.412,0l-91.008-91.008
	c-11.156-11.162-11.156-29.256,0-40.417l46.833-46.828c58.117,26.629,104.571,74.312,129.48,133.35L447.068,201.462L447.068,201.462
	z"/>
<path style="fill:#843D16;" d="M421.468,175.862l53.1-53.105c6.589,10.772,12.442,22.057,17.393,33.807l-44.897,44.902
	c-11.162,11.162-29.256,11.162-40.412,0l-18.929-18.929C399.253,186.035,413.45,183.88,421.468,175.862L421.468,175.862z"/>
<g>
	<path style="fill:#82401B;" d="M330.573,55.122l7.24-7.24l131.42,131.42l-7.24,7.24L330.573,55.122z M454.753,193.777l-7.24,7.24
		l-131.42-131.42l7.24-7.24L454.753,193.777z"/>
</g>
<g>
	<path style="fill:#703718;" d="M436.388,160.942l7.24-7.24l25.6,25.6l-7.24,7.24L436.388,160.942z M454.758,193.777l-7.24,7.24
		l-25.6-25.6l7.24-7.24L454.758,193.777z"/>
</g>
<g>
</g>
<g>
</g>
<g>
</g>
<g>
</g>
<g>
</g>
<g>
</g>
<g>
</g>
<g>
</g>
<g>
</g>
<g>
</g>
<g>
</g>
<g>
</g>
<g>
</g>
<g>
</g>
<g>
</g>
</svg>
