<?xml version="1.0" encoding="iso-8859-1"?>
<!-- Generator: Adobe Illustrator 19.0.0, SVG Export Plug-In . SVG Version: 6.00 Build 0)  -->
<svg version="1.1" id="Layer_1" xmlns="http://www.w3.org/2000/svg" xmlns:xlink="http://www.w3.org/1999/xlink" x="0px" y="0px"
	 viewBox="0 0 512 512" style="enable-background:new 0 0 512 512;" xml:space="preserve">
<path style="fill:#F2F1EF;" d="M256,0c141.384,0,256,114.616,256,256S397.384,512,256,512S0,397.384,0,256S114.616,0,256,0z"/>
<path style="fill:#E6E5E3;" d="M117.76,317.44V194.56c0-4.767,3.272-8.735,7.68-9.876c-0.824-0.215-1.669-0.364-2.56-0.364
	c-5.652,0-10.24,4.588-10.24,10.24v122.88c0,5.658,4.588,10.24,10.24,10.24c0.891,0,1.736-0.148,2.56-0.358
	C121.032,326.175,117.76,322.212,117.76,317.44z"/>
<path style="fill:#D9D8D7;" d="M256,25.6C128.753,25.6,25.6,128.753,25.6,256c0,127.253,103.153,230.4,230.4,230.4
	S486.4,383.253,486.4,256C486.4,128.753,383.247,25.6,256,25.6z M256,476.16c-121.59,0-220.16-98.57-220.16-220.16
	S134.41,35.84,256,35.84S476.16,134.41,476.16,256S377.59,476.16,256,476.16z M128,209.92c11.31,0,20.48-9.17,20.48-20.48
	c0-11.31-9.17-20.48-20.48-20.48s-20.48,9.17-20.48,20.48C107.52,200.75,116.69,209.92,128,209.92z M128,302.08
	c-11.31,0-20.48,9.17-20.48,20.48c0,11.31,9.17,20.48,20.48,20.48s20.48-9.17,20.48-20.48C148.48,311.25,139.31,302.08,128,302.08z"
	/>
<path style="fill:#FAFAFA;" d="M128,184.32c5.652,0,10.24,4.588,10.24,10.24v122.88c0,5.658-4.588,10.24-10.24,10.24
	s-10.24-4.582-10.24-10.24V194.56C117.76,188.908,122.348,184.32,128,184.32z"/>
<path style="fill:#D9D8D7;" d="M302.08,143.36c62.208,0,112.64,50.432,112.64,112.64s-50.432,112.64-112.64,112.64
	S189.44,318.208,189.44,256S239.872,143.36,302.08,143.36z"/>
<path style="fill:#324D5B;" d="M302.08,174.08c45.245,0,81.92,36.68,81.92,81.92c0,45.245-36.675,81.92-81.92,81.92
	s-81.92-36.675-81.92-81.92C220.16,210.76,256.835,174.08,302.08,174.08z"/>
<path style="fill:#283E49;" d="M302.08,302.08c-25.452,0-46.08-20.628-46.08-46.08c0-10.112,3.297-19.43,8.817-27.028
	c-11.53,8.376-19.057,21.929-19.057,37.268c0,25.452,20.628,46.08,46.08,46.08c15.34,0,28.892-7.526,37.263-19.057
	C321.51,298.783,312.192,302.08,302.08,302.08z"/>
<path style="fill:#5B717C;" d="M315.372,250.563l48.374-48.374c-2.442-2.79-5.059-5.412-7.849-7.854l-48.374,48.374v-68.352
	c-1.807-0.123-3.61-0.276-5.443-0.276s-3.635,0.154-5.437,0.276v68.357l-48.374-48.374c-2.79,2.442-5.412,5.059-7.849,7.849
	l48.374,48.374h-68.357c-0.123,1.807-0.276,3.599-0.276,5.437c0,1.838,0.154,3.635,0.276,5.437h68.357l-48.374,48.374
	c2.442,2.79,5.059,5.412,7.849,7.849l48.374-48.374v68.357c1.802,0.123,3.604,0.276,5.437,0.276s3.635-0.154,5.437-0.276v-68.352
	l48.374,48.374c2.79-2.442,5.417-5.059,7.849-7.854l-48.374-48.369h68.357c0.123-1.807,0.276-3.604,0.276-5.443
	c0-1.838-0.154-3.63-0.276-5.437H315.372L315.372,250.563z"/>
<path style="fill:#D9D8D7;" d="M302.08,209.92c25.452,0,46.08,20.628,46.08,46.08s-20.628,46.08-46.08,46.08
	c-25.452,0-46.08-20.628-46.08-46.08S276.628,209.92,302.08,209.92z"/>
<g>
	<path style="fill:#CFCECD;" d="M112.64,309.146v8.294c0,5.658,4.588,10.24,10.24,10.24c0.891,0,1.736-0.148,2.56-0.358
		c-4.408-1.147-7.68-5.11-7.68-9.882v-12.518C115.825,306.048,114.104,307.466,112.64,309.146z M112.64,202.854
		c1.464,1.679,3.185,3.098,5.12,4.224V194.56c0-4.767,3.272-8.735,7.68-9.876c-0.824-0.215-1.669-0.364-2.56-0.364
		c-5.652,0-10.24,4.588-10.24,10.24V202.854z"/>
</g>
<g>
	<path style="fill:#CECDCC;" d="M301.978,256.113l43.781,14.49c1.536-4.593,2.401-9.492,2.401-14.602
		c0-5.11-0.865-10.01-2.401-14.602L301.978,256.113L301.978,256.113z M256,256c0,5.079,0.855,9.953,2.371,14.525l43.607-14.413
		l-43.607-14.638C256.855,246.047,256,250.921,256,256L256,256z"/>
</g>
<g>
	<path style="fill:#E4E4E3;" d="M302.08,209.92c-5.11,0-10.01,0.865-14.602,2.401l14.5,43.791l14.699-43.791
		C312.09,210.785,307.19,209.92,302.08,209.92L302.08,209.92z M301.978,256.113l-14.423,43.597
		c4.572,1.516,9.446,2.371,14.525,2.371s9.953-0.855,14.525-2.371L301.978,256.113z"/>
</g>
<g>
	<path style="fill:#495A63;" d="M265.836,284.396l-10.24,10.24c2.294,2.924,4.925,5.555,7.849,7.849l10.24-10.24
		C270.761,289.951,268.129,287.319,265.836,284.396z M256.348,261.437c-0.21-1.782-0.348-3.594-0.348-5.437
		c0-1.843,0.143-3.651,0.358-5.437h-7.813c-1.26,3.451-2.099,7.096-2.493,10.88h10.296V261.437z M307.517,309.535v-7.813
		c-1.782,0.215-3.594,0.358-5.437,0.358s-3.656-0.138-5.437-0.348v10.296C300.426,311.629,304.072,310.789,307.517,309.535z"/>
</g>
<g>
</g>
<g>
</g>
<g>
</g>
<g>
</g>
<g>
</g>
<g>
</g>
<g>
</g>
<g>
</g>
<g>
</g>
<g>
</g>
<g>
</g>
<g>
</g>
<g>
</g>
<g>
</g>
<g>
</g>
</svg>
