<?xml version="1.0" encoding="iso-8859-1"?>
<!-- Generator: Adobe Illustrator 19.0.0, SVG Export Plug-In . SVG Version: 6.00 Build 0)  -->
<svg version="1.1" id="Layer_1" xmlns="http://www.w3.org/2000/svg" xmlns:xlink="http://www.w3.org/1999/xlink" x="0px" y="0px"
	 viewBox="0 0 512 512" style="enable-background:new 0 0 512 512;" xml:space="preserve">
<g>
	<path style="fill:#3AAA96;" d="M255.918,122.834l0.026,0.01v-0.01H255.918z M256,122.834h-0.056l0.026,0.01L256,122.834z
		 M256,122.87l-0.056-0.02v0.01c-2.248,0.86-107.704,41.37-107.505,41.283c-0.087,0.077,0,51.881,0,79.068
		c0,54.758,10.88,129.418,107.479,156.155H256C256,399.365,256,122.87,256,122.87z"/>
</g>
<path style="fill:#91D8F0;" d="M256,0C114.616,0,0,114.616,0,256s114.616,256,256,256s256-114.616,256-256S397.384,0,256,0z"/>
<path style="fill:#F9F9F9;" d="M389.12,148.424c0.23,0.097-129.751-49.946-133.007-51.205v0.01
	c-2.662,1.024-133.366,51.292-133.13,51.195c-0.102,0.087,0,61.839,0,94.239c0,65.27,18.673,150.641,133.1,182.318h0.123
	c114.263-31.683,132.91-118.41,132.91-182.318C389.12,210.263,389.227,148.511,389.12,148.424L389.12,148.424z"/>
<path style="fill:#3DB39E;" d="M255.918,122.834l0.026,0.01v-0.01H255.918z M363.341,166.042
	c0.2,0.092-104.622-42.132-107.397-43.197v0.01c-2.248,0.86-107.704,41.37-107.505,41.283c-0.087,0.077,0,51.881,0,79.068
	c0,54.758,10.88,129.418,107.479,156.155h0.108C352.492,372.623,363.5,296.827,363.5,243.205
	C363.5,216.018,363.438,166.113,363.341,166.042L363.341,166.042z M256,122.834h-0.056l0.026,0.01L256,122.834z"/>
<path style="fill:#ECECEC;" d="M122.982,148.424c-0.102,0.087,0,61.839,0,94.239c0,65.249,18.668,150.584,133.002,182.292H256
	V97.275C251.914,98.847,122.752,148.521,122.982,148.424z"/>
<g>
	<path style="fill:#3AAA96;" d="M255.918,122.834l0.026,0.01v-0.01H255.918z M256,122.87l-0.056-0.02v0.01
		c-2.248,0.86-107.704,41.37-107.505,41.283c-0.087,0.077,0,51.881,0,79.068c0,54.758,10.88,129.418,107.479,156.155H256
		C256,399.365,256,122.87,256,122.87z M256,122.834h-0.056l0.026,0.01L256,122.834z"/>
</g>
<path style="fill:#F9F9F9;" d="M306.821,235.945c-0.886-2.509-3.159-4.347-5.898-4.746l-26.639-3.886l-11.592-23.572
	c-1.213-2.478-3.82-4.06-6.692-4.06c-2.867,0-5.473,1.582-6.697,4.06l-11.581,23.572l-26.65,3.886
	c-2.739,0.399-5.012,2.237-5.893,4.746c-0.881,2.509-0.215,5.279,1.72,7.168l19.523,19.113l-4.526,26.527
	c-0.461,2.668,0.722,5.35,3.036,6.912c1.275,0.86,2.77,1.295,4.26,1.295c1.229,0,2.458-0.297,3.579-0.881L256,283.817l23.229,12.268
	c1.121,0.579,2.35,0.876,3.574,0.876c1.495,0,2.985-0.435,4.265-1.295c2.309-1.562,3.492-4.244,3.031-6.912l-4.531-26.527
	l19.528-19.113C307.031,241.224,307.702,238.454,306.821,235.945z"/>
<g>
	<path style="fill:#37A18E;" d="M289.147,293.402c-0.527,0.865-1.183,1.664-2.074,2.263c-1.285,0.86-2.775,1.295-4.27,1.295
		c-1.224,0-2.452-0.297-3.574-0.881L256,283.817l-23.229,12.268c-1.116,0.579-2.35,0.876-3.579,0.876
		c-1.495,0-2.985-0.435-4.26-1.295c-0.891-0.599-1.551-1.398-2.079-2.268l-0.957,5.601c-0.461,2.668,0.722,5.35,3.036,6.912
		c1.275,0.855,2.77,1.29,4.26,1.29c1.229,0,2.458-0.297,3.579-0.881L256,294.057l23.229,12.268c1.121,0.579,2.35,0.876,3.574,0.876
		c1.495,0,2.985-0.435,4.265-1.295c2.309-1.562,3.492-4.244,3.031-6.912L289.147,293.402L289.147,293.402z M226.427,262.231
		l-19.297-18.888c-0.86,0.783-1.556,1.731-1.951,2.847c-0.881,2.509-0.215,5.279,1.72,7.168l18.028,17.649L226.427,262.231
		L226.427,262.231z M304.87,243.338l-19.302,18.888l1.5,8.776l18.027-17.649c1.93-1.889,2.601-4.659,1.72-7.168
		C306.432,245.074,305.731,244.122,304.87,243.338L304.87,243.338z"/>
</g>
<g>
	<path style="fill:#3AAA96;" d="M255.918,122.834l0.026,0.01v-0.01H255.918z M256,122.834h-0.056l0.026,0.01L256,122.834z"/>
</g>
<path style="fill:#349987;" d="M232.771,296.079c-1.116,0.584-2.35,0.881-3.579,0.881c-1.495,0-2.985-0.435-4.26-1.295
	c-0.891-0.599-1.551-1.398-2.079-2.268l-0.957,5.601c-0.461,2.668,0.722,5.35,3.036,6.912c1.275,0.855,2.77,1.29,4.26,1.29
	c1.229,0,2.458-0.297,3.579-0.881L256,294.057v-10.24L232.771,296.079z M226.427,262.231l-19.297-18.888
	c-0.86,0.783-1.556,1.731-1.951,2.847c-0.881,2.509-0.215,5.279,1.72,7.168l18.028,17.649L226.427,262.231L226.427,262.231z"/>
<path style="fill:#37A18E;" d="M304.87,243.338l-19.302,18.888l1.5,8.776l18.027-17.649c1.93-1.889,2.601-4.659,1.72-7.168
	C306.432,245.074,305.731,244.122,304.87,243.338L304.87,243.338z"/>
<path style="fill:#82C2D8;" d="M256.205,424.986h-0.123c-114.427-31.683-133.1-117.048-133.1-182.318
	c0-28.058-0.077-78.106-0.031-91.075l-5.089,1.956c-0.102,0.087,0,61.839,0,94.239c0,65.27,18.673,150.641,133.1,182.318h0.123
	c39.491-10.952,67.548-28.477,87.373-49.362C319.007,399.365,292.419,414.945,256.205,424.986z"/>
<g>
</g>
<g>
</g>
<g>
</g>
<g>
</g>
<g>
</g>
<g>
</g>
<g>
</g>
<g>
</g>
<g>
</g>
<g>
</g>
<g>
</g>
<g>
</g>
<g>
</g>
<g>
</g>
<g>
</g>
</svg>
