<?xml version="1.0" encoding="iso-8859-1"?>
<!-- Generator: Adobe Illustrator 19.0.0, SVG Export Plug-In . SVG Version: 6.00 Build 0)  -->
<svg version="1.1" id="Layer_1" xmlns="http://www.w3.org/2000/svg" xmlns:xlink="http://www.w3.org/1999/xlink" x="0px" y="0px"
	 viewBox="0 0 512 512" style="enable-background:new 0 0 512 512;" xml:space="preserve">
<path style="fill:#E2574C;" d="M256,0c141.384,0,256,114.616,256,256S397.384,512,256,512S0,397.384,0,256S114.616,0,256,0z"/>
<g>
	<path style="fill:#D95449;" d="M142.884,485.663L256,256L26.337,369.121C51.272,419.64,92.36,460.728,142.884,485.663z
		 M369.116,26.337L256,256l229.663-113.116c-12.452-25.231-28.897-48.133-48.568-67.825l-0.154-0.154
		C417.244,55.229,394.348,38.784,369.116,26.337z"/>
</g>
<path style="fill:#E4645A;" d="M485.658,369.126L256.026,256.108L142.879,26.337c-25.252,12.462-48.169,28.918-67.871,48.62
	l-0.051,0.051c-19.702,19.707-36.157,42.629-48.625,67.881L256,256.082l113.116,229.586
	C419.635,460.733,460.728,419.645,485.658,369.126L485.658,369.126z"/>
<path style="fill:#324D5B;" d="M256,168.96c48.072,0,87.04,38.968,87.04,87.04s-38.968,87.04-87.04,87.04s-87.04-38.968-87.04-87.04
	S207.928,168.96,256,168.96z"/>
<path style="fill:#304A57;" d="M177.992,294.426c8.474,17.172,22.415,31.109,39.588,39.583L256,256L177.992,294.426z
	 M334.008,217.58c-8.474-17.172-22.415-31.114-39.588-39.588L256,256L334.008,217.58z"/>
<path style="fill:#425B68;" d="M256.026,256.108l-38.467-78.111c-17.178,8.484-31.119,22.436-39.593,39.624L256,256.082l38.4,77.942
	c17.172-8.463,31.104-22.39,39.583-39.547L256.026,256.108L256.026,256.108z"/>
<path style="fill:#F2F1EF;" d="M256.01,287.621l25.272,13.926c2.176,1.198,4.716-0.737,4.301-3.272l-4.828-29.496l20.444-20.884
	c1.761-1.797,0.788-4.925-1.638-5.294l-28.257-4.301l-12.636-26.834c-1.085-2.304-4.224-2.304-5.309,0L240.717,238.3l-28.257,4.301
	c-2.432,0.369-3.4,3.502-1.638,5.294l20.444,20.884l-4.823,29.496c-0.415,2.534,2.125,4.47,4.296,3.272L256.01,287.621z"/>
<path style="fill:#E9E8E6;" d="M268.083,231.465L256,256l31.063-15.299l-15.764-2.401L268.083,231.465z M231.265,268.78
	l-4.823,29.496c-0.415,2.534,2.125,4.47,4.296,3.272l3.886-2.14L256,256l-25.129,12.38L231.265,268.78L231.265,268.78z"/>
<path style="fill:#F3F2F0;" d="M256.026,256.108l-12.114-24.596l-3.2,6.789l-15.887,2.417l31.171,15.36l21.325,43.285l3.953,2.181
	c2.176,1.198,4.716-0.737,4.301-3.272l-4.828-29.496l0.333-0.338L256.026,256.108L256.026,256.108z"/>
<path style="fill:#F2F1EF;" d="M256,51.2C142.889,51.2,51.2,142.889,51.2,256S142.889,460.8,256,460.8S460.8,369.111,460.8,256
	S369.111,51.2,256,51.2z M256,404.48c-82.007,0-148.48-66.473-148.48-148.48S173.993,107.52,256,107.52S404.48,173.993,404.48,256
	S338.007,404.48,256,404.48z"/>
<path style="fill:#E9E8E6;" d="M346.491,72.269l-24.883,50.524c29.307,14.464,53.14,38.292,67.599,67.599l50.529-24.883
	C419.789,125.087,386.908,92.211,346.491,72.269L346.491,72.269z M165.504,439.731l24.888-50.524
	c-29.302-14.459-53.135-38.293-67.599-67.594l-50.524,24.883C92.216,386.913,125.087,419.784,165.504,439.731L165.504,439.731z"/>
<g>
	<path style="fill:#F3F2F0;" d="M72.259,165.524l50.519,24.899c14.454-29.312,38.292-53.156,67.599-67.62l-24.883-50.529
		C125.076,92.221,92.201,125.102,72.259,165.524L72.259,165.524z M439.721,346.516l-50.529-24.868
		c-14.464,29.292-38.298,53.115-67.599,67.569l24.893,50.519C386.898,419.794,419.773,386.923,439.721,346.516z"/>
</g>
<g>
</g>
<g>
</g>
<g>
</g>
<g>
</g>
<g>
</g>
<g>
</g>
<g>
</g>
<g>
</g>
<g>
</g>
<g>
</g>
<g>
</g>
<g>
</g>
<g>
</g>
<g>
</g>
<g>
</g>
</svg>
