<?xml version="1.0" encoding="iso-8859-1"?>
<!-- Generator: Adobe Illustrator 19.0.0, SVG Export Plug-In . SVG Version: 6.00 Build 0)  -->
<svg version="1.1" id="Layer_1" xmlns="http://www.w3.org/2000/svg" xmlns:xlink="http://www.w3.org/1999/xlink" x="0px" y="0px"
	 viewBox="0 0 512 512" style="enable-background:new 0 0 512 512;" xml:space="preserve">
<path style="fill:#91D8F0;" d="M256,0c141.384,0,256,114.616,256,256S397.384,512,256,512S0,397.384,0,256S114.616,0,256,0z"/>
<path style="fill:#2295BC;" d="M503.716,320.768c-1.326-1.987-1.997-3.328-1.997-3.328s-10.701,20.46-30.792,20.48
	c-20.26-0.02-30.454-20.48-30.454-20.48s-10.194,20.48-30.838,20.48c-20.593,0-30.73-20.48-30.73-20.48s-10.701,20.46-30.792,20.48
	c-20.26-0.02-30.454-20.48-30.454-20.48s-10.194,20.48-30.838,20.48c-20.593,0-30.73-20.48-30.73-20.48s-10.701,20.46-30.792,20.48
	c-20.26-0.02-30.454-20.48-30.454-20.48s-10.194,20.48-30.838,20.48c-20.593,0-30.73-20.48-30.73-20.48s-10.701,20.46-30.792,20.48
	c-20.26-0.02-30.454-20.48-30.454-20.48s-10.194,20.48-30.838,20.48c-20.593,0-30.73-20.48-30.73-20.48s-0.737,1.388-2.15,3.425
	c14.807,56.694,48.548,105.728,94.08,139.935h307.21C455.163,426.573,488.919,377.503,503.716,320.768z"/>
<path style="fill:#324D5B;" d="M240.64,128h30.72c5.652,0,10.24,4.588,10.24,10.24v20.48c0,5.652-4.588,10.24-10.24,10.24h-30.72
	c-5.652,0-10.24-4.588-10.24-10.24v-20.48C230.4,132.588,234.988,128,240.64,128z"/>
<path style="fill:#EDEDED;" d="M179.2,153.6h153.6c5.652,0,10.24,4.588,10.24,10.24v107.52c0,5.658-4.588,10.24-10.24,10.24H179.2
	c-5.652,0-10.24-4.582-10.24-10.24V163.84C168.96,158.188,173.548,153.6,179.2,153.6z"/>
<path style="fill:#E1E1E1;" d="M256,153.6h-76.8c-5.652,0-10.24,4.588-10.24,10.24v107.52c0,5.658,4.588,10.24,10.24,10.24H256
	V153.6z M343.04,267.551l-87.199-30.172l-86.881,30.059v-13.957l86.845-30.049l0.036,6.968l0.036-6.963l87.163,30.157V267.551
	L343.04,267.551z"/>
<path style="fill:#475F6C;" d="M212.48,184.32c-7.071,0-12.8,5.729-12.8,12.8s5.729,12.8,12.8,12.8s12.8-5.729,12.8-12.8
	S219.551,184.32,212.48,184.32z M299.52,184.32c-7.071,0-12.8,5.729-12.8,12.8s5.729,12.8,12.8,12.8c7.071,0,12.8-5.729,12.8-12.8
	S306.591,184.32,299.52,184.32z"/>
<path style="fill:#FFFFFF;" d="M138.24,271.36l117.652-40.96l117.868,40.96c5.023,1.582,10.24,4.588,10.24,10.24l-25.6,133.12
	c0,5.652-4.588,10.24-10.24,10.24H163.84c-5.652,0-10.24-4.588-10.24-10.24L128,281.6C128,275.948,132.905,273.587,138.24,271.36z"
	/>
<path style="fill:#D6D6D6;" d="M256,237.435v-13.957l-0.123-0.041l-0.036,6.963l-0.036-6.963l-86.845,30.044v13.957l86.881-30.06
	L256,237.435z"/>
<path style="fill:#F2F2F2;" d="M138.24,271.36l117.652-40.96l0.108,0.041V424.96h-92.16c-5.652,0-10.24-4.588-10.24-10.24L128,281.6
	C128,275.948,132.905,273.587,138.24,271.36z"/>
<path style="fill:#E2574C;" d="M376.596,320.118l-120.755-41.779L135.388,320.01l-2.514-13.082l122.936-42.537l0.031,6.968
	l0.036-6.963l123.233,42.634L376.596,320.118L376.596,320.118z"/>
<path style="fill:#B2E4F5;" d="M327.68,76.8h-25.6c-4.239,0-7.68,3.436-7.68,7.68c0,4.244,3.441,7.685,7.68,7.685
	c5.652,0,10.24,4.588,10.24,10.235c0,5.652-4.588,10.24-10.24,10.24h-30.72c-4.239,0-7.68,3.441-7.68,7.68
	c0,4.239,3.441,7.68,7.68,7.68h-30.72c4.239,0,7.68-3.441,7.68-7.68c0-4.239-3.441-7.68-7.68-7.68h-15.36
	c-5.652,0-10.24-4.588-10.24-10.24c0-5.652,4.588-10.235,10.24-10.235h40.96V92.15c4.163-0.092,7.521-3.482,7.521-7.67
	c0-4.183-3.354-7.572-7.521-7.66V76.8H256c-5.652,0-10.24-4.588-10.24-10.24c0-5.658,4.588-10.24,10.24-10.24h71.68
	c5.652,0,10.24,4.582,10.24,10.24C337.92,72.212,333.332,76.8,327.68,76.8z"/>
<path style="fill:#FFFFFF;" d="M299.52,184.32c7.071,0,12.8,5.729,12.8,12.8s-5.729,12.8-12.8,12.8c-7.071,0-12.8-5.729-12.8-12.8
	S292.449,184.32,299.52,184.32 M212.48,184.32c7.071,0,12.8,5.729,12.8,12.8s-5.729,12.8-12.8,12.8s-12.8-5.729-12.8-12.8
	S205.409,184.32,212.48,184.32 M299.52,176.64c-11.295,0-20.48,9.185-20.48,20.48s9.185,20.48,20.48,20.48
	c11.295,0,20.48-9.185,20.48-20.48S310.815,176.64,299.52,176.64z M212.48,176.64c-11.295,0-20.48,9.185-20.48,20.48
	s9.185,20.48,20.48,20.48s20.48-9.185,20.48-20.48S223.775,176.64,212.48,176.64z"/>
<path style="fill:#1E85A7;" d="M474.885,388.828c-1.28,0.179-2.591,0.292-3.953,0.292c-20.26-0.02-30.454-20.48-30.454-20.48
	s-10.194,20.48-30.838,20.48c-20.593,0-30.73-20.48-30.73-20.48s-10.701,20.46-30.792,20.48c-20.26-0.02-30.454-20.48-30.454-20.48
	s-10.194,20.48-30.838,20.48c-20.593,0-30.73-20.48-30.73-20.48s-10.701,20.46-30.792,20.48c-20.26-0.02-30.454-20.48-30.454-20.48
	s-10.194,20.48-30.838,20.48c-20.593,0-30.73-20.48-30.73-20.48s-10.701,20.46-30.792,20.48c-20.26-0.02-30.454-20.48-30.454-20.48
	s-10.194,20.48-30.838,20.48c-1.408,0-2.765-0.113-4.076-0.292C82.028,462.674,163.251,512,256,512S429.973,462.674,474.885,388.828
	L474.885,388.828z"/>
<path style="fill:#1B7492;" d="M409.636,455.68c-20.593,0-30.73-20.48-30.73-20.48s-10.701,20.46-30.792,20.48
	c-20.26-0.02-30.454-20.48-30.454-20.48s-10.194,20.48-30.838,20.48c-20.593,0-30.73-20.48-30.73-20.48s-10.701,20.46-30.792,20.48
	c-20.26-0.02-30.454-20.48-30.454-20.48s-10.194,20.48-30.838,20.48c-20.593,0-30.73-20.48-30.73-20.48s-10.701,20.46-30.792,20.48
	c-2.934-0.005-5.627-0.471-8.136-1.203C138.429,490.419,194.688,512,256,512c61.23,0,117.417-21.525,161.469-57.38
	C415.043,455.276,412.447,455.68,409.636,455.68L409.636,455.68z"/>
<g>
</g>
<g>
</g>
<g>
</g>
<g>
</g>
<g>
</g>
<g>
</g>
<g>
</g>
<g>
</g>
<g>
</g>
<g>
</g>
<g>
</g>
<g>
</g>
<g>
</g>
<g>
</g>
<g>
</g>
</svg>
