<?xml version="1.0" encoding="iso-8859-1"?>
<!-- Generator: Adobe Illustrator 19.0.0, SVG Export Plug-In . SVG Version: 6.00 Build 0)  -->
<svg version="1.1" id="Layer_1" xmlns="http://www.w3.org/2000/svg" xmlns:xlink="http://www.w3.org/1999/xlink" x="0px" y="0px"
	 viewBox="0 0 512 512" style="enable-background:new 0 0 512 512;" xml:space="preserve">
<path style="fill:#EDEDED;" d="M256,0C114.616,0,0,114.621,0,256c0,141.389,114.616,256,256,256c141.379,0,256-114.611,256-256
	C512,114.621,397.379,0,256,0z"/>
<path style="fill:#D07C40;" d="M97.3,153.523h317.548V409.4H97.618L97.3,153.523L97.3,153.523z"/>
<g>
	<path style="fill:#EFC75E;" d="M430.095,215.117c0,0.128-347.873-0.102-348.201,0v194.145c0.005,0.02-0.036,15.355-0.092,34.268
		C127.498,485.99,188.698,512,256,512c67.185,0,128.292-25.912,173.962-68.239c-0.159-18.99-0.292-34.422-0.282-34.427
		C429.681,328.806,430.095,215.117,430.095,215.117L430.095,215.117z M384.108,174.126v33.388l30.74-5.99v-48L384.108,174.126z
		 M128.051,204.918v-30.792L97.3,153.523v51.118L128.051,204.918z"/>
</g>
<path style="fill:#DBA250;" d="M128.051,215.117v-40.991l-46.157,40.991H128.051z M384.108,174.126v40.991h45.983L384.108,174.126z"
	/>
<path style="fill:#CBA950;" d="M363.848,294.697c0-4.291-3.707-8.12-7.997-8.12c-4.291,0-8.443,3.83-8.443,8.12
	c-0.02,52.009-39.122,94.172-91.136,94.172c-52.019,0-92.14-42.153-92.165-94.172c0-4.291-3.635-8.12-7.931-8.12
	s-8.484,3.83-8.484,8.12c0,61.112,47.488,110.633,108.59,110.633C317.379,405.33,363.848,355.799,363.848,294.697L363.848,294.697z"
	/>
<path style="fill:#D07C40;" d="M156.017,271.299c-7.014,0-12.698,5.683-12.698,12.698c0,7.009,5.683,12.692,12.698,12.692
	c7.014,0,12.861-5.683,12.861-12.692C168.873,276.992,163.026,271.299,156.017,271.299z M355.702,271.299
	c-7.02,0-12.698,5.683-12.698,12.698c0,7.009,5.678,12.692,12.698,12.692c7.009,0,12.861-5.683,12.861-12.692
	C368.548,276.992,362.706,271.299,355.702,271.299z"/>
<path style="fill:#FFFFFF;" d="M363.848,289.577c0-4.291-3.707-8.12-7.997-8.12c-4.291,0-8.443,3.83-8.443,8.12
	c-0.02,52.009-39.122,94.172-91.136,94.172c-52.019,0-92.14-42.153-92.165-94.172c0-4.291-3.635-8.12-7.931-8.12
	s-8.484,3.83-8.484,8.12c0,61.112,47.488,110.633,108.59,110.633C317.379,400.21,363.848,350.679,363.848,289.577L363.848,289.577z"
	/>
<g>
</g>
<g>
</g>
<g>
</g>
<g>
</g>
<g>
</g>
<g>
</g>
<g>
</g>
<g>
</g>
<g>
</g>
<g>
</g>
<g>
</g>
<g>
</g>
<g>
</g>
<g>
</g>
<g>
</g>
</svg>
