<?xml version="1.0" encoding="iso-8859-1"?>
<!-- Generator: Adobe Illustrator 19.0.0, SVG Export Plug-In . SVG Version: 6.00 Build 0)  -->
<svg version="1.1" id="Layer_1" xmlns="http://www.w3.org/2000/svg" xmlns:xlink="http://www.w3.org/1999/xlink" x="0px" y="0px"
	 viewBox="0 0 512 512" style="enable-background:new 0 0 512 512;" xml:space="preserve">
<path style="fill:#EDEDED;" d="M256,0C114.616,0,0,114.611,0,255.995C0,397.384,114.616,512,256,512s256-114.616,256-256.005
	C512,114.611,397.384,0,256,0z"/>
<path style="fill:#D5D5D5;" d="M402.222,138.312l7.306,7.311L216.52,317.404l-21.929-21.929L402.222,138.312L402.222,138.312z"/>
<path style="fill:#BEBEBE;" d="M312.32,394.235v30.72H281.6v-30.72h-10.24v30.72h-30.72v-30.72H230.4v30.72h-30.72v-30.72h-10.24
	v40.96h133.12v-40.96H312.32z"/>
<path style="fill:#EFC75E;" d="M240.799,41.441C162.959,46.787,95.954,94.438,62.92,161.423l27.771,13.599
	c29.527-59.628,90.465-101.443,160.425-103.25c1.638-0.041,3.256,0,4.884,0V40.98C250.967,40.98,245.908,41.088,240.799,41.441
	L240.799,41.441z"/>
<path style="fill:#E2574C;" d="M440.243,255.939c0,28.012-7.357,55.67-18.872,79.923c-3.528,7.434-0.881,16.292,6.323,20.357
	l0.276,0.154c8.008,4.516,18.109,1.198,22.042-7.071c13.466-28.329,21.028-60.636,21.028-93.363c0-36.055-8.924-70.001-24.612-99.84
	l-27.269,14.305C432.594,195.968,440.243,225.055,440.243,255.939z"/>
<path style="fill:#3DB39E;" d="M84.004,356.419l0.276-0.148c7.209-3.968,9.851-12.631,6.318-19.901
	c-12.488-25.708-19.896-56.934-18.729-87.572c1.07-28.124,8.632-54.687,21.146-78.3l-27.423-14.387
	c-13.158,24.919-21.56,52.685-23.931,82.068c-3.169,39.26,4.419,78.684,20.301,111.329
	C65.889,357.586,75.991,360.837,84.004,356.419z"/>
<path style="fill:#F4B459;" d="M256,40.98v30.792c72.571,0.005,135.352,41.907,165.381,102.886l27.607-13.578
	C413.931,89.917,340.695,40.996,256,40.98L256,40.98z"/>
<path style="fill:#324D5B;" d="M391.982,112.712l7.306,7.311L216.52,317.404l-21.929-21.929L391.982,112.712L391.982,112.712z"/>
<path style="fill:#1E2D36;" d="M256,230.395c-14.141,0-25.6,11.459-25.6,25.6c0,14.141,11.459,25.6,25.6,25.6s25.6-11.459,25.6-25.6
	C281.6,241.853,270.141,230.395,256,230.395z"/>
<g>
</g>
<g>
</g>
<g>
</g>
<g>
</g>
<g>
</g>
<g>
</g>
<g>
</g>
<g>
</g>
<g>
</g>
<g>
</g>
<g>
</g>
<g>
</g>
<g>
</g>
<g>
</g>
<g>
</g>
</svg>
