<?xml version="1.0" encoding="iso-8859-1"?>
<!-- Generator: Adobe Illustrator 19.0.0, SVG Export Plug-In . SVG Version: 6.00 Build 0)  -->
<svg version="1.1" id="Layer_1" xmlns="http://www.w3.org/2000/svg" xmlns:xlink="http://www.w3.org/1999/xlink" x="0px" y="0px"
	 viewBox="0 0 512 512" style="enable-background:new 0 0 512 512;" xml:space="preserve">
<path style="fill:#EDEDED;" d="M40.924,307.139l0.19,0.002l92.006-46.082l30.684,15.369V148.419l0.19,0.002L256,102.339
	l92.006,46.082l0.19-0.002v56.328l30.684-15.369l92.006,46.082l0.19-0.002v159.424C496.962,354.877,512,307.196,512,256
	C512,114.616,397.384,0,256,0S0,114.616,0,256c0,51.196,15.038,98.877,40.924,138.882V307.139z"/>
<path style="fill:#61BFAF;" d="M470.886,235.461l0.118,0.059l-92.088,46.129v198.955c37.38-20.5,69.083-50.057,92.16-85.721V235.459
	L470.886,235.461z"/>
<path style="fill:#37A18E;" d="M378.88,281.667l-30.684-15.37v228.582c10.598-4.093,20.857-8.866,30.72-14.275V281.649
	L378.88,281.667z"/>
<polygon style="fill:#3DB39E;" points="348.196,266.296 378.88,281.667 378.916,281.649 471.004,235.52 470.886,235.461 
	378.88,189.379 348.196,204.747 "/>
<path style="fill:#E5766D;" d="M348.196,204.747v-56.328l-0.19,0.002l0.118,0.059l-92.088,46.129V512
	c32.492-0.004,63.563-6.076,92.16-17.121V266.296V204.747z"/>
<path style="fill:#CB4E44;" d="M256,194.627l-92.124-46.147l0.118-0.059l-0.19-0.002v128.008l61.322,30.714l0.19-0.002v203.024
	C235.378,511.365,245.614,512,256,512c0.012,0,0.024,0,0.036,0V194.609L256,194.627z"/>
<polygon style="fill:#E2574C;" points="256,194.627 256.036,194.609 348.124,148.48 348.006,148.421 256,102.339 163.994,148.421 
	163.876,148.48 "/>
<path style="fill:#EFCF7B;" d="M225.126,307.141l0.118,0.059l-92.093,46.131v127.31c27.961,15.324,59.095,25.571,92.165,29.522
	V307.139L225.126,307.141z"/>
<path style="fill:#D7B354;" d="M133.12,353.347L40.996,307.2l0.118-0.059l-0.19-0.002v87.744
	c23.091,35.685,54.818,65.257,92.227,85.759v-127.31L133.12,353.347z"/>
<polygon style="fill:#EFC75E;" points="133.12,353.347 133.151,353.331 225.244,307.2 225.126,307.141 163.804,276.427 
	133.12,261.059 41.114,307.141 40.996,307.2 "/>
<g>
</g>
<g>
</g>
<g>
</g>
<g>
</g>
<g>
</g>
<g>
</g>
<g>
</g>
<g>
</g>
<g>
</g>
<g>
</g>
<g>
</g>
<g>
</g>
<g>
</g>
<g>
</g>
<g>
</g>
</svg>
