<?xml version="1.0" encoding="iso-8859-1"?>
<!-- Generator: Adobe Illustrator 19.0.0, SVG Export Plug-In . SVG Version: 6.00 Build 0)  -->
<svg version="1.1" id="Layer_1" xmlns="http://www.w3.org/2000/svg" xmlns:xlink="http://www.w3.org/1999/xlink" x="0px" y="0px"
	 viewBox="0 0 512 512" style="enable-background:new 0 0 512 512;" xml:space="preserve">
<path style="fill:#EFC75E;" d="M256,0c141.384,0,256,114.616,256,256S397.384,512,256,512S0,397.384,0,256S114.616,0,256,0z"/>
<path style="fill:#324D5B;" d="M148.48,174.08h215.04c45.24,0,81.92,36.68,81.92,81.92c0,45.245-36.68,81.92-81.92,81.92H148.48
	c-45.24,0-81.92-36.675-81.92-81.92C66.56,210.76,103.24,174.08,148.48,174.08z"/>
<path style="fill:#2D4653;" d="M143.36,199.68c33.93,0,61.44,27.51,61.44,61.44s-27.51,61.44-61.44,61.44s-61.44-27.51-61.44-61.44
	S109.43,199.68,143.36,199.68z"/>
<path style="fill:#3DB39E;" d="M148.48,194.56c33.93,0,61.44,27.51,61.44,61.44s-27.51,61.44-61.44,61.44S87.04,289.93,87.04,256
	S114.55,194.56,148.48,194.56z"/>
<path style="fill:#37A390;" d="M130.56,248.32c-5.652,0-10.24,4.588-10.24,10.24c0,5.652,4.588,10.24,10.24,10.24
	s10.24-4.588,10.24-10.24C140.8,252.908,136.218,248.32,130.56,248.32z M161.28,248.32c-5.652,0-10.24,4.588-10.24,10.24
	c0,5.652,4.588,10.24,10.24,10.24s10.24-4.588,10.24-10.24C171.52,252.908,166.938,248.32,161.28,248.32z"/>
<path style="fill:#F2F1EF;" d="M284.191,225.198c-16.676,0-28.114,13.389-28.114,30.802c0,17.326,11.525,30.802,28.114,30.802
	c16.748,0,28.109-13.476,28.109-30.802C312.3,239.012,300.611,225.198,284.191,225.198L284.191,225.198z M284.191,275.251
	c-10.378,0-15.37-9.042-15.37-19.251c0-10.127,5.151-19.251,15.37-19.251c10.209,0,15.36,9.124,15.36,19.251
	C299.551,266.209,294.564,275.251,284.191,275.251z M367.483,225.208c-3.625,0-6.323,2.386-6.323,6.636v32.148h-0.169
	l-26.732-35.973c-1.096-1.536-3.712-2.811-5.309-2.811c-3.63,0-6.323,2.386-6.323,6.636v48.312c0,4.255,2.693,6.636,6.323,6.636
	c3.625,0,6.318-2.381,6.318-6.636v-31.724h0.169l26.732,35.553c1.183,1.531,3.717,2.806,5.315,2.806
	c3.625,0,6.323-2.381,6.323-6.636v-48.312C373.811,227.594,371.108,225.208,367.483,225.208z"/>
<path style="fill:#FFFFFF;" d="M133.12,245.76c-5.652,0-10.24,4.588-10.24,10.24c0,5.652,4.588,10.24,10.24,10.24
	s10.24-4.588,10.24-10.24C143.36,250.348,138.772,245.76,133.12,245.76z M163.84,245.76c-5.652,0-10.24,4.588-10.24,10.24
	c0,5.652,4.588,10.24,10.24,10.24s10.24-4.588,10.24-10.24C174.08,250.348,169.492,245.76,163.84,245.76z"/>
<path style="fill:#369D8B;" d="M158.72,312.32c-33.93,0-61.44-27.51-61.44-61.44c0-22.026,11.628-41.288,29.046-52.137
	C103.357,207.642,87.04,229.888,87.04,256c0,33.93,27.51,61.44,61.44,61.44c11.904,0,22.979-3.441,32.394-9.303
	C173.993,310.799,166.538,312.32,158.72,312.32z"/>
<g>
</g>
<g>
</g>
<g>
</g>
<g>
</g>
<g>
</g>
<g>
</g>
<g>
</g>
<g>
</g>
<g>
</g>
<g>
</g>
<g>
</g>
<g>
</g>
<g>
</g>
<g>
</g>
<g>
</g>
</svg>
