<?xml version="1.0" encoding="iso-8859-1"?>
<!-- Generator: Adobe Illustrator 19.0.0, SVG Export Plug-In . SVG Version: 6.00 Build 0)  -->
<svg version="1.1" id="Layer_1" xmlns="http://www.w3.org/2000/svg" xmlns:xlink="http://www.w3.org/1999/xlink" x="0px" y="0px"
	 viewBox="0 0 512.129 512.129" style="enable-background:new 0 0 512.129 512.129;" xml:space="preserve">
<path style="fill:#2EA9D3;" d="M256,0.089C114.616,0.089,0,114.701,0,256.084c0,141.389,114.616,256.005,256,256.005
	s256-114.621,256-256.005C512,114.706,397.389,0.089,256,0.089L256,0.089z"/>
<path style="fill:#2998BD;" d="M263.347,248.962c-4.06-4.06-10.65-4.06-14.71,0c-4.065,4.06-4.065,10.639,0,14.705l180.797,180.669
	c5.1-4.7,10.004-9.605,14.71-14.7L263.347,248.962L263.347,248.962z"/>
<path style="fill:#4ABEE5;" d="M256,153.689c-56.556,0-102.4,45.844-102.4,102.4s45.844,102.4,102.4,102.4s102.4-45.845,102.4-102.4
	S312.556,153.689,256,153.689z M256,307.284c-28.273,0-51.2-22.922-51.2-51.2c0-28.273,22.927-51.2,51.2-51.2s51.2,22.927,51.2,51.2
	C307.2,284.362,284.278,307.284,256,307.284z M256,51.284c-113.111,0-204.8,91.694-204.8,204.8s91.689,204.8,204.8,204.8
	s204.8-91.694,204.8-204.8S369.111,51.284,256,51.284z M256,409.689c-84.828,0-153.6-68.772-153.6-153.6s68.772-153.6,153.6-153.6
	s153.6,68.772,153.6,153.6S340.833,409.689,256,409.689z"/>
<path style="fill:#EFC75E;" d="M462.725,49.344c20.332,20.291,64.512,9.098,44.18,29.399l-54.595,54.446
	c-20.127,20.127-53.299,20.285-73.631,0c-20.337-20.291-20.337-53.192,0-73.487L433.27,5.255
	C453.606-15.04,442.394,29.053,462.725,49.344z"/>
<g>
	<path style="fill:#42ABCE;" d="M371.61,357.153c-4.572,5.228-9.487,10.132-14.715,14.694l36.301,36.275
		c5.151-4.649,10.061-9.549,14.715-14.694L371.61,357.153z M298.706,284.301c-3.866,5.842-8.893,10.824-14.761,14.653l36.608,36.582
		c5.391-4.383,10.337-9.293,14.735-14.674L298.706,284.301L298.706,284.301z"/>
</g>
<path style="fill:#E3BD59;" d="M462.725,49.344c-5.612-5.596-8.817-13.01-10.947-20.378l-85.181,85.187
	c2.514,6.938,6.508,13.471,12.083,19.036c5.658,5.647,12.329,9.651,19.42,12.14l85.053-85.059
	C475.766,58.14,468.337,54.945,462.725,49.344z"/>
<path style="fill:#EDEEEF;" d="M483.374,28.638c4.06,4.06,4.06,10.639,0,14.7L263.347,263.211c-4.06,4.06-10.65,4.06-14.71,0
	c-4.065-4.055-4.065-10.639,0-14.705L468.659,28.638C472.719,24.573,479.309,24.573,483.374,28.638L483.374,28.638z"/>
<g>
</g>
<g>
</g>
<g>
</g>
<g>
</g>
<g>
</g>
<g>
</g>
<g>
</g>
<g>
</g>
<g>
</g>
<g>
</g>
<g>
</g>
<g>
</g>
<g>
</g>
<g>
</g>
<g>
</g>
</svg>
