<?xml version="1.0" encoding="iso-8859-1"?>
<!-- Generator: Adobe Illustrator 19.0.0, SVG Export Plug-In . SVG Version: 6.00 Build 0)  -->
<svg version="1.1" id="Layer_1" xmlns="http://www.w3.org/2000/svg" xmlns:xlink="http://www.w3.org/1999/xlink" x="0px" y="0px"
	 viewBox="0 0 512.01 512.01" style="enable-background:new 0 0 512.01 512.01;" xml:space="preserve">
<path style="fill:#2EA9D3;" d="M256,0.003c141.389,0,256.01,114.621,256.01,256c0,141.384-114.621,256.005-256.01,256.005
	c-141.379,0-256-114.621-256-256.005C0,114.624,114.621,0.003,256,0.003z"/>
<path style="fill:#EFC75E;" d="M486.241,143.997C458.419,86.925,409.989,41.787,350.659,18.153
	c-1.597,7.363-2.488,14.976-2.488,22.81c0,59.29,48.23,107.52,107.52,107.52C466.309,148.483,476.539,146.88,486.241,143.997z"/>
<path style="fill:#FFFFFF;" d="M136.893,252.644h-27.08c12.575-15.124,35.517-34.637,35.517-54.287
	c0-17.956-14.648-29.404-32.85-29.404c-18.207,0-34.78,14.28-34.78,32.092c0,5.514,3.702,10.322,10.803,10.322
	c14.203,0,6.067-22.902,23.086-22.902c6.072,0,10.655,5.089,10.655,10.885c0,5.089-2.514,9.472-5.181,13.148
	c-11.244,15.549-24.566,28.268-36.844,42.266c-1.48,1.7-3.405,4.244-3.405,7.209c0,6.508,5.028,9.329,11.546,9.329h49.418
	c5.632,0,10.66-2.826,10.66-9.329C148.439,255.475,143.411,252.644,136.893,252.644L136.893,252.644z M214.81,215.59
	c7.107-4.316,11.162-12.114,11.162-19.912c0-16.43-14.638-26.732-31.462-26.732c-17.249,0-31.309,10.44-31.309,26.732
	c0,8.771,4.198,15.176,11.018,19.912c-9.139,4.736-15.514,12.943-15.514,24.09c0,18.657,15.805,31.739,35.804,31.739
	c19.43,0,35.809-12.39,35.809-31.739C230.318,228.959,224.671,220.326,214.81,215.59L214.81,215.59z M194.509,187.328
	c6.82,0,10.588,4.598,10.588,10.583c0,6.267-3.922,10.578-10.588,10.578s-10.435-4.316-10.435-10.578
	C184.074,191.926,187.699,187.328,194.509,187.328L194.509,187.328z M194.509,252.209c-8.842,0-13.189-6.82-13.189-13.921
	c0-7.793,4.787-13.921,13.189-13.921c7.982,0,13.199,5.151,13.199,13.921C207.708,245.389,202.778,252.209,194.509,252.209z
	 M263.69,168.952c-12.713,0-22.999,10.322-22.999,23.081c0,12.759,10.286,23.081,22.999,23.081
	c12.718,0,22.999-10.322,22.999-23.081C286.689,179.274,276.408,168.952,263.69,168.952z M263.69,199.636
	c-4.168,0-7.69-3.512-7.69-7.665c0-4.157,3.523-7.67,7.69-7.67s7.69,3.512,7.69,7.67S267.858,199.636,263.69,199.636z
	 M265.989,511.752c-2.222-38.615-29.189-70.528-65.172-79.611c-2.565-0.645-5.166-1.172-7.818-1.597
	c-2.55-0.384-5.135-0.666-7.767-0.819c-1.777-0.108-3.574-0.164-5.386-0.164h-0.312c0,0-23.506,0.246-40.289,14.612
	c0,0,9.16-18.959,31.37-26.46c-1.029-1.219-2.12-2.401-3.22-3.579c-4.429-4.726-9.262-9.073-14.438-12.974
	c-4.413-3.318-9.078-6.313-13.957-8.965c-7.009-3.799-14.454-6.851-22.267-9.068c-1.935-0.548-3.881-1.044-5.862-1.49
	c-1.93-0.44-3.881-0.824-5.842-1.157c-6.011-1.009-12.18-1.541-18.468-1.541c-7.332,0-14.479,0.712-21.407,2.079
	c-4.193,0.824-8.305,1.884-12.303,3.169c-5.13,1.643-10.097,3.661-14.868,6.006C83.072,463.276,163.83,512.008,256,512.008
	C259.348,512.008,262.671,511.885,265.989,511.752L265.989,511.752z"/>
<path style="fill:#47BFE8;" d="M250.88,476.879c0,13.245,4.649,25.395,12.37,34.944c136.218-3.794,245.791-113.951,248.622-250.414
	c-1.859-0.108-3.712-0.287-5.601-0.287c-32.681,0-61.691,15.708-79.918,39.997c-1.449,1.93,19.64,23.081,18.038,45.292
	c-14.94-26.419-43.259-44.288-75.781-44.288c-48.092,0-87.071,38.973-87.071,87.05c0,12.447,2.652,24.259,7.363,34.964
	C266.819,431.48,250.88,452.298,250.88,476.879L250.88,476.879z"/>
<path style="fill:#FBD77A;" d="M490.578,153.464c-2.801-6.4-5.821-12.682-9.119-18.796c-8.218,2.263-16.84,3.574-25.769,3.574
	c-53.642,0-97.28-43.638-97.28-97.28c0-6.42,0.66-12.682,1.848-18.76c-6.308-2.816-12.739-5.396-19.308-7.706
	c-1.951,8.509-3.021,17.362-3.021,26.465c0,65.039,52.721,117.76,117.76,117.76C467.84,158.723,479.549,156.879,490.578,153.464
	L490.578,153.464z"/>
<g>
</g>
<g>
</g>
<g>
</g>
<g>
</g>
<g>
</g>
<g>
</g>
<g>
</g>
<g>
</g>
<g>
</g>
<g>
</g>
<g>
</g>
<g>
</g>
<g>
</g>
<g>
</g>
<g>
</g>
</svg>
