<?xml version="1.0" encoding="iso-8859-1"?>
<!-- Generator: Adobe Illustrator 19.0.0, SVG Export Plug-In . SVG Version: 6.00 Build 0)  -->
<svg version="1.1" id="Layer_1" xmlns="http://www.w3.org/2000/svg" xmlns:xlink="http://www.w3.org/1999/xlink" x="0px" y="0px"
	 viewBox="0 0 512 512" style="enable-background:new 0 0 512 512;" xml:space="preserve">
<g>
	<path style="fill:#55ACEE;" d="M191.036,403.996c0.132,0.093,0.27,0.171,0.414,0.237
		C191.306,404.167,191.167,404.089,191.036,403.996z"/>
	<path style="fill:#55ACEE;" d="M195.346,403.919c0.171-0.069,0.343-0.144,0.515-0.222
		C195.689,403.775,195.517,403.85,195.346,403.919z"/>
	<path style="fill:#55ACEE;" d="M196.027,403.619c0.139-0.066,0.279-0.134,0.417-0.204
		C196.306,403.486,196.167,403.554,196.027,403.619z"/>
	<path style="fill:#55ACEE;" d="M194.141,404.319c0.168-0.043,0.339-0.094,0.51-0.149
		C194.48,404.225,194.309,404.277,194.141,404.319z"/>
	<path style="fill:#55ACEE;" d="M194.809,404.117c0.145-0.049,0.29-0.102,0.435-0.16
		C195.098,404.015,194.953,404.068,194.809,404.117z"/>
	<path style="fill:#55ACEE;" d="M196.566,403.354c0.176-0.091,0.35-0.185,0.524-0.283
		C196.916,403.169,196.741,403.263,196.566,403.354z"/>
	<path style="fill:#55ACEE;" d="M191.957,404.41c0.146,0.035,0.298,0.059,0.452,0.074
		C192.255,404.468,192.103,404.446,191.957,404.41z"/>
	<path style="fill:#55ACEE;" d="M193.01,404.498c0.157-0.008,0.316-0.026,0.478-0.05C193.326,404.472,193.166,404.49,193.01,404.498
		z"/>
	<path style="fill:#55ACEE;" d="M193.615,404.428c0.165-0.028,0.331-0.061,0.5-0.103
		C193.946,404.367,193.779,404.401,193.615,404.428z"/>
	<path style="fill:#55ACEE;" d="M191.484,404.25c0.147,0.065,0.3,0.118,0.458,0.157C191.784,404.367,191.631,404.315,191.484,404.25
		z"/>
	<path style="fill:#55ACEE;" d="M371.054,368.475c0.13-0.017,0.258-0.04,0.388-0.059
		C371.312,368.434,371.184,368.46,371.054,368.475z"/>
	<path style="fill:#55ACEE;" d="M368.643,368.63c0.58,0,1.15-0.036,1.716-0.087C369.792,368.59,369.223,368.629,368.643,368.63z"/>
	<path style="fill:#55ACEE;" d="M491.52,261.115h-35.794c0,0-0.072,8.238-0.041,20.372c0,11.883-13.051-0.128-12.79,0.082
		c-10.767-8.622-10.23-10.255-17.905-16.399c-2.714-2.714-12.605-4.055-15.473-4.055H389.12v87.04
		c0,8.017-4.618,14.937-11.329,18.298c-3.757,4.429-9.291,7.296-15.551,7.296H244.562c-2.658,0-11.368,1.166-14.771,3.504
		l-27.566,22.076c0.106-0.083-1.973,1.837-4.483,3.362c0.556-0.337,1.09-0.693,1.585-1.043l-3.507,2.806
		c0.261-0.205-12.79,11.797-12.79-0.082c0.031-12.129-0.041-30.618-0.041-30.618H136.96c-11.31,0-20.48-9.165-20.48-20.475V209.915
		H97.362c-2.867,0-12.764,1.341-15.478,4.055c-7.675,6.144-7.132,7.777-17.9,16.399c0.256-0.205-12.79,11.802-12.79-0.077
		c0.026-12.134-0.046-20.372-0.046-20.372H15.36c-3.902,0-7.536-1.111-10.64-3.005C1.635,222.803,0,239.209,0,256
		c0,141.379,114.616,256,256,256s256-114.621,256-256c0-4.043-0.105-8.062-0.291-12.059
		C510.125,253.675,501.702,261.115,491.52,261.115z"/>
	<path style="fill:#55ACEE;" d="M189.44,76.795v76.8h128v-25.6c0-11.31,9.17-20.48,20.48-20.48h126.639
		C418.142,42.436,342.028,0,256,0C195.372,0,139.677,21.09,95.82,56.315h73.14C180.27,56.315,189.44,65.485,189.44,76.795z"/>
	<path style="fill:#55ACEE;" d="M197.206,403.006c0.157-0.089,0.313-0.18,0.467-0.273
		C197.519,402.825,197.363,402.916,197.206,403.006z"/>
	<path style="fill:#55ACEE;" d="M192.986,404.5c-0.169,0.008-0.333,0.004-0.495-0.008
		C192.653,404.503,192.817,404.508,192.986,404.5z"/>
	<path style="fill:#55ACEE;" d="M143.36,368.635h46.029c0,0,0.072,18.488,0.041,30.618l0,0c0,2.599,0.627,4.051,1.601,4.741
		c-0.972-0.691-1.596-2.148-1.596-4.746c0.031-12.129-0.041-30.618-0.041-30.618H143.36c-11.31,0-20.48-9.165-20.48-20.475v0.005
		C122.88,359.47,132.05,368.635,143.36,368.635z"/>
</g>
<path style="fill:#4C9AD6;" d="M51.149,209.92c0,0,0.072,8.238,0.046,20.372c0,11.878,13.046-0.128,12.79,0.077
	c10.767-8.622,10.225-10.255,17.9-16.399c2.714-2.714,12.611-4.055,15.478-4.055h19.118V179.2v-0.005
	c0-7.87,4.487-14.623,11.002-18.049c3.755-4.607,9.471-7.551,15.878-7.551h46.08v-76.8c0-11.31-9.17-20.48-20.48-20.48H95.82
	c-46.27,37.164-79.344,90.07-91.1,150.6c3.104,1.894,6.738,3.005,10.64,3.005L51.149,209.92L51.149,209.92z"/>
<path style="fill:#B8D9F2;" d="M317.44,127.995v25.6h51.2c11.31,0,20.48,9.165,20.48,20.48v87.04h20.398
	c2.867,0,12.759,1.341,15.473,4.055c7.675,6.144,7.137,7.777,17.905,16.399c-0.261-0.21,12.79,11.802,12.79-0.082
	c-0.031-12.134,0.041-20.372,0.041-20.372h35.794c10.182,0,18.605-7.44,20.189-17.174c-2.353-50.733-19.464-97.608-47.15-136.426
	H337.92C326.61,107.515,317.44,116.685,317.44,127.995z"/>
<path style="fill:#FFFFFF;" d="M368.64,153.595h-51.2h-128h-46.08c-6.407,0-12.122,2.944-15.878,7.551
	c0.071-0.037,0.139-0.08,0.211-0.117c-0.002,0.003-0.004,0.006-0.007,0.009c0.002-0.001,0.004-0.003,0.007-0.004
	c-2.205,2.648-3.794,5.826-4.462,9.337c-0.029,0.156-0.047,0.316-0.072,0.474c-0.071,0.431-0.139,0.863-0.182,1.304
	c-0.058,0.617-0.093,1.24-0.094,1.871c0,0.02-0.003,0.04-0.003,0.061v35.835v138.24c0,11.31,9.17,20.475,20.48,20.475h46.034
	c0,0,0.072,18.488,0.041,30.618c0,2.598,0.624,4.054,1.596,4.746c0.002,0.001,0.003,0.002,0.005,0.003
	c0.132,0.093,0.27,0.171,0.414,0.237c0.012,0.005,0.023,0.011,0.034,0.016c0.147,0.065,0.3,0.118,0.458,0.157
	c0.005,0.001,0.01,0.002,0.015,0.003c0.146,0.036,0.298,0.058,0.452,0.074c0.027,0.003,0.055,0.006,0.083,0.008
	c0.161,0.012,0.326,0.016,0.495,0.008c0.008,0,0.016-0.002,0.023-0.002c0.156-0.008,0.317-0.026,0.478-0.05
	c0.042-0.006,0.084-0.013,0.127-0.02c0.165-0.028,0.331-0.061,0.5-0.103c0.009-0.002,0.018-0.004,0.026-0.006
	c0.168-0.042,0.339-0.094,0.51-0.149c0.053-0.017,0.105-0.035,0.158-0.053c0.145-0.049,0.29-0.102,0.435-0.16
	c0.034-0.013,0.068-0.025,0.102-0.039c0.171-0.069,0.343-0.144,0.515-0.222c0.055-0.025,0.111-0.051,0.166-0.077
	c0.139-0.066,0.279-0.134,0.417-0.204c0.04-0.021,0.081-0.04,0.121-0.061c0.176-0.091,0.35-0.185,0.524-0.283
	c0.039-0.022,0.077-0.044,0.116-0.066c0.157-0.089,0.313-0.18,0.467-0.273c0.023-0.014,0.046-0.027,0.069-0.041
	c2.51-1.525,4.589-3.445,4.483-3.362l27.566-22.076c-0.002,0.001-0.004,0.002-0.006,0.003l-0.639,0.512
	c0.183-0.177,0.4-0.347,0.639-0.512l5.704-4.567c2.714-2.714,12.605-4.06,15.473-4.06H368.64l0,0c0.001,0,0.002,0,0.003,0
	c0.579,0,1.149-0.039,1.716-0.087c0.232-0.021,0.465-0.039,0.695-0.068c0.131-0.015,0.258-0.041,0.388-0.059
	c2.298-0.339,4.466-1.074,6.466-2.095c-0.038,0.045-0.078,0.088-0.117,0.133c6.711-3.361,11.329-10.281,11.329-18.298v-87.04v-87.04
	C389.12,162.76,379.95,153.595,368.64,153.595z M231.004,317.399c-17.208,0-33.219-4.71-46.71-12.774
	c2.386,0.261,4.813,0.399,7.27,0.399c14.275,0,27.412-4.552,37.842-12.175c-13.333-0.23-24.581-8.448-28.462-19.748
	c1.859,0.343,3.768,0.522,5.729,0.522c2.78,0,5.473-0.353,8.028-1.004c-13.937-2.611-24.438-14.106-24.438-27.878v-0.358
	c4.106,2.135,8.806,3.41,13.798,3.558c-8.172-5.1-13.553-13.804-13.553-23.665c0-5.217,1.505-10.097,4.127-14.3
	c15.032,17.208,37.484,28.523,62.812,29.711c-0.517-2.084-0.788-4.25-0.788-6.482c0-15.703,13.64-28.431,30.469-28.431
	c8.76,0,16.681,3.451,22.241,8.98c6.938-1.28,13.46-3.645,19.348-6.907c-2.278,6.646-7.107,12.211-13.399,15.734
	c6.164-0.691,12.042-2.217,17.5-4.48c-4.081,5.704-9.252,10.711-15.206,14.72c0.061,1.213,0.087,2.447,0.087,3.676
	C317.701,274.068,287.053,317.399,231.004,317.399z"/>
<path style="fill:#55ACEE;" d="M317.701,236.498c0-1.229-0.026-2.463-0.087-3.676c5.955-4.009,11.126-9.016,15.206-14.72
	c-5.458,2.263-11.336,3.789-17.5,4.48c6.292-3.523,11.121-9.088,13.399-15.734c-5.888,3.261-12.411,5.627-19.348,6.907
	c-5.56-5.53-13.481-8.98-22.241-8.98c-16.829,0-30.469,12.728-30.469,28.431c0,2.232,0.271,4.398,0.788,6.482
	c-25.329-1.188-47.78-12.503-62.812-29.711c-2.621,4.203-4.127,9.083-4.127,14.3c0,9.861,5.381,18.565,13.553,23.665
	c-4.992-0.148-9.692-1.423-13.798-3.558v0.358c0,13.773,10.501,25.267,24.438,27.878c-2.555,0.65-5.248,1.004-8.028,1.004
	c-1.961,0-3.871-0.179-5.729-0.522c3.881,11.3,15.13,19.517,28.462,19.748c-10.429,7.624-23.567,12.175-37.842,12.175
	c-2.458,0-4.884-0.138-7.27-0.399c13.491,8.064,29.501,12.774,46.71,12.774C287.053,317.399,317.701,274.068,317.701,236.498z"/>
<g>
	<path style="fill:#4C9AD6;" d="M197.206,403.006c-0.039,0.022-0.077,0.044-0.116,0.066c-0.174,0.097-0.348,0.192-0.524,0.283
		c-0.04,0.021-0.081,0.04-0.121,0.061c-0.139,0.07-0.278,0.138-0.417,0.204c-0.055,0.026-0.111,0.052-0.166,0.077
		c-0.172,0.078-0.344,0.153-0.515,0.222c-0.034,0.014-0.068,0.026-0.102,0.039c-0.146,0.057-0.291,0.11-0.435,0.16
		c-0.053,0.018-0.105,0.036-0.158,0.053c-0.171,0.055-0.341,0.106-0.51,0.149c-0.009,0.002-0.018,0.004-0.026,0.006
		c-0.169,0.042-0.335,0.075-0.5,0.103c-0.042,0.007-0.085,0.014-0.127,0.02c-0.162,0.024-0.322,0.042-0.478,0.05
		c-0.008,0-0.016,0.002-0.023,0.002c-0.169,0.008-0.333,0.004-0.495-0.008c-0.028-0.002-0.055-0.005-0.083-0.008
		c-0.155-0.015-0.306-0.038-0.452-0.074c-0.005-0.001-0.01-0.002-0.015-0.003c-0.158-0.039-0.311-0.092-0.458-0.157
		c-0.012-0.005-0.023-0.011-0.034-0.016c-0.144-0.066-0.282-0.144-0.414-0.237c-0.002-0.001-0.003-0.002-0.005-0.003
		c-0.974-0.69-1.601-2.141-1.601-4.741l0,0c0.031-12.129-0.041-30.618-0.041-30.618h-46.03c-11.31,0-20.48-9.165-20.48-20.475
		v-0.005v-138.24h-6.4V353.28c0,11.31,9.17,20.475,20.48,20.475h46.029c0,0,0.072,18.488,0.041,30.618
		c0,11.878,13.051-0.123,12.79,0.082l3.507-2.806c-0.494,0.35-1.029,0.706-1.585,1.043c-0.023,0.014-0.046,0.027-0.069,0.041
		C197.518,402.825,197.363,402.916,197.206,403.006z"/>
	<path style="fill:#4C9AD6;" d="M122.88,174.075v0.005c0-0.02,0.003-0.04,0.003-0.061c0.002-0.631,0.037-1.254,0.094-1.871
		c0.043-0.44,0.11-0.872,0.182-1.304c0.025-0.158,0.044-0.317,0.072-0.474c0.668-3.511,2.256-6.689,4.462-9.337
		c-0.002,0.001-0.004,0.003-0.007,0.004C124.731,164.59,122.88,169.092,122.88,174.075z"/>
	<path style="fill:#4C9AD6;" d="M371.442,368.416c-0.129,0.019-0.257,0.043-0.388,0.059c-0.23,0.029-0.463,0.047-0.695,0.068
		c-0.565,0.051-1.136,0.086-1.716,0.087c-0.001,0-0.002,0-0.003,0l0,0H250.962c-2.867,0-12.759,1.347-15.473,4.06l-5.704,4.567
		c0.002-0.001,0.004-0.002,0.006-0.003c3.403-2.338,12.114-3.504,14.771-3.504H362.24c6.26,0,11.794-2.868,15.551-7.296
		c0.038-0.045,0.079-0.087,0.117-0.133C375.907,367.343,373.74,368.077,371.442,368.416z"/>
	<path style="fill:#4C9AD6;" d="M229.785,377.257c-0.24,0.165-0.456,0.335-0.639,0.512L229.785,377.257z"/>
</g>
<path style="fill:#448AC0;" d="M122.88,174.08v-0.005c0-4.983,1.851-9.485,4.806-13.037c0.002-0.003,0.004-0.006,0.007-0.009
	c-0.072,0.037-0.14,0.079-0.211,0.117c-6.515,3.426-11.002,10.179-11.002,18.049v0.005v30.715h6.4
	C122.88,209.915,122.88,174.08,122.88,174.08z"/>
<g>
</g>
<g>
</g>
<g>
</g>
<g>
</g>
<g>
</g>
<g>
</g>
<g>
</g>
<g>
</g>
<g>
</g>
<g>
</g>
<g>
</g>
<g>
</g>
<g>
</g>
<g>
</g>
<g>
</g>
</svg>
