<?xml version="1.0" encoding="iso-8859-1"?>
<!-- Generator: Adobe Illustrator 19.0.0, SVG Export Plug-In . SVG Version: 6.00 Build 0)  -->
<svg version="1.1" id="Layer_1" xmlns="http://www.w3.org/2000/svg" xmlns:xlink="http://www.w3.org/1999/xlink" x="0px" y="0px"
	 viewBox="0 0 512 512" style="enable-background:new 0 0 512 512;" xml:space="preserve">
<path style="fill:#324D5B;" d="M256,0.003c-141.384,0-256,114.616-256,256s114.616,255.995,256,255.995s256-114.611,256-255.995
	S397.384,0.003,256,0.003z"/>
<path style="fill:#E2574C;" d="M256,343.048c-16.963,0-30.72,13.752-30.72,30.72c0,16.963,13.757,30.72,30.72,30.72
	c16.968,0,30.72-13.757,30.72-30.72C286.72,356.8,272.968,343.048,256,343.048z M337.92,322.573
	c-16.963,0-30.72,13.747-30.72,30.715c0,16.963,13.757,30.72,30.72,30.72c16.968,0,30.72-13.757,30.72-30.72
	C368.64,336.32,354.888,322.573,337.92,322.573z M174.08,322.573c-16.963,0-30.72,13.747-30.72,30.715
	c0,16.963,13.752,30.72,30.72,30.72s30.72-13.757,30.72-30.72C204.8,336.32,191.048,322.573,174.08,322.573z"/>
<path style="fill:#E4E7E7;" d="M161.812,244.109c51.932-32,136.125-32,188.058,0s51.932,83.886,0,115.886
	c-51.932,31.995-136.125,31.995-188.058,0C109.88,327.995,109.88,276.109,161.812,244.109L161.812,244.109z"/>
<path style="fill:#CDCFCF;" d="M177.172,349.755c-47.78-29.445-51.558-75.709-11.412-107.843c-1.306,0.742-2.678,1.418-3.948,2.196
	c-51.932,32-51.932,83.886,0,115.886c51.932,31.995,136.125,31.995,188.058,0c4.152-2.555,7.931-5.253,11.413-8.043
	C309.125,381.637,227.835,380.966,177.172,349.755L177.172,349.755z"/>
<path style="fill:#E2574C;" d="M140.134,187.19c63.995-37.99,167.741-37.99,231.736,0c63.99,37.996,63.99,99.589,0,137.579
	c-63.995,37.996-167.747,37.996-231.736,0C76.145,286.779,76.145,225.18,140.134,187.19L140.134,187.19z"/>
<path style="fill:#E4E7E7;" d="M256,107.528c56.556,0,102.4,45.844,102.4,102.395c0,56.561-45.844,81.925-102.4,81.925
	c-56.55,0-102.4-25.364-102.4-81.925C153.6,153.372,199.45,107.528,256,107.528z"/>
<path style="fill:#3DB39E;" d="M256,291.848c23.086,0,44.314-4.306,61.44-13.153v-68.772c0-33.93-27.505-61.435-61.44-61.435
	c-33.93,0-61.44,27.505-61.44,61.435v68.772C211.692,287.542,232.914,291.848,256,291.848z"/>
<path style="fill:#CDCFCF;" d="M163.84,209.923c0-54.825,43.121-99.451,97.28-102.139c-1.71-0.082-3.395-0.256-5.12-0.256
	c-56.55,0-102.4,45.844-102.4,102.395c0,56.561,45.85,81.925,102.4,81.925c1.725,0,3.41-0.102,5.12-0.143
	C206.961,290.194,163.84,264.753,163.84,209.923z"/>
<path style="fill:#37A18E;" d="M204.8,209.923c0-32.205,24.791-58.568,56.32-61.179c-1.69-0.138-3.389-0.256-5.12-0.256
	c-33.93,0-61.44,27.505-61.44,61.435v68.772l0.02,0.01l0.174,0.082c1.644,0.84,3.333,1.628,5.059,2.381
	c1.475,0.65,2.985,1.249,4.511,1.838l0.476,0.195v-0.01c5.335,2.033,10.936,3.743,16.814,5.053l1.925,0.435
	c1.761,0.364,3.558,0.676,5.361,0.973l3.907,0.599c1.516,0.215,3.046,0.404,4.588,0.573c1.812,0.195,3.64,0.348,5.484,0.486
	l3.594,0.266c3.139,0.164,6.303,0.271,9.518,0.271c1.725,0,3.41-0.102,5.12-0.143c-21.13-0.584-40.468-4.936-56.32-13.153v-68.628
	L204.8,209.923z"/>
<path style="fill:#CB4E44;" d="M382.111,314.529c-63.995,37.996-167.747,37.996-231.736,0
	c-51.579-30.623-61.553-76.575-29.978-113.152c-43.346,37.862-36.792,89.83,19.738,123.392c63.995,37.996,167.741,37.996,231.736,0
	c12.411-7.368,22.385-15.631,29.978-24.427C396.129,305.339,389.571,310.095,382.111,314.529z"/>
<path style="fill:#7A8B94;" d="M87.04,138.248c15.36-1.7,23.895-10.25,25.6-25.605c1.705,15.355,10.24,23.905,25.6,25.605
	c-15.36,1.705-23.895,10.245-25.6,25.6C110.935,148.493,102.4,139.953,87.04,138.248z"/>
<path style="fill:#EFC75E;" d="M404.48,87.058c27.648-3.082,43.008-18.452,46.085-46.085c3.077,27.633,18.437,43.003,46.085,46.085
	c-27.648,3.067-43.008,18.432-46.085,46.075C447.488,105.49,432.128,90.125,404.48,87.058z"/>
<path style="fill:#5B717C;" d="M445.44,296.968c-1.7,15.35-10.24,23.895-25.6,25.605c15.36,1.7,23.9,10.24,25.6,25.595
	c1.71-15.355,10.245-23.895,25.605-25.595C455.685,320.863,447.15,312.317,445.44,296.968z M81.92,332.808
	c-1.367,12.278-8.192,19.113-20.48,20.48c12.288,1.367,19.113,8.197,20.48,20.48c1.367-12.283,8.192-19.113,20.48-20.48
	C90.117,351.921,83.287,345.085,81.92,332.808z"/>
<path style="fill:#FFFFFF;" d="M256,189.448c16.968,0,30.72,13.757,30.72,30.72s-13.752,30.72-30.72,30.72
	c-16.963,0-30.72-13.757-30.72-30.72S239.037,189.448,256,189.448z"/>
<path style="fill:#324D5B;" d="M256,204.808c8.484,0,15.36,6.886,15.36,15.36c0,8.494-6.876,15.36-15.36,15.36
	s-15.36-6.866-15.36-15.36C240.64,211.694,247.516,204.808,256,204.808z"/>
<g>
</g>
<g>
</g>
<g>
</g>
<g>
</g>
<g>
</g>
<g>
</g>
<g>
</g>
<g>
</g>
<g>
</g>
<g>
</g>
<g>
</g>
<g>
</g>
<g>
</g>
<g>
</g>
<g>
</g>
</svg>
