<?xml version="1.0" encoding="iso-8859-1"?>
<!-- Generator: Adobe Illustrator 19.0.0, SVG Export Plug-In . SVG Version: 6.00 Build 0)  -->
<svg version="1.1" id="Layer_1" xmlns="http://www.w3.org/2000/svg" xmlns:xlink="http://www.w3.org/1999/xlink" x="0px" y="0px"
	 viewBox="0 0 512 512" style="enable-background:new 0 0 512 512;" xml:space="preserve">
<path style="fill:#3DB39E;" d="M256,0c141.384,0,256,114.616,256,256S397.384,512,256,512S0,397.384,0,256S114.616,0,256,0z"/>
<path style="fill:#37A18E;" d="M427.668,66.104C383.8,76.508,338.826,81.92,293.591,81.92H68.367C25.964,127.601,0,188.754,0,256
	c0,77.891,34.831,147.604,89.718,194.56h203.873c38.467,0,76.733,3.942,114.309,11.484C471.035,415.421,512,340.506,512,256
	C512,180.669,479.457,112.952,427.668,66.104L427.668,66.104z"/>
<path style="fill:#F1C8AF;" d="M418.381,58.097c-40.914,8.996-82.749,13.583-124.79,13.583H78.444C30.116,118.246,0,183.588,0,256
	c0,72.417,30.116,137.754,78.444,184.32h215.148c42.04,0,83.876,4.588,124.79,13.583C475.535,406.953,512,335.739,512,256
	S475.535,105.047,418.381,58.097z"/>
<path style="fill:#F5D9C8;" d="M293.591,96.179c49.285,0,98.294-6.308,145.864-18.647c-6.666-6.851-13.681-13.363-21.074-19.436
	c-40.914,8.996-82.749,13.583-124.79,13.583H78.444c-7.967,7.675-15.437,15.857-22.359,24.499H293.591L293.591,96.179z"/>
<path style="fill:#324D5B;" d="M174.08,440.207h119.511c11.387,0,22.743,0.456,34.089,1.121V70.543
	c-11.346,0.66-22.707,1.116-34.089,1.116H174.08V440.207L174.08,440.207z"/>
<path style="fill:#CDAA95;" d="M245.76,404.48c-82.007,0-148.48-66.473-148.48-148.48c0-38.395,14.577-73.385,38.497-99.743
	C105.841,183.419,87.04,222.633,87.04,266.24c0,82.007,66.473,148.48,148.48,148.48c43.612,0,82.821-18.801,109.983-48.737
	C319.15,389.903,284.155,404.48,245.76,404.48z"/>
<path style="fill:#2B424E;" d="M174.08,386.038v15.365c18.729,8.525,39.521,13.317,61.44,13.317
	c34.831,0,66.836-12.022,92.16-32.102v-2.811c-23.485,15.575-51.635,24.673-81.92,24.673
	C219.761,404.48,195.333,397.778,174.08,386.038z"/>
<path style="fill:#D9D9D9;" d="M389.12,230.4h15.36c2.831,0,5.12,2.294,5.12,5.12v40.96c0,2.831-2.289,5.12-5.12,5.12h-15.36V230.4z
	"/>
<path style="fill:#DADFE1;" d="M245.76,107.52c82.007,0,148.48,66.478,148.48,148.48c0,82.007-66.473,148.48-148.48,148.48
	S97.28,338.007,97.28,256C97.28,173.998,163.753,107.52,245.76,107.52z"/>
<path style="fill:#324D5B;" d="M245.76,128c70.692,0,128,57.308,128,128s-57.308,128-128,128s-128-57.308-128-128
	S175.068,128,245.76,128z"/>
<path style="fill:#425B68;" d="M333.665,163.005C310.728,141.322,279.808,128,245.76,128c-70.692,0-128,57.308-128,128
	c0,34.048,13.322,64.968,35.005,87.905C152.765,343.905,333.665,163.005,333.665,163.005z"/>
<path style="fill:#B4615E;" d="M224.517,168.172c7.598-7.148,15.135-4.024,21.171,1.075c6.036-5.1,13.512-8.279,21.171-1.075
	c5.97,5.617,6.006,14.633,0,20.219c-10.071,8.52-15.334,12.964-18.084,15.283c-1.725,1.454-4.332,1.459-6.062,0.01
	c-2.77-2.314-8.069-6.764-18.196-15.293C218.511,182.805,218.542,173.783,224.517,168.172L224.517,168.172z"/>
<path style="fill:#5B717C;" d="M220.16,225.28h51.2c2.831,0,5.12,2.294,5.12,5.12v10.24c0,2.831-2.289,5.12-5.12,5.12h-51.2
	c-2.831,0-5.12-2.289-5.12-5.12V230.4C215.04,227.574,217.329,225.28,220.16,225.28z"/>
<path style="fill:#687C86;" d="M271.36,225.28h-51.2c-2.831,0-5.12,2.294-5.12,5.12v10.24c0,2.831,2.289,5.12,5.12,5.12h30.751
	l20.475-20.475L271.36,225.28z"/>
<path style="fill:#38807D;" d="M358.067,317.44c1.818-3.323,3.487-6.743,5.012-10.24h-77.747l-8.852-28.672h-6.825l-13.783,52.106
	l-16.937-59.274h-6.83l-14.162,53.53l-6.318-17.69H128.44c1.526,3.497,3.19,6.917,5.012,10.24h74.793l6.794,18.432h6.825
	l13.783-51.942l16.778,59.11h7.148l13.947-51.466l8.079,25.667v0.2H358.067L358.067,317.44z"/>
<path style="fill:#488A87;" d="M179.231,317.44l10.24-10.24h-61l0.215,0.497c1.331,3.011,2.775,5.949,4.326,8.837l0.502,0.911
	h45.716V317.44z"/>
<path style="fill:#516873;" d="M174.08,71.68v24.499h119.511c11.387,0,22.743-0.456,34.089-1.126V70.554
	c-5.197,0.307-10.388,0.563-15.59,0.727c-4.173,0.154-8.356,0.215-12.534,0.271l-5.965,0.128L174.08,71.68L174.08,71.68z"/>
<path style="fill:#2B424D;" d="M245.76,128c-36.649,0-69.673,15.427-93.01,40.11c22.932-21.673,53.847-34.99,87.89-34.99
	c70.692,0,128,57.308,128,128c0,34.038-13.317,64.963-34.99,87.89c24.684-23.337,40.11-56.361,40.11-93.01
	C373.76,185.308,316.452,128,245.76,128z"/>
<path style="fill:#384D59;" d="M237.051,128.328c-1.551,0.108-3.108,0.21-4.649,0.369l-2.237,0.287
	c-1.444,0.174-2.888,0.343-4.316,0.568l-2.207,0.394l-4.25,0.788l-2.079,0.481c-1.434,0.323-2.867,0.65-4.28,1.024l-1.889,0.538
	c-1.464,0.41-2.918,0.829-4.362,1.285l-1.679,0.568c-1.495,0.502-2.98,1.014-4.449,1.567l-1.459,0.573
	c-1.526,0.599-3.041,1.208-4.536,1.864l-1.254,0.563c-1.551,0.696-3.092,1.413-4.603,2.171l-1.039,0.532
	c-1.577,0.804-3.133,1.633-4.675,2.499l-0.819,0.471c-1.592,0.911-3.169,1.853-4.721,2.836l-0.63,0.404
	c-1.603,1.029-3.19,2.084-4.746,3.185l-0.43,0.307c-1.608,1.147-3.195,2.319-4.741,3.533l-0.282,0.22
	c-1.597,1.26-3.159,2.55-4.695,3.876l-0.143,0.128c-1.572,1.367-3.108,2.77-4.613,4.209l-0.041,0.041
	c-1.526,1.464-3.016,2.964-4.47,4.5c22.927-21.673,53.842-34.99,87.885-34.99c34.048,0,64.968,13.322,87.905,35.005l5.12-5.12
	l-0.026-0.02c-1.403-1.331-2.842-2.627-4.306-3.891l-0.113-0.102c-1.444-1.239-2.908-2.447-4.403-3.625l-0.23-0.179
	c-1.464-1.152-2.954-2.263-4.475-3.348l-0.338-0.246c-1.48-1.05-2.98-2.068-4.5-3.057l-0.538-0.343
	c-1.469-0.942-2.964-1.859-4.475-2.744l-0.742-0.425c-1.454-0.84-2.929-1.654-4.424-2.442l-0.978-0.502
	c-1.434-0.737-2.877-1.454-4.352-2.14l-1.219-0.548c-1.403-0.64-2.826-1.265-4.255-1.848l-1.49-0.589
	c-1.367-0.538-2.739-1.07-4.132-1.567l-1.787-0.609l-3.973-1.29l-2.115-0.604l-3.768-1.029l-2.488-0.573l-3.533-0.788l-2.857-0.512
	l-3.297-0.568l-3.307-0.42l-2.949-0.358l-3.999-0.307l-2.371-0.174c-2.145-0.097-4.301-0.154-6.467-0.154
	c-2.253,0-4.49,0.061-6.717,0.179L237.051,128.328L237.051,128.328z"/>
<g>
</g>
<g>
</g>
<g>
</g>
<g>
</g>
<g>
</g>
<g>
</g>
<g>
</g>
<g>
</g>
<g>
</g>
<g>
</g>
<g>
</g>
<g>
</g>
<g>
</g>
<g>
</g>
<g>
</g>
</svg>
