<?xml version="1.0" encoding="iso-8859-1"?>
<!-- Generator: Adobe Illustrator 19.0.0, SVG Export Plug-In . SVG Version: 6.00 Build 0)  -->
<svg version="1.1" id="Layer_1" xmlns="http://www.w3.org/2000/svg" xmlns:xlink="http://www.w3.org/1999/xlink" x="0px" y="0px"
	 viewBox="0 0 512 512" style="enable-background:new 0 0 512 512;" xml:space="preserve">
<path style="fill:#2EA9D3;" d="M256,0c141.384,0,256,114.616,256,256c0,141.389-114.616,256-256,256S0,397.389,0,256
	C0,114.616,114.616,0,256,0z"/>
<path style="fill:#2587A9;" d="M496.799,343.04H15.201C50.821,441.574,145.178,512,256,512
	C366.827,512,461.174,441.574,496.799,343.04z"/>
<path style="fill:#FFFFFF;" d="M343.04,416.881c0-27.592-38.968-49.951-87.04-49.951s-87.04,22.359-87.04,49.951h0.015l-0.015,0.092
	c0,14.909,38.968,26.988,87.04,26.988s87.04-12.078,87.04-26.987l-0.015-0.092L343.04,416.881L343.04,416.881z"/>
<path style="fill:#F0F0F0;" d="M289.864,370.852c-10.409-1.423-21.852-2.212-33.864-2.212s-23.455,0.788-33.864,2.212
	c-24.53,5.949-43.218,18.196-50.166,33.188c9.887,12.042,43.709,20.92,84.029,20.92s74.138-8.878,84.029-20.92
	C333.087,389.043,314.394,376.801,289.864,370.852L289.864,370.852z"/>
<path style="fill:#C0C0C0;" d="M256,366.93c-24.141,0-45.972,5.647-61.747,14.756c9.836,10.353,33.751,17.674,61.747,17.674
	s51.912-7.322,61.747-17.674C301.972,372.577,280.141,366.93,256,366.93z"/>
<path style="fill:#F0F0F0;" d="M256,92.16c79.176,0,143.36,64.184,143.36,143.36c0,79.181-64.184,143.36-143.36,143.36
	s-143.36-64.179-143.36-143.36C112.64,156.349,176.824,92.16,256,92.16z"/>
<path style="fill:#E6877F;" d="M256,107.52c5.652,0,10.24,4.588,10.24,10.24S261.652,128,256,128c-5.652,0-10.24-4.588-10.24-10.24
	S250.348,107.52,256,107.52z"/>
<path style="fill:#D8D8D8;" d="M399.247,231.06c-0.108-3.548-0.312-7.071-0.671-10.552C357.77,229.919,308.475,235.52,256,235.52
	s-101.77-5.601-142.577-15.012c-0.358,3.482-0.563,6.999-0.671,10.552c40.888,9.318,89.948,14.7,143.247,14.7
	S358.354,240.379,399.247,231.06z"/>
<path style="fill:#2B414D;" d="M256,148.485c-48.072,0-87.04,38.963-87.04,87.04c0,48.072,38.968,87.04,87.04,87.04
	s87.04-38.968,87.04-87.04S304.072,148.485,256,148.485z"/>
<path style="fill:#475F6C;" d="M256,168.899c-36.797,0-66.627,29.834-66.627,66.632s29.829,66.627,66.627,66.627
	s66.627-29.829,66.627-66.627S292.797,168.899,256,168.899z"/>
<path style="fill:#2B414D;" d="M256,184.351c-28.268,0-51.174,22.917-51.174,51.18c0,28.262,22.912,51.169,51.174,51.169
	s51.174-22.912,51.174-51.169C307.174,207.263,284.268,184.351,256,184.351L256,184.351z"/>
<path style="fill:#1E2D36;" d="M256,209.859c-14.182,0-25.672,11.494-25.672,25.672c0,14.177,11.489,25.672,25.672,25.672
	c14.177,0,25.672-11.489,25.672-25.672S270.177,209.859,256,209.859z"/>
<path style="fill:#566268;" d="M245.801,215.127c5.637,0,10.199,4.567,10.199,10.199c0,5.632-4.567,10.204-10.199,10.204
	c-5.632,0-10.204-4.572-10.204-10.204C235.597,219.694,240.164,215.127,245.801,215.127z"/>
<path style="fill:#D8D8D8;" d="M256,358.4c-75.725,0-137.702-58.726-142.956-133.12c-0.241,3.389-0.404,6.794-0.404,10.24
	c0,79.181,64.184,143.36,143.36,143.36s143.36-64.179,143.36-143.36c0-3.446-0.164-6.851-0.404-10.24
	C393.702,299.674,331.73,358.4,256,358.4z"/>
<path style="fill:#BC6E68;" d="M256,122.88c-4.767,0-8.735-3.272-9.876-7.68c-0.215,0.824-0.364,1.674-0.364,2.56
	c0,5.652,4.588,10.24,10.24,10.24c5.652,0,10.24-4.588,10.24-10.24c0-0.891-0.148-1.736-0.358-2.56
	C264.735,119.613,260.767,122.88,256,122.88z"/>
<g>
</g>
<g>
</g>
<g>
</g>
<g>
</g>
<g>
</g>
<g>
</g>
<g>
</g>
<g>
</g>
<g>
</g>
<g>
</g>
<g>
</g>
<g>
</g>
<g>
</g>
<g>
</g>
<g>
</g>
</svg>
